<svg width="24.000000" height="24.000000" viewBox="0 0 24 24" fill="none" xmlns="http://www.w3.org/2000/svg" xmlns:xlink="http://www.w3.org/1999/xlink">
	<desc>
			Created with Pixso.
	</desc>
	<defs>
		<clipPath id="clip1_58">
			<rect id="Icons-facebook" width="14.000000" height="14.000000" transform="translate(5.000000 5.000000)" fill="white" fill-opacity="0"/>
		</clipPath>
	</defs>
	<circle id="Ellipse 9" cx="12.000000" cy="12.000000" r="12.000000" fill="#FFB400" fill-opacity="1.000000"/>
	<rect id="Icons-facebook" width="14.000000" height="14.000000" transform="translate(5.000000 5.000000)" fill="#FFFFFF" fill-opacity="0"/>
	<rect id="Icons-facebook" width="14.000000" height="14.000000" transform="translate(5.000000 5.000000)" fill="#FFFFFF" fill-opacity="0"/>
	<rect id="Icons-facebook" width="14.000000" height="14.000000" transform="translate(5.000000 5.000000)" fill="#FFFFFF" fill-opacity="0"/>
	<g clip-path="url(#clip1_58)">
		<path id="Vector" d="M13.1667 12.875L14.625 12.875L15.2084 10.5415L13.1667 10.5415L13.1667 9.375C13.1667 8.77393 13.1667 8.20801 14.3334 8.20801L15.2084 8.20801L15.2084 6.24805C15.0182 6.22314 14.3002 6.1665 13.5417 6.1665C11.958 6.1665 10.8334 7.1333 10.8334 8.9082L10.8334 10.5415L9.08337 10.5415L9.08337 12.875L10.8334 12.875L10.8334 17.833L13.1667 17.833L13.1667 12.875Z" fill="#2B2B2B" fill-opacity="1.000000" fill-rule="nonzero"/>
	</g>
</svg>
