<svg width="24.000000" height="24.000000" viewBox="0 0 24 24" fill="none" xmlns="http://www.w3.org/2000/svg" xmlns:xlink="http://www.w3.org/1999/xlink">
	<desc>
			Created with Pixso.
	</desc>
	<defs>
		<clipPath id="clip1_65">
			<rect id="Icons-instagram" width="14.000000" height="14.000000" transform="translate(5.000000 5.000000)" fill="white" fill-opacity="0"/>
		</clipPath>
	</defs>
	<circle id="Ellipse 9" cx="12.000000" cy="12.000000" r="12.000000" fill="#FFB400" fill-opacity="1.000000"/>
	<rect id="Icons-instagram" width="14.000000" height="14.000000" transform="translate(5.000000 5.000000)" fill="#FFFFFF" fill-opacity="0"/>
	<rect id="Icons-instagram" width="14.000000" height="14.000000" transform="translate(5.000000 5.000000)" fill="#FFFFFF" fill-opacity="0"/>
	<rect id="Icons-instagram" width="14.000000" height="14.000000" transform="translate(5.000000 5.000000)" fill="#FFFFFF" fill-opacity="0"/>
	<g clip-path="url(#clip1_65)">
		<path id="Vector" d="M12 6.1665C13.5848 6.1665 13.7826 6.17236 14.4044 6.20166C15.0258 6.23047 15.4486 6.32812 15.8208 6.47266C16.2058 6.62109 16.5302 6.82178 16.8545 7.14551C17.1511 7.43701 17.3806 7.78955 17.5271 8.1792C17.6711 8.55078 17.7692 8.97412 17.7983 9.59521C17.8257 10.2173 17.8333 10.415 17.8333 12C17.8333 13.585 17.8275 13.7827 17.7983 14.4043C17.7692 15.0254 17.6711 15.4487 17.5271 15.8208C17.381 16.2104 17.1515 16.563 16.8545 16.8545C16.5627 17.1509 16.2101 17.3804 15.8208 17.5269C15.4492 17.6709 15.0258 17.769 14.4044 17.7983C13.7826 17.8257 13.5848 17.833 12 17.833C10.415 17.833 10.2173 17.8271 9.59546 17.7983C8.97424 17.769 8.55127 17.6709 8.17908 17.5269C7.78967 17.3809 7.43689 17.1514 7.14551 16.8545C6.84875 16.563 6.61926 16.21 6.4729 15.8208C6.32825 15.4492 6.23083 15.0254 6.20166 14.4043C6.17419 13.7827 6.16663 13.585 6.16663 12C6.16663 10.415 6.17249 10.2173 6.20166 9.59521C6.23083 8.97363 6.32825 8.55127 6.4729 8.1792C6.6189 7.78955 6.84839 7.43652 7.14551 7.14551C7.43689 6.84863 7.78967 6.61914 8.17908 6.47266C8.55127 6.32812 8.97363 6.23047 9.59546 6.20166C10.2173 6.17432 10.415 6.1665 12 6.1665ZM12 9.08301C11.2264 9.08301 10.4845 9.39062 9.93762 9.9375C9.39062 10.4844 9.08325 11.2261 9.08325 12C9.08325 12.7734 9.39062 13.5151 9.93762 14.062C10.4845 14.6094 11.2264 14.9165 12 14.9165C12.7736 14.9165 13.5154 14.6094 14.0624 14.062C14.6094 13.5151 14.9166 12.7734 14.9166 12C14.9166 11.2261 14.6094 10.4844 14.0624 9.9375C13.5154 9.39062 12.7736 9.08301 12 9.08301ZM15.7916 8.9375C15.7916 8.74414 15.7148 8.55859 15.578 8.42188C15.4413 8.28516 15.2559 8.20801 15.0625 8.20801C14.869 8.20801 14.6836 8.28516 14.5469 8.42188C14.4102 8.55859 14.3333 8.74414 14.3333 8.9375C14.3333 9.13086 14.4102 9.31641 14.5469 9.45312C14.6836 9.58984 14.869 9.6665 15.0625 9.6665C15.2559 9.6665 15.4413 9.58984 15.578 9.45312C15.7148 9.31641 15.7916 9.13086 15.7916 8.9375ZM12 10.25C12.4641 10.25 12.9092 10.4341 13.2374 10.7622C13.5656 11.0908 13.75 11.5356 13.75 12C13.75 12.4639 13.5656 12.9092 13.2374 13.2373C12.9092 13.5654 12.4641 13.75 12 13.75C11.5359 13.75 11.0907 13.5654 10.7626 13.2373C10.4343 12.9092 10.25 12.4639 10.25 12C10.25 11.5356 10.4343 11.0908 10.7626 10.7622C11.0907 10.4341 11.5359 10.25 12 10.25Z" fill="#2B2B2B" fill-opacity="1.000000" fill-rule="nonzero"/>
	</g>
</svg>
