<svg width="24.000000" height="24.000000" viewBox="0 0 24 24" fill="none" xmlns="http://www.w3.org/2000/svg" xmlns:xlink="http://www.w3.org/1999/xlink">
	<desc>
			Created with Pixso.
	</desc>
	<defs>
		<clipPath id="clip1_79">
			<rect id="Icons-linkedin" width="14.000000" height="14.000000" transform="translate(5.000000 5.000000)" fill="white" fill-opacity="0"/>
		</clipPath>
	</defs>
	<circle id="Ellipse 18" cx="12.000000" cy="12.000000" r="12.000000" fill="#FFB400" fill-opacity="1.000000"/>
	<rect id="Icons-linkedin" width="14.000000" height="14.000000" transform="translate(5.000000 5.000000)" fill="#FFFFFF" fill-opacity="0"/>
	<rect id="Icons-linkedin" width="14.000000" height="14.000000" transform="translate(5.000000 5.000000)" fill="#FFFFFF" fill-opacity="0"/>
	<rect id="Icons-linkedin" width="14.000000" height="14.000000" transform="translate(5.000000 5.000000)" fill="#FFFFFF" fill-opacity="0"/>
	<g clip-path="url(#clip1_79)">
		<path id="Vector" d="M9.04834 7.91699C9.0481 8.22607 8.92505 8.52295 8.70618 8.7417C8.4873 8.96045 8.19043 9.08301 7.8811 9.08301C7.57166 9.08252 7.2749 8.95947 7.05627 8.74072C6.83752 8.52197 6.71484 8.2251 6.71497 7.91553C6.71509 7.60596 6.83813 7.30957 7.05713 7.09082C7.276 6.87207 7.57275 6.74951 7.8822 6.74951C8.19165 6.74951 8.48828 6.87256 8.70703 7.0918C8.92566 7.31055 9.04846 7.60742 9.04834 7.91699ZM9.08325 9.94678L6.75 9.94678L6.75 17.25L9.08325 17.25L9.08325 9.94678ZM12.77 9.94678L10.4482 9.94678L10.4482 17.25L12.7466 17.25L12.7466 13.4175C12.7466 11.2827 15.5292 11.0845 15.5292 13.4175L15.5292 17.25L17.8333 17.25L17.8333 12.624C17.8333 9.0249 13.715 9.15918 12.7466 10.9268L12.77 9.94678Z" fill="#2B2B2B" fill-opacity="1.000000" fill-rule="nonzero"/>
	</g>
</svg>
