<svg width="24.000000" height="24.000000" viewBox="0 0 24 24" fill="none" xmlns="http://www.w3.org/2000/svg" xmlns:xlink="http://www.w3.org/1999/xlink">
	<desc>
			Created with Pixso.
	</desc>
	<defs>
		<clipPath id="clip1_72">
			<rect id="Icons-twitter" width="14.000000" height="14.000000" transform="translate(5.000000 5.000000)" fill="white" fill-opacity="0"/>
		</clipPath>
	</defs>
	<circle id="Ellipse 9" cx="12.000000" cy="12.000000" r="12.000000" fill="#FFB400" fill-opacity="1.000000"/>
	<rect id="Icons-twitter" width="14.000000" height="14.000000" transform="translate(5.000000 5.000000)" fill="#FFFFFF" fill-opacity="0"/>
	<rect id="Icons-twitter" width="14.000000" height="14.000000" transform="translate(5.000000 5.000000)" fill="#FFFFFF" fill-opacity="0"/>
	<rect id="Icons-twitter" width="14.000000" height="14.000000" transform="translate(5.000000 5.000000)" fill="#FFFFFF" fill-opacity="0"/>
	<g clip-path="url(#clip1_72)">
		<path id="Vector" d="M17.9279 8.29932C17.4824 8.49658 17.0103 8.62598 16.5266 8.68359C17.0364 8.37842 17.4178 7.89893 17.6 7.3335C17.1216 7.61816 16.5972 7.81787 16.0507 7.92578C15.6835 7.53271 15.1969 7.27246 14.6664 7.18457C14.1359 7.09668 13.5913 7.18701 13.1172 7.44043C12.6432 7.69434 12.2662 8.09766 12.0449 8.5874C11.8237 9.07764 11.7706 9.62695 11.8938 10.1504C10.9238 10.1021 9.97485 9.84961 9.10852 9.41064C8.24231 8.97119 7.47803 8.35498 6.86548 7.60107C6.64868 7.97363 6.53467 8.39697 6.53528 8.82812C6.53528 9.67383 6.96582 10.4209 7.62036 10.8584C7.23303 10.8462 6.85413 10.7417 6.5155 10.5537L6.5155 10.584C6.51562 11.147 6.71057 11.6934 7.06726 12.1294C7.42395 12.5649 7.92041 12.8643 8.47253 12.9761C8.11304 13.0737 7.73596 13.0879 7.37 13.0181C7.52576 13.5029 7.8291 13.9272 8.23779 14.231C8.64648 14.5347 9.14001 14.7031 9.64917 14.7129C9.14307 15.1104 8.5636 15.4038 7.94397 15.5771C7.32434 15.7505 6.67651 15.8003 6.03772 15.7231C7.15283 16.4404 8.45105 16.8208 9.77686 16.8198C14.2645 16.8198 16.7185 13.1021 16.7185 9.87793C16.7185 9.77295 16.7156 9.66699 16.7109 9.56299C17.1886 9.21777 17.601 8.79004 17.9283 8.30029L17.9279 8.29932Z" fill="#2B2B2B" fill-opacity="1.000000" fill-rule="nonzero"/>
	</g>
</svg>
