<svg width="14.000000" height="16.000000" viewBox="0 0 14 16" fill="none" xmlns="http://www.w3.org/2000/svg" xmlns:xlink="http://www.w3.org/1999/xlink">
	<desc>
			Created with Pixso.
	</desc>
	<defs>
		<clipPath id="clip1_226">
			<rect id="Frame" width="14.000000" height="16.000000" fill="white" fill-opacity="0"/>
		</clipPath>
	</defs>
	<rect id="Frame" width="14.000000" height="16.000000" fill="#FFFFFF" fill-opacity="0"/>
	<g clip-path="url(#clip1_226)">
		<path id="Vector" d="M2.33325 12.6665L11.6666 12.6665L11.6666 8L12.8333 8L12.8333 13.3335C12.8333 13.5103 12.7719 13.6797 12.6625 13.8047C12.5531 13.9297 12.4047 14 12.25 14L1.75 14C1.59521 14 1.4469 13.9297 1.33752 13.8047C1.22803 13.6797 1.16663 13.5103 1.16663 13.3335L1.16663 8L2.33325 8L2.33325 12.6665ZM8.16663 6L11.0833 6L7 10.6665L2.91663 6L5.83325 6L5.83325 2L8.16663 2L8.16663 6Z" fill="#2B2B2B" fill-opacity="1.000000" fill-rule="nonzero"/>
	</g>
</svg>
