<svg width="11.666626" height="12.000000" viewBox="0 0 11.6666 12" fill="none" xmlns="http://www.w3.org/2000/svg" xmlns:xlink="http://www.w3.org/1999/xlink">
	<desc>
			Created with Pixso.
	</desc>
	<defs/>
	<path id="Vector" d="M1.16663 10.6665L10.5 10.6665L10.5 6L11.6666 6L11.6666 11.3335C11.6666 11.5103 11.6052 11.6797 11.4958 11.8047C11.3865 11.9297 11.238 12 11.0834 12L0.583374 12C0.428589 12 0.280273 11.9297 0.170898 11.8047C0.0614014 11.6797 0 11.5103 0 11.3335L0 6L1.16663 6L1.16663 10.6665ZM7 4L9.91663 4L5.83337 8.6665L1.75 4L4.66663 4L4.66663 0L7 0L7 4Z" fill="#2B2B2B" fill-opacity="1.000000" fill-rule="nonzero"/>
</svg>
