<svg width="24.000000" height="24.000000" viewBox="0 0 24 24" fill="none" xmlns="http://www.w3.org/2000/svg" xmlns:xlink="http://www.w3.org/1999/xlink">
	<desc>
			Created with Pixso.
	</desc>
	<defs>
		<clipPath id="clip1_86">
			<rect id="Icons-Youtube" width="14.000000" height="14.000000" transform="translate(5.000000 5.000000)" fill="white" fill-opacity="0"/>
		</clipPath>
	</defs>
	<circle id="Ellipse 9" cx="12.000000" cy="12.000000" r="12.000000" fill="#FFB400" fill-opacity="1.000000"/>
	<rect id="Icons-Youtube" width="14.000000" height="14.000000" transform="translate(5.000000 5.000000)" fill="#FFFFFF" fill-opacity="0"/>
	<rect id="Icons-Youtube" width="14.000000" height="14.000000" transform="translate(5.000000 5.000000)" fill="#FFFFFF" fill-opacity="0"/>
	<rect id="Icons-Youtube" width="14.000000" height="14.000000" transform="translate(5.000000 5.000000)" fill="#FFFFFF" fill-opacity="0"/>
	<g clip-path="url(#clip1_86)">
		<path id="Vector" d="M17.5667 8.79053C17.8333 9.83008 17.8333 12 17.8333 12C17.8333 12 17.8333 14.1699 17.5667 15.2095C17.4186 15.7842 16.9851 16.2363 16.4362 16.3892C15.4393 16.667 12 16.667 12 16.667C12 16.667 8.56238 16.667 7.56372 16.3892C7.01245 16.2339 6.57959 15.7827 6.43323 15.2095C6.16663 14.1699 6.16663 12 6.16663 12C6.16663 12 6.16663 9.83008 6.43323 8.79053C6.58142 8.21631 7.01477 7.76416 7.56372 7.61133C8.56238 7.3335 12 7.3335 12 7.3335C12 7.3335 15.4393 7.3335 16.4362 7.61133C16.9874 7.76611 17.4203 8.21777 17.5667 8.79053ZM10.8333 14.042L14.3333 12L10.8333 9.9585L10.8333 14.042Z" fill="#2B2B2B" fill-opacity="1.000000" fill-rule="nonzero"/>
	</g>
</svg>
