<svg width="15.000000" height="15.000000" viewBox="0 0 15 15" fill="none" xmlns="http://www.w3.org/2000/svg" xmlns:xlink="http://www.w3.org/1999/xlink">
	<desc>
			Created with Pixso.
	</desc>
	<defs/>
	<path id="Vector" d="M5.25 9L5.25 11.25L9.75 11.25L9.75 9L15 9L15 14.25C15 14.4487 14.921 14.6396 14.7803 14.7803C14.6397 14.9209 14.4489 15 14.25 15L0.75 15C0.551086 15 0.360321 14.9209 0.219673 14.7803C0.0790176 14.6396 0 14.4487 0 14.25L0 9L5.25 9ZM6.75 7.5L8.25 7.5L8.25 9.75L6.75 9.75L6.75 7.5ZM3.75 3L3.75 0.75C3.75 0.55127 3.82902 0.360352 3.96967 0.219727C4.11032 0.0791016 4.30109 0 4.5 0L10.5 0C10.6989 0 10.8897 0.0791016 11.0303 0.219727C11.171 0.360352 11.25 0.55127 11.25 0.75L11.25 3L14.25 3C14.4489 3 14.6397 3.0791 14.7803 3.21973C14.921 3.36035 15 3.55127 15 3.75L15 7.5L9.75 7.5L9.75 6L5.25 6L5.25 7.5L0 7.5L0 3.75C0 3.55127 0.0790176 3.36035 0.219673 3.21973C0.360321 3.0791 0.551086 3 0.75 3L3.75 3ZM5.25 1.5L5.25 3L9.75 3L9.75 1.5L5.25 1.5Z" fill="#2B2B2B" fill-opacity="1.000000" fill-rule="nonzero"/>
</svg>
