<svg width="16.500000" height="18.000000" viewBox="0 0 16.5 18" fill="none" xmlns="http://www.w3.org/2000/svg" xmlns:xlink="http://www.w3.org/1999/xlink">
	<desc>
			Created with Pixso.
	</desc>
	<defs/>
	<path id="Vector" d="M16.5 4.28711L16.5 4.5L11 4.5L11 0L11.2603 0C11.5338 0 11.7962 0.0888672 11.9896 0.24707L16.198 3.69043C16.3913 3.84863 16.5 4.06299 16.5 4.28711ZM10.6562 5.625C10.0891 5.625 9.625 5.24512 9.625 4.78125L9.625 0L1.03125 0C0.4617 0 0 0.37793 0 0.84375L0 17.1562C0 17.6221 0.4617 18 1.03125 18L15.4688 18C16.0383 18 16.5 17.6221 16.5 17.1562L16.5 5.625L10.6562 5.625ZM5.29401 14.0801C5.27317 14.0986 5.24815 14.1133 5.22039 14.1235C5.19263 14.1338 5.16267 14.1392 5.13221 14.1401C5.10175 14.1411 5.0714 14.1367 5.04288 14.1279C5.01437 14.1191 4.98826 14.106 4.96603 14.0889L2.17882 11.9512C2.15567 11.9331 2.13721 11.9116 2.1246 11.8882C2.11199 11.8643 2.10548 11.8384 2.10548 11.8125C2.10548 11.7866 2.11199 11.7607 2.1246 11.7368C2.13721 11.7134 2.15567 11.6919 2.17882 11.6738L4.96603 9.53613C4.98826 9.51904 5.01437 9.50586 5.04288 9.49707C5.0714 9.48828 5.10175 9.48389 5.13221 9.48486C5.16267 9.48584 5.19263 9.49121 5.22039 9.50146C5.24815 9.51172 5.27317 9.52637 5.29401 9.54492L6.13529 10.2788C6.15656 10.2974 6.17304 10.3193 6.18378 10.3433C6.19451 10.3672 6.19927 10.3926 6.19778 10.418C6.19629 10.4434 6.18858 10.4683 6.17509 10.4912C6.16161 10.5142 6.14265 10.5347 6.11931 10.5513L4.36777 11.8125L6.11931 13.0737C6.14265 13.0903 6.16161 13.1108 6.17509 13.1338C6.18858 13.1567 6.19629 13.1816 6.19778 13.207C6.19927 13.2324 6.19451 13.2578 6.18378 13.2817C6.17304 13.3057 6.15656 13.3276 6.13529 13.3462L5.29401 14.0801ZM7.49809 15.855L6.31847 15.5747C6.25937 15.5605 6.20951 15.5278 6.17986 15.4839C6.15019 15.4399 6.14316 15.3877 6.1603 15.3394L8.8003 7.89941C8.81747 7.85107 8.85741 7.81055 8.91133 7.78613C8.96525 7.76172 9.02874 7.75586 9.08784 7.77002L10.2674 8.05029C10.2967 8.05713 10.324 8.06885 10.3478 8.08447C10.3716 8.1001 10.3914 8.11914 10.406 8.14111C10.4207 8.16309 10.43 8.18701 10.4334 8.21191C10.4367 8.23633 10.4341 8.26172 10.4256 8.28564L7.78555 15.7256C7.77707 15.7495 7.76291 15.772 7.74387 15.791C7.72484 15.8105 7.70129 15.8271 7.6746 15.8389C7.6479 15.8511 7.61858 15.8584 7.58829 15.8613C7.558 15.8643 7.52735 15.8618 7.49809 15.855ZM14.4071 11.9512L11.6199 14.0889C11.5977 14.106 11.5716 14.1191 11.5431 14.1279C11.5145 14.1367 11.4842 14.1411 11.4537 14.1401C11.4233 14.1392 11.3933 14.1338 11.3655 14.1235C11.3378 14.1133 11.3128 14.0986 11.2919 14.0801L10.4506 13.3462C10.4293 13.3276 10.4129 13.3057 10.4021 13.2817C10.3914 13.2578 10.3866 13.2324 10.3881 13.207C10.3896 13.1816 10.3973 13.1567 10.4108 13.1338C10.4243 13.1108 10.4433 13.0903 10.4666 13.0737L12.2182 11.8125L10.4666 10.5513C10.4433 10.5347 10.4243 10.5142 10.4108 10.4912C10.3974 10.4683 10.3896 10.4434 10.3882 10.418C10.3867 10.3926 10.3914 10.3672 10.4022 10.3433C10.4129 10.3193 10.4294 10.2974 10.4506 10.2788L11.292 9.54492C11.3128 9.52637 11.3378 9.51172 11.3656 9.50146C11.3934 9.49121 11.4233 9.48584 11.4538 9.48486C11.4842 9.48389 11.5146 9.48828 11.5431 9.49707C11.5716 9.50586 11.5977 9.51904 11.6199 9.53613L14.4072 11.6738C14.4303 11.6919 14.4488 11.7134 14.4614 11.7368C14.474 11.7607 14.4805 11.7866 14.4805 11.8125C14.4805 11.8384 14.474 11.8643 14.4613 11.8882C14.4487 11.9116 14.4303 11.9331 14.4071 11.9512Z" fill="#1B1B1B" fill-opacity="1.000000" fill-rule="nonzero"/>
</svg>
