<svg width="16.500000" height="18.000977" viewBox="0 0 16.5 18.001" fill="none" xmlns="http://www.w3.org/2000/svg" xmlns:xlink="http://www.w3.org/1999/xlink">
	<desc>
			Created with Pixso.
	</desc>
	<defs/>
	<path id="Vector" d="M11.7636 11.272L8.25 14.626L4.73638 11.272C2.10301 11.3809 0 13.4375 0 15.9761L0 16.3135C0 17.2451 0.791855 18.001 1.76786 18.001L14.7321 18.001C15.7081 18.001 16.5 17.2451 16.5 16.3135L16.5 15.9761C16.5 13.4375 14.397 11.3809 11.7636 11.272ZM0.500893 2.80615L0.73661 2.85889L0.73661 4.91211C0.478798 5.06006 0.29464 5.31641 0.29464 5.62598C0.29464 5.92139 0.464066 6.16748 0.703461 6.31836L0.128906 8.50879C0.0662918 8.75146 0.206253 9.00098 0.408813 9.00098L1.94833 9.00098C2.15089 9.00098 2.29085 8.75146 2.22823 8.50879L1.65369 6.31836C1.89308 6.16748 2.0625 5.92139 2.0625 5.62598C2.0625 5.31641 1.87835 5.06006 1.62054 4.91211L1.62054 3.06299L4.05134 3.62207C3.7346 4.22656 3.53571 4.90186 3.53571 5.62598C3.53571 8.11133 5.6461 10.126 8.25 10.126C10.8539 10.126 12.9643 8.11133 12.9643 5.62598C12.9643 4.90186 12.7691 4.22656 12.4487 3.62207L15.9954 2.80615C16.6657 2.65186 16.6657 1.85352 15.9954 1.69873L8.98293 0.081543C8.50413 -0.0273438 7.99955 -0.0273438 7.52076 0.081543L0.500893 1.69531C-0.165733 1.8501 -0.165733 2.65186 0.500893 2.80615Z" fill="#000000" fill-opacity="1.000000" fill-rule="nonzero"/>
</svg>
