<svg width="40.000000" height="40.000000" viewBox="0 0 40 40" fill="none" xmlns="http://www.w3.org/2000/svg" xmlns:xlink="http://www.w3.org/1999/xlink">
	<desc>
			Created with Pixso.
	</desc>
	<defs>
		<clipPath id="clip1_258">
			<rect id="file-code" width="16.500000" height="18.000000" transform="translate(12.000000 11.000000)" fill="white" fill-opacity="0"/>
		</clipPath>
		<clipPath id="clip1_257">
			<rect id="Icons/Services" width="18.000000" height="18.000000" transform="translate(11.000000 11.000000)" fill="white" fill-opacity="0"/>
		</clipPath>
	</defs>
	<circle id="Ellipse 10" cx="20.000000" cy="20.000000" r="20.000000" fill="#F0F0F6" fill-opacity="1.000000"/>
	<rect id="Icons/Services" width="18.000000" height="18.000000" transform="translate(11.000000 11.000000)" fill="#FFFFFF" fill-opacity="0"/>
	<rect id="Icons/Services" width="18.000000" height="18.000000" transform="translate(11.000000 11.000000)" fill="#FFFFFF" fill-opacity="0"/>
	<g clip-path="url(#clip1_257)">
		<rect id="file-code" width="16.500000" height="18.000000" transform="translate(12.000000 11.000000)" fill="#000000" fill-opacity="0"/>
		<g clip-path="url(#clip1_258)">
			<path id="Vector" d="M28.5 15.2871L28.5 15.5L23 15.5L23 11L23.2604 11C23.5338 11 23.7961 11.0889 23.9896 11.2471L28.198 14.6904C28.3914 14.8486 28.5 15.063 28.5 15.2871ZM22.6562 16.625C22.0891 16.625 21.625 16.2451 21.625 15.7812L21.625 11L13.0312 11C12.4617 11 12 11.3779 12 11.8438L12 28.1562C12 28.6221 12.4617 29 13.0312 29L27.4688 29C28.0383 29 28.5 28.6221 28.5 28.1562L28.5 16.625L22.6562 16.625ZM17.294 25.0801C17.2732 25.0986 17.2482 25.1133 17.2204 25.1235C17.1926 25.1338 17.1627 25.1392 17.1322 25.1401C17.1017 25.1411 17.0714 25.1367 17.0429 25.1279C17.0143 25.1191 16.9883 25.106 16.966 25.0889L14.1788 22.9512C14.1556 22.9331 14.1372 22.9116 14.1246 22.8882C14.112 22.8643 14.1055 22.8384 14.1055 22.8125C14.1055 22.7866 14.112 22.7607 14.1246 22.7368C14.1372 22.7134 14.1556 22.6919 14.1788 22.6738L16.966 20.5361C16.9883 20.519 17.0143 20.5059 17.0429 20.4971C17.0714 20.4883 17.1017 20.4839 17.1322 20.4849C17.1627 20.4858 17.1926 20.4912 17.2204 20.5015C17.2482 20.5117 17.2732 20.5264 17.294 20.5449L18.1353 21.2788C18.1566 21.2974 18.173 21.3193 18.1838 21.3433C18.1945 21.3672 18.1993 21.3926 18.1978 21.418C18.1963 21.4434 18.1886 21.4683 18.1751 21.4912C18.1616 21.5142 18.1426 21.5347 18.1193 21.5513L16.3678 22.8125L18.1193 24.0737C18.1426 24.0903 18.1616 24.1108 18.1751 24.1338C18.1886 24.1567 18.1963 24.1816 18.1978 24.207C18.1993 24.2324 18.1945 24.2578 18.1838 24.2817C18.173 24.3057 18.1566 24.3276 18.1353 24.3462L17.294 25.0801ZM19.4981 26.855L18.3185 26.5747C18.2594 26.5605 18.2095 26.5278 18.1799 26.4839C18.1502 26.4399 18.1432 26.3877 18.1603 26.3394L20.8003 18.8994C20.8174 18.8511 20.8574 18.8105 20.9113 18.7861C20.9653 18.7617 21.0287 18.7559 21.0878 18.77L22.2675 19.0503C22.2967 19.0571 22.324 19.0688 22.3478 19.0845C22.3716 19.1001 22.3914 19.1191 22.4061 19.1411C22.4207 19.1631 22.43 19.187 22.4333 19.2119C22.4367 19.2363 22.434 19.2617 22.4255 19.2856L19.7855 26.7256C19.7771 26.7495 19.7629 26.772 19.7439 26.791C19.7249 26.8105 19.7013 26.8271 19.6746 26.8389C19.6479 26.8511 19.6186 26.8584 19.5883 26.8613C19.558 26.8643 19.5273 26.8618 19.4981 26.855ZM26.4071 22.9512L23.6199 25.0889C23.5977 25.106 23.5715 25.1191 23.543 25.1279C23.5145 25.1367 23.4842 25.1411 23.4537 25.1401C23.4233 25.1392 23.3933 25.1338 23.3655 25.1235C23.3378 25.1133 23.3127 25.0986 23.2919 25.0801L22.4506 24.3462C22.4293 24.3276 22.4128 24.3057 22.4021 24.2817C22.3914 24.2578 22.3866 24.2324 22.3881 24.207C22.3896 24.1816 22.3973 24.1567 22.4108 24.1338C22.4243 24.1108 22.4432 24.0903 22.4666 24.0737L24.2181 22.8125L22.4666 21.5513C22.4433 21.5347 22.4243 21.5142 22.4108 21.4912C22.3973 21.4683 22.3896 21.4434 22.3882 21.418C22.3867 21.3926 22.3914 21.3672 22.4022 21.3433C22.4129 21.3193 22.4294 21.2974 22.4506 21.2788L23.292 20.5449C23.3128 20.5264 23.3378 20.5117 23.3656 20.5015C23.3934 20.4912 23.4233 20.4858 23.4538 20.4849C23.4843 20.4839 23.5146 20.4883 23.5431 20.4971C23.5716 20.5059 23.5977 20.519 23.6199 20.5361L26.4072 22.6738C26.4303 22.6919 26.4487 22.7134 26.4614 22.7368C26.474 22.7607 26.4805 22.7866 26.4805 22.8125C26.4805 22.8384 26.4739 22.8643 26.4614 22.8882C26.4487 22.9116 26.4303 22.9331 26.4071 22.9512Z" fill="#767676" fill-opacity="1.000000" fill-rule="nonzero"/>
		</g>
	</g>
</svg>
