<svg width="30.000000" height="30.000000" viewBox="0 0 30 30" fill="none" xmlns="http://www.w3.org/2000/svg" xmlns:xlink="http://www.w3.org/1999/xlink">
	<desc>
			Created with Pixso.
	</desc>
	<defs>
		<clipPath id="clip1_235">
			<rect id="Icons/Contrast" width="30.000000" height="30.000000" fill="white" fill-opacity="0"/>
		</clipPath>
	</defs>
	<rect id="Icons/Contrast" width="30.000000" height="30.000000" fill="#FFFFFF" fill-opacity="0"/>
	<rect id="Icons/Contrast" width="30.000000" height="30.000000" fill="#FFFFFF" fill-opacity="0"/>
	<rect id="Icons/Contrast" width="30.000000" height="30.000000" fill="#FFFFFF" fill-opacity="0"/>
	<rect id="Icons/Contrast" width="30.000000" height="30.000000" fill="#FFFFFF" fill-opacity="0"/>
	<g clip-path="url(#clip1_235)">
		<path id="Vector" d="M15.5 27C8.59625 27 3 21.4038 3 14.5C3 7.59619 8.59625 2 15.5 2C22.4037 2 28 7.59619 28 14.5C28 21.4038 22.4037 27 15.5 27ZM7.16125 20.0312C7.98285 21.2607 9.06683 22.2925 10.3351 23.0522C11.6034 23.8125 13.0245 24.2817 14.4959 24.4263C15.9674 24.5713 17.4526 24.3877 18.8447 23.8896C20.2369 23.3916 21.5012 22.5908 22.5466 21.5454C23.5921 20.4995 24.3927 19.2354 24.8907 17.8433C25.3889 16.4512 25.572 14.9658 25.4271 13.4941C25.2822 12.0229 24.8127 10.6021 24.0526 9.3335C23.2925 8.06543 22.2606 6.98145 21.0312 6.16016C21.5703 8.08301 21.5875 10.1143 21.0814 12.0459C20.5753 13.9775 19.5639 15.7397 18.1512 17.1514C16.74 18.5635 14.9781 19.5747 13.0466 20.0811C11.1152 20.5874 9.08386 20.5698 7.16125 20.0312Z" fill="#2B2B2B" fill-opacity="1.000000" fill-rule="nonzero"/>
	</g>
</svg>
