<svg width="78.000000" height="78.000000" viewBox="0 0 78 78" fill="none" xmlns="http://www.w3.org/2000/svg" xmlns:xlink="http://www.w3.org/1999/xlink">
	<desc>
			Created with Pixso.
	</desc>
	<defs>
		<clipPath id="clip1_379">
			<rect id="Icons/Photographer" width="78.000000" height="78.000000" fill="white" fill-opacity="0"/>
		</clipPath>
	</defs>
	<rect id="Icons/Photographer" width="78.000000" height="78.000000" fill="#FFFFFF" fill-opacity="0"/>
	<rect id="Icons/Photographer" width="78.000000" height="78.000000" fill="#FFFFFF" fill-opacity="0"/>
	<rect id="Icons/Photographer" width="78.000000" height="78.000000" fill="#FFFFFF" fill-opacity="0"/>
	<rect id="Icons/Photographer" width="78.000000" height="78.000000" fill="#FFFFFF" fill-opacity="0"/>
	<rect id="Icons/Photographer" width="78.000000" height="78.000000" fill="#FFFFFF" fill-opacity="0"/>
	<g clip-path="url(#clip1_379)">
		<path id="Vector" d="M55.3549 72.9678L74.7128 72.9678L69.7434 58.0586C68.4438 54.1597 65.1276 51.2686 61.0879 50.5112L47.8065 48.0205L47.8065 44.9468C50.9882 42.6509 53.2338 39.1533 53.8855 35.1201C56.8545 34.6182 59.129 32.0454 59.129 28.9355L59.129 20.1289C59.129 9.03027 50.0986 0 39 0C27.9014 0 18.871 9.03027 18.871 20.1289L18.871 28.9355C18.871 32.0415 21.1343 34.6294 24.0983 35.1367C24.7524 39.1699 27.0106 42.6709 30.1936 44.9658L30.1936 48.0215L16.9109 50.5127C12.8726 51.27 9.55505 54.1611 8.25549 58.0596L3.28735 72.9678L22.6451 72.9678L22.6451 70.4517L19.2245 70.4517L21.3494 61.9497L18.9087 61.3408L16.6304 70.4517L6.77722 70.4517L10.6433 58.855C11.6534 55.8228 14.2338 53.5732 17.3751 52.9834L25.389 51.4814L27.4385 60.7002C26.0999 61.2817 25.1614 62.6128 25.1614 64.1611L25.1614 74.2256C25.1614 76.3066 26.8547 78 28.9355 78L49.0646 78C51.1454 78 52.8387 76.3066 52.8387 74.2256L52.8387 64.1611C52.8387 62.6128 51.9003 61.2817 50.5629 60.7002L52.6123 51.4814L60.6262 52.9834C63.7676 53.5732 66.3466 55.8228 67.358 58.855L71.2229 70.4517L61.3696 70.4517L59.0913 61.3408L56.6506 61.9497L58.7755 70.4517L55.3549 70.4517L55.3549 72.9678ZM50.1377 51.0171L48.4003 58.8345L47.531 55.355L42.037 55.355L46.9686 50.4233L50.1377 51.0171ZM46.1949 60.3872L31.8052 60.3872L32.4342 57.8711L45.5659 57.8711L46.1949 60.3872ZM39 54.834L32.7097 48.5435L32.7097 46.4224C34.627 47.3057 36.7544 47.8066 39 47.8066C41.2469 47.8066 43.373 47.2993 45.2904 46.4165L45.2904 48.5435L39 54.834ZM54.0968 32.478L54.0968 25.394C55.5574 25.915 56.6129 27.2988 56.6129 28.9365C56.6129 30.5747 55.5574 31.9575 54.0968 32.478ZM23.9033 32.4946C22.4388 31.9751 21.3871 30.5762 21.3871 28.9355C21.3871 27.2949 22.4388 25.896 23.9033 25.3765L23.9033 32.4946ZM21.3871 23.936L21.3871 20.1289C21.3871 10.417 29.2877 2.51611 39 2.51611C48.7123 2.51611 56.6129 10.417 56.6129 20.1289L56.6129 23.936C55.8682 23.3726 55.0077 22.9561 54.0565 22.7686C53.859 21.2827 52.5985 20.1289 51.0598 20.1289C50.261 20.1289 49.4785 20.4536 48.8494 21.0825C46.7246 23.2075 44.0323 24.5625 41.1161 25.0029L41.1967 24.8418C41.4054 24.4214 41.5161 23.9521 41.5161 23.4829L41.5161 23.166C41.5161 21.4917 40.1537 20.1289 38.4792 20.1289C37.6803 20.1289 36.8978 20.4536 36.3317 21.0186C33.6809 23.668 30.1647 25.1372 26.4194 25.1611L26.4194 22.645L25.1614 22.645C23.7397 22.645 22.4414 23.1372 21.3871 23.936ZM26.4194 32.7095L26.4194 27.6772C30.8364 27.6533 34.9856 25.9224 38.1094 22.7988C38.4125 22.4941 39 22.7422 39 23.166L39 23.4829C39 23.5635 38.9812 23.644 38.9447 23.7168L36.9645 27.6772L39 27.6772C43.3932 27.6772 47.5222 25.9678 50.6899 22.7988C50.9944 22.4941 51.5807 22.7422 51.5807 23.166L51.5807 32.7095C51.5807 39.6465 45.937 45.2905 39 45.2905C32.0631 45.2905 26.4194 39.6465 26.4194 32.7095ZM31.0315 50.4233L35.963 55.355L30.4691 55.355L29.5997 58.8345L27.8624 51.0171L31.0315 50.4233ZM28.9355 75.4839C28.2423 75.4839 27.6775 74.9204 27.6775 74.2256L27.6775 64.1611C27.6775 63.4668 28.2423 62.9033 28.9355 62.9033L32.8494 62.9033C31.2126 64.5034 30.1936 66.7305 30.1936 69.1934C30.1936 71.6567 31.2126 73.8838 32.8494 75.4839L28.9355 75.4839ZM39 75.4839C35.5315 75.4839 32.7097 72.6621 32.7097 69.1934C32.7097 65.7251 35.5315 62.9033 39 62.9033C42.4685 62.9033 45.2904 65.7251 45.2904 69.1934C45.2904 72.6621 42.4685 75.4839 39 75.4839ZM50.3226 74.2256C50.3226 74.9204 49.7577 75.4839 49.0646 75.4839L45.1508 75.4839C46.7875 73.8838 47.8065 71.6567 47.8065 69.1934C47.8065 66.7305 46.7875 64.5034 45.1508 62.9033L49.0646 62.9033C49.7577 62.9033 50.3226 63.4668 50.3226 64.1611L50.3226 74.2256Z" fill="#FFB400" fill-opacity="1.000000" fill-rule="nonzero"/>
		<path id="Vector" d="M39 65.4194C36.9192 65.4194 35.2258 67.1128 35.2258 69.1938C35.2258 71.2744 36.9192 72.9678 39 72.9678C41.0808 72.9678 42.7742 71.2744 42.7742 69.1938C42.7742 67.1128 41.0808 65.4194 39 65.4194ZM39 70.4517C38.3069 70.4517 37.7419 69.8882 37.7419 69.1938C37.7419 68.499 38.3069 67.9355 39 67.9355C39.6932 67.9355 40.2581 68.499 40.2581 69.1938C40.2581 69.8882 39.6932 70.4517 39 70.4517Z" fill="#FFB400" fill-opacity="1.000000" fill-rule="nonzero"/>
	</g>
</svg>
