<svg width="74.000000" height="74.000000" viewBox="0 0 74 74" fill="none" xmlns="http://www.w3.org/2000/svg" xmlns:xlink="http://www.w3.org/1999/xlink">
	<desc>
			Created with Pixso.
	</desc>
	<defs>
		<clipPath id="clip1_331">
			<rect id="Icons/Microphone" width="74.000000" height="74.000000" fill="white" fill-opacity="0"/>
		</clipPath>
	</defs>
	<rect id="Icons/Microphone" width="74.000000" height="74.000000" fill="#FFFFFF" fill-opacity="0"/>
	<rect id="Icons/Microphone" width="74.000000" height="74.000000" fill="#FFFFFF" fill-opacity="0"/>
	<rect id="Icons/Microphone" width="74.000000" height="74.000000" fill="#FFFFFF" fill-opacity="0"/>
	<rect id="Icons/Microphone" width="74.000000" height="74.000000" fill="#FFFFFF" fill-opacity="0"/>
	<rect id="Icons/Microphone" width="74.000000" height="74.000000" fill="#FFFFFF" fill-opacity="0"/>
	<g clip-path="url(#clip1_331)">
		<path id="Vector" d="M37 0C29.0176 0 22.5217 6.75342 22.5217 15.0527L22.5217 37C22.5217 45.3008 29.0176 52.0527 37 52.0527C44.9823 52.0527 51.4783 45.3008 51.4783 37L51.4783 15.0527C51.4783 6.75342 44.9823 0 37 0ZM37 48.835C31.3116 48.835 26.6062 44.374 25.8549 38.6089L48.1434 38.6089C47.3937 44.376 42.6884 48.835 37 48.835ZM48.2609 35.3911L25.7391 35.3911L25.7391 15.0527C25.7391 8.52588 30.7904 3.21729 37 3.21729C43.2095 3.21729 48.2609 8.52588 48.2609 15.0527L48.2609 35.3911Z" fill="#FFB400" fill-opacity="1.000000" fill-rule="nonzero"/>
		<path id="Vector" d="M59.5218 28.9565C58.6338 28.9565 57.9131 29.6772 57.9131 30.5654L57.9131 37C57.9131 48.5312 48.5312 57.9131 37.0001 57.9131C25.4689 57.9131 16.087 48.5312 16.087 37L16.087 30.5654C16.087 29.6772 15.3663 28.9565 14.4783 28.9565C13.5903 28.9565 12.8696 29.6772 12.8696 30.5654L12.8696 37C12.8696 49.7617 22.8355 60.2153 35.3914 61.0483L35.3914 70.7827L27.3479 70.7827C26.4599 70.7827 25.7392 71.5034 25.7392 72.3911C25.7392 73.2793 26.4599 74 27.3479 74L46.6522 74C47.5402 74 48.2609 73.2793 48.2609 72.3911C48.2609 71.5034 47.5402 70.7827 46.6522 70.7827L38.6088 70.7827L38.6088 61.0483C51.1646 60.2153 61.1305 49.7617 61.1305 37L61.1305 30.5654C61.1305 29.6772 60.4098 28.9565 59.5218 28.9565Z" fill="#FFB400" fill-opacity="1.000000" fill-rule="nonzero"/>
	</g>
</svg>
