<svg width="68.000000" height="68.000000" viewBox="0 0 68 68" fill="none" xmlns="http://www.w3.org/2000/svg" xmlns:xlink="http://www.w3.org/1999/xlink">
	<desc>
			Created with Pixso.
	</desc>
	<defs>
		<clipPath id="clip1_313">
			<rect id="Icons/illustration" width="68.000000" height="68.000000" fill="white" fill-opacity="0"/>
		</clipPath>
	</defs>
	<rect id="Icons/illustration" width="68.000000" height="68.000000" fill="#FFFFFF" fill-opacity="0"/>
	<rect id="Icons/illustration" width="68.000000" height="68.000000" fill="#FFFFFF" fill-opacity="0"/>
	<rect id="Icons/illustration" width="68.000000" height="68.000000" fill="#FFFFFF" fill-opacity="0"/>
	<rect id="Icons/illustration" width="68.000000" height="68.000000" fill="#FFFFFF" fill-opacity="0"/>
	<rect id="Icons/illustration" width="68.000000" height="68.000000" fill="#FFFFFF" fill-opacity="0"/>
	<g clip-path="url(#clip1_313)">
		<path id="Vector" d="M31.6094 49.3384C31.0591 49.3384 30.6133 49.7842 30.6133 50.3345C30.6133 50.8848 31.0591 51.3306 31.6094 51.3306L36.3906 51.3306C36.9409 51.3306 37.3867 50.8848 37.3867 50.3345C37.3867 49.7842 36.9409 49.3384 36.3906 49.3384L31.6094 49.3384Z" fill="#FFB400" fill-opacity="1.000000" fill-rule="nonzero"/>
		<path id="Vector" d="M11.9531 33.8716L18.5375 33.8716C18.9396 34.9185 19.9529 35.6646 21.1394 35.6646C22.3259 35.6646 23.3391 34.9185 23.7413 33.8716L25.0574 33.8716C25.6075 33.8716 26.0535 33.4258 26.0535 32.8755C26.0535 32.3252 25.6075 31.8794 25.0574 31.8794L23.7413 31.8794C23.3391 30.8325 22.3259 30.0864 21.1394 30.0864C19.9529 30.0864 18.9396 30.8325 18.5375 31.8794L11.9531 31.8794C11.4028 31.8794 10.957 32.3252 10.957 32.8755C10.957 33.4258 11.4028 33.8716 11.9531 33.8716ZM21.1394 32.0786C21.5789 32.0786 21.9363 32.436 21.9363 32.8755C21.9363 33.3149 21.5789 33.6724 21.1394 33.6724C20.7 33.6724 20.3425 33.3149 20.3425 32.8755C20.3425 32.436 20.7 32.0786 21.1394 32.0786Z" fill="#FFB400" fill-opacity="1.000000" fill-rule="nonzero"/>
		<path id="Vector" d="M11.9531 28.1606L13.225 28.1606C13.6271 29.2075 14.6404 29.9536 15.8269 29.9536C17.0134 29.9536 18.0266 29.2075 18.4288 28.1606L25.0574 28.1606C25.6075 28.1606 26.0535 27.7148 26.0535 27.1646C26.0535 26.6143 25.6075 26.1685 25.0574 26.1685L18.4288 26.1685C18.0266 25.1216 17.0134 24.3755 15.8269 24.3755C14.6404 24.3755 13.6271 25.1216 13.225 26.1685L11.9531 26.1685C11.4028 26.1685 10.957 26.6143 10.957 27.1646C10.957 27.7148 11.4028 28.1606 11.9531 28.1606ZM15.8269 26.3677C16.2664 26.3677 16.6238 26.7251 16.6238 27.1646C16.6238 27.604 16.2664 27.9614 15.8269 27.9614C15.3875 27.9614 15.03 27.604 15.03 27.1646C15.03 26.7251 15.3875 26.3677 15.8269 26.3677Z" fill="#FFB400" fill-opacity="1.000000" fill-rule="nonzero"/>
		<path id="Vector" d="M26.2527 18.0005C26.2527 18.5508 25.8068 18.9966 25.2566 18.9966C24.7064 18.9966 24.2605 18.5508 24.2605 18.0005C24.2605 17.4502 24.7064 17.0044 25.2566 17.0044C25.8068 17.0044 26.2527 17.4502 26.2527 18.0005Z" fill="#FFB400" fill-opacity="1.000000" fill-rule="evenodd"/>
		<path id="Vector" d="M23.5078 18.0005C23.5078 18.5508 23.0619 18.9966 22.5117 18.9966C21.9615 18.9966 21.5156 18.5508 21.5156 18.0005C21.5156 17.4502 21.9615 17.0044 22.5117 17.0044C23.0619 17.0044 23.5078 17.4502 23.5078 18.0005Z" fill="#FFB400" fill-opacity="1.000000" fill-rule="evenodd"/>
		<path id="Vector" d="M20.7629 18.0005C20.7629 18.5508 20.317 18.9966 19.7668 18.9966C19.2167 18.9966 18.7708 18.5508 18.7708 18.0005C18.7708 17.4502 19.2167 17.0044 19.7668 17.0044C20.317 17.0044 20.7629 17.4502 20.7629 18.0005Z" fill="#FFB400" fill-opacity="1.000000" fill-rule="evenodd"/>
		<path id="Vector" d="M65.0117 6.70459L64.6387 6.70459L64.9169 6.42676C65.7502 5.59326 65.7502 4.23682 64.9169 3.40381L62.7363 1.22314C61.903 0.389648 60.547 0.389648 59.7134 1.22314L54.2322 6.70459L2.98828 6.70459C1.34058 6.70459 0 8.04492 0 9.69287L0 51.0591C0 53.0732 1.63843 54.7114 3.65234 54.7114L27.2458 54.7114L27.2458 61.7578L22.4453 61.7578C21.1638 61.7578 20.1211 62.8008 20.1211 64.082L20.1211 65.0776C20.1211 66.3589 21.1638 67.4019 22.4453 67.4019L45.5547 67.4019C46.8362 67.4019 47.8789 66.3589 47.8789 65.0776L47.8789 64.082C47.8789 62.8008 46.8362 61.7578 45.5547 61.7578L40.7542 61.7578L40.7542 54.7114L51.3984 54.7114C51.9487 54.7114 52.3945 54.2656 52.3945 53.7153C52.3945 53.1655 51.9487 52.7192 51.3984 52.7192L3.65234 52.7192C2.73682 52.7192 1.99219 51.9746 1.99219 51.0591L1.99219 48.1108L66.0078 48.1108L66.0078 51.0591C66.0078 51.9746 65.2632 52.7192 64.3477 52.7192L56.0469 52.7192C55.4966 52.7192 55.0508 53.1655 55.0508 53.7153C55.0508 54.2656 55.4966 54.7114 56.0469 54.7114L64.3477 54.7114C66.3616 54.7114 68 53.0732 68 51.0591L68 9.69287C68 8.04541 66.6594 6.70459 65.0117 6.70459ZM45.5547 63.7505C45.7378 63.7505 45.8867 63.8994 45.8867 64.0825L45.8867 65.0776C45.8867 65.2607 45.7378 65.4097 45.5547 65.4097L22.4453 65.4097C22.2622 65.4097 22.1133 65.2607 22.1133 65.0776L22.1133 64.0825C22.1133 63.8994 22.2622 63.7505 22.4453 63.7505L45.5547 63.7505ZM29.238 54.7119L38.7621 54.7119L38.7621 61.7583L29.238 61.7583L29.238 54.7119ZM61.1222 2.63184C61.179 2.5752 61.2712 2.5752 61.3278 2.63184L63.5082 4.8125C63.5648 4.86914 63.5648 4.96143 63.5082 5.01807L61.4276 7.09863L59.0416 4.7124L61.1222 2.63184ZM57.6329 6.12109L60.0188 8.50732L59.324 9.20215L56.9382 6.81592L57.6329 6.12109ZM55.5294 8.22461L57.9154 10.6108L46.1282 22.3979L43.7422 20.0117L55.5294 8.22461ZM54.0547 17.3315C55.4095 17.3315 56.5117 18.4336 56.5117 19.7886C56.5117 21.1436 55.4095 22.2456 54.0547 22.2456C52.6998 22.2456 51.5977 21.1436 51.5977 19.7886C51.5977 19.7729 51.5997 19.7573 51.6001 19.7417L54.0082 17.334C54.0237 17.3335 54.0391 17.3315 54.0547 17.3315ZM44.3984 23.4858L41.4504 24.6899L42.6544 21.7417L44.3984 23.4858ZM66.0078 46.1187L1.99219 46.1187L1.99219 9.69287C1.99219 9.14404 2.43896 8.69678 2.98828 8.69678L52.2401 8.69678L50.7212 10.2158L16.8672 10.2158C16.3169 10.2158 15.8711 10.6616 15.8711 11.2119C15.8711 11.7622 16.3169 12.208 16.8672 12.208L48.7291 12.208L41.7032 19.2344C41.5048 19.4346 41.3495 19.6685 41.2426 19.9302L39.0176 25.3774C38.8134 25.8779 38.9283 26.4478 39.3105 26.8301C39.567 27.0864 39.9081 27.2222 40.2559 27.2222C40.4264 27.2222 40.5984 27.1895 40.7629 27.1226L46.2102 24.8979C46.4645 24.7939 46.6918 24.6436 46.8884 24.4531L49.9187 21.4229C50.5714 23.0698 52.1785 24.2378 54.0548 24.2378C56.5082 24.2378 58.504 22.2422 58.504 19.7886C58.504 17.9126 57.3362 16.3057 55.6897 15.6528L59.1348 12.208L62.4968 12.208L62.4968 42.6079L61.9689 42.6079L58.359 36.3555C58.0841 35.8789 57.4745 35.7158 56.9983 35.9912C56.522 36.2661 56.3588 36.8755 56.6338 37.3516L59.6686 42.6079L45.7538 42.6079L44.2614 40.0229L51.2188 27.9727L54.3094 33.3262C54.5846 33.8022 55.1938 33.9658 55.67 33.6904C56.1465 33.4155 56.3097 32.8062 56.0347 32.3301L52.7373 26.6187C52.4203 26.0698 51.8527 25.7422 51.2186 25.7422C50.5846 25.7422 50.0168 26.0698 49.6997 26.6187L43.111 38.0312L34.6569 23.3882C34.3398 22.8394 33.7722 22.5117 33.1381 22.5117C32.5042 22.5117 31.9364 22.8394 31.6194 23.3882L29.3733 27.2783L29.3733 16.6016C29.3733 15.3198 28.3307 14.2773 27.0491 14.2773L9.96094 14.2773C8.67944 14.2773 7.63672 15.3198 7.63672 16.6016L7.63672 38.3823C7.63672 39.2979 8.38135 40.0425 9.29688 40.0425L22.0043 40.0425L20.5231 42.6079L5.5033 42.6079L5.5033 12.208L12.2188 12.208C12.769 12.208 13.2148 11.7622 13.2148 11.2119C13.2148 10.6616 12.769 10.2158 12.2188 10.2158L5.17126 10.2158C4.25586 10.2158 3.51111 10.9604 3.51111 11.876L3.51111 42.9399C3.51111 43.8555 4.25586 44.6001 5.17126 44.6001L62.8289 44.6001C63.7443 44.6001 64.489 43.8555 64.489 42.9399L64.489 11.876C64.489 10.9604 63.7443 10.2158 62.8289 10.2158L61.1272 10.2158L62.6464 8.69678L65.0117 8.69678C65.561 8.69678 66.0078 9.14404 66.0078 9.69287L66.0078 46.1187ZM27.3816 22.1177L27.3816 38.0503L9.62891 38.0503L9.62891 22.1177L27.3816 22.1177ZM9.62891 20.1255L9.62891 16.6011C9.62891 16.418 9.77783 16.269 9.96094 16.269L27.0496 16.269C27.2327 16.269 27.3816 16.418 27.3816 16.6011L27.3816 20.1255L9.62891 20.1255ZM24.3047 40.0425L27.7136 40.0425C28.629 40.0425 29.3738 39.2979 29.3738 38.3823L29.3738 36.2725C29.6229 36.3916 29.9004 36.4565 30.1909 36.4565C30.871 36.4565 31.4797 36.105 31.8196 35.5161L33.5149 32.5801C33.5662 32.4912 33.6444 32.4727 33.7009 32.4727C33.7576 32.4727 33.8359 32.4912 33.8871 32.5801L34.9323 34.3901C35.2722 34.979 35.8811 35.3306 36.5613 35.3306C37.2413 35.3306 37.8502 34.979 38.1901 34.3901L38.4496 33.9409L43.4535 42.6079L22.8236 42.6079L24.3047 40.0425ZM29.3738 32.938L29.3738 31.2627L33.1385 24.7417L37.2993 31.9487L36.5612 33.2271L35.6123 31.584C35.2134 30.8926 34.4988 30.4805 33.7008 30.4805C32.9028 30.4805 32.1884 30.8926 31.7893 31.584L30.1906 34.353L29.3738 32.938Z" fill="#FFB400" fill-opacity="1.000000" fill-rule="nonzero"/>
	</g>
</svg>
