<svg width="68.000000" height="68.000000" viewBox="0 0 68 68" fill="none" xmlns="http://www.w3.org/2000/svg" xmlns:xlink="http://www.w3.org/1999/xlink">
	<desc>
			Created with Pixso.
	</desc>
	<defs>
		<clipPath id="clip1_299">
			<rect id="Icons/coding" width="68.000000" height="68.000000" fill="white" fill-opacity="0"/>
		</clipPath>
	</defs>
	<rect id="Icons/coding" width="68.000000" height="68.000000" fill="#FFFFFF" fill-opacity="0"/>
	<rect id="Icons/coding" width="68.000000" height="68.000000" fill="#FFFFFF" fill-opacity="0"/>
	<rect id="Icons/coding" width="68.000000" height="68.000000" fill="#FFFFFF" fill-opacity="0"/>
	<rect id="Icons/coding" width="68.000000" height="68.000000" fill="#FFFFFF" fill-opacity="0"/>
	<rect id="Icons/coding" width="68.000000" height="68.000000" fill="#FFFFFF" fill-opacity="0"/>
	<g clip-path="url(#clip1_299)">
		<path id="Vector" d="M63.2188 7.4375L4.78125 7.4375C3.79529 7.43848 2.8501 7.83057 2.15295 8.52783C1.45569 9.2251 1.0636 10.1704 1.0625 11.1562L1.0625 48.3438C1.0636 49.3296 1.45569 50.2749 2.15295 50.9722C2.8501 51.6694 3.79529 52.0615 4.78125 52.0625L26.0552 52.0625L24.7802 55.25L19.125 55.25C18.8433 55.25 18.573 55.3618 18.3737 55.561C18.1744 55.7603 18.0625 56.0308 18.0625 56.3125L18.0625 58.4375L11.6875 58.4375C11.4058 58.4375 11.1355 58.5493 10.9362 58.7485C10.7369 58.9478 10.625 59.2183 10.625 59.5C10.625 59.7817 10.7369 60.0522 10.9362 60.2515C11.1355 60.4507 11.4058 60.5625 11.6875 60.5625L56.3125 60.5625C56.5942 60.5625 56.8645 60.4507 57.0638 60.2515C57.2631 60.0522 57.375 59.7817 57.375 59.5C57.375 59.2183 57.2631 58.9478 57.0638 58.7485C56.8645 58.5493 56.5942 58.4375 56.3125 58.4375L49.9375 58.4375L49.9375 56.3125C49.9375 56.0308 49.8256 55.7603 49.6263 55.561C49.427 55.3618 49.1567 55.25 48.875 55.25L43.2198 55.25L41.9448 52.0625L63.2188 52.0625C64.2047 52.0615 65.1499 51.6694 65.847 50.9722C66.5443 50.2749 66.9364 49.3296 66.9375 48.3438L66.9375 11.1562C66.9364 10.1704 66.5443 9.2251 65.847 8.52783C65.1499 7.83057 64.2047 7.43848 63.2188 7.4375ZM47.8125 57.375L47.8125 58.4375L20.1875 58.4375L20.1875 57.375L47.8125 57.375ZM27.0698 55.25L28.3448 52.0625L39.6552 52.0625L40.9302 55.25L27.0698 55.25ZM64.8125 48.3438C64.8121 48.7661 64.6442 49.1714 64.3453 49.4702C64.0465 49.769 63.6414 49.937 63.2188 49.9375L4.78125 49.9375C4.35864 49.937 3.95349 49.769 3.65466 49.4702C3.35583 49.1714 3.18787 48.7661 3.1875 48.3438L3.1875 45.6875L64.8125 45.6875L64.8125 48.3438ZM64.8125 43.5625L3.1875 43.5625L3.1875 11.1562C3.18787 10.7339 3.35583 10.3286 3.65466 10.0298C3.95349 9.73096 4.35864 9.56299 4.78125 9.5625L63.2188 9.5625C63.6414 9.56299 64.0465 9.73096 64.3453 10.0298C64.6442 10.3286 64.8121 10.7339 64.8125 11.1562L64.8125 43.5625Z" fill="#FFB400" fill-opacity="1.000000" fill-rule="nonzero"/>
		<path id="Vector" d="M29.167 34.8882C29.2837 34.9644 29.4142 35.0176 29.5513 35.0435C29.6884 35.0698 29.8292 35.0684 29.9659 35.04C30.1025 35.0117 30.2322 34.9565 30.3475 34.8784C30.4629 34.7998 30.5618 34.6992 30.6383 34.5825L39.0055 21.8325C39.16 21.5972 39.2148 21.3096 39.1576 21.0337C39.1003 20.7578 38.9358 20.5161 38.7002 20.3613C38.4647 20.2065 38.1774 20.1519 37.9014 20.209C37.6255 20.2666 37.3835 20.4307 37.229 20.6665L28.8618 33.4165C28.7852 33.5332 28.7323 33.6636 28.7062 33.8008C28.6801 33.938 28.6812 34.0786 28.7095 34.2153C28.7379 34.3521 28.7928 34.4819 28.8713 34.5972C28.9498 34.7129 29.0503 34.8115 29.167 34.8882Z" fill="#FFB400" fill-opacity="1.000000" fill-rule="nonzero"/>
		<path id="Vector" d="M40.7573 34.8159C40.9738 34.9966 41.2531 35.0835 41.5337 35.0576C41.8143 35.0322 42.0734 34.8965 42.2537 34.6797L47.5662 28.3047C47.7253 28.1138 47.8124 27.873 47.8124 27.6245C47.8124 27.376 47.7253 27.1357 47.5662 26.9448L42.2537 20.5698C42.1647 20.4614 42.0552 20.3721 41.9314 20.3066C41.8077 20.2407 41.6722 20.2002 41.5328 20.1875C41.3934 20.1743 41.2528 20.189 41.119 20.2305C40.9852 20.2715 40.8611 20.3394 40.7534 20.4287C40.6459 20.5186 40.557 20.6284 40.4922 20.7524C40.4272 20.8765 40.3875 21.0122 40.3752 21.1519C40.3629 21.2915 40.3783 21.4321 40.4205 21.5654C40.4628 21.6987 40.5309 21.8228 40.6212 21.9297L45.3668 27.6245L40.6212 33.3198C40.4408 33.5361 40.3538 33.8154 40.3793 34.0962C40.4049 34.3765 40.5408 34.6357 40.7573 34.8159Z" fill="#FFB400" fill-opacity="1.000000" fill-rule="nonzero"/>
		<path id="Vector" d="M25.7462 34.6797C25.8352 34.7881 25.9448 34.8774 26.0685 34.9429C26.1921 35.0088 26.3276 35.0493 26.467 35.062C26.6064 35.0752 26.7471 35.0605 26.8809 35.019C27.0146 34.9775 27.1389 34.9102 27.2465 34.8208C27.354 34.731 27.4429 34.6211 27.5078 34.4971C27.5726 34.3726 27.6124 34.2373 27.6248 34.0977C27.637 33.958 27.6216 33.8174 27.5793 33.6841C27.5372 33.5503 27.469 33.4268 27.3788 33.3198L22.6331 27.6245L27.3788 21.9297C27.469 21.8228 27.5372 21.6987 27.5793 21.5654C27.6216 21.4321 27.637 21.2915 27.6248 21.1519C27.6124 21.0122 27.5726 20.8765 27.5078 20.7524C27.4429 20.6284 27.354 20.5186 27.2465 20.4287C27.1389 20.3394 27.0146 20.2715 26.8809 20.2305C26.7471 20.189 26.6064 20.1743 26.467 20.1875C26.3276 20.2002 26.1921 20.2407 26.0685 20.3066C25.9448 20.3721 25.8352 20.4614 25.7462 20.5698L20.4337 26.9448C20.2747 27.1357 20.1875 27.376 20.1875 27.6245C20.1875 27.873 20.2747 28.1138 20.4337 28.3047L25.7462 34.6797Z" fill="#FFB400" fill-opacity="1.000000" fill-rule="nonzero"/>
	</g>
</svg>
