<svg width="24.000000" height="24.000000" viewBox="0 0 24 24" fill="none" xmlns="http://www.w3.org/2000/svg" xmlns:xlink="http://www.w3.org/1999/xlink">
	<desc>
			Created with Pixso.
	</desc>
	<defs>
		<clipPath id="clip1_93">
			<rect id="Icons-dribbble" width="14.000000" height="14.000000" transform="translate(5.000000 5.000000)" fill="white" fill-opacity="0"/>
		</clipPath>
	</defs>
	<circle id="Ellipse 9" cx="12.000000" cy="12.000000" r="12.000000" fill="#FFB400" fill-opacity="1.000000"/>
	<rect id="Icons-dribbble" width="14.000000" height="14.000000" transform="translate(5.000000 5.000000)" fill="#FFFFFF" fill-opacity="0"/>
	<rect id="Icons-dribbble" width="14.000000" height="14.000000" transform="translate(5.000000 5.000000)" fill="#FFFFFF" fill-opacity="0"/>
	<rect id="Icons-dribbble" width="14.000000" height="14.000000" transform="translate(5.000000 5.000000)" fill="#FFFFFF" fill-opacity="0"/>
	<g clip-path="url(#clip1_93)">
		<path id="Vector" d="M16.6602 11.75C16.6124 10.832 16.2931 9.94873 15.7427 9.21191C15.575 9.39258 15.3956 9.56201 15.2059 9.71973C14.6232 10.2036 13.9719 10.5986 13.2733 10.8921C13.3708 11.0962 13.4601 11.2939 13.5388 11.4805L13.5388 11.4824C13.561 11.5347 13.5824 11.5869 13.6029 11.6401C14.4861 11.5405 15.4171 11.5771 16.3196 11.6987C16.4397 11.7153 16.5529 11.7329 16.6602 11.75ZM11.1857 7.4043C11.7542 8.20557 12.2783 9.03711 12.756 9.89502C13.4694 9.61377 14.0591 9.25928 14.5339 8.86426C14.6987 8.72852 14.8539 8.58154 14.9983 8.42383C14.1588 7.71777 13.0968 7.33154 12 7.33301C11.7269 7.33301 11.4545 7.35645 11.1857 7.40381L11.1857 7.4043ZM7.48083 10.8315C7.8783 10.8213 8.27515 10.7974 8.6709 10.7598C9.62732 10.6743 10.5756 10.5137 11.5071 10.2803C11.0203 9.43457 10.4948 8.61182 9.93201 7.81445C9.33105 8.1123 8.80115 8.53564 8.37817 9.05615C7.9552 9.57666 7.64929 10.1821 7.48083 10.8315ZM8.37341 14.937C8.59973 14.606 8.89722 14.2339 9.29211 13.8291C10.1403 12.96 11.1412 12.2832 12.2998 11.9102L12.3359 11.8994C12.2397 11.687 12.1493 11.4976 12.0583 11.3188C10.9873 11.6313 9.85913 11.8262 8.73499 11.9268C8.18677 11.9766 7.69495 11.998 7.33325 12.0015C7.33228 13.0708 7.69983 14.1074 8.3739 14.937L8.37341 14.937ZM13.7529 16.3252C13.528 15.1909 13.2095 14.0771 12.8009 12.9951C11.6331 13.4189 10.7026 14.0391 9.9834 14.7788C9.69312 15.0718 9.43555 15.3955 9.21509 15.7441C10.0194 16.3442 10.9965 16.668 12 16.6665C12.6007 16.6675 13.196 16.5518 13.7529 16.3267L13.7529 16.3252ZM14.8455 15.6982C15.7562 14.998 16.3766 13.9863 16.5879 12.8574C16.3895 12.8076 16.1382 12.7583 15.8616 12.7197C15.2468 12.6313 14.623 12.6245 14.0066 12.7002C14.3538 13.6797 14.634 14.6816 14.8455 15.6987L14.8455 15.6982ZM12 17.833C8.7782 17.833 6.16663 15.2217 6.16663 12C6.16663 8.77832 8.7782 6.1665 12 6.1665C15.2217 6.1665 17.8333 8.77832 17.8333 12C17.8333 15.2217 15.2217 17.833 12 17.833Z" fill="#2B2B2B" fill-opacity="1.000000" fill-rule="nonzero"/>
	</g>
</svg>
