<svg width="24.000000" height="24.000000" viewBox="0 0 24 24" fill="none" xmlns="http://www.w3.org/2000/svg"
     xmlns:xlink="http://www.w3.org/1999/xlink">
    <!--social-->

    <g id="facebook">
        <desc>
            Created with Pixso.
        </desc>
        <defs>
            <clipPath id="clip1_58">
                <rect id="Icons-facebook" width="14.000000" height="14.000000" transform="translate(5.000000 5.000000)"
                      fill="white" fill-opacity="0"/>
            </clipPath>
        </defs>
        <circle id="Ellipse 9" cx="12.000000" cy="12.000000" r="12.000000" fill="#FFB400" fill-opacity="1.000000"/>
        <rect id="Icons-facebook" width="14.000000" height="14.000000" transform="translate(5.000000 5.000000)"
              fill="#FFFFFF" fill-opacity="0"/>
        <rect id="Icons-facebook" width="14.000000" height="14.000000" transform="translate(5.000000 5.000000)"
              fill="#FFFFFF" fill-opacity="0"/>
        <rect id="Icons-facebook" width="14.000000" height="14.000000" transform="translate(5.000000 5.000000)"
              fill="#FFFFFF" fill-opacity="0"/>
        <g clip-path="url(#clip1_58)">
            <path id="Vector"
                  d="M13.1667 12.875L14.625 12.875L15.2084 10.5415L13.1667 10.5415L13.1667 9.375C13.1667 8.77393 13.1667 8.20801 14.3334 8.20801L15.2084 8.20801L15.2084 6.24805C15.0182 6.22314 14.3002 6.1665 13.5417 6.1665C11.958 6.1665 10.8334 7.1333 10.8334 8.9082L10.8334 10.5415L9.08337 10.5415L9.08337 12.875L10.8334 12.875L10.8334 17.833L13.1667 17.833L13.1667 12.875Z"
                  fill="#2B2B2B" fill-opacity="1.000000" fill-rule="nonzero"/>
        </g>
    </g>

    <g id="instagram">
        <desc>
            Created with Pixso.
        </desc>
        <defs>
            <clipPath id="clip1_65">
                <rect id="Icons-instagram" width="14.000000" height="14.000000" transform="translate(5.000000 5.000000)"
                      fill="white" fill-opacity="0"/>
            </clipPath>
        </defs>
        <circle id="Ellipse 9" cx="12.000000" cy="12.000000" r="12.000000" fill="#FFB400" fill-opacity="1.000000"/>
        <rect id="Icons-instagram" width="14.000000" height="14.000000" transform="translate(5.000000 5.000000)"
              fill="#FFFFFF" fill-opacity="0"/>
        <rect id="Icons-instagram" width="14.000000" height="14.000000" transform="translate(5.000000 5.000000)"
              fill="#FFFFFF" fill-opacity="0"/>
        <rect id="Icons-instagram" width="14.000000" height="14.000000" transform="translate(5.000000 5.000000)"
              fill="#FFFFFF" fill-opacity="0"/>
        <g clip-path="url(#clip1_65)">
            <path id="Vector"
                  d="M12 6.1665C13.5848 6.1665 13.7826 6.17236 14.4044 6.20166C15.0258 6.23047 15.4486 6.32812 15.8208 6.47266C16.2058 6.62109 16.5302 6.82178 16.8545 7.14551C17.1511 7.43701 17.3806 7.78955 17.5271 8.1792C17.6711 8.55078 17.7692 8.97412 17.7983 9.59521C17.8257 10.2173 17.8333 10.415 17.8333 12C17.8333 13.585 17.8275 13.7827 17.7983 14.4043C17.7692 15.0254 17.6711 15.4487 17.5271 15.8208C17.381 16.2104 17.1515 16.563 16.8545 16.8545C16.5627 17.1509 16.2101 17.3804 15.8208 17.5269C15.4492 17.6709 15.0258 17.769 14.4044 17.7983C13.7826 17.8257 13.5848 17.833 12 17.833C10.415 17.833 10.2173 17.8271 9.59546 17.7983C8.97424 17.769 8.55127 17.6709 8.17908 17.5269C7.78967 17.3809 7.43689 17.1514 7.14551 16.8545C6.84875 16.563 6.61926 16.21 6.4729 15.8208C6.32825 15.4492 6.23083 15.0254 6.20166 14.4043C6.17419 13.7827 6.16663 13.585 6.16663 12C6.16663 10.415 6.17249 10.2173 6.20166 9.59521C6.23083 8.97363 6.32825 8.55127 6.4729 8.1792C6.6189 7.78955 6.84839 7.43652 7.14551 7.14551C7.43689 6.84863 7.78967 6.61914 8.17908 6.47266C8.55127 6.32812 8.97363 6.23047 9.59546 6.20166C10.2173 6.17432 10.415 6.1665 12 6.1665ZM12 9.08301C11.2264 9.08301 10.4845 9.39062 9.93762 9.9375C9.39062 10.4844 9.08325 11.2261 9.08325 12C9.08325 12.7734 9.39062 13.5151 9.93762 14.062C10.4845 14.6094 11.2264 14.9165 12 14.9165C12.7736 14.9165 13.5154 14.6094 14.0624 14.062C14.6094 13.5151 14.9166 12.7734 14.9166 12C14.9166 11.2261 14.6094 10.4844 14.0624 9.9375C13.5154 9.39062 12.7736 9.08301 12 9.08301ZM15.7916 8.9375C15.7916 8.74414 15.7148 8.55859 15.578 8.42188C15.4413 8.28516 15.2559 8.20801 15.0625 8.20801C14.869 8.20801 14.6836 8.28516 14.5469 8.42188C14.4102 8.55859 14.3333 8.74414 14.3333 8.9375C14.3333 9.13086 14.4102 9.31641 14.5469 9.45312C14.6836 9.58984 14.869 9.6665 15.0625 9.6665C15.2559 9.6665 15.4413 9.58984 15.578 9.45312C15.7148 9.31641 15.7916 9.13086 15.7916 8.9375ZM12 10.25C12.4641 10.25 12.9092 10.4341 13.2374 10.7622C13.5656 11.0908 13.75 11.5356 13.75 12C13.75 12.4639 13.5656 12.9092 13.2374 13.2373C12.9092 13.5654 12.4641 13.75 12 13.75C11.5359 13.75 11.0907 13.5654 10.7626 13.2373C10.4343 12.9092 10.25 12.4639 10.25 12C10.25 11.5356 10.4343 11.0908 10.7626 10.7622C11.0907 10.4341 11.5359 10.25 12 10.25Z"
                  fill="#2B2B2B" fill-opacity="1.000000" fill-rule="nonzero"/>
        </g>
    </g>

    <g id="twitter">
        <desc>
            Created with Pixso.
        </desc>
        <defs>
            <clipPath id="clip1_72">
                <rect id="Icons-twitter" width="14.000000" height="14.000000" transform="translate(5.000000 5.000000)"
                      fill="white" fill-opacity="0"/>
            </clipPath>
        </defs>
        <circle id="Ellipse 9" cx="12.000000" cy="12.000000" r="12.000000" fill="#FFB400" fill-opacity="1.000000"/>
        <rect id="Icons-twitter" width="14.000000" height="14.000000" transform="translate(5.000000 5.000000)"
              fill="#FFFFFF" fill-opacity="0"/>
        <rect id="Icons-twitter" width="14.000000" height="14.000000" transform="translate(5.000000 5.000000)"
              fill="#FFFFFF" fill-opacity="0"/>
        <rect id="Icons-twitter" width="14.000000" height="14.000000" transform="translate(5.000000 5.000000)"
              fill="#FFFFFF" fill-opacity="0"/>
        <g clip-path="url(#clip1_72)">
            <path id="Vector"
                  d="M17.9279 8.29932C17.4824 8.49658 17.0103 8.62598 16.5266 8.68359C17.0364 8.37842 17.4178 7.89893 17.6 7.3335C17.1216 7.61816 16.5972 7.81787 16.0507 7.92578C15.6835 7.53271 15.1969 7.27246 14.6664 7.18457C14.1359 7.09668 13.5913 7.18701 13.1172 7.44043C12.6432 7.69434 12.2662 8.09766 12.0449 8.5874C11.8237 9.07764 11.7706 9.62695 11.8938 10.1504C10.9238 10.1021 9.97485 9.84961 9.10852 9.41064C8.24231 8.97119 7.47803 8.35498 6.86548 7.60107C6.64868 7.97363 6.53467 8.39697 6.53528 8.82812C6.53528 9.67383 6.96582 10.4209 7.62036 10.8584C7.23303 10.8462 6.85413 10.7417 6.5155 10.5537L6.5155 10.584C6.51562 11.147 6.71057 11.6934 7.06726 12.1294C7.42395 12.5649 7.92041 12.8643 8.47253 12.9761C8.11304 13.0737 7.73596 13.0879 7.37 13.0181C7.52576 13.5029 7.8291 13.9272 8.23779 14.231C8.64648 14.5347 9.14001 14.7031 9.64917 14.7129C9.14307 15.1104 8.5636 15.4038 7.94397 15.5771C7.32434 15.7505 6.67651 15.8003 6.03772 15.7231C7.15283 16.4404 8.45105 16.8208 9.77686 16.8198C14.2645 16.8198 16.7185 13.1021 16.7185 9.87793C16.7185 9.77295 16.7156 9.66699 16.7109 9.56299C17.1886 9.21777 17.601 8.79004 17.9283 8.30029L17.9279 8.29932Z"
                  fill="#2B2B2B" fill-opacity="1.000000" fill-rule="nonzero"/>
        </g>
    </g>

    <g id="linkedin">
        <desc>
            Created with Pixso.
        </desc>
        <defs>
            <clipPath id="clip1_79">
                <rect id="Icons-linkedin" width="14.000000" height="14.000000" transform="translate(5.000000 5.000000)"
                      fill="white" fill-opacity="0"/>
            </clipPath>
        </defs>
        <circle id="Ellipse 18" cx="12.000000" cy="12.000000" r="12.000000" fill="#FFB400" fill-opacity="1.000000"/>
        <rect id="Icons-linkedin" width="14.000000" height="14.000000" transform="translate(5.000000 5.000000)"
              fill="#FFFFFF" fill-opacity="0"/>
        <rect id="Icons-linkedin" width="14.000000" height="14.000000" transform="translate(5.000000 5.000000)"
              fill="#FFFFFF" fill-opacity="0"/>
        <rect id="Icons-linkedin" width="14.000000" height="14.000000" transform="translate(5.000000 5.000000)"
              fill="#FFFFFF" fill-opacity="0"/>
        <g clip-path="url(#clip1_79)">
            <path id="Vector"
                  d="M9.04834 7.91699C9.0481 8.22607 8.92505 8.52295 8.70618 8.7417C8.4873 8.96045 8.19043 9.08301 7.8811 9.08301C7.57166 9.08252 7.2749 8.95947 7.05627 8.74072C6.83752 8.52197 6.71484 8.2251 6.71497 7.91553C6.71509 7.60596 6.83813 7.30957 7.05713 7.09082C7.276 6.87207 7.57275 6.74951 7.8822 6.74951C8.19165 6.74951 8.48828 6.87256 8.70703 7.0918C8.92566 7.31055 9.04846 7.60742 9.04834 7.91699ZM9.08325 9.94678L6.75 9.94678L6.75 17.25L9.08325 17.25L9.08325 9.94678ZM12.77 9.94678L10.4482 9.94678L10.4482 17.25L12.7466 17.25L12.7466 13.4175C12.7466 11.2827 15.5292 11.0845 15.5292 13.4175L15.5292 17.25L17.8333 17.25L17.8333 12.624C17.8333 9.0249 13.715 9.15918 12.7466 10.9268L12.77 9.94678Z"
                  fill="#2B2B2B" fill-opacity="1.000000" fill-rule="nonzero"/>
        </g>
    </g>

    <g id="youtube">
        <desc>
            Created with Pixso.
        </desc>
        <defs>
            <clipPath id="clip1_86">
                <rect id="Icons-Youtube" width="14.000000" height="14.000000" transform="translate(5.000000 5.000000)"
                      fill="white" fill-opacity="0"/>
            </clipPath>
        </defs>
        <circle id="Ellipse 9" cx="12.000000" cy="12.000000" r="12.000000" fill="#FFB400" fill-opacity="1.000000"/>
        <rect id="Icons-Youtube" width="14.000000" height="14.000000" transform="translate(5.000000 5.000000)"
              fill="#FFFFFF" fill-opacity="0"/>
        <rect id="Icons-Youtube" width="14.000000" height="14.000000" transform="translate(5.000000 5.000000)"
              fill="#FFFFFF" fill-opacity="0"/>
        <rect id="Icons-Youtube" width="14.000000" height="14.000000" transform="translate(5.000000 5.000000)"
              fill="#FFFFFF" fill-opacity="0"/>
        <g clip-path="url(#clip1_86)">
            <path id="Vector"
                  d="M17.5667 8.79053C17.8333 9.83008 17.8333 12 17.8333 12C17.8333 12 17.8333 14.1699 17.5667 15.2095C17.4186 15.7842 16.9851 16.2363 16.4362 16.3892C15.4393 16.667 12 16.667 12 16.667C12 16.667 8.56238 16.667 7.56372 16.3892C7.01245 16.2339 6.57959 15.7827 6.43323 15.2095C6.16663 14.1699 6.16663 12 6.16663 12C6.16663 12 6.16663 9.83008 6.43323 8.79053C6.58142 8.21631 7.01477 7.76416 7.56372 7.61133C8.56238 7.3335 12 7.3335 12 7.3335C12 7.3335 15.4393 7.3335 16.4362 7.61133C16.9874 7.76611 17.4203 8.21777 17.5667 8.79053ZM10.8333 14.042L14.3333 12L10.8333 9.9585L10.8333 14.042Z"
                  fill="#2B2B2B" fill-opacity="1.000000" fill-rule="nonzero"/>
        </g>
    </g>

    <g id="dribbble">
        <desc>
            Created with Pixso.
        </desc>
        <defs>
            <clipPath id="clip1_93">
                <rect id="Icons-dribbble" width="14.000000" height="14.000000" transform="translate(5.000000 5.000000)"
                      fill="white" fill-opacity="0"/>
            </clipPath>
        </defs>
        <circle id="Ellipse 9" cx="12.000000" cy="12.000000" r="12.000000" fill="#FFB400" fill-opacity="1.000000"/>
        <rect id="Icons-dribbble" width="14.000000" height="14.000000" transform="translate(5.000000 5.000000)"
              fill="#FFFFFF" fill-opacity="0"/>
        <rect id="Icons-dribbble" width="14.000000" height="14.000000" transform="translate(5.000000 5.000000)"
              fill="#FFFFFF" fill-opacity="0"/>
        <rect id="Icons-dribbble" width="14.000000" height="14.000000" transform="translate(5.000000 5.000000)"
              fill="#FFFFFF" fill-opacity="0"/>
        <g clip-path="url(#clip1_93)">
            <path id="Vector"
                  d="M16.6602 11.75C16.6124 10.832 16.2931 9.94873 15.7427 9.21191C15.575 9.39258 15.3956 9.56201 15.2059 9.71973C14.6232 10.2036 13.9719 10.5986 13.2733 10.8921C13.3708 11.0962 13.4601 11.2939 13.5388 11.4805L13.5388 11.4824C13.561 11.5347 13.5824 11.5869 13.6029 11.6401C14.4861 11.5405 15.4171 11.5771 16.3196 11.6987C16.4397 11.7153 16.5529 11.7329 16.6602 11.75ZM11.1857 7.4043C11.7542 8.20557 12.2783 9.03711 12.756 9.89502C13.4694 9.61377 14.0591 9.25928 14.5339 8.86426C14.6987 8.72852 14.8539 8.58154 14.9983 8.42383C14.1588 7.71777 13.0968 7.33154 12 7.33301C11.7269 7.33301 11.4545 7.35645 11.1857 7.40381L11.1857 7.4043ZM7.48083 10.8315C7.8783 10.8213 8.27515 10.7974 8.6709 10.7598C9.62732 10.6743 10.5756 10.5137 11.5071 10.2803C11.0203 9.43457 10.4948 8.61182 9.93201 7.81445C9.33105 8.1123 8.80115 8.53564 8.37817 9.05615C7.9552 9.57666 7.64929 10.1821 7.48083 10.8315ZM8.37341 14.937C8.59973 14.606 8.89722 14.2339 9.29211 13.8291C10.1403 12.96 11.1412 12.2832 12.2998 11.9102L12.3359 11.8994C12.2397 11.687 12.1493 11.4976 12.0583 11.3188C10.9873 11.6313 9.85913 11.8262 8.73499 11.9268C8.18677 11.9766 7.69495 11.998 7.33325 12.0015C7.33228 13.0708 7.69983 14.1074 8.3739 14.937L8.37341 14.937ZM13.7529 16.3252C13.528 15.1909 13.2095 14.0771 12.8009 12.9951C11.6331 13.4189 10.7026 14.0391 9.9834 14.7788C9.69312 15.0718 9.43555 15.3955 9.21509 15.7441C10.0194 16.3442 10.9965 16.668 12 16.6665C12.6007 16.6675 13.196 16.5518 13.7529 16.3267L13.7529 16.3252ZM14.8455 15.6982C15.7562 14.998 16.3766 13.9863 16.5879 12.8574C16.3895 12.8076 16.1382 12.7583 15.8616 12.7197C15.2468 12.6313 14.623 12.6245 14.0066 12.7002C14.3538 13.6797 14.634 14.6816 14.8455 15.6987L14.8455 15.6982ZM12 17.833C8.7782 17.833 6.16663 15.2217 6.16663 12C6.16663 8.77832 8.7782 6.1665 12 6.1665C15.2217 6.1665 17.8333 8.77832 17.8333 12C17.8333 15.2217 15.2217 17.833 12 17.833Z"
                  fill="#2B2B2B" fill-opacity="1.000000" fill-rule="nonzero"/>
        </g>
    </g>
</svg>
