<svg width="40.000000" height="40.000000" viewBox="0 0 40 40" fill="none" xmlns="http://www.w3.org/2000/svg" xmlns:xlink="http://www.w3.org/1999/xlink">
    <desc>
        Created with Pixso.
    </desc>
    <defs>
        <clipPath id="clip1_997">
            <rect id="Icons/location" width="18.000000" height="18.000000" transform="translate(11.000000 11.000000)" fill="white" fill-opacity="0"/>
        </clipPath>
    </defs>
    <circle id="Ellipse 41" cx="20.000000" cy="20.000000" r="20.000000" fill="#FFB400" fill-opacity="1.000000"/>
    <rect id="cons/location" width="18.000000" height="18.000000" transform="translate(11.000000 11.000000)" fill="#FFFFFF" fill-opacity="0"/>
    <rect id="cons/location" width="18.000000" height="18.000000" transform="translate(11.000000 11.000000)" fill="#FFFFFF" fill-opacity="0"/>
    <rect id="Icons/location" width="18.000000" height="18.000000" transform="translate(11.000000 11.000000)" fill="#FFFFFF" fill-opacity="0"/>
    <g clip-path="url(#clip1_997)">
        <path id="Vector" d="M12.5 14.75L17.75 12.5L22.25 14.75L26.9772 12.7242C27.0343 12.6998 27.0966 12.6898 27.1584 12.6954C27.2202 12.7009 27.2797 12.7217 27.3315 12.756C27.3834 12.7902 27.4259 12.8367 27.4553 12.8914C27.4847 12.946 27.5001 13.0072 27.5 13.0692L27.5 25.25L22.25 27.5L17.75 25.25L13.0228 27.2758C12.9657 27.3002 12.9034 27.3102 12.8416 27.3046C12.7798 27.2991 12.7203 27.2783 12.6685 27.244C12.6166 27.2098 12.5741 27.1633 12.5447 27.1086C12.5153 27.054 12.4999 26.9928 12.5 26.9308L12.5 14.75ZM22.25 25.823L22.25 16.382L22.2012 16.403L17.75 14.177L17.75 23.618L17.7988 23.597L22.25 25.823Z" fill="#2B2B2B" fill-opacity="1.000000" fill-rule="nonzero"/>
    </g>
</svg>
