<svg width="40.000000" height="40.000000" viewBox="0 0 40 40" fill="none" xmlns="http://www.w3.org/2000/svg" xmlns:xlink="http://www.w3.org/1999/xlink">
    <desc>
        Created with Pixso.
    </desc>
    <defs>
        <clipPath id="clip1_983">
            <rect id="Icons/Mobile" width="18.000000" height="18.000000" transform="translate(11.000000 11.000000)" fill="white" fill-opacity="0"/>
        </clipPath>
    </defs>
    <circle id="Ellipse 43" cx="20.000000" cy="20.000000" r="20.000000" fill="#FFB400" fill-opacity="1.000000"/>
    <rect id="Icons/Mobile" width="18.000000" height="18.000000" transform="translate(11.000000 11.000000)" fill="#FFFFFF" fill-opacity="0"/>
    <rect id="Icons/Mobile" width="18.000000" height="18.000000" transform="translate(11.000000 11.000000)" fill="#FFFFFF" fill-opacity="0"/>
    <rect id="Icons/Mobile" width="18.000000" height="18.000000" transform="translate(11.000000 11.000000)" fill="#FFFFFF" fill-opacity="0"/>
    <g clip-path="url(#clip1_983)">
        <path id="Vector" d="M15.5 12.5L24.5 12.5C24.6989 12.5 24.8896 12.579 25.0303 12.7197C25.171 12.8604 25.25 13.0511 25.25 13.25L25.25 26.75C25.25 26.9489 25.171 27.1396 25.0303 27.2803C24.8896 27.421 24.6989 27.5 24.5 27.5L15.5 27.5C15.3011 27.5 15.1104 27.421 14.9697 27.2803C14.829 27.1396 14.75 26.9489 14.75 26.75L14.75 13.25C14.75 13.0511 14.829 12.8604 14.9697 12.7197C15.1104 12.579 15.3011 12.5 15.5 12.5ZM20 23.75C19.8011 23.75 19.6104 23.829 19.4697 23.9697C19.329 24.1104 19.25 24.3011 19.25 24.5C19.25 24.6989 19.329 24.8896 19.4697 25.0303C19.6104 25.171 19.8011 25.25 20 25.25C20.1989 25.25 20.3896 25.171 20.5303 25.0303C20.671 24.8896 20.75 24.6989 20.75 24.5C20.75 24.3011 20.671 24.1104 20.5303 23.9697C20.3896 23.829 20.1989 23.75 20 23.75Z" fill="#2B2B2B" fill-opacity="1.000000" fill-rule="nonzero"/>
    </g>
</svg>
