<svg width="24.000000" height="24.000000" viewBox="0 0 24 24" fill="none" xmlns="http://www.w3.org/2000/svg" xmlns:xlink="http://www.w3.org/1999/xlink">
    <desc>
        Created with Pixso.
    </desc>
    <defs>
        <clipPath id="clip10_2014">
            <rect id="Icons/Copyright" width="24.000000" height="24.000000" fill="white" fill-opacity="0"/>
        </clipPath>
    </defs>
    <rect id="Icons/Copyright" width="24.000000" height="24.000000" fill="#FFFFFF" fill-opacity="0"/>
    <rect id="Icons/Copyright" width="24.000000" height="24.000000" fill="#FFFFFF" fill-opacity="0"/>
    <rect id="Icons/Copyright" width="24.000000" height="24.000000" fill="#FFFFFF" fill-opacity="0"/>
    <g clip-path="url(#clip10_2014)">
        <path id="Vector" d="M12 2C17.52 2 22 6.47998 22 12C22 17.52 17.52 22 12 22C6.47998 22 2 17.52 2 12C2 6.47998 6.47998 2 12 2ZM12 4C7.57996 4 4 7.58008 4 12C4 16.4199 7.57996 20 12 20C16.42 20 20 16.4199 20 12C20 7.58008 16.42 4 12 4ZM12 7C13.8199 7 15.413 7.9729 16.288 9.42798L14.574 10.457C14.3043 10.0073 13.9214 9.63599 13.4634 9.38037C13.0055 9.12476 12.4885 8.99365 11.9641 9.00024C11.4397 9.00684 10.9261 9.15063 10.4747 9.41748C10.0232 9.68433 9.64966 10.0649 9.39111 10.5212C9.13257 10.9773 8.99817 11.4934 9.00134 12.0178C9.00439 12.5425 9.14502 13.0569 9.40894 13.51C9.67297 13.9631 10.051 14.3391 10.5057 14.6006C10.9603 14.8621 11.4756 14.9998 12 15C12.5182 15.0002 13.0275 14.8665 13.4784 14.6113C13.9294 14.356 14.3065 13.9883 14.573 13.5439L16.288 14.572C15.7261 15.5105 14.8717 16.239 13.856 16.6453C12.8402 17.0518 11.7192 17.1138 10.6649 16.8218C9.6106 16.5298 8.68115 15.8999 8.01917 15.0291C7.35718 14.158 6.99915 13.094 7 12C7 9.23999 9.23999 7 12 7Z" fill="#000000" fill-opacity="1.000000" fill-rule="nonzero"/>
    </g>
</svg>
