<svg width="140.000000" height="140.000000" viewBox="0 0 140 140" fill="none" xmlns="http://www.w3.org/2000/svg" xmlns:xlink="http://www.w3.org/1999/xlink">
	<desc>
			Created with Pixso.
	</desc>
	<defs>
		<clipPath id="clip10_1727">
			<rect id="Frame" width="140.000000" height="140.000000" fill="white" fill-opacity="0"/>
		</clipPath>
	</defs>
	<rect id="Frame" width="140.000000" height="140.000000" fill="#FFFFFF" fill-opacity="0"/>
	<g clip-path="url(#clip10_1727)">
		<path id="Vector" d="M28.2573 56.929C28.2742 57.6382 28.1929 58.3716 28.0101 59.1292C27.8273 59.887 27.5698 60.6204 27.2415 61.3296C26.8215 62.2256 26.3136 63.0352 25.7177 63.7546C25.1217 64.4741 24.4783 65.0935 23.7842 65.6194C23.1442 66.0864 22.4736 66.4426 21.7694 66.6848C21.0651 66.927 20.3844 67.0481 19.7275 67.0481L19.6191 67.0481C18.7963 67.0308 18.0547 66.8372 17.3978 66.4739C16.7408 66.1106 16.1923 65.5813 15.7521 64.8894C15.4609 65.3945 15.2036 65.8477 14.9834 66.249C14.7633 66.6504 14.5804 66.9651 14.4349 67.1865C13.0804 69.4456 11.8038 71.1375 10.595 72.2583C9.90076 72.874 9.20667 73.3376 8.50903 73.6455C7.81494 73.9534 7.09363 74.1091 6.34192 74.1091C5.26172 74.1091 4.4491 73.8186 3.90051 73.2407C3.38916 72.6802 3.13184 71.9607 3.13184 71.082C3.13184 70.3174 3.31128 69.4976 3.66687 68.6292C4.02246 67.7607 4.51343 66.9341 5.13306 66.1487C5.8103 65.2908 6.54175 64.6265 7.32727 64.1594C8.11292 63.6924 8.89172 63.457 9.65698 63.457C10.297 63.457 10.8185 63.644 11.2214 64.0176C11.5702 64.3533 11.7429 64.8132 11.7429 65.3911C11.7429 65.8752 11.621 66.3909 11.3738 66.9304C11.1266 67.4736 10.7948 67.9753 10.3715 68.4424C9.93127 68.9302 9.44702 69.3108 8.91882 69.5908C8.29578 69.9092 7.69299 70.0684 7.10718 70.0684C6.96155 70.0684 6.84314 70.0234 6.75171 69.9265C6.66028 69.833 6.61621 69.7119 6.61621 69.5632C6.61621 69.4146 6.66028 69.2969 6.75171 69.2139C6.84314 69.1309 6.96155 69.0894 7.10718 69.0894C7.54736 69.0894 7.98767 68.9785 8.43799 68.7537C8.88501 68.5288 9.30139 68.2036 9.68408 67.7747C10.0126 67.4011 10.2766 66.9998 10.4799 66.5708C10.6797 66.1418 10.7812 65.7507 10.7812 65.3945C10.7812 65.301 10.771 65.1973 10.7542 65.0867C10.7372 64.9758 10.6864 64.8721 10.6017 64.7786C10.5205 64.6853 10.4054 64.6057 10.2598 64.54C10.1141 64.4744 9.91101 64.4431 9.65698 64.4431C9.03394 64.4431 8.39392 64.6438 7.73706 65.0452C7.08008 65.4463 6.45703 66.0208 5.87122 66.7678C5.32275 67.46 4.88928 68.1863 4.56763 68.9543C4.24585 69.719 4.08679 70.4316 4.08679 71.0854C4.08679 71.7219 4.25269 72.2063 4.58118 72.542C4.92651 72.9329 5.51233 73.1301 6.33521 73.1301C7.56091 73.1301 8.75623 72.5869 9.92786 71.5042C11.0792 70.4592 12.3049 68.8506 13.6019 66.6848C13.7476 66.4426 13.9438 66.1106 14.191 65.6885C14.4382 65.27 14.7125 64.7891 15.0139 64.2458C15.3153 63.7026 15.6268 63.1216 15.9452 62.4954C16.2634 61.8691 16.5715 61.2292 16.8628 60.5752C17.303 59.624 17.645 58.7971 17.8922 58.0947C18.1394 57.396 18.312 56.7905 18.4137 56.2888C18.5153 55.7839 18.5592 55.3755 18.5491 55.0574C18.5389 54.739 18.5084 54.4866 18.4543 54.2996C18.3459 53.9641 18.1427 53.7393 17.8516 53.6284C17.4316 53.459 17.0151 53.4001 16.6055 53.4451C16.1924 53.4937 15.7996 53.6042 15.427 53.7808C15.0511 53.9573 14.7058 54.1958 14.3842 54.4968C14.0624 54.7944 13.7848 55.1128 13.5477 55.4482C13.165 56.0469 12.9247 56.6245 12.8333 57.1851C12.796 57.3718 12.7926 57.5759 12.8197 57.8008C12.8468 58.0256 12.9417 58.2402 13.1075 58.4443C13.4733 58.894 13.9202 58.9285 14.4518 58.5549C14.8345 58.3127 15.129 57.9668 15.3289 57.5171C15.5287 57.1262 15.5659 56.7976 15.4373 56.5381C15.3085 56.2405 15.3898 56.0261 15.6844 55.8945C15.7927 55.8391 15.9113 55.8289 16.0399 55.8669C16.1686 55.905 16.26 55.988 16.3142 56.1194C16.4429 56.3823 16.4937 56.666 16.4666 56.9739C16.4395 57.2817 16.3583 57.5862 16.2194 57.8838C16.084 58.1814 15.9078 58.4685 15.698 58.7383C15.488 59.0081 15.2544 59.2295 14.9969 59.3955C14.594 59.6584 14.1572 59.7866 13.6798 59.7866C13.2057 59.7693 12.7655 59.5339 12.3625 59.0876C11.9224 58.5447 11.7598 57.863 11.8682 57.0432C11.9766 56.3132 12.2711 55.5969 12.7452 54.8843C13.0364 54.4727 13.3851 54.0852 13.7881 53.7219C14.191 53.3586 14.6279 53.0681 15.1053 52.8535C15.5795 52.6392 16.0806 52.5076 16.5986 52.4626C17.1201 52.4177 17.645 52.4939 18.1766 52.7014C18.7252 52.9263 19.1179 53.345 19.355 53.9607C19.4464 54.2788 19.4972 54.6387 19.5074 55.04C19.5176 55.4414 19.4668 55.8945 19.355 56.3997C19.8494 55.8564 20.3438 55.3894 20.8347 54.9985C21.512 54.4207 22.1892 53.9607 22.863 53.625C23.5403 53.2896 24.1702 53.075 24.756 52.9817C25.799 52.8328 26.6116 53.075 27.1974 53.7117C27.9084 54.4172 28.2573 55.4897 28.2573 56.929ZM26.3644 60.9075C27.0214 59.5825 27.3329 58.2644 27.2957 56.9565C27.2957 56.3789 27.2312 55.8704 27.1025 55.4309C26.9739 54.9917 26.7809 54.6526 26.527 54.407C26.1781 53.9951 25.6398 53.8464 24.9083 53.9573C24.4139 54.0332 23.8654 54.2236 23.2627 54.5315C22.6599 54.8394 22.0571 55.2476 21.451 55.7493C20.828 56.2544 20.2659 56.8079 19.7648 57.4167C19.2603 58.0256 18.8369 58.6448 18.4882 59.2815C18.4882 59.2988 18.4847 59.3091 18.4746 59.3091C18.4645 59.3091 18.4611 59.3196 18.4611 59.3367C18.3527 59.5996 18.241 59.8662 18.1326 60.136C18.0243 60.4058 17.8956 60.6929 17.75 60.9905C17.2759 62.0181 16.7916 62.9797 16.2972 63.8757C16.6257 64.585 17.0795 65.1211 17.6552 65.4878C18.2308 65.8511 18.8945 66.0449 19.6428 66.0623C20.2286 66.0793 20.828 65.9827 21.4409 65.7681C22.0538 65.5537 22.6532 65.2319 23.239 64.803C23.8789 64.3359 24.4647 63.7754 24.993 63.1216C25.5212 62.4678 25.9784 61.7307 26.3644 60.9075Z" fill="#767676" fill-opacity="1.000000" fill-rule="nonzero"/>
		<path id="Vector" d="M34.0144 68.6951C34.1058 68.7886 34.1566 68.8992 34.1667 69.0308C34.177 69.1621 34.1329 69.2729 34.0449 69.3662C34.028 69.4043 33.8248 69.6292 33.4421 70.0374C33.0594 70.4492 32.5448 70.9058 31.9048 71.4109C30.1305 72.7739 28.522 73.4556 27.0795 73.4556C26.3108 73.4556 25.7318 73.3171 25.339 73.0369C24.9462 72.7568 24.6584 72.4661 24.4756 72.1687C24.1267 71.5527 24.0286 70.7812 24.1742 69.8577C24.3198 68.9338 24.7125 67.9099 25.3525 66.7888C26.2465 65.1628 27.2217 63.8379 28.2748 62.8103C29.3246 61.783 30.3167 61.1843 31.2513 61.0183C31.9658 60.9075 32.5583 61.0459 33.0325 61.4404C33.3981 61.7585 33.5979 62.1875 33.6351 62.7307C33.6521 63.2913 33.4794 63.9141 33.1136 64.5955C32.7479 65.2771 32.2163 65.9724 31.5222 66.6816C30.7535 67.4844 29.9408 68.0725 29.0807 68.446C28.3662 68.7644 27.6823 68.9236 27.0254 68.9236C26.6969 68.9236 26.4022 68.8958 26.1483 68.8403C25.891 68.7852 25.681 68.7195 25.5184 68.6433C25.427 68.8855 25.3491 69.1138 25.2848 69.3281C25.2205 69.5427 25.1697 69.7537 25.1324 69.958C25.024 70.7051 25.0851 71.2761 25.3254 71.667C25.6167 72.2102 26.2025 72.48 27.0795 72.48C27.8279 72.48 28.5729 72.2898 29.3143 71.9058C30.0559 71.5217 30.723 71.0996 31.3157 70.6326C31.9082 70.1655 32.3925 69.7366 32.7683 69.342C33.1442 68.9512 33.3304 68.7437 33.3304 68.7263C33.4219 68.6328 33.5302 68.5811 33.6588 68.5706C33.7875 68.5603 33.906 68.6018 34.0144 68.6951ZM26.172 67.2664C26.1348 67.3599 26.0907 67.4429 26.0366 67.5188C25.9824 67.595 25.9349 67.678 25.8977 67.7715C26.0433 67.8096 26.2126 67.8477 26.4056 67.8821C26.5986 67.9202 26.8221 67.9375 27.0762 67.9375C28.3391 67.9202 29.5989 67.2732 30.8618 66.0037C31.4476 65.405 31.8981 64.8237 32.2197 64.2529C32.5381 63.6821 32.6904 63.1943 32.6735 62.7827C32.6362 62.5405 32.5549 62.3433 32.4263 62.1946C32.1689 61.9697 31.8303 61.9038 31.4104 61.9973C31.0447 62.0527 30.652 62.2188 30.2321 62.4885C29.8121 62.7585 29.3821 63.1113 28.9419 63.5403C27.9531 64.5125 27.0321 65.7544 26.172 67.2664Z" fill="#767676" fill-opacity="1.000000" fill-rule="nonzero"/>
		<path id="Vector" d="M40.651 61.5786C40.9625 61.6167 41.1183 61.7932 41.1183 62.1116C41.1013 62.2603 41.0404 62.3779 40.9387 62.4609C40.8372 62.5439 40.7255 62.5786 40.5968 62.5579C40.1938 62.5198 39.7197 62.5024 39.1711 62.5024C38.6227 62.5024 38.0741 62.5127 37.5255 62.53C37.1226 63.2012 36.7332 63.8794 36.3607 64.5608C35.9849 65.2424 35.6631 65.8652 35.3888 66.4255C34.8572 67.4705 34.4712 68.3457 34.224 69.0444C33.9768 69.7434 33.8075 70.3108 33.7161 70.7397C33.6246 71.1687 33.5975 71.4973 33.6348 71.7188C33.672 71.9436 33.7161 72.0925 33.7737 72.1685C33.7905 72.2065 33.838 72.2585 33.9091 72.3242C33.9836 72.3899 34.136 72.4211 34.3763 72.4211C34.6879 72.4211 35.0671 72.314 35.5142 72.0994C35.9611 71.8848 36.4521 71.5803 36.9803 71.1895C37.4205 70.854 37.8607 70.4734 38.3112 70.0547C38.7581 69.6326 39.1475 69.2175 39.476 68.8093C39.5674 68.7158 39.6758 68.6604 39.8044 68.6396C39.9331 68.6226 40.0516 68.657 40.1599 68.7505C40.2513 68.844 40.3055 68.9546 40.3259 69.0859C40.3428 69.2175 40.309 69.3386 40.2175 69.4492C39.8518 69.8784 39.4353 70.3142 38.9714 70.7537C38.5042 71.1929 38.0267 71.5977 37.5323 71.9714C36.2896 72.9229 35.2365 73.4001 34.3798 73.4001C33.9598 73.4001 33.6382 73.3206 33.4215 73.1614C33.2014 73.0024 33.0457 72.8398 32.9542 72.6702C32.6055 72.1099 32.5986 71.2136 32.9271 69.9785C33.2014 68.9338 33.7397 67.5984 34.5457 65.9724C34.803 65.4673 35.0841 64.9207 35.3956 64.3325C35.7072 63.7444 36.0458 63.1423 36.4115 62.5266C36.1542 62.5439 35.9205 62.5579 35.7106 62.5681C35.5006 62.5786 35.3212 62.582 35.1755 62.582C34.9927 62.5994 34.8268 62.6096 34.6812 62.6096L34.6541 62.6096C34.3628 62.6096 34.1969 62.4504 34.1597 62.1323C34.1597 61.9834 34.2003 61.8623 34.2816 61.769C34.3628 61.6755 34.4779 61.6272 34.6235 61.6272C34.6608 61.6272 34.9012 61.6167 35.3516 61.5994C35.7986 61.582 36.3438 61.5613 36.9838 61.5442C37.3121 60.9836 37.6271 60.4509 37.9285 59.9458C38.2299 59.4407 38.494 58.9944 38.7242 58.5999C38.951 58.209 39.2118 57.78 39.5065 57.3096C39.5809 57.1987 39.6791 57.1226 39.8079 57.0847C39.9365 57.0466 40.0549 57.0674 40.1633 57.1399C40.4376 57.3269 40.4918 57.562 40.3292 57.8423C40.0719 58.2332 39.8451 58.5999 39.6453 58.9355C39.4454 59.271 39.2118 59.6587 38.9443 60.0979C38.6802 60.5374 38.3992 61.0078 38.1079 61.5129C38.582 61.5129 39.0459 61.5129 39.4929 61.5129C39.9331 61.5234 40.3225 61.5405 40.651 61.5786Z" fill="#767676" fill-opacity="1.000000" fill-rule="nonzero"/>
		<path id="Vector" d="M48.9865 68.7539C49.0779 68.8474 49.1321 68.958 49.1523 69.0894C49.1693 69.2209 49.1354 69.342 49.0439 69.4526C49.0067 69.4907 48.9628 69.5356 48.9086 69.5911C48.8544 69.6465 48.807 69.7019 48.7731 69.7605C47.9333 70.8054 47.1647 71.6772 46.4705 72.3657C45.7764 73.0576 45.1364 73.4036 44.5505 73.4036C44.0392 73.4036 43.6633 73.1995 43.4263 72.7876C43.1893 72.3379 43.1893 71.6875 43.4263 70.8262C43.6633 69.9856 44.1747 68.8645 44.9636 67.4634C45.1093 67.2004 45.1194 66.7786 44.9907 66.1904C44.8621 65.6023 44.6082 64.907 44.222 64.1042C43.7277 64.8135 43.1554 65.6091 42.5087 66.4844C41.8585 67.3633 41.1068 68.3423 40.2467 69.425C40.1553 69.5356 40.0469 69.6016 39.9182 69.6223C39.7896 69.6396 39.6813 69.605 39.5898 69.5115C39.4814 69.4182 39.4171 69.3074 39.3967 69.176C39.3799 69.0444 39.4137 68.9233 39.5051 68.8127C41.3336 66.4775 42.7322 64.592 43.7006 63.1528C43.5347 62.8 43.4907 62.3745 43.5652 61.8799C43.6362 61.385 43.7209 60.9802 43.8124 60.6621C43.8496 60.5686 43.9004 60.4233 43.9647 60.2261C44.0291 60.0291 44.1171 59.8213 44.2255 59.5964C44.3339 59.3716 44.4591 59.1467 44.5946 58.9253C44.7334 58.7004 44.8926 58.5137 45.0754 58.365C45.2751 58.1953 45.4851 58.1089 45.7052 58.0986C45.9253 58.0881 46.1251 58.1677 46.308 58.3372C46.6906 58.6729 46.7753 59.2263 46.5552 59.991C46.3553 60.5894 45.9795 61.3469 45.4309 62.2603C45.3395 62.4092 45.2448 62.5647 45.1431 62.7239C45.0415 62.8831 44.9365 63.0457 44.8282 63.2151C46.0167 65.4397 46.3351 67.0242 45.7865 67.979C45.3124 68.8196 44.9603 69.5115 44.73 70.0513C44.4998 70.5945 44.3507 71.0269 44.2762 71.3555C44.2018 71.6841 44.1747 71.916 44.1949 72.0542C44.2119 72.196 44.2323 72.2827 44.2491 72.3206C44.2661 72.3379 44.2932 72.3623 44.3304 72.3899C44.3677 72.4175 44.4388 72.4314 44.5505 72.4314C44.642 72.4314 44.8079 72.3691 45.0449 72.248C45.282 72.127 45.6206 71.8433 46.0608 71.3936C46.4095 71.0752 46.7448 70.7153 47.0767 70.3142C47.4052 69.9128 47.7268 69.5254 48.0349 69.1516C48.0721 69.0964 48.1162 69.041 48.1704 68.9822C48.2245 68.9268 48.272 68.8716 48.3058 68.8127C48.3972 68.7192 48.5056 68.6641 48.6343 68.6433C48.7595 68.6223 48.8781 68.6604 48.9865 68.7539ZM44.5438 61.8591C44.5607 61.821 44.5742 61.8003 44.5844 61.7898C44.5946 61.7795 44.6082 61.7588 44.625 61.7207C44.9163 61.2363 45.1364 60.835 45.282 60.5168C45.4276 60.1985 45.5393 59.939 45.6105 59.7314C45.6849 59.5273 45.7188 59.3787 45.7188 59.2817C45.7188 59.1882 45.7086 59.1226 45.6917 59.0845C45.6172 59.1399 45.5122 59.261 45.3768 59.4478C45.2379 59.6345 45.0991 59.9148 44.9501 60.2883C44.8418 60.5686 44.7537 60.8455 44.6893 61.1152C44.6318 61.3887 44.5811 61.6343 44.5438 61.8591Z" fill="#767676" fill-opacity="1.000000" fill-rule="nonzero"/>
		<path id="Vector" d="M56.3384 68.8923C56.1014 69.3213 55.8 69.7986 55.4343 70.321C55.0686 70.8435 54.6487 71.345 54.1713 71.8191C53.6971 72.2964 53.1689 72.6909 52.5933 73.009C52.0177 73.3274 51.4014 73.4866 50.7411 73.4866C50.0841 73.4866 49.5762 73.355 49.2173 73.0955C48.8617 72.8328 48.601 72.5627 48.4351 72.2827C48.0321 71.5906 47.9305 70.6946 48.1337 69.5911C48.3335 68.5464 48.7635 67.4253 49.4238 66.2283C49.6812 65.7786 50.0266 65.2493 50.4668 64.6301C50.907 64.0144 51.4183 63.4158 52.0042 62.8381C52.2242 62.613 52.4747 62.3848 52.7593 62.1531C53.0437 61.9211 53.3348 61.7102 53.6362 61.5234C53.9376 61.3367 54.2491 61.1843 54.5675 61.0598C54.8857 60.9387 55.2041 60.8765 55.5122 60.8765C55.6578 60.8765 55.7764 60.9248 55.8678 61.0183C55.9591 61.1118 56.0032 61.2329 56.0032 61.3816C56.0032 61.5303 55.9591 61.6479 55.8678 61.731C55.7764 61.814 55.6578 61.8555 55.5122 61.8555C55.1465 61.8555 54.7164 62.0007 54.222 62.2915C53.7277 62.582 53.2163 62.9971 52.6847 63.5369C52.1361 64.0801 51.652 64.6404 51.2321 65.2183C50.8121 65.7959 50.4838 66.2942 50.2433 66.7024C49.6405 67.7852 49.2545 68.8022 49.0919 69.7571C48.926 70.5977 48.9904 71.269 49.285 71.7739C49.522 72.2617 50.0062 72.5039 50.7377 72.5039C51.1204 72.5039 51.486 72.4243 51.8348 72.2654C52.1836 72.1062 52.5154 71.9055 52.8372 71.6633C53.1554 71.4211 53.4534 71.1514 53.7277 70.8503C54.002 70.5527 54.2491 70.2622 54.4692 69.9819C54.6149 69.7952 54.7435 69.6118 54.8519 69.4353C54.9602 69.259 55.072 69.0859 55.1803 68.9165C54.7977 68.8784 54.4896 68.7849 54.2627 68.6362C54.0325 68.4875 53.8563 68.3386 53.7277 68.1865C53.345 67.7368 53.152 67.1589 53.152 66.4497C53.152 66.0208 53.2163 65.5815 53.345 65.1316C53.4738 64.6819 53.6633 64.2737 53.9207 63.9001C54.5234 63.0042 55.2108 62.5544 55.9761 62.5544C56.5619 62.5544 57.0089 62.8069 57.3204 63.312C57.6116 63.7791 57.7369 64.3879 57.6895 65.1316C57.6421 65.8789 57.4017 66.7197 56.9614 67.6538C56.8159 67.9512 56.6974 68.1899 56.606 68.3699C56.5212 68.5532 56.4298 68.7261 56.3384 68.8923ZM55.9829 63.5403C55.7628 63.5403 55.5426 63.6233 55.3259 63.793C55.1058 63.9624 54.906 64.1838 54.7233 64.4641C54.5404 64.7441 54.3948 65.0557 54.283 65.4016C54.1747 65.7476 54.1171 66.0969 54.1171 66.4534C54.1171 66.6021 54.134 66.782 54.1713 66.9861C54.2085 67.1902 54.2999 67.377 54.4456 67.5464C54.6826 67.8267 55.0652 67.9685 55.5968 67.9685L55.7357 67.9685C55.8271 67.7817 55.9016 67.6365 55.9558 67.5327C56.01 67.429 56.0472 67.3701 56.0641 67.3494C56.3215 66.7715 56.4941 66.2769 56.5856 65.8652C56.677 65.4534 56.7211 65.1074 56.7211 64.8271C56.7211 64.5471 56.6974 64.3291 56.6533 64.1699C56.6094 64.0107 56.5653 63.9036 56.5314 63.8481C56.3824 63.644 56.203 63.5403 55.9829 63.5403Z" fill="#767676" fill-opacity="1.000000" fill-rule="nonzero"/>
		<path id="Vector" d="M59.4103 74.9155C58.8785 74.9155 58.479 74.8049 58.2047 74.5801C57.9304 74.3552 57.7206 74.1301 57.575 73.9089C57.155 73.1616 57.1279 72.0684 57.4937 70.6292C57.6595 69.958 57.9136 69.2246 58.2623 68.4287C58.6111 67.6365 59.031 66.8098 59.5254 65.9482C59.7625 65.5366 60.0502 65.0383 60.3888 64.4502C60.7274 63.8621 61.0796 63.2498 61.4453 62.6133C61.811 61.9802 62.1768 61.3469 62.5425 60.7207C62.9082 60.0947 63.2333 59.5308 63.5143 59.0256C63.7987 58.5205 64.0323 58.1157 64.2152 57.8079C64.3981 57.5 64.4895 57.3374 64.4895 57.3167C64.6554 57.0537 64.8722 56.9983 65.1465 57.147C65.4038 57.3167 65.458 57.5381 65.3124 57.8181C65.3124 57.8354 65.2209 58.0015 65.0381 58.3096C64.8552 58.6174 64.6216 59.0188 64.3372 59.5134C64.0527 60.0081 63.7277 60.5754 63.3654 61.2087C62.9996 61.8452 62.6339 62.4783 62.2682 63.115C61.9025 63.7515 61.5503 64.3604 61.2117 64.9519C60.873 65.54 60.5852 66.0417 60.3483 66.45C59.8741 67.2732 59.4712 68.0552 59.1427 68.8025C58.8142 69.5498 58.567 70.2417 58.4011 70.8748C58.11 72.0337 58.1167 72.8848 58.4282 73.4246C58.6111 73.76 58.9396 73.9297 59.417 73.9297C59.7625 73.9297 60.0875 73.8188 60.3888 73.594C60.6902 73.3691 60.9611 73.0994 61.1981 72.781C61.4352 72.4626 61.6417 72.1375 61.8145 71.802C61.9871 71.4663 62.1294 71.186 62.2411 70.9612L62.2953 70.906C62.424 70.6257 62.6339 70.5496 62.925 70.6812C63.0537 70.7363 63.135 70.8298 63.1722 70.9612C63.2096 71.0928 63.1993 71.2139 63.1451 71.3245L63.1182 71.4075C62.9894 71.6704 62.8168 71.9956 62.5967 72.3867C62.3766 72.7776 62.1158 73.1616 61.8145 73.5352C61.5131 73.9089 61.1609 74.2305 60.7579 74.5005C60.3516 74.7808 59.9047 74.9155 59.4103 74.9155Z" fill="#767676" fill-opacity="1.000000" fill-rule="nonzero"/>
		<path id="Vector" d="M75.455 61.6655C74.798 62.7312 74.2156 63.7795 73.7145 64.8174C73.21 65.8552 72.8137 66.8481 72.5225 67.803C72.2313 68.7544 72.0654 69.595 72.0281 70.3252C71.9908 71.0552 72.0925 71.6328 72.3295 72.0618C72.6207 72.6396 73.1896 72.9302 74.0294 72.9302C75.2551 72.9302 76.6909 71.9199 78.3365 69.9031C79.051 69.0071 79.708 68.0833 80.3108 67.1284C80.9135 66.177 81.4248 65.3433 81.848 64.634C81.9564 64.4473 82.058 64.2742 82.1494 64.115C82.2408 63.9558 82.3323 63.8105 82.4237 63.6792C82.4237 63.6619 82.4271 63.6514 82.4373 63.6514C82.4474 63.6514 82.4508 63.6411 82.4508 63.6238C82.7996 62.9873 83.1315 62.3784 83.4531 61.7866C83.7714 61.1985 84.0796 60.6624 84.3707 60.1746C84.4249 60.043 84.5164 59.96 84.645 59.9219C84.7737 59.8838 84.9025 59.9048 85.0277 59.9773C85.1361 60.0535 85.2106 60.1538 85.2478 60.2852C85.285 60.4167 85.2648 60.5378 85.1936 60.6484C84.7906 61.3403 84.3674 62.105 83.917 62.9456C83.4701 63.7864 83.0129 64.6443 82.5457 65.5232C82.0784 66.4019 81.6178 67.2805 81.1606 68.1558C80.7035 69.0347 80.2769 69.8545 79.884 70.6226C79.4913 71.3872 79.1425 72.0757 78.8412 72.6812C78.5398 73.29 78.3062 73.75 78.1401 74.0684C78.34 73.9578 78.5465 73.8401 78.7565 73.719C78.9664 73.5979 79.1831 73.4629 79.3999 73.3142C80.094 72.8645 80.8627 72.2866 81.7025 71.5774C82.5422 70.8682 83.3854 69.9446 84.2252 68.8027C84.3167 68.6921 84.4249 68.6265 84.5536 68.6057C84.6823 68.5884 84.8008 68.616 84.9092 68.6887C85.0006 68.782 85.0615 68.8928 85.0886 69.0242C85.1157 69.1558 85.0853 69.2769 84.9939 69.3875C84.0966 70.5845 83.2059 71.5498 82.3187 72.2866C81.4315 73.0237 80.6324 73.636 79.918 74.1238C79.4438 74.4421 78.9901 74.7153 78.5601 74.9507C78.13 75.1858 77.7238 75.3762 77.3411 75.5249C76.7552 76.4763 76.1525 77.2512 75.5294 77.8499C74.6525 78.6904 73.8735 79.1194 73.1997 79.1401L73.1185 79.1401C72.5868 79.1401 72.2042 78.936 71.9672 78.5244C71.7843 78.2441 71.7471 77.9087 71.8588 77.5142C71.9672 77.1406 72.2008 76.7842 72.5598 76.4487C72.9153 76.113 73.3488 75.8501 73.8634 75.6633C73.9718 75.6252 74.1005 75.5837 74.2461 75.5388C74.3917 75.4902 74.5475 75.4419 74.7134 75.3831C74.9707 75.3069 75.262 75.2205 75.5903 75.1167C75.9188 75.0129 76.2845 74.8884 76.6875 74.7395C76.7417 74.6462 76.8026 74.5425 76.8669 74.4316C76.9313 74.321 76.9889 74.2068 77.0465 74.0962C77.0837 74.0581 77.2395 73.7639 77.5138 73.2139C77.7881 72.6638 78.1368 71.9685 78.5566 71.1277C77.9336 71.8369 77.314 72.425 76.6909 72.8921C75.7596 73.5632 74.8726 73.9023 74.0294 73.9023C73.2776 73.9023 72.7087 73.7537 72.3159 73.4526C71.9231 73.155 71.6455 72.8472 71.4796 72.5288C70.8768 71.408 70.9141 69.7368 71.5879 67.5125C71.8994 66.5229 72.3159 65.4817 72.834 64.3884C73.3555 63.2952 73.9617 62.2087 74.6592 61.1226C75.0994 60.4304 75.6479 59.6936 76.3049 58.9082C76.1593 58.7214 76.0306 58.5347 75.9222 58.3479C75.4481 57.4138 75.3364 56.2756 75.5938 54.9297C75.7021 54.3313 75.885 53.7258 76.1423 53.1099C76.3997 52.4941 76.7079 51.9128 77.0735 51.3733C77.2733 51.1104 77.5035 51.0654 77.7576 51.2314C77.866 51.3247 77.937 51.4355 77.9641 51.5669C77.9912 51.6985 77.9607 51.8196 77.8693 51.9302C77.5409 52.4146 77.2563 52.9336 77.0194 53.4871C76.7823 54.0371 76.6165 54.5837 76.525 55.127C76.4336 55.6702 76.4065 56.1716 76.4437 56.6387C76.481 57.1057 76.5995 57.5244 76.7993 57.8982C76.8162 57.936 76.8398 57.9812 76.8669 58.04C76.894 58.0952 76.928 58.1438 76.9618 58.1819C77.8016 57.2686 78.6887 56.4175 79.6233 55.6321C79.9146 55.3899 80.2734 55.113 80.6934 54.8052C81.1133 54.4973 81.5569 54.2031 82.0242 53.9231C82.4915 53.6428 82.9622 53.4109 83.4362 53.2241C83.9103 53.0374 84.3606 52.9336 84.7805 52.9163C85.2004 52.8782 85.5288 52.9336 85.7693 53.0857C86.0063 53.2344 86.179 53.3833 86.2908 53.5354C86.4905 53.7983 86.5819 54.1235 86.5651 54.5146C86.5481 54.9055 86.4296 55.345 86.2095 55.8328C85.9521 56.355 85.6067 56.874 85.1665 57.3894C84.7263 57.905 84.2252 58.3652 83.6597 58.7769C83.1857 59.1123 82.5896 59.4446 81.8785 59.7698C81.1641 60.0984 80.3412 60.261 79.41 60.261C78.6041 60.261 77.8828 60.0845 77.2428 59.7283C77.2056 59.7109 77.1683 59.6902 77.1345 59.6729C77.0973 59.6555 77.0601 59.6279 77.0261 59.5898C76.4336 60.2644 75.9121 60.9529 75.455 61.6655ZM74.8793 77.158C75.2078 76.8223 75.5092 76.4763 75.7834 76.1199C75.6378 76.158 75.4956 76.196 75.3567 76.2307C75.2179 76.2688 75.0858 76.3069 74.9606 76.3413C74.8149 76.3794 74.6727 76.4175 74.5339 76.4521C74.395 76.4902 74.2833 76.5283 74.1919 76.5627C73.7889 76.7324 73.4639 76.9329 73.2167 77.1648C72.9695 77.3965 72.8206 77.6077 72.7629 77.7944C72.746 77.905 72.746 77.9709 72.7629 77.9917C72.8002 78.0298 72.8442 78.0713 72.8984 78.1162C72.9525 78.1611 73.0372 78.175 73.1455 78.1577C73.6095 78.1299 74.1852 77.7944 74.8793 77.158ZM80.2261 56.4243C79.3118 57.1543 78.4619 57.9639 77.6763 58.8633C78.1165 59.1436 78.6921 59.282 79.4032 59.282C80.0974 59.282 80.7611 59.1575 81.391 58.9048C82.0208 58.6523 82.5964 58.334 83.1179 57.9534C83.6394 57.5693 84.0863 57.1509 84.4622 56.6941C84.838 56.2375 85.1259 55.8015 85.3257 55.3899C85.4916 55.0715 85.583 54.8052 85.6 54.5906C85.6169 54.3762 85.6 54.231 85.5458 54.1548C85.5085 54.1167 85.4442 54.0613 85.3528 53.9854C85.2614 53.9092 85.0886 53.8813 84.8313 53.9021C84.2997 53.9194 83.6326 54.1514 82.8301 54.5872C82.0276 55.0266 81.1606 55.6389 80.2261 56.4243Z" fill="#767676" fill-opacity="1.000000" fill-rule="nonzero"/>
		<path id="Vector" d="M96.0226 68.7542C96.114 68.8477 96.1681 68.9583 96.1885 69.0898C96.2054 69.2212 96.1715 69.3423 96.0801 69.4531C96.0428 69.4912 96.0022 69.5361 95.9583 69.5916C95.9108 69.6467 95.8634 69.7021 95.8058 69.761C94.9661 70.8059 94.1974 71.6777 93.5032 72.3662C92.8091 73.0581 92.1691 73.4041 91.5833 73.4041C91.1633 73.4041 90.8484 73.3245 90.6384 73.1653C90.4286 73.0061 90.2761 72.8435 90.1847 72.6741C89.985 72.3003 89.9104 71.8438 89.9646 71.3005C88.7015 72.7952 87.486 73.5422 86.3177 73.5422C85.6777 73.5422 85.1935 73.4109 84.865 73.1514C84.5365 72.8884 84.2996 72.6289 84.1505 72.3662C83.7679 71.657 83.7036 70.7678 83.9575 69.7056C84.0659 69.1833 84.2419 68.647 84.479 68.0935C84.7161 67.5435 85.0106 66.9863 85.356 66.4258C86.3447 64.8552 87.4589 63.6133 88.7015 62.7C89.2501 62.3088 89.7817 62.0044 90.2931 61.79C90.8044 61.5754 91.2717 61.4683 91.6917 61.4683C92.1656 61.4683 92.5381 61.5513 92.8022 61.7207C93.0664 61.8904 93.2628 62.0667 93.3915 62.2537C93.5912 62.5166 93.72 62.8245 93.774 63.1772C93.9197 62.9524 94.0382 62.7551 94.1296 62.5891C94.2211 62.4197 94.3125 62.271 94.4039 62.1394C94.4784 61.9907 94.5597 61.8591 94.6511 61.7485C94.7256 61.6377 94.8239 61.5652 94.9525 61.5374C95.0812 61.5098 95.1997 61.5339 95.3081 61.6067C95.4164 61.6829 95.4908 61.783 95.5282 61.9146C95.5654 62.0459 95.5383 62.167 95.4469 62.2778C95.4469 62.2952 95.2098 62.6826 94.7324 63.4402C94.2583 64.198 93.6624 65.2012 92.9513 66.4536C92.4772 67.2942 92.0912 68.0381 91.7999 68.6816C91.5088 69.325 91.292 69.8855 91.1566 70.363C91.0177 70.8403 90.9398 71.2278 90.923 71.5254C90.906 71.823 90.9398 72.0408 91.0312 72.1689C91.0482 72.207 91.0889 72.2588 91.1532 72.3245C91.2175 72.3904 91.3597 72.4214 91.5798 72.4214C91.6713 72.4214 91.8372 72.3591 92.0742 72.238C92.3113 72.1169 92.66 71.8333 93.1172 71.3835C93.4457 71.0652 93.774 70.7056 94.106 70.3042C94.4344 69.9028 94.7561 69.5154 95.0642 69.1416C95.1184 69.0864 95.1692 69.031 95.2167 68.9722C95.2606 68.9167 95.3047 68.8616 95.3385 68.8027C95.4299 68.7092 95.5383 68.6538 95.667 68.6331C95.7957 68.6228 95.9142 68.6609 96.0226 68.7542ZM89.416 70.4634C89.8732 69.9028 90.2389 69.3943 90.5132 68.9375C90.7875 68.481 90.9331 68.2422 90.9534 68.2214C90.9534 68.2041 90.9568 68.1938 90.9669 68.1938C90.9771 68.1938 90.9805 68.1833 90.9805 68.166C91.2548 67.533 91.6375 66.7927 92.1318 65.9519C92.2233 65.7825 92.318 65.6165 92.4197 65.4468C92.5212 65.2773 92.616 65.1216 92.7074 64.9695L92.7074 64.9141C92.7244 64.8206 92.7515 64.6858 92.7887 64.5093C92.8259 64.3328 92.8463 64.146 92.8564 63.9487C92.8666 63.7517 92.8564 63.5579 92.8293 63.3606C92.8022 63.1636 92.7345 62.9905 92.6228 62.8418C92.423 62.5789 92.1115 62.4507 91.6917 62.4507C91.4342 62.4507 91.0956 62.5303 90.6758 62.6895C90.2559 62.8486 89.7987 63.1082 89.3043 63.4749C88.8099 63.8381 88.2885 64.3052 87.7399 64.876C87.1913 65.4468 86.6597 66.1423 86.1484 66.9622C85.5084 67.9897 85.0885 68.9688 84.8854 69.9028C84.7194 70.7815 84.7567 71.4424 84.9937 71.8921C85.2137 72.3418 85.6506 72.5632 86.3109 72.5632C87.2286 72.5632 88.2614 71.8645 89.416 70.4634Z" fill="#767676" fill-opacity="1.000000" fill-rule="nonzero"/>
		<path id="Vector" d="M104.826 68.7539C104.917 68.8474 104.972 68.958 104.992 69.0894C105.009 69.2209 104.975 69.342 104.884 69.4526C104.846 69.4907 104.802 69.5356 104.745 69.5911C104.691 69.6465 104.643 69.7019 104.609 69.7605C103.77 70.8054 103.001 71.6772 102.307 72.3657C101.613 73.0576 100.973 73.4036 100.387 73.4036C99.8754 73.4036 99.4995 73.1995 99.2626 72.7876C99.0255 72.3379 99.0255 71.6875 99.2626 70.8262C99.4995 69.9856 100.011 68.8645 100.8 67.4634C100.945 67.2004 100.956 66.7786 100.827 66.1904C100.698 65.6023 100.444 64.907 100.058 64.1042C99.5638 64.8135 98.9916 65.6091 98.3448 66.4844C97.6947 67.3633 96.943 68.3423 96.0829 69.425C95.9915 69.5356 95.8831 69.6016 95.7544 69.6223C95.6257 69.6396 95.5175 69.605 95.426 69.5115C95.3176 69.4182 95.2533 69.3074 95.2329 69.176C95.2161 69.0444 95.2499 68.9233 95.3413 68.8127C97.1698 66.4775 98.5684 64.592 99.5367 63.1528C99.3708 62.8 99.3269 62.3745 99.3979 61.8799C99.4724 61.385 99.5537 60.9802 99.6451 60.6621C99.6824 60.5686 99.7332 60.4233 99.7975 60.2261C99.8618 60.0291 99.95 59.8213 100.058 59.5964C100.167 59.3716 100.292 59.1467 100.427 58.9253C100.566 58.7004 100.725 58.5137 100.908 58.365C101.108 58.1953 101.321 58.1089 101.538 58.0986C101.758 58.0881 101.958 58.1677 102.141 58.3372C102.523 58.6729 102.608 59.2263 102.388 59.991C102.188 60.5894 101.812 61.3469 101.264 62.2603C101.172 62.4092 101.078 62.5647 100.976 62.7239C100.874 62.8831 100.769 63.0457 100.661 63.2151C101.85 65.4397 102.168 67.0242 101.619 67.979C101.145 68.8196 100.793 69.5115 100.563 70.0513C100.333 70.5945 100.184 71.0269 100.109 71.3555C100.035 71.6841 100.007 71.916 100.028 72.0542C100.045 72.196 100.065 72.2827 100.082 72.3206C100.099 72.3379 100.126 72.3623 100.163 72.3899C100.2 72.4175 100.272 72.4314 100.383 72.4314C100.475 72.4314 100.641 72.3691 100.878 72.248C101.115 72.127 101.453 71.8433 101.894 71.3936C102.239 71.0752 102.578 70.7153 102.909 70.3142C103.238 69.9128 103.56 69.5254 103.868 69.1516C103.905 69.0964 103.949 69.041 104.007 68.9822C104.061 68.9268 104.108 68.8716 104.145 68.8127C104.237 68.7192 104.345 68.6641 104.474 68.6433C104.599 68.6223 104.718 68.6604 104.826 68.7539ZM100.383 61.8591C100.4 61.821 100.414 61.8003 100.424 61.7898C100.434 61.7795 100.448 61.7588 100.465 61.7207C100.756 61.2363 100.976 60.835 101.122 60.5168C101.267 60.1985 101.379 59.939 101.45 59.7314C101.525 59.5273 101.558 59.3787 101.558 59.2817C101.558 59.1882 101.548 59.1226 101.531 59.0845C101.457 59.1399 101.352 59.261 101.216 59.4478C101.078 59.6345 100.939 59.9148 100.79 60.2883C100.681 60.5686 100.593 60.8455 100.529 61.1152C100.471 61.3887 100.421 61.6343 100.383 61.8591Z" fill="#767676" fill-opacity="1.000000" fill-rule="nonzero"/>
		<path id="Vector" d="M115.932 68.7542C116.024 68.8477 116.078 68.9583 116.098 69.0898C116.115 69.2212 116.081 69.3423 115.99 69.4531C115.953 69.4912 115.912 69.5361 115.868 69.5916C115.824 69.6467 115.773 69.7021 115.716 69.761C114.876 70.8059 114.107 71.6777 113.413 72.3662C112.719 73.0581 112.079 73.4041 111.493 73.4041C111.073 73.4041 110.758 73.3245 110.548 73.1653C110.338 73.0061 110.186 72.8435 110.094 72.6741C109.895 72.3003 109.82 71.8438 109.874 71.3005C108.611 72.7952 107.396 73.5422 106.227 73.5422C105.588 73.5422 105.103 73.4109 104.775 73.1514C104.446 72.8884 104.209 72.6289 104.06 72.3662C103.678 71.657 103.613 70.7678 103.867 69.7056C103.976 69.1833 104.152 68.647 104.389 68.0935C104.626 67.5435 104.92 66.9863 105.266 66.4258C106.255 64.8552 107.369 63.6133 108.611 62.7C109.16 62.3088 109.692 62.0044 110.203 61.79C110.714 61.5754 111.181 61.4683 111.601 61.4683C112.075 61.4683 112.448 61.5513 112.712 61.7207C112.976 61.8904 113.172 62.0667 113.301 62.2537C113.501 62.5166 113.63 62.8245 113.684 63.1772C113.829 62.9524 113.948 62.7551 114.039 62.5891C114.131 62.4197 114.222 62.271 114.314 62.1394C114.388 61.9907 114.469 61.8591 114.561 61.7485C114.635 61.6377 114.734 61.5652 114.862 61.5374C114.991 61.5098 115.109 61.5339 115.218 61.6067C115.326 61.6829 115.401 61.783 115.438 61.9146C115.475 62.0459 115.448 62.167 115.357 62.2778C115.357 62.2952 115.12 62.6826 114.642 63.4402C114.168 64.198 113.572 65.2012 112.861 66.4536C112.387 67.2942 112.001 68.0381 111.71 68.6816C111.418 69.325 111.202 69.8855 111.066 70.363C110.931 70.8403 110.85 71.2278 110.833 71.5254C110.816 71.823 110.85 72.0408 110.941 72.1689C110.958 72.207 110.999 72.2588 111.063 72.3245C111.127 72.3904 111.27 72.4214 111.49 72.4214C111.581 72.4214 111.747 72.3591 111.984 72.238C112.221 72.1169 112.57 71.8333 113.027 71.3835C113.355 71.0652 113.684 70.7056 114.016 70.3042C114.344 69.9028 114.666 69.5154 114.974 69.1416C115.028 69.0864 115.079 69.031 115.126 68.9722C115.17 68.9167 115.214 68.8616 115.248 68.8027C115.34 68.7092 115.448 68.6538 115.577 68.6331C115.705 68.6228 115.824 68.6609 115.932 68.7542ZM109.322 70.4634C109.78 69.9028 110.145 69.3943 110.42 68.9375C110.694 68.481 110.839 68.2422 110.86 68.2214C110.86 68.2041 110.863 68.1938 110.873 68.1938C110.883 68.1938 110.887 68.1833 110.887 68.166C111.161 67.533 111.544 66.7927 112.038 65.9519C112.13 65.7825 112.224 65.6165 112.326 65.4468C112.428 65.2773 112.522 65.1216 112.614 64.9695L112.614 64.9141C112.631 64.8206 112.658 64.6858 112.695 64.5093C112.732 64.3328 112.753 64.146 112.763 63.9487C112.773 63.7517 112.763 63.5579 112.736 63.3606C112.709 63.1636 112.641 62.9905 112.529 62.8418C112.329 62.5789 112.018 62.4507 111.598 62.4507C111.341 62.4507 111.002 62.5303 110.582 62.6895C110.162 62.8486 109.705 63.1082 109.211 63.4749C108.716 63.8381 108.195 64.3052 107.646 64.876C107.098 65.4468 106.566 66.1423 106.055 66.9622C105.415 67.9897 104.995 68.9688 104.792 69.9028C104.626 70.7815 104.663 71.4424 104.9 71.8921C105.12 72.3418 105.557 72.5632 106.217 72.5632C107.138 72.5632 108.171 71.8645 109.322 70.4634Z" fill="#767676" fill-opacity="1.000000" fill-rule="nonzero"/>
		<path id="Vector" d="M127.285 68.7539C127.393 68.8472 127.458 68.958 127.478 69.0894C127.495 69.2209 127.461 69.342 127.37 69.4526C127.333 69.4907 127.302 69.5288 127.275 69.5632C127.248 69.6013 127.214 69.6394 127.18 69.6741C126.997 69.8989 126.764 70.1792 126.479 70.5146C126.195 70.8503 125.866 71.1997 125.49 71.5664C125.115 71.9297 124.708 72.2896 124.271 72.6458C123.831 73.0022 123.357 73.2998 122.846 73.542C122.497 73.7114 122.141 73.8601 121.776 73.9917C121.41 74.123 121.044 74.2546 120.679 74.3826C120.184 75.2786 119.646 76.0535 119.06 76.7075C118.22 77.6416 117.431 78.1536 116.7 78.2471C116.663 78.2471 116.625 78.2505 116.591 78.2607C116.554 78.2712 116.517 78.2747 116.483 78.2747C116.009 78.2747 115.633 78.0879 115.359 77.7141C115.139 77.4719 115.074 77.126 115.166 76.6763C115.257 76.2646 115.477 75.8772 115.823 75.5139C116.172 75.1506 116.608 74.8357 117.14 74.5764C117.485 74.4275 117.861 74.2856 118.264 74.1543C118.667 74.0227 119.077 73.8843 119.497 73.7356C119.588 73.6975 119.676 73.6699 119.758 73.6526C119.839 73.6353 119.927 73.6042 120.018 73.5696C120.093 73.4209 120.161 73.272 120.225 73.1199C120.289 72.9709 120.357 72.8223 120.431 72.6702C120.448 72.6321 120.496 72.5144 120.567 72.3206C120.641 72.1235 120.75 71.8572 120.895 71.5215C119.578 72.8672 118.39 73.5383 117.33 73.5383C116.69 73.5383 116.205 73.407 115.877 73.1475C115.548 72.8845 115.312 72.625 115.162 72.3621C114.78 71.6531 114.715 70.7639 114.969 69.7017C115.078 69.1794 115.254 68.6431 115.491 68.0896C115.728 67.5396 116.023 66.9824 116.368 66.4221C117.357 64.8513 118.471 63.6094 119.714 62.696C120.262 62.3052 120.79 62.0007 121.305 61.7861C121.816 61.5718 122.284 61.4644 122.703 61.4644C123.178 61.4644 123.55 61.5474 123.814 61.717C124.078 61.8865 124.275 62.063 124.403 62.2498C124.512 62.3813 124.613 62.5576 124.705 62.7825C124.796 62.5784 124.888 62.3811 124.979 62.1943C125.071 62.0076 125.162 61.8103 125.253 61.6062C125.399 61.3259 125.619 61.25 125.91 61.3813C126.019 61.4368 126.097 61.5303 126.144 61.6616C126.188 61.7932 126.185 61.9141 126.13 62.0249C125.873 62.5681 125.622 63.1042 125.375 63.637C125.128 64.1699 124.877 64.7061 124.62 65.2493L124.593 65.3047C124.136 66.332 123.706 67.3076 123.303 68.2314C122.9 69.155 122.555 69.9785 122.26 70.698C121.969 71.4177 121.735 71.9885 121.559 72.4072C121.386 72.8257 121.298 73.0471 121.298 73.0645C121.298 73.1025 121.288 73.1199 121.271 73.1199C121.471 73.0437 121.664 72.9709 121.847 72.895C122.03 72.8188 122.213 72.7358 122.395 72.6423C122.853 72.4175 123.286 72.1477 123.699 71.8293C124.109 71.5112 124.488 71.179 124.837 70.833C125.182 70.4871 125.49 70.155 125.755 69.8401C126.019 69.522 126.242 69.252 126.425 69.0271C126.462 68.989 126.493 68.9509 126.52 68.9165C126.547 68.8784 126.577 68.8438 126.615 68.8057C126.706 68.7124 126.814 68.657 126.943 68.6362C127.085 68.6223 127.194 68.6604 127.285 68.7539ZM120.621 70.4041C121.078 69.8816 121.461 69.4006 121.772 68.9614C122.084 68.522 122.257 68.2556 122.294 68.1621C122.514 67.6572 122.748 67.1313 122.995 66.5776C123.242 66.0276 123.493 65.4602 123.75 64.8826C123.767 64.7717 123.794 64.6299 123.831 64.4639C123.868 64.2944 123.885 64.1145 123.885 63.9172C123.885 63.72 123.872 63.5264 123.845 63.3291C123.818 63.1321 123.75 62.9692 123.638 62.8379C123.438 62.575 123.127 62.447 122.707 62.447C122.45 62.447 122.111 62.5266 121.691 62.6855C121.271 62.8447 120.814 63.1042 120.32 63.4709C119.825 63.8342 119.304 64.3013 118.755 64.8721C118.207 65.4429 117.675 66.1384 117.164 66.9583C116.524 67.9858 116.104 68.9648 115.901 69.8989C115.735 70.7776 115.772 71.4385 116.009 71.8882C116.229 72.3379 116.666 72.5593 117.326 72.5593C117.783 72.5593 118.285 72.376 118.833 72.0127C119.388 71.6531 119.981 71.1167 120.621 70.4041ZM118.345 76.0364C118.511 75.8667 118.671 75.6799 118.826 75.4758C118.982 75.2717 119.131 75.0537 119.28 74.8323C118.623 75.0364 118.047 75.2544 117.553 75.4758C117.113 75.6799 116.771 75.9187 116.524 76.1919C116.276 76.4619 116.134 76.7004 116.097 76.9082C116.08 77.0188 116.08 77.0845 116.097 77.1052C116.134 77.1606 116.188 77.2126 116.263 77.261C116.338 77.3059 116.446 77.313 116.591 77.2749C117.103 77.2161 117.689 76.8042 118.345 76.0364Z" fill="#767676" fill-opacity="1.000000" fill-rule="nonzero"/>
		<path id="Vector" d="M136.228 68.6951C136.319 68.7886 136.37 68.8992 136.38 69.0308C136.391 69.1621 136.35 69.2729 136.259 69.3662C136.242 69.4043 136.038 69.6292 135.656 70.0374C135.273 70.4492 134.758 70.9058 134.119 71.4109C132.344 72.7739 130.736 73.4556 129.293 73.4556C128.525 73.4556 127.945 73.3171 127.553 73.0369C127.16 72.7568 126.872 72.4661 126.689 72.1687C126.34 71.5527 126.242 70.7812 126.388 69.8577C126.533 68.9338 126.926 67.9099 127.566 66.7888C128.46 65.1628 129.435 63.8379 130.489 62.8103C131.538 61.783 132.53 61.1843 133.465 61.0183C134.179 60.9075 134.772 61.0459 135.246 61.4404C135.612 61.7585 135.812 62.1875 135.849 62.7307C135.866 63.2913 135.693 63.9141 135.327 64.5955C134.962 65.2771 134.43 65.9724 133.736 66.6816C132.967 67.4844 132.155 68.0725 131.294 68.446C130.58 68.7644 129.896 68.9236 129.239 68.9236C128.911 68.9236 128.616 68.8958 128.362 68.8403C128.105 68.7852 127.895 68.7195 127.732 68.6433C127.641 68.8855 127.563 69.1138 127.498 69.3281C127.434 69.5427 127.383 69.7537 127.346 69.958C127.238 70.7051 127.299 71.2761 127.539 71.667C127.83 72.2102 128.416 72.48 129.293 72.48C130.042 72.48 130.786 72.2898 131.528 71.9058C132.27 71.5217 132.937 71.0996 133.529 70.6326C134.122 70.1655 134.606 69.7366 134.982 69.342C135.358 68.9512 135.544 68.7437 135.544 68.7263C135.635 68.6328 135.744 68.5811 135.873 68.5706C135.998 68.5603 136.116 68.6018 136.228 68.6951ZM128.382 67.2664C128.345 67.3599 128.301 67.4429 128.247 67.5188C128.193 67.595 128.145 67.678 128.108 67.7715C128.254 67.8096 128.423 67.8477 128.616 67.8821C128.809 67.9202 129.032 67.9375 129.286 67.9375C130.549 67.9202 131.809 67.2732 133.072 66.0037C133.658 65.405 134.108 64.8237 134.43 64.2529C134.748 63.6821 134.901 63.1943 134.884 62.7827C134.847 62.5405 134.765 62.3433 134.637 62.1946C134.379 61.9697 134.041 61.9038 133.621 61.9973C133.255 62.0527 132.862 62.2188 132.442 62.4885C132.022 62.7585 131.592 63.1113 131.152 63.5403C130.167 64.5125 129.242 65.7544 128.382 67.2664Z" fill="#767676" fill-opacity="1.000000" fill-rule="nonzero"/>
		<path id="Vector" d="M46.3224 93.2166C46.2615 93.2166 46.2004 93.189 46.1598 93.1335C46.0922 93.04 46.109 92.9087 46.2004 92.8394C47.5347 91.8154 48.9264 90.6809 50.4569 89.3696C50.5449 89.2971 50.6736 89.3074 50.7448 89.3975C50.8158 89.4873 50.8057 89.6189 50.7177 89.6914C49.1803 91.0061 47.7819 92.144 46.4443 93.175C46.407 93.2026 46.363 93.2166 46.3224 93.2166Z" fill="#767676" fill-opacity="1.000000" fill-rule="nonzero"/>
		<path id="Vector" d="M42.7496 96.123C42.6887 96.123 42.6311 96.0952 42.5906 96.0435C42.5194 95.9534 42.5364 95.822 42.6244 95.7493L43.5251 95.0161C43.6132 94.9434 43.7418 94.9573 43.813 95.0505C43.884 95.1406 43.8705 95.272 43.7791 95.3447L42.8783 96.0781C42.8378 96.1091 42.7937 96.123 42.7496 96.123Z" fill="#767676" fill-opacity="1.000000" fill-rule="nonzero"/>
		<path id="Vector" d="M42.6377 90.1794C42.5428 90.1794 42.4583 90.1104 42.4379 90.0134C42.4142 89.8992 42.4854 89.7886 42.597 89.7678C43.7822 89.5188 45.0419 89.2107 46.4506 88.8303C46.559 88.7991 46.6707 88.8684 46.7012 88.979C46.7317 89.0896 46.6639 89.2039 46.5555 89.2351C45.1436 89.6155 43.8737 89.927 42.6818 90.176C42.6648 90.1794 42.6512 90.1794 42.6377 90.1794Z" fill="#767676" fill-opacity="1.000000" fill-rule="nonzero"/>
		<path id="Vector" d="M39.4034 90.9648C39.312 90.9648 39.2274 90.8992 39.2037 90.8057C39.1766 90.6951 39.2444 90.5808 39.3561 90.5532L40.1721 90.356C40.2805 90.3318 40.3922 90.3975 40.4193 90.5117C40.4464 90.6223 40.3787 90.7366 40.267 90.7642L39.4509 90.9614C39.434 90.9648 39.417 90.9648 39.4034 90.9648Z" fill="#767676" fill-opacity="1.000000" fill-rule="nonzero"/>
		<path id="Vector" d="M108.322 90.9055C108.308 90.9055 108.295 90.9055 108.281 90.9021C106.852 90.6184 105.583 90.3311 104.397 90.0266C104.289 89.999 104.221 89.8848 104.248 89.7742C104.276 89.6633 104.387 89.5942 104.496 89.6218C105.674 89.9263 106.94 90.21 108.359 90.4937C108.471 90.5144 108.542 90.6252 108.522 90.7395C108.505 90.8362 108.417 90.9055 108.322 90.9055Z" fill="#767676" fill-opacity="1.000000" fill-rule="nonzero"/>
		<path id="Vector" d="M102.021 89.4836C102.007 89.4836 101.99 89.4836 101.977 89.4802L101.161 89.2969C101.049 89.2727 100.981 89.1619 101.005 89.0476C101.029 88.937 101.137 88.8643 101.249 88.8884L102.065 89.0718C102.177 89.0962 102.244 89.2068 102.221 89.321C102.2 89.418 102.116 89.4836 102.021 89.4836Z" fill="#767676" fill-opacity="1.000000" fill-rule="nonzero"/>
		<path id="Vector" d="M61.5929 91.8257C61.559 91.8257 61.5217 91.8154 61.4912 91.7981C61.3931 91.7393 61.3593 91.6113 61.4167 91.511L62.1921 90.1477C62.2498 90.0474 62.375 90.0129 62.4733 90.0718C62.5714 90.1304 62.6052 90.2585 62.5477 90.3589L61.7723 91.7219C61.7317 91.7878 61.6605 91.8257 61.5929 91.8257Z" fill="#767676" fill-opacity="1.000000" fill-rule="nonzero"/>
		<path id="Vector" d="M52.5801 105.709C52.5428 105.709 52.5022 105.699 52.4684 105.675C52.3735 105.612 52.3499 105.481 52.4108 105.384L60.199 93.3757C60.2633 93.2791 60.3885 93.2546 60.4834 93.3169C60.5782 93.3794 60.6019 93.5107 60.5409 93.6077L52.7528 105.616C52.7122 105.678 52.6478 105.709 52.5801 105.709Z" fill="#767676" fill-opacity="1.000000" fill-rule="nonzero"/>
		<path id="Vector" d="M64.4811 110.982C64.4675 110.982 64.4507 110.982 64.4371 110.979C64.3253 110.955 64.2576 110.844 64.2814 110.73C65.2295 106.353 66.3842 101.967 67.5016 97.7251C68.2059 95.0544 68.9305 92.2937 69.5977 89.564C69.6248 89.4534 69.7365 89.3843 69.8448 89.4119C69.9532 89.4395 70.0209 89.5537 69.9938 89.6643C69.3268 92.3975 68.5988 95.1582 67.8944 97.8325C66.777 102.07 65.6256 106.45 64.6775 110.816C64.6605 110.917 64.5759 110.982 64.4811 110.982Z" fill="#767676" fill-opacity="1.000000" fill-rule="nonzero"/>
		<path id="Vector" d="M47.6393 101.845C47.5919 101.845 47.5444 101.828 47.5072 101.793C47.4226 101.718 47.4125 101.586 47.4835 101.5L54.2457 93.4319C54.3202 93.3455 54.449 93.335 54.5336 93.4077C54.6183 93.4836 54.6284 93.6152 54.5573 93.7017L47.795 101.769C47.7544 101.821 47.6969 101.845 47.6393 101.845Z" fill="#767676" fill-opacity="1.000000" fill-rule="nonzero"/>
		<path id="Vector" d="M58.6434 108.225C58.6198 108.225 58.5961 108.221 58.5724 108.211C58.4674 108.169 58.4132 108.052 58.4504 107.941C59.9506 103.807 61.7384 99.7175 63.4655 95.7634C64.0173 94.5042 64.5659 93.2412 65.1111 91.9785C65.1552 91.8748 65.277 91.8264 65.382 91.8713C65.4869 91.9163 65.531 92.0408 65.4869 92.1479C64.9452 93.4143 64.3932 94.6736 63.8413 95.9363C62.1177 99.8838 60.3331 103.969 58.8365 108.09C58.806 108.173 58.7281 108.225 58.6434 108.225Z" fill="#767676" fill-opacity="1.000000" fill-rule="nonzero"/>
		<path id="Vector" d="M55.8499 91.7324C55.8025 91.7324 55.7584 91.7151 55.7179 91.6841C55.6298 91.6113 55.6196 91.48 55.6908 91.3899L57.3433 89.3765C57.4143 89.2864 57.5464 89.2761 57.6311 89.3486C57.7191 89.4214 57.7292 89.553 57.6582 89.6428L56.0056 91.6565C55.9651 91.7083 55.9075 91.7324 55.8499 91.7324Z" fill="#767676" fill-opacity="1.000000" fill-rule="nonzero"/>
		<path id="Vector" d="M58.6434 108.225C58.6198 108.225 58.5961 108.221 58.5724 108.211C58.4674 108.169 58.4132 108.052 58.4504 107.941C59.9506 103.807 61.7384 99.7175 63.4655 95.7634C64.0173 94.5042 64.5659 93.2412 65.1111 91.9785C65.1552 91.8748 65.277 91.8264 65.382 91.8713C65.4869 91.9163 65.531 92.0408 65.4869 92.1479C64.9452 93.4143 64.3932 94.6736 63.8413 95.9363C62.1177 99.8838 60.3331 103.969 58.8365 108.09C58.806 108.173 58.7281 108.225 58.6434 108.225Z" fill="#767676" fill-opacity="1.000000" fill-rule="nonzero"/>
		<path id="Vector" d="M79.2527 112.632C79.1511 112.632 79.0631 112.552 79.0496 112.449C78.5754 108.359 78.2368 104.187 77.9083 100.153C77.6273 96.7007 77.3361 93.127 76.9636 89.6257C76.9501 89.5117 77.0314 89.408 77.1431 89.3975C77.2549 89.3835 77.3564 89.4668 77.37 89.5808C77.7424 93.0889 78.0337 96.6626 78.3147 100.119C78.6432 104.149 78.9818 108.318 79.4558 112.4C79.4694 112.514 79.3882 112.618 79.2764 112.632C79.2697 112.632 79.2628 112.632 79.2527 112.632Z" fill="#767676" fill-opacity="1.000000" fill-rule="nonzero"/>
		<path id="Vector" d="M86.5027 111.366C86.4113 111.366 86.3267 111.303 86.303 111.207C85.2125 106.706 83.8851 102.184 82.6018 97.8145C82.0227 95.8425 81.4233 93.8049 80.8545 91.7915C80.8241 91.6807 80.885 91.563 80.9934 91.532C81.1017 91.5007 81.2168 91.563 81.2473 91.6738C81.8162 93.6838 82.4155 95.7214 82.9912 97.6899C84.2745 102.066 85.6053 106.588 86.6957 111.103C86.7228 111.213 86.6552 111.328 86.5468 111.355C86.5366 111.362 86.5197 111.366 86.5027 111.366Z" fill="#767676" fill-opacity="1.000000" fill-rule="nonzero"/>
		<path id="Vector" d="M94.8839 107.975C94.8093 107.975 94.7383 107.934 94.701 107.861C93.5159 105.495 92.3307 103.08 91.1862 100.745C89.5236 97.3542 87.8068 93.8499 86.0562 90.4387C86.0054 90.335 86.0426 90.2102 86.1407 90.1584C86.2423 90.1064 86.3643 90.1445 86.415 90.2449C88.1691 93.6631 89.8859 97.1675 91.5485 100.558C92.693 102.893 93.8782 105.308 95.0599 107.671C95.1107 107.775 95.0701 107.899 94.9719 107.951C94.9482 107.968 94.9177 107.975 94.8839 107.975Z" fill="#767676" fill-opacity="1.000000" fill-rule="nonzero"/>
		<path id="Vector" d="M99.7144 92.6531C99.6635 92.6531 99.6127 92.6357 99.5754 92.5942L96.5719 89.6882C96.4906 89.6086 96.4873 89.4771 96.5652 89.394C96.6431 89.311 96.7717 89.3076 96.853 89.3872L99.8566 92.2932C99.9377 92.3728 99.9412 92.5042 99.8633 92.5872C99.8226 92.6321 99.7684 92.6531 99.7144 92.6531Z" fill="#767676" fill-opacity="1.000000" fill-rule="nonzero"/>
		<path id="Vector" d="M104.763 97.998C104.709 97.998 104.655 97.9773 104.617 97.9358L103.263 96.5034C103.185 96.4204 103.185 96.2891 103.266 96.2095C103.348 96.1299 103.476 96.1333 103.554 96.2129L104.909 97.6453C104.987 97.7283 104.987 97.8599 104.905 97.9395C104.865 97.981 104.814 97.998 104.763 97.998Z" fill="#767676" fill-opacity="1.000000" fill-rule="nonzero"/>
		<path id="Vector" d="M71.7037 106.577C71.697 106.577 71.6936 106.577 71.6868 106.577C71.5751 106.567 71.4905 106.467 71.5006 106.353C71.8696 101.63 72.1981 97.4995 72.5096 93.7251C72.5198 93.6108 72.6213 93.5312 72.7297 93.5347C72.8414 93.5452 72.9261 93.6455 72.916 93.7598C72.6078 97.5339 72.276 101.665 71.9069 106.387C71.9001 106.494 71.8121 106.577 71.7037 106.577Z" fill="#767676" fill-opacity="1.000000" fill-rule="nonzero"/>
		<path id="Vector" d="M71.2242 112.677C71.2175 112.677 71.2141 112.677 71.2073 112.677C71.0956 112.667 71.011 112.566 71.0211 112.452L71.4512 107.263C71.4613 107.149 71.5629 107.066 71.6713 107.073C71.783 107.083 71.8677 107.183 71.8574 107.298L71.4275 112.487C71.4207 112.594 71.3292 112.677 71.2242 112.677Z" fill="#767676" fill-opacity="1.000000" fill-rule="nonzero"/>
		<path id="Vector" d="M100.264 103.744C100.2 103.744 100.139 103.713 100.098 103.658C96.7052 98.8594 93.3427 94.1475 90.1021 89.6465C90.0344 89.5532 90.0547 89.4216 90.1461 89.356C90.2375 89.2866 90.3662 89.3074 90.4305 89.4009C93.6677 93.9019 97.0303 98.6172 100.427 103.416C100.494 103.509 100.474 103.641 100.379 103.706C100.349 103.73 100.305 103.744 100.264 103.744Z" fill="#767676" fill-opacity="1.000000" fill-rule="nonzero"/>
		<path id="Vector" d="M94.5441 55.4624C94.4865 55.4624 94.4288 55.4382 94.3883 55.3899C94.3137 55.3032 94.3273 55.1685 94.412 55.0957L107.486 43.8003C107.574 43.7241 107.703 43.738 107.774 43.8245C107.848 43.9109 107.835 44.0459 107.75 44.1184L94.676 55.4141C94.6388 55.4451 94.5914 55.4624 94.5441 55.4624Z" fill="#767676" fill-opacity="1.000000" fill-rule="nonzero"/>
		<path id="Vector" d="M87.2742 50.6362C87.2402 50.6362 87.203 50.6257 87.1725 50.6086C87.0743 50.5498 87.0405 50.4216 87.098 50.3213L87.8802 48.9514C87.9379 48.8511 88.0631 48.8201 88.1614 48.8752C88.2595 48.9341 88.2935 49.062 88.2358 49.1624L87.4536 50.5325C87.413 50.5981 87.3418 50.6362 87.2742 50.6362Z" fill="#767676" fill-opacity="1.000000" fill-rule="nonzero"/>
		<path id="Vector" d="M89.2793 47.3877C89.2421 47.3877 89.2014 47.3774 89.1676 47.353C89.0728 47.2908 89.0491 47.1594 89.11 47.0625L96.8982 35.054C96.9625 34.9573 97.0879 34.9329 97.1826 34.9954C97.2775 35.0576 97.3011 35.189 97.2402 35.2859L89.452 47.2942C89.408 47.353 89.3436 47.3877 89.2793 47.3877Z" fill="#767676" fill-opacity="1.000000" fill-rule="nonzero"/>
		<path id="Vector" d="M80.7891 47.9478C80.7721 47.9478 80.7551 47.9443 80.7382 47.9409C80.6299 47.9133 80.5621 47.7991 80.5892 47.6885C80.9584 46.1973 81.3308 44.7097 81.7032 43.2222C82.8004 38.8457 83.9314 34.3242 84.9608 29.8545C84.9879 29.7437 85.0963 29.6711 85.208 29.6987C85.3164 29.7266 85.3875 29.8372 85.3604 29.9514C84.3309 34.4246 83.1967 38.9531 82.0995 43.3293C81.7271 44.8169 81.3545 46.3081 80.9854 47.7957C80.9617 47.8855 80.8805 47.9478 80.7891 47.9478Z" fill="#767676" fill-opacity="1.000000" fill-rule="nonzero"/>
		<path id="Vector" d="M99.2521 42.5342C99.2047 42.5342 99.1572 42.5168 99.12 42.4822C99.0354 42.4062 99.0253 42.2747 99.0963 42.1882L101.853 38.8982C101.927 38.8118 102.056 38.8013 102.141 38.874C102.225 38.95 102.235 39.0815 102.164 39.168L99.4078 42.458C99.3672 42.51 99.3097 42.5342 99.2521 42.5342Z" fill="#767676" fill-opacity="1.000000" fill-rule="nonzero"/>
		<path id="Vector" d="M89.0918 37.5452C89.0681 37.5452 89.041 37.5417 89.0173 37.5312C88.9124 37.4897 88.8616 37.3687 88.9022 37.2615C89.1663 36.5798 89.4575 35.9053 89.7351 35.2515C90.1245 34.3416 90.4937 33.4836 90.8086 32.5876C90.8458 32.4805 90.9644 32.4216 91.0693 32.4631C91.1743 32.5012 91.2318 32.6223 91.1912 32.7295C90.8695 33.6394 90.4835 34.5457 90.1077 35.4209C89.83 36.0679 89.5421 36.739 89.2781 37.417C89.2476 37.4966 89.1731 37.5452 89.0918 37.5452Z" fill="#767676" fill-opacity="1.000000" fill-rule="nonzero"/>
		<path id="Vector" d="M98.9124 55.718C98.8379 55.718 98.7667 55.6765 98.7329 55.6074C98.6821 55.5037 98.7194 55.3792 98.8175 55.3271L107.811 50.5081C107.913 50.4561 108.035 50.4941 108.086 50.5945C108.136 50.6982 108.099 50.8228 108.001 50.8748L99.0072 55.6938C98.9767 55.7112 98.9462 55.718 98.9124 55.718Z" fill="#767676" fill-opacity="1.000000" fill-rule="nonzero"/>
		<path id="Vector" d="M108.455 50.5911C108.38 50.5911 108.309 50.5496 108.275 50.4805C108.221 50.3765 108.262 50.252 108.36 50.2002L110.584 49.01C110.686 48.958 110.808 48.9961 110.859 49.0964C110.913 49.2002 110.872 49.3247 110.774 49.3767L108.549 50.5703C108.522 50.5842 108.489 50.5911 108.455 50.5911Z" fill="#767676" fill-opacity="1.000000" fill-rule="nonzero"/>
		<path id="Vector" d="M103.514 57.2163C103.43 57.2163 103.349 57.1609 103.321 57.0745C103.284 56.9636 103.342 56.8462 103.45 56.8081L110.974 54.1963C111.079 54.1616 111.198 54.217 111.235 54.3276C111.272 54.4385 111.215 54.5562 111.106 54.594L103.582 57.2058C103.558 57.2129 103.538 57.2163 103.514 57.2163Z" fill="#767676" fill-opacity="1.000000" fill-rule="nonzero"/>
		<path id="Vector" d="M88.72 55.5488C88.6726 55.5488 88.6285 55.5315 88.588 55.5002C88.4999 55.4277 88.4897 55.2961 88.5609 55.2063L96.3457 45.71C96.4203 45.6199 96.549 45.6096 96.6335 45.6821C96.7217 45.7549 96.7318 45.8862 96.6606 45.9763L88.8757 55.4727C88.8385 55.521 88.781 55.5488 88.72 55.5488Z" fill="#767676" fill-opacity="1.000000" fill-rule="nonzero"/>
		<path id="Vector" d="M84.5514 48.8164C84.5243 48.8164 84.4972 48.8096 84.4701 48.7991C84.3651 48.7542 84.321 48.6296 84.3651 48.5225C85.767 45.2566 87.0131 42.3022 88.0967 39.2336C88.1339 39.1265 88.2524 39.0676 88.3574 39.1091C88.4624 39.1472 88.5199 39.2683 88.4794 39.3755C87.3958 42.4543 86.1428 45.4158 84.7375 48.6885C84.7037 48.7715 84.6293 48.8164 84.5514 48.8164Z" fill="#767676" fill-opacity="1.000000" fill-rule="nonzero"/>
		<path id="Vector" d="M72.457 50.1997C72.3555 50.1997 72.2675 50.1201 72.2539 50.0129C71.79 45.7542 71.3972 41.4124 71.0214 37.2158C70.7572 34.282 70.4829 31.248 70.1884 28.2659C70.1782 28.1516 70.2594 28.0479 70.3712 28.0376C70.4829 28.0271 70.5845 28.1101 70.5947 28.2244C70.8927 31.2065 71.1636 34.2439 71.4277 37.1777C71.8036 41.3708 72.1963 45.709 72.6603 49.9644C72.6738 50.0786 72.5925 50.1824 72.4807 50.1963C72.474 50.1997 72.4672 50.1997 72.457 50.1997Z" fill="#767676" fill-opacity="1.000000" fill-rule="nonzero"/>
		<path id="Vector" d="M68.9915 51.1416C68.9033 51.1416 68.8187 51.0791 68.795 50.9893L65.3716 38.4585C65.3411 38.3479 65.4054 38.2336 65.5138 38.2026C65.6222 38.1714 65.7339 38.2371 65.7644 38.3479L69.1879 50.8787C69.2183 50.9893 69.1539 51.1035 69.0457 51.1345C69.0253 51.1416 69.0083 51.1416 68.9915 51.1416Z" fill="#767676" fill-opacity="1.000000" fill-rule="nonzero"/>
		<path id="Vector" d="M64.6418 35.2065C64.5537 35.2065 64.4691 35.1443 64.4454 35.0542L62.9487 29.5708C62.9182 29.4602 62.9825 29.3459 63.0909 29.3149C63.1993 29.2837 63.311 29.3494 63.3416 29.4602L64.8383 34.9436C64.8687 35.0542 64.8043 35.1685 64.696 35.1995C64.6757 35.2031 64.6587 35.2065 64.6418 35.2065Z" fill="#767676" fill-opacity="1.000000" fill-rule="nonzero"/>
		<path id="Vector" d="M65.092 53.3108C65.0176 53.3108 64.9464 53.2693 64.9092 53.1968C61.2927 45.9211 57.9133 39.3167 54.5813 33.0063C54.5271 32.906 54.5645 32.7781 54.6626 32.7227C54.7607 32.6675 54.8861 32.7053 54.9403 32.8057C58.2722 39.1196 61.6517 45.7273 65.2715 53.0063C65.3223 53.1101 65.2816 53.2346 65.1835 53.2866C65.153 53.304 65.1226 53.3108 65.092 53.3108Z" fill="#767676" fill-opacity="1.000000" fill-rule="nonzero"/>
		<path id="Vector" d="M57.2604 55.5244C57.2096 55.5244 57.1588 55.5071 57.1216 55.4656L49.7938 48.3806C49.7125 48.301 49.7092 48.1694 49.7871 48.0864C49.865 48.0034 49.9937 48 50.075 48.0796L57.4026 55.1646C57.4839 55.2441 57.4872 55.3757 57.4093 55.4587C57.3688 55.5002 57.3146 55.5244 57.2604 55.5244Z" fill="#767676" fill-opacity="1.000000" fill-rule="nonzero"/>
		<path id="Vector" d="M47.6046 46.0696C47.5504 46.0696 47.4963 46.0488 47.459 46.0073L43.1519 41.4438C43.074 41.3608 43.0773 41.2295 43.1586 41.1499C43.2399 41.0703 43.3685 41.0737 43.4464 41.1567L47.7537 45.72C47.8315 45.803 47.8281 45.9346 47.7468 46.0142C47.7063 46.0486 47.6554 46.0696 47.6046 46.0696Z" fill="#767676" fill-opacity="1.000000" fill-rule="nonzero"/>
		<path id="Vector" d="M43.6467 55.272C43.6163 55.272 43.5858 55.2649 43.5587 55.2512L36.2817 51.6877C36.1802 51.6394 36.1361 51.5149 36.187 51.4075C36.2344 51.3037 36.3596 51.2588 36.4612 51.3108L43.7382 54.874C43.8398 54.9224 43.8838 55.0471 43.833 55.1543C43.7992 55.2268 43.7246 55.272 43.6467 55.272Z" fill="#767676" fill-opacity="1.000000" fill-rule="nonzero"/>
		<path id="Vector" d="M76.7626 48.5293C76.7593 48.5293 76.7524 48.5293 76.749 48.5293C76.6373 48.5225 76.5527 48.4221 76.5594 48.3079C76.5934 47.7786 76.6272 47.2529 76.6576 46.7236C76.8405 43.7585 77.0302 40.697 77.3856 37.6941C77.3992 37.5798 77.5009 37.5002 77.6125 37.5107C77.7242 37.5244 77.8055 37.6282 77.792 37.7424C77.4365 40.7314 77.2468 43.7898 77.064 46.7478C77.0302 47.2771 76.9996 47.8064 76.9658 48.3323C76.959 48.4429 76.8676 48.5293 76.7626 48.5293Z" fill="#767676" fill-opacity="1.000000" fill-rule="nonzero"/>
		<path id="Vector" d="M77.9923 33.6047C77.9856 33.6047 77.9822 33.6047 77.9755 33.6047C77.8636 33.5945 77.7791 33.4941 77.7892 33.3799L78.2192 28.1904C78.2294 28.0762 78.3344 27.9966 78.4393 28C78.551 28.0105 78.6357 28.1108 78.6255 28.2249L78.1956 33.4146C78.1853 33.5217 78.0973 33.6047 77.9923 33.6047Z" fill="#767676" fill-opacity="1.000000" fill-rule="nonzero"/>
		<path id="Vector" d="M50.5476 38.9287C50.4867 38.9287 50.4258 38.9011 50.3851 38.8457C49.8297 38.0984 49.271 37.3167 48.7292 36.5591L48.4109 36.1162C48.3433 36.0227 48.3635 35.8914 48.455 35.8257C48.5464 35.7598 48.675 35.7771 48.7394 35.8706L49.0577 36.3135C49.5995 37.0676 50.1548 37.8494 50.7102 38.5933C50.778 38.6865 50.761 38.8147 50.6696 38.8872C50.6356 38.9148 50.5917 38.9287 50.5476 38.9287Z" fill="#767676" fill-opacity="1.000000" fill-rule="nonzero"/>
		<path id="Vector" d="M62.0125 54.8257C61.9515 54.8257 61.8906 54.7981 61.85 54.7427C59.5677 51.6431 57.2921 48.4602 55.0912 45.3811L53.5334 43.2017C53.4658 43.1084 53.4861 42.9768 53.5775 42.9111C53.6689 42.8418 53.7976 42.8625 53.8619 42.9561L55.4196 45.1355C57.6206 48.2146 59.8928 51.3938 62.175 54.4937C62.2428 54.5869 62.2258 54.7185 62.1344 54.7876C62.0972 54.812 62.0531 54.8257 62.0125 54.8257Z" fill="#767676" fill-opacity="1.000000" fill-rule="nonzero"/>
		<path id="Vector" d="M50.6693 55.4763C50.6287 55.4763 50.588 55.4661 50.5542 55.4382L44.8857 51.4421C44.7943 51.3765 44.7705 51.2449 44.835 51.1516C44.8993 51.0581 45.028 51.0339 45.1194 51.0996L50.7878 55.0957C50.8793 55.1614 50.903 55.293 50.8386 55.3865C50.798 55.4453 50.7336 55.4763 50.6693 55.4763Z" fill="#767676" fill-opacity="1.000000" fill-rule="nonzero"/>
		<path id="Vector" d="M43.2976 50.2593C43.257 50.2593 43.2163 50.2488 43.1825 50.2212L39.7997 47.8342C39.7083 47.7686 39.6844 47.637 39.7489 47.5437C39.8132 47.4502 39.9419 47.426 40.0333 47.4917L43.4161 49.8787C43.5076 49.9443 43.5312 50.0759 43.4669 50.1692C43.4263 50.228 43.3619 50.2593 43.2976 50.2593Z" fill="#767676" fill-opacity="1.000000" fill-rule="nonzero"/>
		<path id="Vector" d="M38.7526 82.8882L38.7526 83.7603C38.7526 84.4106 38.2379 84.9434 37.6013 84.9434L36.2264 84.9434C36.1249 84.9434 36.047 84.8604 36.047 84.76L36.047 79.9578C36.047 79.854 36.1249 79.7744 36.2264 79.7744L37.4861 79.7744C38.1227 79.7744 38.6375 80.3071 38.6375 80.9578L38.6375 81.4387C38.6375 81.6809 38.5731 81.9023 38.441 82.0891C38.6375 82.2966 38.7526 82.5803 38.7526 82.8882ZM36.9172 81.7153L37.4895 81.7153C37.6418 81.7153 37.7705 81.584 37.7705 81.4282L37.7705 80.9197C37.7705 80.7571 37.6418 80.6255 37.4895 80.6255L36.9172 80.6255L36.9172 81.7153ZM37.8857 82.8467C37.8857 82.6841 37.7571 82.5527 37.6046 82.5527L36.9172 82.5527L36.9172 84.0889L37.6046 84.0889C37.7571 84.0889 37.8857 83.9573 37.8857 83.7844L37.8857 82.8467Z" fill="#767676" fill-opacity="1.000000" fill-rule="nonzero"/>
		<path id="Vector" d="M40.4236 80.6133L40.4236 81.7134L41.0602 81.7134C41.1617 81.7134 41.2396 81.793 41.2396 81.8967L41.2396 82.3535C41.2396 82.4573 41.1617 82.5369 41.0602 82.5369L40.4236 82.5369L40.4236 84.0972L41.4293 84.0972C41.5309 84.0972 41.6088 84.1768 41.6088 84.2805L41.6088 84.7544C41.6088 84.8582 41.5309 84.9377 41.4293 84.9377L39.7294 84.9377C39.6278 84.9377 39.5499 84.8547 39.5499 84.7544L39.5499 79.9524C39.5499 79.8486 39.6278 79.769 39.7294 79.769L41.4293 79.769C41.5309 79.769 41.6088 79.8521 41.6088 79.9524L41.6088 80.4263C41.6088 80.5303 41.5309 80.6099 41.4293 80.6099L40.4236 80.6099L40.4236 80.6133Z" fill="#767676" fill-opacity="1.000000" fill-rule="nonzero"/>
		<path id="Vector" d="M44.1117 81.0771L44.1117 80.9216C44.1117 80.759 43.983 80.6345 43.8239 80.6345L43.4919 80.6345C43.3329 80.6345 43.2042 80.759 43.2042 80.9216L43.2042 81.3713C43.2042 81.5339 43.3329 81.6584 43.4919 81.6653L43.8239 81.6653C44.4672 81.6653 44.9819 82.1912 44.9819 82.8486L44.9819 83.7583C44.9819 84.4087 44.4604 84.9414 43.8239 84.9414L43.4919 84.9414C42.8553 84.9414 42.3339 84.4087 42.3339 83.7583L42.3339 83.1531C42.3339 83.0491 42.4117 82.9695 42.5134 82.9695L43.0179 82.9695C43.1195 82.9695 43.1974 83.0527 43.1974 83.1531L43.1974 83.7964C43.1974 83.959 43.326 84.0906 43.4852 84.0906L43.817 84.0906C43.9762 84.0906 44.1049 83.959 44.1049 83.7964L44.1049 82.8347C44.1049 82.6721 43.9762 82.5476 43.817 82.5476L43.4852 82.5476C42.8486 82.5405 42.3271 82.0217 42.3271 81.3713L42.3271 80.9492C42.3271 80.2988 42.8486 79.7661 43.4852 79.7661L43.817 79.7661C44.4604 79.7661 44.9751 80.2988 44.9751 80.9492L44.9751 81.0737C44.9751 81.1775 44.8939 81.2571 44.7957 81.2571L44.2911 81.2571C44.1896 81.2642 44.1117 81.1812 44.1117 81.0771Z" fill="#767676" fill-opacity="1.000000" fill-rule="nonzero"/>
		<path id="Vector" d="M48.061 79.9561L48.061 80.4438C48.061 80.5476 47.973 80.6272 47.8816 80.6272L47.2585 80.6272L47.2585 84.7578C47.2585 84.8616 47.1807 84.9412 47.0791 84.9412L46.5712 84.9412C46.4763 84.9412 46.3917 84.8582 46.3917 84.7578L46.3917 80.6272L45.7754 80.6272C45.6738 80.6272 45.5959 80.5439 45.5959 80.4438L45.5959 79.9561C45.5959 79.8521 45.6738 79.7725 45.7754 79.7725L47.8782 79.7725C47.973 79.769 48.061 79.8521 48.061 79.9561Z" fill="#767676" fill-opacity="1.000000" fill-rule="nonzero"/>
		<path id="Vector" d="M52.804 84.0906L53.0918 84.0906C53.1799 84.0906 53.2645 84.1736 53.2645 84.2739L53.2645 84.7549C53.2645 84.8586 53.1765 84.9382 53.075 84.9382L51.6426 84.9382C51.077 84.9382 50.6233 84.4712 50.6233 83.9038L50.6233 80.8074C50.6233 80.2297 51.0804 79.7661 51.6426 79.7661L52.2487 79.7661C52.8142 79.7661 53.2679 80.2332 53.2679 80.8074L53.2679 83.3572C53.2747 83.6858 53.0782 83.9661 52.804 84.0906ZM52.4044 80.8108C52.4044 80.707 52.3164 80.6206 52.2148 80.6206L51.6798 80.6206C51.5782 80.6206 51.4935 80.7104 51.4935 80.8108L51.4935 83.9072C51.4935 84.0042 51.5815 84.0906 51.6798 84.0906L52.4044 84.0906L52.4044 80.8108Z" fill="#767676" fill-opacity="1.000000" fill-rule="nonzero"/>
		<path id="Vector" d="M56.103 79.769L56.6075 79.769C56.7091 79.769 56.787 79.8589 56.787 79.9629L56.787 83.9966C56.787 84.5122 56.3671 84.9412 55.8625 84.9412L55.0668 84.9412C54.5588 84.9412 54.1423 84.5122 54.1423 83.9966L54.1423 79.9629C54.1423 79.8589 54.2202 79.769 54.3218 79.769L54.8297 79.769C54.9313 79.769 55.0092 79.8589 55.0092 79.9629L55.0092 83.9067C55.0092 84.0105 55.0973 84.0901 55.1989 84.0901L55.7339 84.0901C55.8354 84.0901 55.9235 84.0105 55.9235 83.9067L55.9235 79.9629C55.9202 79.8589 56.0013 79.769 56.103 79.769Z" fill="#767676" fill-opacity="1.000000" fill-rule="nonzero"/>
		<path id="Vector" d="M60.2175 84.1074L60.2175 84.7578C60.2175 84.8616 60.1362 84.9412 60.0381 84.9412L59.5234 84.9412C59.4286 84.9412 59.3507 84.8582 59.3507 84.7578L59.3507 84.0867L58.3822 84.0867L58.3822 84.7578C58.3822 84.8616 58.3043 84.9412 58.2028 84.9412L57.6948 84.9412C57.5933 84.9412 57.5154 84.8582 57.5154 84.7578L57.5154 84.1074C57.5154 84.0762 57.5154 84.0554 57.5221 84.0105L58.1453 79.9316C58.1587 79.8347 58.24 79.769 58.3348 79.769L59.4185 79.769C59.5132 79.769 59.5844 79.8521 59.5979 79.9316L60.2108 84.0105C60.2175 84.0554 60.2175 84.0762 60.2175 84.1074ZM59.2491 83.2493L58.8665 80.6409L58.4839 83.2493L59.2491 83.2493Z" fill="#767676" fill-opacity="1.000000" fill-rule="nonzero"/>
		<path id="Vector" d="M61.8082 79.9561L61.8082 84.1006L62.8208 84.1006C62.9224 84.1006 63.0002 84.1802 63.0002 84.2839L63.0002 84.7578C63.0002 84.8616 62.9224 84.9412 62.8208 84.9412L61.1208 84.9412C61.0193 84.9412 60.9414 84.8582 60.9414 84.7578L60.9414 79.9561C60.9414 79.8521 61.0193 79.7725 61.1208 79.7725L61.6288 79.7725C61.7303 79.769 61.8082 79.8521 61.8082 79.9561Z" fill="#767676" fill-opacity="1.000000" fill-rule="nonzero"/>
		<path id="Vector" d="M64.376 84.9412L63.8715 84.9412C63.7699 84.9412 63.692 84.8582 63.692 84.7578L63.692 79.9629C63.692 79.8589 63.7733 79.769 63.8715 79.769L64.376 79.769C64.4777 79.769 64.5555 79.8589 64.5555 79.9629L64.5555 84.7578C64.5588 84.8616 64.4777 84.9412 64.376 84.9412Z" fill="#767676" fill-opacity="1.000000" fill-rule="nonzero"/>
		<path id="Vector" d="M67.7096 79.9561L67.7096 80.4438C67.7096 80.5476 67.6216 80.6272 67.5302 80.6272L66.9071 80.6272L66.9071 84.7578C66.9071 84.8616 66.8292 84.9412 66.7277 84.9412L66.2197 84.9412C66.1249 84.9412 66.0403 84.8582 66.0403 84.7578L66.0403 80.6272L65.424 80.6272C65.3224 80.6272 65.2445 80.5439 65.2445 80.4438L65.2445 79.9561C65.2445 79.8521 65.3224 79.7725 65.424 79.7725L67.5267 79.7725C67.6216 79.769 67.7096 79.8521 67.7096 79.9561Z" fill="#767676" fill-opacity="1.000000" fill-rule="nonzero"/>
		<path id="Vector" d="M70.3419 79.769L70.8464 79.769C70.948 79.769 71.0259 79.8521 71.0259 79.9524L71.0259 80.6824C71.0259 80.762 71.0123 80.845 70.9751 80.9177L70.0575 82.8447L70.0575 84.7512C70.0575 84.855 69.9762 84.9346 69.8779 84.9346L69.3734 84.9346C69.2719 84.9346 69.194 84.8516 69.194 84.7512L69.194 82.8447L68.2695 80.9177C68.239 80.845 68.2188 80.762 68.2188 80.6824L68.2188 79.9524C68.2188 79.8486 68.2966 79.769 68.3982 79.769L68.9061 79.769C69.0077 79.769 69.0856 79.8521 69.0856 79.9524L69.0856 80.5129C69.0856 80.5718 69.0991 80.6306 69.1296 80.6824L69.6274 81.7307L70.1251 80.6824C70.1455 80.6306 70.1625 80.5718 70.1625 80.5129L70.1625 79.9524C70.1625 79.8521 70.2404 79.769 70.3419 79.769Z" fill="#767676" fill-opacity="1.000000" fill-rule="nonzero"/>
		<path id="Vector" d="M75.5365 82.3572C75.5365 82.9246 75.0896 83.3848 74.5309 83.3848C73.9823 83.3848 73.5251 82.928 73.5251 82.3572C73.5251 81.7966 73.9823 81.3296 74.5309 81.3296C75.0862 81.3296 75.5365 81.7932 75.5365 82.3572Z" fill="#767676" fill-opacity="1.000000" fill-rule="nonzero"/>
		<path id="Vector" d="M80.917 82.886L80.917 83.7578C80.917 84.4082 80.4023 84.9409 79.7656 84.9409L78.3909 84.9409C78.2893 84.9409 78.2114 84.8579 78.2114 84.7576L78.2114 79.9558C78.2114 79.8521 78.2927 79.7725 78.3909 79.7725L79.6505 79.7725C80.2871 79.7725 80.8019 80.3052 80.8019 80.9556L80.8019 81.4365C80.8019 81.6787 80.7375 81.9001 80.6055 82.0869C80.7985 82.2944 80.917 82.5781 80.917 82.886ZM79.0782 81.7131L79.6505 81.7131C79.803 81.7131 79.9316 81.5818 79.9316 81.426L79.9316 80.9175C79.9316 80.7549 79.803 80.6235 79.6505 80.6235L79.0782 80.6235L79.0782 81.7131ZM80.0468 82.8445C80.0468 82.6819 79.9181 82.5505 79.7656 82.5505L79.0782 82.5505L79.0782 84.0864L79.7656 84.0864C79.9181 84.0864 80.0468 83.9551 80.0468 83.782L80.0468 82.8445Z" fill="#767676" fill-opacity="1.000000" fill-rule="nonzero"/>
		<path id="Vector" d="M82.5864 80.6133L82.5864 81.7134L83.223 81.7134C83.3246 81.7134 83.4025 81.793 83.4025 81.8967L83.4025 82.3535C83.4025 82.4573 83.3246 82.5369 83.223 82.5369L82.5864 82.5369L82.5864 84.0972L83.5922 84.0972C83.6937 84.0972 83.7716 84.1768 83.7716 84.2805L83.7716 84.7544C83.7716 84.8582 83.6937 84.9377 83.5922 84.9377L81.8922 84.9377C81.7906 84.9377 81.7128 84.8547 81.7128 84.7544L81.7128 79.9524C81.7128 79.8486 81.7906 79.769 81.8922 79.769L83.5922 79.769C83.6937 79.769 83.7716 79.8521 83.7716 79.9524L83.7716 80.4263C83.7716 80.5303 83.6937 80.6099 83.5922 80.6099L82.5864 80.6099L82.5864 80.6133Z" fill="#767676" fill-opacity="1.000000" fill-rule="nonzero"/>
		<path id="Vector" d="M86.2745 81.0771L86.2745 80.9216C86.2745 80.759 86.1459 80.6345 85.9867 80.6345L85.6548 80.6345C85.4957 80.6345 85.3671 80.759 85.3671 80.9216L85.3671 81.3713C85.3671 81.5339 85.4957 81.6584 85.6548 81.6653L85.9867 81.6653C86.63 81.6653 87.1448 82.1912 87.1448 82.8486L87.1448 83.7583C87.1448 84.4087 86.6233 84.9414 85.9867 84.9414L85.6548 84.9414C85.0182 84.9414 84.4968 84.4087 84.4968 83.7583L84.4968 83.1531C84.4968 83.0491 84.5747 82.9695 84.6763 82.9695L85.1808 82.9695C85.2823 82.9695 85.3602 83.0527 85.3602 83.1531L85.3602 83.7964C85.3602 83.959 85.4889 84.0906 85.6481 84.0906L85.9799 84.0906C86.139 84.0906 86.2677 83.959 86.2677 83.7964L86.2677 82.8347C86.2677 82.6721 86.139 82.5476 85.9799 82.5476L85.6481 82.5476C85.0115 82.5405 84.49 82.0217 84.49 81.3713L84.49 80.9492C84.49 80.2988 85.0115 79.7661 85.6481 79.7661L85.9799 79.7661C86.6233 79.7661 87.1379 80.2988 87.1379 80.9492L87.1379 81.0737C87.1379 81.1775 87.0568 81.2571 86.9585 81.2571L86.454 81.2571C86.3558 81.2642 86.2745 81.1812 86.2745 81.0771Z" fill="#767676" fill-opacity="1.000000" fill-rule="nonzero"/>
		<path id="Vector" d="M90.2218 79.9561L90.2218 80.4438C90.2218 80.5476 90.1338 80.6272 90.0424 80.6272L89.4192 80.6272L89.4192 84.7578C89.4192 84.8616 89.3413 84.9412 89.2397 84.9412L88.7318 84.9412C88.637 84.9412 88.5524 84.8582 88.5524 84.7578L88.5524 80.6272L87.936 80.6272C87.8345 80.6272 87.7566 80.5439 87.7566 80.4438L87.7566 79.9561C87.7566 79.8521 87.8345 79.7725 87.936 79.7725L90.0389 79.7725C90.1371 79.769 90.2218 79.8521 90.2218 79.9561Z" fill="#767676" fill-opacity="1.000000" fill-rule="nonzero"/>
		<path id="Vector" d="M95.365 80.9521L95.365 81.426C95.365 82.0764 94.8435 82.6094 94.2137 82.6094L93.6584 82.6094L93.6584 84.7576C93.6584 84.8613 93.5771 84.9409 93.4789 84.9409L92.9744 84.9409C92.8728 84.9409 92.7949 84.8579 92.7949 84.7576L92.7949 79.9558C92.7949 79.8521 92.8762 79.7725 92.9744 79.7725L94.2172 79.7725C94.8435 79.769 95.365 80.3018 95.365 80.9521ZM94.4982 80.9141C94.4982 80.7515 94.3762 80.6201 94.2172 80.6201L93.6617 80.6201L93.6617 81.7131L94.2172 81.7131C94.3762 81.7131 94.4982 81.5818 94.4982 81.426L94.4982 80.9141Z" fill="#767676" fill-opacity="1.000000" fill-rule="nonzero"/>
		<path id="Vector" d="M97.9447 82.5261L98.5948 83.7681C98.6321 83.8408 98.6456 83.9307 98.6456 84.0103L98.6456 84.7507C98.6456 84.8545 98.5746 84.9341 98.473 84.9341L97.9684 84.9341C97.8668 84.9341 97.7788 84.8545 97.7788 84.7507L97.7788 84.2351C97.7788 84.1521 97.7653 84.0725 97.728 83.9827L96.9559 82.5193L96.9559 84.7576C96.9559 84.8613 96.8748 84.9409 96.7765 84.9409L96.272 84.9409C96.1771 84.9409 96.0925 84.8579 96.0925 84.7576L96.0925 79.9558C96.0925 79.8521 96.1805 79.7725 96.272 79.7725L97.5215 79.7725C98.1581 79.7725 98.6693 80.3052 98.6693 80.9556L98.6693 81.4226C98.6693 81.9209 98.3646 82.3464 97.9447 82.5261ZM97.5181 80.6201L96.9526 80.6201L96.9526 81.7202L97.5181 81.7202C97.6704 81.7202 97.7991 81.5886 97.7991 81.4158L97.7991 80.9072C97.8025 80.7446 97.6704 80.6201 97.5181 80.6201Z" fill="#767676" fill-opacity="1.000000" fill-rule="nonzero"/>
		<path id="Vector" d="M100.079 84.9412L99.5741 84.9412C99.4725 84.9412 99.3947 84.8582 99.3947 84.7578L99.3947 79.9629C99.3947 79.8589 99.476 79.769 99.5741 79.769L100.079 79.769C100.18 79.769 100.258 79.8589 100.258 79.9629L100.258 84.7578C100.261 84.8616 100.18 84.9412 100.079 84.9412Z" fill="#767676" fill-opacity="1.000000" fill-rule="nonzero"/>
		<path id="Vector" d="M103.014 82.5471L103.519 82.5471C103.62 82.5471 103.698 82.6372 103.698 82.7375L103.698 83.9934C103.698 84.5088 103.285 84.9377 102.774 84.9377L101.978 84.9377C101.47 84.9377 101.053 84.5088 101.053 83.9934L101.053 80.7136C101.053 80.1877 101.467 79.769 101.978 79.769L102.774 79.769C103.288 79.769 103.698 80.1912 103.698 80.7136L103.698 81.5266C103.698 81.6304 103.617 81.7202 103.519 81.7202L103.014 81.7202C102.912 81.7202 102.835 81.6304 102.835 81.5266L102.835 80.7966C102.835 80.6929 102.747 80.6133 102.655 80.6133L102.113 80.6133C102.012 80.6133 101.924 80.6963 101.924 80.7966L101.924 83.8999C101.924 84.0037 102.012 84.0833 102.113 84.0833L102.655 84.0833C102.75 84.0833 102.835 84.0037 102.835 83.8999L102.835 82.741C102.835 82.6372 102.916 82.5471 103.014 82.5471Z" fill="#767676" fill-opacity="1.000000" fill-rule="nonzero"/>
		<path id="Vector" d="M105.375 80.6133L105.375 81.7134L106.012 81.7134C106.114 81.7134 106.191 81.793 106.191 81.8967L106.191 82.3535C106.191 82.4573 106.114 82.5369 106.012 82.5369L105.375 82.5369L105.375 84.0972L106.381 84.0972C106.483 84.0972 106.561 84.1768 106.561 84.2805L106.561 84.7544C106.561 84.8582 106.483 84.9377 106.381 84.9377L104.681 84.9377C104.58 84.9377 104.502 84.8547 104.502 84.7544L104.502 79.9524C104.502 79.8486 104.58 79.769 104.681 79.769L106.381 79.769C106.483 79.769 106.561 79.8521 106.561 79.9524L106.561 80.4263C106.561 80.5303 106.483 80.6099 106.381 80.6099L105.375 80.6099L105.375 80.6133Z" fill="#767676" fill-opacity="1.000000" fill-rule="nonzero"/>
		<path id="Vector" d="M109.256 80.5718C114.481 80.5718 119.706 80.5718 124.931 80.5718C125.591 80.5718 125.591 79.5273 124.931 79.5273C119.706 79.5273 114.481 79.5273 109.256 79.5273C108.599 79.5273 108.599 80.5718 109.256 80.5718Z" fill="#767676" fill-opacity="1.000000" fill-rule="nonzero"/>
		<path id="Vector" d="M109.256 82.8C112.663 82.8 116.069 82.8 119.479 82.8C120.139 82.8 120.139 81.7554 119.479 81.7554C116.073 81.7554 112.666 81.7554 109.256 81.7554C108.599 81.7554 108.599 82.8 109.256 82.8Z" fill="#767676" fill-opacity="1.000000" fill-rule="nonzero"/>
		<path id="Vector" d="M109.256 84.8894C110.8 84.8894 112.344 84.8894 113.888 84.8894C114.549 84.8894 114.549 83.8442 113.888 83.8442C112.344 83.8442 110.8 83.8442 109.256 83.8442C108.599 83.8442 108.599 84.8894 109.256 84.8894Z" fill="#767676" fill-opacity="1.000000" fill-rule="nonzero"/>
		<path id="Vector" d="M32.7957 79.5273C27.5707 79.5273 22.3458 79.5273 17.121 79.5273C16.4607 79.5273 16.4607 80.5718 17.121 80.5718C22.3458 80.5718 27.5707 80.5718 32.7957 80.5718C33.4559 80.5718 33.4559 79.5273 32.7957 79.5273Z" fill="#767676" fill-opacity="1.000000" fill-rule="nonzero"/>
		<path id="Vector" d="M32.7972 81.7554C29.3907 81.7554 25.9843 81.7554 22.5743 81.7554C21.9141 81.7554 21.9141 82.8 22.5743 82.8C25.9808 82.8 29.3873 82.8 32.7972 82.8C33.4575 82.8 33.4575 81.7554 32.7972 81.7554Z" fill="#767676" fill-opacity="1.000000" fill-rule="nonzero"/>
		<path id="Vector" d="M32.7965 83.8442C31.2523 83.8442 29.7083 83.8442 28.1642 83.8442C27.5039 83.8442 27.5039 84.8894 28.1642 84.8894C29.7083 84.8894 31.2523 84.8894 32.7965 84.8894C33.4568 84.8894 33.4568 83.8442 32.7965 83.8442Z" fill="#767676" fill-opacity="1.000000" fill-rule="nonzero"/>
	</g>
</svg>
