<svg width="140.000000" height="140.000000" viewBox="0 0 140 140" fill="none" xmlns="http://www.w3.org/2000/svg" xmlns:xlink="http://www.w3.org/1999/xlink">
	<desc>
			Created with Pixso.
	</desc>
	<defs>
		<clipPath id="clip10_1591">
			<rect id="Frame" width="140.000000" height="140.000000" fill="white" fill-opacity="0"/>
		</clipPath>
	</defs>
	<rect id="Frame" width="140.000000" height="140.000000" fill="#FFFFFF" fill-opacity="0"/>
	<g clip-path="url(#clip10_1591)">
		<path id="Vector" d="M62.2659 101.314C62.2952 102.885 60.4679 104.543 58.5234 104.633C58.7833 105.849 59.1019 107.035 58.582 108.277C57.8276 110.233 55.799 111.3 53.7959 111.034C50.577 110.589 49.7056 106.054 52.8108 104.693C53.9131 104.218 55.5646 105.314 54.3489 106.41C53.6824 107.031 52.5801 107.21 53.0708 108.512C53.3601 109.223 54.1438 109.373 54.7809 109.253C55.8832 109.047 56.4911 108.097 56.5497 107.031C56.696 106.111 56.3483 105.164 56.1139 104.214C54.6637 103.503 53.5615 101.872 53.968 100.214C54.2866 98.7627 56.0553 99.354 55.3595 100.274C55.0409 100.895 55.506 101.786 56.026 102.261C56.1725 101.58 56.4032 100.929 56.7803 100.304C58.2341 98.0256 62.2073 97.906 62.2659 101.314ZM60.0907 100.248C58.8126 100.012 58.2927 101.729 58.2634 102.65C58.2634 102.71 58.2634 102.77 58.2634 102.83C58.6991 102.77 59.1349 102.624 59.4828 102.384C60.38 101.76 61.05 100.573 60.0907 100.248Z" fill="#767676" fill-opacity="1.000000" fill-rule="nonzero"/>
		<path id="Vector" d="M66.0674 101.049C65.7781 101.404 65.2251 102.115 64.6172 103.006C64.8186 103.006 64.9944 103.036 65.0823 103.036C65.5474 103.065 65.053 104.311 64.5037 104.311C64.3022 104.311 64.0094 104.281 63.7201 104.281C62.3579 106.268 60.9956 108.401 61.197 108.58C61.5742 108.996 63.4015 106.893 64.1559 106.002C64.6794 105.411 65.3459 106.092 64.793 106.713C63.4894 108.105 61.5449 110.833 59.9777 110.537C58.8168 110.357 58.3517 109.025 59.3112 107.694C59.7177 107.103 60.5891 105.677 61.4863 104.225C61.3398 104.225 61.197 104.225 61.0505 104.225C60.5269 104.225 61.0798 102.949 61.6035 102.92C61.75 102.92 62.01 102.92 62.2993 102.92C63.2257 101.438 64.0387 100.162 64.3022 99.9265C64.7673 99.4814 65.3167 99.126 65.7817 99.2456C66.2394 99.3877 66.9352 100.042 66.0674 101.049Z" fill="#767676" fill-opacity="1.000000" fill-rule="nonzero"/>
		<path id="Vector" d="M72.2441 106.739C70.9661 108.131 69.0546 110.828 67.4873 110.563C66.9087 110.443 66.6743 109.912 66.7329 109.257C66.2386 109.818 65.5721 110.323 64.847 110.323C62.4412 110.323 63.137 107.21 64.5577 105.523C65.9786 103.832 67.7766 102.65 68.9081 103.121C69.2853 103.271 69.516 103.566 69.6332 103.892C69.6918 103.802 69.7211 103.742 69.7797 103.686C70.2448 103.241 70.8232 102.885 71.259 103.035C71.7534 103.155 72.4199 103.836 71.5776 104.842C70.5925 105.969 68.736 108.221 69.0253 108.516C69.2853 108.782 70.9111 106.885 71.6655 105.998C72.1855 105.404 72.7933 106.144 72.2441 106.739ZM67.3994 106.739C68.3003 105.613 68.8495 104.667 68.6481 104.487C68.476 104.307 67.5752 105.138 66.5901 106.354C65.6344 107.54 65.14 108.696 65.2572 108.812C65.5135 109.077 66.4987 107.865 67.3994 106.739Z" fill="#767676" fill-opacity="1.000000" fill-rule="nonzero"/>
		<path id="Vector" d="M77.3502 101.049C77.0609 101.404 76.5079 102.115 75.9 103.006C76.1014 103.006 76.2772 103.036 76.3651 103.036C76.8302 103.065 76.3358 104.311 75.7866 104.311C75.5852 104.311 75.2922 104.281 75.0029 104.281C73.6407 106.268 72.2784 108.401 72.4799 108.58C72.8571 108.996 74.6843 106.893 75.4387 106.002C75.9624 105.411 76.6288 106.092 76.0759 106.713C74.7722 108.105 72.8278 110.833 71.2605 110.537C70.0996 110.357 69.6345 109.025 70.594 107.694C71.0005 107.103 71.8719 105.677 72.7692 104.225C72.6227 104.225 72.4799 104.225 72.3334 104.225C71.8097 104.225 72.3627 102.949 72.8864 102.92C73.0328 102.92 73.2928 102.92 73.5822 102.92C74.5085 101.438 75.3215 100.162 75.5852 99.9265C76.0502 99.4814 76.5995 99.126 77.0646 99.2456C77.5223 99.3877 78.218 100.042 77.3502 101.049Z" fill="#767676" fill-opacity="1.000000" fill-rule="nonzero"/>
		<path id="Vector" d="M79.494 106.739C78.1866 108.131 76.3044 110.828 74.7079 110.563C73.5764 110.357 73.4592 109.021 74.3893 107.689C75.3744 106.328 76.4766 104.221 77.0002 103.69C77.4653 103.245 78.0439 102.889 78.4796 103.039C78.974 103.159 79.6698 103.84 78.7982 104.846C77.8132 105.972 75.9565 108.225 76.2458 108.52C76.5059 108.786 78.1611 106.889 78.9154 106.002C79.4061 105.404 80.0433 106.144 79.494 106.739ZM79.5526 102.235C78.1611 102.235 79.5233 99.092 81.1199 99.4475C82.5956 99.7729 80.6548 102.59 79.5526 102.235Z" fill="#767676" fill-opacity="1.000000" fill-rule="nonzero"/>
		<path id="Vector" d="M86.4568 106.739C86.021 107.185 85.5596 107.776 85.0652 108.341C83.963 109.556 83.6151 110.002 82.5421 109.792C82.3665 109.762 82.2529 109.702 82.1357 109.613C81.4399 110.118 80.7441 110.383 80.162 110.383C78.1881 110.383 77.551 108.337 78.7411 106.294C79.9313 104.221 81.8721 102.886 83.2672 102.886C84.7466 102.886 85.8782 104.132 84.7173 106.47C84.3402 107.211 83.9044 107.862 83.4393 108.427C83.6407 108.337 83.9886 108.071 84.3402 107.686C84.8894 107.121 85.4717 106.44 85.8489 105.995C86.3689 105.404 87.006 106.145 86.4568 106.739ZM83.1793 104.633C82.337 104.633 79.4955 108.722 80.3085 108.722C80.9163 108.722 84.0216 104.633 83.1793 104.633Z" fill="#767676" fill-opacity="1.000000" fill-rule="nonzero"/>
		<path id="Vector" d="M93.2407 106.739C91.9371 108.131 90.0513 110.828 88.4547 110.563C86.8582 110.267 87.2645 108.696 88.224 107.364C89.1504 106.032 90.3406 105.022 90.1392 104.756C89.9634 104.491 88.224 106.298 87.6747 106.889C87.0375 107.865 86.3967 108.816 85.9939 109.377C85.386 110.237 85.1223 110.563 84.4266 110.563C83.3536 110.563 83.6429 109.111 84.9502 107.364C85.906 106.032 86.7483 104.637 86.8947 104.341C87.3304 103.451 87.4733 103.009 88.0848 103.009C88.5499 103.009 89.1284 103.365 89.2163 103.986C89.9121 103.425 90.6372 103.009 91.3622 103.009C92.058 103.009 93.043 103.84 92.1166 105.202C91.1901 106.563 89.7107 108.225 90 108.52C90.26 108.786 91.8859 106.889 92.6403 106.002C93.1528 105.404 93.7937 106.145 93.2407 106.739Z" fill="#767676" fill-opacity="1.000000" fill-rule="nonzero"/>
		<path id="Vector" d="M18.8141 64.085L19.8102 65.978C21.1797 68.582 20.2202 71.8557 17.7009 73.24L15.4708 74.4673L20.0043 83.0723C20.224 83.4875 20.0737 83.9851 19.671 84.2097L17.646 85.3245C17.2395 85.5491 16.7524 85.3958 16.5327 84.9841L6.40393 65.7649C6.1842 65.3496 6.33435 64.8521 6.73718 64.6274L11.7137 61.8889C14.2367 60.5007 17.4446 61.4849 18.8141 64.085ZM15.2621 65.8472C14.9178 65.1963 14.1488 64.9343 13.5117 65.2859L11.2816 66.5132L13.5886 70.8906L15.8187 69.6633C16.4558 69.3118 16.6682 68.511 16.3386 67.8899L15.2621 65.8472Z" fill="#767676" fill-opacity="1.000000" fill-rule="nonzero"/>
		<path id="Vector" d="M25.4707 59.8125L27.1625 64.5078L29.876 63.4866C30.3081 63.3257 30.7732 63.5427 30.9307 63.9841L31.6337 65.937C31.7911 66.3784 31.5787 66.8538 31.1467 67.0146L28.4332 68.0359L30.8281 74.6841L35.1161 73.0715C35.5482 72.9109 36.0133 73.1277 36.1708 73.5693L36.8959 75.5857C37.0533 76.0273 36.8409 76.5024 36.4088 76.6633L29.1583 79.3906C28.7262 79.5515 28.2611 79.3345 28.1036 78.8931L20.7213 58.4097C20.5638 57.968 20.7762 57.4929 21.2083 57.332L28.4552 54.6047C28.8873 54.4438 29.3523 54.6609 29.5098 55.1023L30.2349 57.1189C30.3923 57.5603 30.1799 58.0354 29.7478 58.1963L25.4707 59.8125Z" fill="#767676" fill-opacity="1.000000" fill-rule="nonzero"/>
		<path id="Vector" d="M43.5542 51.3347L44.0778 53.4861C44.1876 53.9424 43.891 54.3989 43.4773 54.5037L40.7345 55.1995L45.1581 73.4197C45.2679 73.876 45.0043 74.325 44.5575 74.4373L42.3237 75.0022C41.9099 75.1069 41.4376 74.845 41.3278 74.3887L36.9042 56.1685L34.1907 56.8569C33.7439 56.9692 33.3044 56.6997 33.1946 56.2434L32.671 54.092C32.5612 53.6357 32.8248 53.1868 33.2716 53.0745L42.5544 50.7212C42.9756 50.6165 43.4443 50.8784 43.5542 51.3347Z" fill="#767676" fill-opacity="1.000000" fill-rule="nonzero"/>
		<path id="Vector" d="M56.9917 61.0398L60.6829 66.2104C60.8916 66.5208 61.0088 66.9099 61.0601 67.2766L61.5142 70.6025C61.5764 71.0664 61.3018 71.4817 60.8477 71.5454L58.5699 71.8708C58.1158 71.9346 57.6727 71.624 57.6105 71.1599L57.2919 68.833C57.2407 68.4663 57.1272 68.1108 56.9111 67.7329L52.5278 61.6423L53.901 71.7212C53.9633 72.1851 53.6556 72.6042 53.2015 72.6677L50.924 72.9932C50.4991 73.053 50.0597 72.7427 49.9974 72.2786L47.0459 50.658C46.9836 50.1941 47.3242 49.7712 47.7454 49.7114L53.3773 48.9106C56.241 48.5029 58.8812 50.5681 59.2804 53.4939L59.5659 55.5889C59.8735 57.8486 58.7714 59.9736 56.9917 61.0398ZM53.8973 52.7344L51.3596 53.0972L52.0371 58.0544L54.5748 57.6914C55.2596 57.5942 55.7612 56.9133 55.6587 56.1462L55.3438 53.853C55.2449 53.1196 54.5822 52.637 53.8973 52.7344Z" fill="#767676" fill-opacity="1.000000" fill-rule="nonzero"/>
		<path id="Vector" d="M74.5116 51.7651L75.006 66.637C75.0865 69.0203 73.2446 70.9993 70.9449 71.0779L67.3307 71.2014C64.998 71.2837 63.0609 69.4355 62.984 67.0522L62.4896 52.1804C62.4091 49.7974 64.218 47.7844 66.5507 47.7058L70.1649 47.5825C72.4609 47.5039 74.431 49.3857 74.5116 51.7651ZM70.5787 52.2405C70.5641 51.769 70.1576 51.4473 69.6963 51.4658L67.2648 51.552C66.8033 51.5669 66.4225 51.9187 66.4371 52.3862L66.9059 66.4836C66.9205 66.9551 67.3307 67.344 67.7885 67.3254L70.2198 67.2393C70.6813 67.2244 71.0621 66.8054 71.0438 66.3376L70.5787 52.2405Z" fill="#767676" fill-opacity="1.000000" fill-rule="nonzero"/>
		<path id="Vector" d="M82.5021 48.6404L81.4327 67.4478L86.0248 67.7209C86.4824 67.7471 86.823 68.1399 86.7974 68.6077L86.6765 70.7515C86.6509 71.219 86.2664 71.5669 85.8087 71.5408L78.0968 71.0845C77.639 71.0581 77.2985 70.6653 77.3241 70.1978L78.5618 48.4084C78.5874 47.9409 78.9719 47.5928 79.4297 47.6191L81.7257 47.7537C82.1871 47.7837 82.5276 48.1729 82.5021 48.6404Z" fill="#767676" fill-opacity="1.000000" fill-rule="nonzero"/>
		<path id="Vector" d="M94.649 52.854L93.9496 57.8074L96.8132 58.2302C97.2672 58.2976 97.5748 58.7166 97.5089 59.1804L97.2196 61.2419C97.1537 61.7058 96.7437 62.02 96.2896 61.9526L93.4259 61.53L92.4373 68.5447L96.9596 69.2107C97.4137 69.2781 97.7213 69.697 97.6554 70.1609L97.3551 72.2898C97.2892 72.7537 96.8792 73.0679 96.425 73.0005L88.7791 71.8745C88.325 71.8071 88.0173 71.3882 88.0833 70.9243L91.1299 49.3186C91.1958 48.8547 91.606 48.5403 92.0601 48.6077L99.7061 49.7339C100.16 49.8013 100.468 50.2202 100.402 50.6841L100.102 52.8127C100.036 53.2769 99.6255 53.5911 99.1714 53.5237L94.649 52.854Z" fill="#767676" fill-opacity="1.000000" fill-rule="nonzero"/>
		<path id="Vector" d="M113.254 52.854L115.484 53.4338C115.93 53.5498 116.183 54.0325 116.069 54.4888L111.631 72.2563C111.064 74.5347 108.742 75.9377 106.516 75.3579L103.011 74.4451C100.781 73.865 99.4043 71.4932 99.9755 69.2183L104.414 51.4509C104.527 50.9944 104.974 50.6953 105.421 50.8113L107.651 51.3911C108.098 51.5071 108.35 51.9897 108.237 52.446L103.894 69.8245C103.78 70.281 104.073 70.7373 104.52 70.8533L106.878 71.4668C107.325 71.583 107.797 71.3247 107.911 70.8684L112.254 53.49C112.36 53.0374 112.807 52.738 113.254 52.854Z" fill="#767676" fill-opacity="1.000000" fill-rule="nonzero"/>
		<path id="Vector" d="M129.122 79.9521L127.932 82.8293C127.749 83.2595 127.243 83.4392 126.852 83.2634L124.742 82.3242C124.321 82.1372 124.134 81.6509 124.318 81.2205L125.339 78.8186C125.42 78.6353 125.482 78.4783 125.533 78.2837L128.576 68.0286L123.347 76.6899C123.131 77.0339 122.71 77.1763 122.347 77.0154L120.055 75.9976C119.693 75.8369 119.48 75.4141 119.575 75.0173L122.216 65.2039L116.943 74.4675C116.833 74.6396 116.767 74.793 116.69 74.9763L115.668 77.3782C115.485 77.8086 115.009 77.9993 114.588 77.8123L112.479 76.873C112.057 76.686 111.871 76.1997 112.054 75.7695L113.302 72.9185C113.343 72.825 113.434 72.6118 113.57 72.376L123.102 56.73C123.318 56.3857 123.739 56.2434 124.131 56.4194L126.39 57.4258C126.782 57.6016 126.965 58.0093 126.87 58.406L123.9 70.0864L130.275 59.9175C130.491 59.5732 130.913 59.4312 131.275 59.592L133.567 60.6096C133.959 60.7854 134.142 61.1934 134.047 61.5898L129.338 79.3799C129.254 79.6418 129.162 79.8586 129.122 79.9521Z" fill="#767676" fill-opacity="1.000000" fill-rule="nonzero"/>
		<path id="Vector" d="M72.7886 78.2124C72.7739 78.2124 72.7556 78.2124 72.741 78.2124C72.7336 78.2124 72.7263 78.2124 72.7153 78.2124C72.708 78.2124 72.7007 78.2124 72.6897 78.2124C72.675 78.2124 72.6567 78.2124 72.6421 78.2124C49.4147 78.2124 28.9044 84.8643 16.5272 95.0332L22.3789 98.0149L23.0857 104.94C25.1656 103.043 27.6997 101.217 30.6731 99.5115C41.7211 93.1624 56.625 89.6643 72.6384 89.6643C72.6531 89.6643 72.6714 89.6643 72.686 89.6643C72.6934 89.6643 72.7007 89.6643 72.7117 89.6643C72.719 89.6643 72.7263 89.6643 72.7373 89.6643C72.752 89.6643 72.7703 89.6643 72.7849 89.6643C88.802 89.6643 103.706 93.1624 114.75 99.5115C117.724 101.221 120.258 103.043 122.338 104.94L123.044 98.0149L128.896 95.0332C116.526 84.8643 96.0159 78.2124 72.7886 78.2124Z" fill="#767676" fill-opacity="1.000000" fill-rule="nonzero"/>
		<path id="Vector" d="M47.76 107.518C48.9867 107.518 48.9867 105.576 47.76 105.576C46.5333 105.576 46.5333 107.518 47.76 107.518Z" fill="#767676" fill-opacity="1.000000" fill-rule="nonzero"/>
		<path id="Vector" d="M96.2837 107.518C97.5104 107.518 97.5104 105.576 96.2837 105.576C95.057 105.576 95.057 107.518 96.2837 107.518Z" fill="#767676" fill-opacity="1.000000" fill-rule="nonzero"/>
		<path id="Vector" d="M29.521 94.5542C29.8616 95.134 29.6785 95.8821 29.1108 96.23C28.5505 96.5742 27.8109 96.3909 27.4703 95.811C27.1334 95.2388 27.3202 94.4792 27.8805 94.1353C28.448 93.7871 29.1841 93.9817 29.521 94.5542Z" fill="#FFFFFF" fill-opacity="1.000000" fill-rule="nonzero"/>
		<path id="Vector" d="M35.6407 92.1111L36.0728 93.0503C36.395 93.75 36.1057 94.5879 35.421 94.9209L33.9415 95.6318C33.8318 95.6843 33.7072 95.6394 33.656 95.5271L31.2721 90.3564C31.2208 90.2441 31.2648 90.1169 31.3746 90.0647L32.7295 89.4136C33.4143 89.0845 34.2308 89.3911 34.5531 90.0908L34.7911 90.6072C34.912 90.8691 34.9523 91.1421 34.9047 91.4077C35.2233 91.5312 35.4869 91.7744 35.6407 92.1111ZM33.0811 91.7969L33.6962 91.5012C33.861 91.4229 33.9342 91.2131 33.8573 91.0449L33.6046 90.4949C33.5242 90.3191 33.3191 90.2441 33.1543 90.3228L32.5391 90.6184L33.0811 91.7969ZM34.6849 92.5115C34.6044 92.3357 34.3993 92.2607 34.2345 92.3394L33.4949 92.6948L34.2565 94.3486L34.9962 93.9932C35.161 93.9146 35.2343 93.7051 35.15 93.5217L34.6849 92.5115Z" fill="#FFFFFF" fill-opacity="1.000000" fill-rule="nonzero"/>
		<path id="Vector" d="M36.537 88.8L37.0204 90.0159L37.7234 89.7241C37.8369 89.6792 37.9578 89.7317 38.0054 89.8438L38.2068 90.3489C38.2507 90.4648 38.1995 90.5884 38.0896 90.637L37.3865 90.9287L38.0676 92.6497L39.1772 92.1895C39.2871 92.1445 39.4116 92.197 39.4556 92.3093L39.6643 92.8293C39.7081 92.9453 39.6569 93.0686 39.5471 93.1174L37.6721 93.8918C37.5587 93.9368 37.4379 93.8843 37.3903 93.772L35.2883 88.4746C35.2444 88.3623 35.2957 88.2351 35.4055 88.1865L37.2804 87.4121C37.3903 87.3672 37.5148 87.4194 37.5587 87.5317L37.7637 88.0518C37.8076 88.1641 37.7563 88.2913 37.6465 88.3398L36.537 88.8Z" fill="#FFFFFF" fill-opacity="1.000000" fill-rule="nonzero"/>
		<path id="Vector" d="M40.9865 87.6926L40.9279 87.5168C40.8656 87.3335 40.6715 87.2437 40.4921 87.3074L40.1187 87.4419C39.9392 87.5056 39.8403 87.7002 39.9026 87.8835L40.0747 88.3884C40.137 88.5718 40.3309 88.6616 40.514 88.6055L40.8876 88.4709C41.6127 88.2126 42.389 88.5981 42.6417 89.3389L42.9895 90.3601C43.2385 91.0898 42.8577 91.8979 42.1437 92.1523L41.7701 92.2869C41.056 92.5413 40.265 92.1523 40.0161 91.4189L39.7854 90.738C39.7451 90.6221 39.8037 90.4985 39.9172 90.4575L40.4847 90.2554C40.5983 90.2144 40.7191 90.2742 40.7594 90.3901L41.0048 91.1123C41.067 91.2954 41.2648 91.3928 41.4442 91.3291L41.8177 91.1946C41.9972 91.1309 42.0924 90.929 42.0302 90.7456L41.6603 89.6643C41.598 89.481 41.4039 89.3911 41.2245 89.4548L40.851 89.5896C40.1333 89.8364 39.3496 89.4624 39.1006 88.7327L38.9395 88.2576C38.6904 87.5281 39.0713 86.72 39.7854 86.4656L40.1589 86.3308C40.8839 86.0728 41.6639 86.4656 41.913 87.1987L41.9606 87.3411C42.0009 87.457 41.9423 87.5803 41.8287 87.6216L41.2611 87.8237C41.1476 87.8684 41.0267 87.8086 40.9865 87.6926Z" fill="#FFFFFF" fill-opacity="1.000000" fill-rule="nonzero"/>
		<path id="Vector" d="M45.2494 84.9395L45.4104 85.4968C45.4434 85.6167 45.3738 85.7363 45.2639 85.77L44.5536 85.9832L45.9194 90.697C45.9524 90.8167 45.8901 90.9365 45.7729 90.9702L45.1943 91.146C45.0883 91.1797 44.9601 91.116 44.9271 90.9963L43.5612 86.2825L42.8618 86.4958C42.7446 86.5295 42.6274 86.4658 42.5945 86.3462L42.4333 85.7888C42.4004 85.6689 42.4626 85.5493 42.5798 85.5156L44.9821 84.7898C45.0918 84.76 45.2164 84.8198 45.2494 84.9395Z" fill="#FFFFFF" fill-opacity="1.000000" fill-rule="nonzero"/>
		<path id="Vector" d="M52.0698 88.3135L52.4067 88.2385C52.5056 88.2161 52.6301 88.2874 52.6558 88.407L52.7766 88.9644C52.8022 89.0842 52.7217 89.2002 52.6045 89.23L50.942 89.6079C50.2865 89.7576 49.6383 89.335 49.4955 88.6726L48.7155 85.0771C48.5691 84.4072 48.9828 83.7451 49.6383 83.5991L50.3451 83.4382C51.0005 83.2886 51.6487 83.7114 51.7915 84.3811L52.4324 87.3445C52.5129 87.7185 52.3591 88.0964 52.0698 88.3135ZM50.7809 84.6057C50.7552 84.4858 50.6307 84.4036 50.5135 84.4336L49.891 84.5757C49.7738 84.6018 49.6932 84.729 49.7225 84.8489L50.5026 88.4482C50.5282 88.5603 50.649 88.6389 50.7661 88.6128L51.6047 88.4219L50.7809 84.6057Z" fill="#FFFFFF" fill-opacity="1.000000" fill-rule="nonzero"/>
		<path id="Vector" d="M55.0474 82.5144L55.6406 82.4097C55.7578 82.3872 55.8712 82.4771 55.8895 82.5967L56.6989 87.3259C56.8014 87.9321 56.3949 88.5232 55.8016 88.6279L54.8679 88.7927C54.2747 88.8975 53.696 88.4822 53.5935 87.876L52.7843 83.1467C52.7623 83.0271 52.8392 82.9036 52.9564 82.8848L53.5496 82.78C53.6667 82.7576 53.7803 82.8474 53.7986 82.9673L54.5896 87.5916C54.6116 87.7114 54.7288 87.7898 54.8459 87.7673L55.4722 87.6553C55.5894 87.6328 55.6772 87.5205 55.6553 87.4009L54.8643 82.7764C54.8533 82.6567 54.9302 82.5332 55.0474 82.5144Z" fill="#FFFFFF" fill-opacity="1.000000" fill-rule="nonzero"/>
		<path id="Vector" d="M60.7542 86.8926L60.8531 87.6594C60.8677 87.783 60.7872 87.8914 60.6664 87.9062L60.0585 87.9888C59.9486 88.0037 59.8424 87.9214 59.8241 87.7979L59.7216 87.0046L58.5791 87.1582L58.6816 87.9512C58.6963 88.0747 58.6157 88.1831 58.4949 88.1982L57.8979 88.2805C57.7771 88.2954 57.6709 88.2131 57.6562 88.0896L57.5574 87.3228C57.5537 87.2891 57.55 87.2629 57.55 87.2068L57.6636 82.2944C57.6672 82.1785 57.7515 82.0886 57.8613 82.0737L59.1429 81.9016C59.2528 81.8867 59.3517 81.9727 59.381 82.0662L60.7285 86.7839C60.7432 86.8325 60.7468 86.8589 60.7542 86.8926ZM59.4762 86.0356L58.6267 83.0166L58.5718 86.1555L59.4762 86.0356Z" fill="#FFFFFF" fill-opacity="1.000000" fill-rule="nonzero"/>
		<path id="Vector" d="M62.1433 81.7812L62.6047 86.6936L63.8059 86.574C63.9268 86.5627 64.0293 86.6487 64.0403 86.7722L64.0916 87.3335C64.1025 87.4568 64.0183 87.5615 63.8975 87.5728L61.8834 87.771C61.7626 87.7822 61.66 87.6963 61.649 87.5728L61.1144 81.8823C61.1034 81.7588 61.1876 81.6541 61.3085 81.6428L61.9091 81.583C62.0299 81.5718 62.1323 81.658 62.1433 81.7812Z" fill="#FFFFFF" fill-opacity="1.000000" fill-rule="nonzero"/>
		<path id="Vector" d="M65.7102 87.438L65.1096 87.4829C64.9888 87.4902 64.8899 87.4006 64.8789 87.2771L64.4871 81.583C64.4797 81.4595 64.5676 81.3472 64.6848 81.3398L65.2854 81.2949C65.4062 81.2874 65.5088 81.3845 65.5161 81.5081L65.908 87.2021C65.9189 87.3257 65.8311 87.4304 65.7102 87.438Z" fill="#FFFFFF" fill-opacity="1.000000" fill-rule="nonzero"/>
		<path id="Vector" d="M69.3835 81.3052L69.4092 81.885C69.4128 82.0085 69.314 82.1096 69.2041 82.1133L68.4644 82.147L68.6731 87.0593C68.6768 87.1829 68.5889 87.2839 68.468 87.2876L67.8674 87.3137C67.7539 87.3176 67.6477 87.2278 67.644 87.1042L67.4353 82.1919L66.703 82.2256C66.5822 82.2292 66.4833 82.1394 66.4796 82.0161L66.454 81.436C66.4503 81.3127 66.5382 81.2117 66.6591 81.2078L69.1638 81.0957C69.27 81.0881 69.3762 81.1816 69.3835 81.3052Z" fill="#FFFFFF" fill-opacity="1.000000" fill-rule="nonzero"/>
		<path id="Vector" d="M72.6624 81.0413L73.2666 81.0337C73.3875 81.0337 73.4827 81.1272 73.4827 81.2507L73.49 82.1223C73.49 82.2195 73.4753 82.3169 73.4314 82.4028L72.3584 84.7073L72.3804 86.9744C72.3804 87.0979 72.2888 87.1951 72.168 87.1951L71.5637 87.2026C71.443 87.2026 71.3477 87.1091 71.3477 86.9856L71.3258 84.7185L70.2015 82.4329C70.1649 82.3467 70.1393 82.2495 70.1393 82.1523L70.132 81.2805C70.132 81.1572 70.2235 81.0598 70.3444 81.0598L70.9486 81.0525C71.0695 81.0525 71.1647 81.146 71.1647 81.2693L71.172 81.939C71.172 82.01 71.1903 82.0813 71.2269 82.1411L71.8311 83.3831L72.4133 82.1299C72.439 82.0701 72.4536 81.9988 72.4536 81.9277L72.4463 81.2581C72.45 81.1421 72.5415 81.0449 72.6624 81.0413Z" fill="#FFFFFF" fill-opacity="1.000000" fill-rule="nonzero"/>
		<path id="Vector" d="M78.9574 84.2993C78.9281 84.9766 78.3679 85.4968 77.7051 85.4631C77.0496 85.4331 76.5332 84.8606 76.5662 84.1833C76.5955 83.5134 77.1631 82.9858 77.8186 83.0195C78.4813 83.0532 78.9867 83.6333 78.9574 84.2993Z" fill="#FFFFFF" fill-opacity="1.000000" fill-rule="nonzero"/>
		<path id="Vector" d="M85.3645 85.5115L85.2583 86.5439C85.1814 87.3147 84.5076 87.8796 83.7533 87.7974L82.1273 87.6252C82.0065 87.614 81.9224 87.5054 81.937 87.3821L82.5192 81.6992C82.5302 81.5757 82.6364 81.4897 82.7572 81.5046L84.2476 81.6619C85.002 81.7402 85.5439 82.4363 85.467 83.2068L85.4084 83.7756C85.3792 84.0635 85.2766 84.3179 85.0972 84.52C85.3022 84.8005 85.4048 85.1448 85.3645 85.5115ZM84.3428 85.3506C84.3611 85.1597 84.2256 84.9839 84.0461 84.9653L83.2333 84.8792L83.0465 86.6975L83.8595 86.7834C84.0389 86.8022 84.2109 86.6599 84.2292 86.4617L84.3428 85.3506ZM83.3322 83.8916L84.0095 83.9626C84.189 83.9812 84.3611 83.8391 84.3794 83.6558L84.4417 83.0535C84.46 82.8628 84.3245 82.6868 84.145 82.6682L83.4677 82.5972L83.3322 83.8916Z" fill="#FFFFFF" fill-opacity="1.000000" fill-rule="nonzero"/>
		<path id="Vector" d="M87.7434 83.1135L87.5603 84.4119L88.3109 84.5203C88.4318 84.5391 88.5123 84.6475 88.494 84.7673L88.4171 85.3062C88.3988 85.4294 88.2926 85.5117 88.1754 85.4932L87.4248 85.3845L87.1685 87.2217L88.3512 87.3938C88.472 87.4126 88.5526 87.521 88.5343 87.6406L88.4574 88.1982C88.4391 88.3218 88.3329 88.4041 88.212 88.3853L86.2091 88.0935C86.0883 88.0747 86.0114 87.9663 86.026 87.8464L86.8169 82.1895C86.8352 82.0659 86.9414 81.9873 87.0623 82.0022L89.0653 82.2942C89.1862 82.3127 89.2631 82.4214 89.2484 82.541L89.1715 83.0986C89.1532 83.2219 89.047 83.3005 88.9261 83.2856L87.7434 83.1135Z" fill="#FFFFFF" fill-opacity="1.000000" fill-rule="nonzero"/>
		<path id="Vector" d="M92.1151 84.4077L92.1481 84.2244C92.181 84.0334 92.0565 83.8577 91.8698 83.824L91.4816 83.7529C91.2948 83.7192 91.1154 83.8352 91.0824 84.0261L90.9872 84.5535C90.9542 84.7444 91.0787 84.9202 91.2655 84.9614L91.6537 85.0325C92.4081 85.1746 92.8987 85.9004 92.7595 86.6672L92.5691 87.7297C92.4337 88.4929 91.7123 89.0017 90.9689 88.8633L90.5808 88.7922C89.8374 88.6538 89.3357 87.9167 89.4712 87.1575L89.5994 86.4465C89.6213 86.3269 89.7312 86.2483 89.8484 86.2708L90.4417 86.3831C90.5588 86.4055 90.6357 86.5176 90.6138 86.6375L90.4783 87.3894C90.4453 87.5801 90.5698 87.7634 90.7565 87.7971L91.1447 87.8682C91.3314 87.9019 91.5109 87.7747 91.5438 87.584L91.7452 86.4578C91.7782 86.2671 91.6537 86.0911 91.4669 86.0574L91.0787 85.9863C90.3354 85.8406 89.8337 85.1184 89.9692 84.3589L90.0571 83.8652C90.1926 83.1057 90.9139 82.5933 91.6573 82.7317L92.0455 82.8027C92.7998 82.9412 93.2905 83.678 93.1514 84.4375L93.1257 84.5835C93.1038 84.7031 92.9939 84.7817 92.8767 84.7593L92.2836 84.647C92.17 84.6433 92.0931 84.531 92.1151 84.4077Z" fill="#FFFFFF" fill-opacity="1.000000" fill-rule="nonzero"/>
		<path id="Vector" d="M97.1196 84.127L96.9951 84.6919C96.9695 84.8118 96.8486 84.8828 96.7388 84.8567L96.0175 84.6919L94.9628 89.4883C94.9371 89.6079 94.8236 89.6829 94.7064 89.6528L94.1169 89.5183C94.0071 89.4919 93.9265 89.376 93.9558 89.2563L95.0104 84.46L94.2964 84.2954C94.1792 84.2693 94.106 84.1533 94.1353 84.0334L94.2598 83.4685C94.2854 83.3489 94.3989 83.2739 94.516 83.304L96.9585 83.8652C97.0647 83.8914 97.1453 84.0073 97.1196 84.127Z" fill="#FFFFFF" fill-opacity="1.000000" fill-rule="nonzero"/>
		<path id="Vector" d="M102.971 87.0266L102.813 87.5654C102.597 88.3064 101.824 88.7329 101.107 88.512L100.473 88.3174L99.7554 90.7681C99.7224 90.8879 99.6016 90.9514 99.4882 90.9177L98.9095 90.7419C98.7924 90.7083 98.7301 90.5847 98.7667 90.4688L100.367 84.9915C100.4 84.8752 100.521 84.8081 100.634 84.8418L102.051 85.2756C102.769 85.4963 103.187 86.2859 102.971 87.0266ZM101.993 86.6824C102.048 86.4954 101.953 86.3047 101.769 86.2485L101.136 86.054L100.773 87.2998L101.407 87.4944C101.59 87.5505 101.773 87.4419 101.824 87.2625L101.993 86.6824Z" fill="#FFFFFF" fill-opacity="1.000000" fill-rule="nonzero"/>
		<path id="Vector" d="M105.419 89.8701L105.667 91.5273C105.678 91.6248 105.66 91.7295 105.631 91.823L105.345 92.6536C105.305 92.7695 105.192 92.833 105.078 92.792L104.51 92.5862C104.397 92.5449 104.331 92.4177 104.371 92.3018L104.573 91.7219C104.606 91.6321 104.62 91.5349 104.613 91.4189L104.313 89.4622L103.445 91.9763C103.405 92.0923 103.284 92.1521 103.17 92.1111L102.603 91.9053C102.496 91.8679 102.43 91.7407 102.471 91.6248L104.335 86.2336C104.375 86.1177 104.503 86.0615 104.609 86.0989L106.015 86.604C106.729 86.8621 107.099 87.6665 106.847 88.396L106.667 88.9197C106.466 89.481 105.96 89.8401 105.419 89.8701ZM105.678 87.5579L105.045 87.3298L104.617 88.5645L105.25 88.7925C105.422 88.8525 105.62 88.7588 105.686 88.5681L105.884 87.9956C105.949 87.8123 105.851 87.6179 105.678 87.5579Z" fill="#FFFFFF" fill-opacity="1.000000" fill-rule="nonzero"/>
		<path id="Vector" d="M106.805 93.4956L106.245 93.2673C106.132 93.2224 106.08 93.0952 106.124 92.9832L108.197 87.6816C108.241 87.5657 108.369 87.5056 108.479 87.5505L109.039 87.7788C109.153 87.8237 109.2 87.9585 109.156 88.0745L107.084 93.376C107.04 93.488 106.919 93.5442 106.805 93.4956Z" fill="#FFFFFF" fill-opacity="1.000000" fill-rule="nonzero"/>
		<path id="Vector" d="M111.097 92.2871L111.646 92.5415C111.756 92.5938 111.8 92.7285 111.748 92.8408L111.148 94.2026C110.899 94.7639 110.247 95.022 109.69 94.7676L108.826 94.3708C108.277 94.1165 108.028 93.4431 108.273 92.8818L109.844 89.324C110.097 88.7554 110.745 88.5046 111.302 88.759L112.166 89.1555C112.722 89.4138 112.968 90.0759 112.719 90.6445L112.331 91.5276C112.283 91.6399 112.151 91.6958 112.041 91.6472L111.492 91.3928C111.382 91.3406 111.338 91.2058 111.39 91.0935L111.741 90.3005C111.789 90.1882 111.734 90.0571 111.635 90.0085L111.045 89.7393C110.935 89.6868 110.804 89.7317 110.752 89.844L109.269 93.2112C109.222 93.3235 109.277 93.4543 109.386 93.5066L109.976 93.7761C110.078 93.8247 110.21 93.7798 110.262 93.6675L110.818 92.4104C110.859 92.2944 110.987 92.2385 111.097 92.2871Z" fill="#FFFFFF" fill-opacity="1.000000" fill-rule="nonzero"/>
		<path id="Vector" d="M114.729 91.5461L114.136 92.7097L114.806 93.0688C114.912 93.125 114.952 93.2559 114.897 93.3645L114.648 93.8472C114.594 93.9556 114.465 93.9968 114.359 93.9407L113.689 93.5815L112.847 95.2275L113.909 95.7925C114.015 95.8486 114.055 95.9797 114 96.0881L113.744 96.5857C113.689 96.6943 113.561 96.7354 113.455 96.6792L111.66 95.7214C111.554 95.6653 111.514 95.5344 111.569 95.426L114.161 90.3564C114.216 90.2478 114.344 90.2068 114.451 90.2629L116.245 91.2207C116.351 91.2769 116.391 91.4077 116.337 91.5161L116.08 92.0139C116.025 92.1223 115.897 92.1636 115.791 92.1074L114.729 91.5461Z" fill="#FFFFFF" fill-opacity="1.000000" fill-rule="nonzero"/>
		<path id="Vector" d="M117.922 95.7852C117.582 96.3652 116.849 96.5559 116.282 96.208C115.722 95.8638 115.527 95.1116 115.868 94.5317C116.205 93.9592 116.948 93.7683 117.509 94.1089C118.08 94.4568 118.259 95.2126 117.922 95.7852Z" fill="#FFFFFF" fill-opacity="1.000000" fill-rule="nonzero"/>
		<path id="Vector" d="M75.3555 34.8174C75.3555 38.2444 72.6346 41.0242 69.2804 41.0242C65.9261 41.0242 63.2053 38.2444 63.2053 34.8174C63.2053 31.3904 69.2804 22.0859 69.2804 22.0859C69.2804 22.0859 75.3555 31.3904 75.3555 34.8174Z" fill="#767676" fill-opacity="1.000000" fill-rule="nonzero"/>
		<path id="Vector" d="M56.4788 43.3064C54.1351 43.3064 52.2273 41.3572 52.2273 38.9626C52.2273 36.7742 55.6182 31.5176 56.0063 30.9265L56.4824 30.2007L56.9585 30.9265C57.3467 31.5176 60.7375 36.7742 60.7375 38.9626C60.7302 41.3572 58.8224 43.3064 56.4788 43.3064ZM56.4788 32.3184C55.3105 34.2002 53.3661 37.6121 53.3661 38.9626C53.3661 40.7136 54.7614 42.1428 56.4788 42.1428C58.1925 42.1428 59.5913 40.7175 59.5913 38.9626C59.5913 37.6121 57.6469 34.1963 56.4788 32.3184Z" fill="#767676" fill-opacity="1.000000" fill-rule="nonzero"/>
		<path id="Vector" d="M83.4441 42.554C81.1005 42.554 79.1926 40.6047 79.1926 38.2104C79.1926 36.0217 82.5835 30.7651 82.9717 30.1741L83.4478 29.4482L83.9237 30.1741C84.3119 30.7651 87.7029 36.0217 87.7029 38.2104C87.6956 40.6047 85.7877 42.554 83.4441 42.554ZM83.4441 31.5659C82.2759 33.4478 80.3314 36.8596 80.3314 38.2104C80.3314 39.9651 81.7267 41.3904 83.4441 41.3904C85.1578 41.3904 86.5566 39.9651 86.5566 38.2104C86.5566 36.8596 84.6122 33.4478 83.4441 31.5659Z" fill="#767676" fill-opacity="1.000000" fill-rule="nonzero"/>
	</g>
</svg>
