<svg width="133.250122" height="84.677002" viewBox="0 0 133.25 84.677" fill="none" xmlns="http://www.w3.org/2000/svg" xmlns:xlink="http://www.w3.org/1999/xlink">
    <desc>
        Created with Pixso.
    </desc>
    <defs/>
    <path id="Vector" d="M25.1255 28.929C25.1423 29.6382 25.061 30.3716 24.8783 31.1292C24.6954 31.887 24.438 32.6204 24.1096 33.3296C23.6897 34.2256 23.1818 35.0352 22.5858 35.7546C21.9899 36.4741 21.3464 37.0935 20.6523 37.6194C20.0123 38.0864 19.3418 38.4426 18.6376 38.6848C17.9332 38.927 17.2526 39.0481 16.5957 39.0481L16.4873 39.0481C15.6644 39.0308 14.9229 38.8372 14.266 38.4739C13.609 38.1106 13.0604 37.5813 12.6202 36.8894C12.3291 37.3945 12.0718 37.8477 11.8516 38.249C11.6315 38.6504 11.4486 38.9651 11.3031 39.1865C9.94861 41.4456 8.672 43.1375 7.46313 44.2583C6.76892 44.874 6.07483 45.3376 5.3772 45.6455C4.68311 45.9534 3.96179 46.1091 3.21008 46.1091C2.12988 46.1091 1.31726 45.8186 0.768677 45.2407C0.257324 44.6802 0 43.9607 0 43.082C0 42.3174 0.179443 41.4976 0.535034 40.6292C0.890625 39.7607 1.38159 38.9341 2.00122 38.1487C2.67847 37.2908 3.40991 36.6265 4.19543 36.1594C4.98108 35.6924 5.75989 35.457 6.52515 35.457C7.16516 35.457 7.68665 35.644 8.0896 36.0176C8.43835 36.3533 8.61108 36.8132 8.61108 37.3911C8.61108 37.8752 8.48914 38.3909 8.24194 38.9304C7.99475 39.4736 7.66296 39.9753 7.23962 40.4424C6.79944 40.9302 6.31519 41.3108 5.78699 41.5908C5.16394 41.9092 4.56116 42.0684 3.97534 42.0684C3.82971 42.0684 3.7113 42.0234 3.61987 41.9265C3.52844 41.833 3.48438 41.7119 3.48438 41.5632C3.48438 41.4146 3.52844 41.2969 3.61987 41.2139C3.7113 41.1309 3.82971 41.0894 3.97534 41.0894C4.41553 41.0894 4.85583 40.9785 5.30615 40.7537C5.75317 40.5288 6.16956 40.2036 6.55225 39.7747C6.88074 39.4011 7.14478 38.9998 7.34802 38.5708C7.54785 38.1418 7.64941 37.7507 7.64941 37.3945C7.64941 37.301 7.63916 37.1973 7.62231 37.0867C7.60535 36.9758 7.55457 36.8721 7.46985 36.7786C7.38867 36.6853 7.27356 36.6057 7.12793 36.54C6.9823 36.4744 6.77917 36.4431 6.52515 36.4431C5.9021 36.4431 5.26208 36.6438 4.60522 37.0452C3.94824 37.4463 3.3252 38.0208 2.73938 38.7678C2.19092 39.46 1.75745 40.1863 1.43579 40.9543C1.11401 41.719 0.954956 42.4316 0.954956 43.0854C0.954956 43.7219 1.12085 44.2063 1.44934 44.542C1.79468 44.9329 2.38049 45.1301 3.20337 45.1301C4.42908 45.1301 5.62439 44.5869 6.79602 43.5042C7.94739 42.4592 9.1731 40.8506 10.4701 38.6848C10.6157 38.4426 10.812 38.1106 11.0592 37.6885C11.3064 37.27 11.5807 36.7891 11.8821 36.2458C12.1835 35.7026 12.495 35.1216 12.8134 34.4954C13.1316 33.8691 13.4397 33.2292 13.731 32.5752C14.1711 31.624 14.5132 30.7971 14.7604 30.0947C15.0076 29.396 15.1802 28.7905 15.2819 28.2888C15.3834 27.7839 15.4274 27.3755 15.4172 27.0574C15.4071 26.739 15.3766 26.4866 15.3225 26.2996C15.2141 25.9641 15.0109 25.7393 14.7197 25.6284C14.2998 25.459 13.8833 25.4001 13.4736 25.4451C13.0605 25.4937 12.6677 25.6042 12.2952 25.7808C11.9193 25.9573 11.574 26.1958 11.2523 26.4968C10.9305 26.7944 10.653 27.1128 10.4159 27.4482C10.0332 28.0469 9.79285 28.6245 9.70142 29.1851C9.66418 29.3718 9.66077 29.5759 9.68787 29.8008C9.71497 30.0256 9.80981 30.2402 9.97571 30.4443C10.3414 30.894 10.7883 30.9285 11.3199 30.5549C11.7026 30.3127 11.9972 29.9668 12.197 29.5171C12.3969 29.1262 12.4341 28.7976 12.3054 28.5381C12.1766 28.2405 12.2579 28.0261 12.5526 27.8945C12.6609 27.8391 12.7794 27.8289 12.9081 27.8669C13.0367 27.905 13.1282 27.988 13.1824 28.1194C13.311 28.3823 13.3618 28.666 13.3347 28.9739C13.3076 29.2817 13.2264 29.5862 13.0875 29.8838C12.9521 30.1814 12.776 30.4685 12.5662 30.7383C12.3562 31.0081 12.1226 31.2295 11.8651 31.3955C11.4622 31.6584 11.0254 31.7866 10.548 31.7866C10.0739 31.7693 9.63367 31.5339 9.23071 31.0876C8.79053 30.5447 8.62793 29.863 8.73633 29.0432C8.84473 28.3132 9.13928 27.5969 9.6134 26.8843C9.90454 26.4727 10.2533 26.0852 10.6562 25.7219C11.0592 25.3586 11.4961 25.0681 11.9735 24.8535C12.4476 24.6392 12.9487 24.5076 13.4668 24.4626C13.9883 24.4177 14.5132 24.4939 15.0448 24.7014C15.5934 24.9263 15.9861 25.345 16.2231 25.9607C16.3146 26.2788 16.3654 26.6387 16.3756 27.04C16.3857 27.4414 16.335 27.8945 16.2231 28.3997C16.7175 27.8564 17.2119 27.3894 17.7029 26.9985C18.3801 26.4207 19.0574 25.9607 19.7312 25.625C20.4084 25.2896 21.0383 25.075 21.6241 24.9817C22.6671 24.8328 23.4797 25.075 24.0656 25.7117C24.7766 26.4172 25.1255 27.4897 25.1255 28.929ZM23.2325 32.9075C23.8895 31.5825 24.201 30.2644 24.1638 28.9565C24.1638 28.3789 24.0994 27.8704 23.9707 27.4309C23.842 26.9917 23.649 26.6526 23.3951 26.407C23.0463 25.9951 22.5079 25.8464 21.7765 25.9573C21.2821 26.0332 20.7335 26.2236 20.1309 26.5315C19.5281 26.8394 18.9253 27.2476 18.3192 27.7493C17.6962 28.2544 17.134 28.8079 16.6329 29.4167C16.1284 30.0256 15.7051 30.6448 15.3563 31.2815C15.3563 31.2988 15.3529 31.3091 15.3428 31.3091C15.3326 31.3091 15.3292 31.3196 15.3292 31.3367C15.2208 31.5996 15.1091 31.8662 15.0007 32.136C14.8925 32.4058 14.7638 32.6929 14.6182 32.9905C14.144 34.0181 13.6598 34.9797 13.1654 35.8757C13.4939 36.585 13.9476 37.1211 14.5233 37.4878C15.099 37.8511 15.7627 38.0449 16.511 38.0623C17.0968 38.0793 17.6962 37.9827 18.3091 37.7681C18.922 37.5537 19.5214 37.2319 20.1072 36.803C20.7471 36.3359 21.3329 35.7754 21.8612 35.1216C22.3894 34.4678 22.8466 33.7307 23.2325 32.9075Z" fill="#767676" fill-opacity="1.000000" fill-rule="nonzero"/>
    <path id="Vector" d="M30.8826 40.6951C30.974 40.7886 31.0248 40.8992 31.0349 41.0308C31.0452 41.1621 31.0011 41.2729 30.9131 41.3662C30.8961 41.4043 30.693 41.6292 30.3103 42.0374C29.9276 42.4492 29.413 42.9058 28.7729 43.4109C26.9987 44.7739 25.3901 45.4556 23.9476 45.4556C23.179 45.4556 22.6 45.3171 22.2072 45.0369C21.8143 44.7568 21.5266 44.4661 21.3438 44.1687C20.9949 43.5527 20.8967 42.7812 21.0424 41.8577C21.188 40.9338 21.5807 39.9099 22.2207 38.7888C23.1146 37.1628 24.0898 35.8379 25.1429 34.8103C26.1927 33.783 27.1848 33.1843 28.1195 33.0183C28.834 32.9075 29.4265 33.0459 29.9006 33.4404C30.2662 33.7585 30.4661 34.1875 30.5033 34.7307C30.5203 35.2913 30.3475 35.9141 29.9818 36.5955C29.6161 37.2771 29.0845 37.9724 28.3904 38.6816C27.6217 39.4844 26.809 40.0725 25.9489 40.446C25.2344 40.7644 24.5504 40.9236 23.8936 40.9236C23.5651 40.9236 23.2704 40.8958 23.0165 40.8403C22.7592 40.7852 22.5492 40.7195 22.3866 40.6433C22.2952 40.8855 22.2173 41.1138 22.153 41.3281C22.0886 41.5427 22.0378 41.7537 22.0006 41.958C21.8922 42.7051 21.9532 43.2761 22.1936 43.667C22.4849 44.2102 23.0707 44.48 23.9476 44.48C24.696 44.48 25.441 44.2898 26.1825 43.9058C26.9241 43.5217 27.5912 43.0996 28.1838 42.6326C28.7764 42.1655 29.2606 41.7366 29.6365 41.342C30.0123 40.9512 30.1986 40.7437 30.1986 40.7263C30.29 40.6328 30.3983 40.5811 30.527 40.5706C30.6556 40.5603 30.7742 40.6018 30.8826 40.6951ZM23.0402 39.2664C23.0029 39.3599 22.9589 39.4429 22.9048 39.5188C22.8506 39.595 22.8031 39.678 22.7659 39.7715C22.9115 39.8096 23.0808 39.8477 23.2738 39.8821C23.4668 39.9202 23.6903 39.9375 23.9443 39.9375C25.2073 39.9202 26.467 39.2732 27.73 38.0037C28.3158 37.405 28.7662 36.8237 29.0879 36.2529C29.4062 35.6821 29.5586 35.1943 29.5416 34.7827C29.5044 34.5405 29.4231 34.3433 29.2944 34.1946C29.0371 33.9697 28.6985 33.9038 28.2786 33.9973C27.9128 34.0527 27.5201 34.2188 27.1002 34.4885C26.6803 34.7585 26.2502 35.1113 25.8101 35.5403C24.8213 36.5125 23.9003 37.7544 23.0402 39.2664Z" fill="#767676" fill-opacity="1.000000" fill-rule="nonzero"/>
    <path id="Vector" d="M37.5192 33.5786C37.8307 33.6167 37.9865 33.7932 37.9865 34.1116C37.9695 34.2603 37.9086 34.3779 37.8069 34.4609C37.7053 34.5439 37.5936 34.5786 37.465 34.5579C37.062 34.5198 36.5879 34.5024 36.0393 34.5024C35.4908 34.5024 34.9423 34.5127 34.3937 34.53C33.9907 35.2012 33.6013 35.8794 33.2289 36.5608C32.853 37.2424 32.5312 37.8652 32.257 38.4255C31.7253 39.4705 31.3394 40.3457 31.0922 41.0444C30.845 41.7434 30.6757 42.3108 30.5842 42.7397C30.4928 43.1687 30.4657 43.4973 30.5029 43.7188C30.5402 43.9436 30.5842 44.0925 30.6418 44.1685C30.6587 44.2065 30.7062 44.2585 30.7772 44.3242C30.8518 44.3899 31.0042 44.4211 31.2445 44.4211C31.556 44.4211 31.9353 44.314 32.3823 44.0994C32.8292 43.8848 33.3203 43.5803 33.8485 43.1895C34.2887 42.854 34.7289 42.4734 35.1793 42.0547C35.6262 41.6326 36.0156 41.2175 36.3441 40.8093C36.4355 40.7158 36.5439 40.6604 36.6726 40.6396C36.8013 40.6226 36.9198 40.657 37.0281 40.7505C37.1195 40.844 37.1737 40.9546 37.1941 41.0859C37.2109 41.2175 37.1771 41.3386 37.0857 41.4492C36.72 41.8784 36.3035 42.3142 35.8396 42.7537C35.3723 43.1929 34.8949 43.5977 34.4005 43.9714C33.1577 44.9229 32.1046 45.4001 31.2479 45.4001C30.828 45.4001 30.5063 45.3206 30.2897 45.1614C30.0696 45.0024 29.9138 44.8398 29.8224 44.6702C29.4736 44.1099 29.4668 43.2136 29.7953 41.9785C30.0696 40.9338 30.6079 39.5984 31.4138 37.9724C31.6711 37.4673 31.9523 36.9207 32.2638 36.3325C32.5753 35.7444 32.9139 35.1423 33.2797 34.5266C33.0223 34.5439 32.7887 34.5579 32.5787 34.5681C32.3688 34.5786 32.1893 34.582 32.0437 34.582C31.8608 34.5994 31.6949 34.6096 31.5493 34.6096L31.5222 34.6096C31.231 34.6096 31.0651 34.4504 31.0278 34.1323C31.0278 33.9834 31.0685 33.8623 31.1498 33.769C31.231 33.6755 31.3461 33.6272 31.4917 33.6272C31.5289 33.6272 31.7694 33.6167 32.2197 33.5994C32.6667 33.582 33.2119 33.5613 33.8519 33.5442C34.1803 32.9836 34.4952 32.4509 34.7966 31.9458C35.098 31.4407 35.3622 30.9944 35.5924 30.5999C35.8192 30.209 36.08 29.78 36.3746 29.3096C36.4491 29.1987 36.5472 29.1226 36.676 29.0847C36.8047 29.0466 36.9231 29.0674 37.0315 29.1399C37.3058 29.3269 37.36 29.562 37.1974 29.8423C36.9401 30.2332 36.7133 30.5999 36.5134 30.9355C36.3136 31.271 36.08 31.6587 35.8125 32.0979C35.5483 32.5374 35.2673 33.0078 34.9761 33.5129C35.4502 33.5129 35.9141 33.5129 36.3611 33.5129C36.8013 33.5234 37.1907 33.5405 37.5192 33.5786Z" fill="#767676" fill-opacity="1.000000" fill-rule="nonzero"/>
    <path id="Vector" d="M45.8546 40.7539C45.946 40.8474 46.0002 40.958 46.0205 41.0894C46.0375 41.2209 46.0035 41.342 45.9121 41.4526C45.8749 41.4907 45.8309 41.5356 45.7767 41.5911C45.7225 41.6465 45.6752 41.7019 45.6412 41.7605C44.8015 42.8054 44.0328 43.6772 43.3386 44.3657C42.6445 45.0576 42.0045 45.4036 41.4187 45.4036C40.9073 45.4036 40.5315 45.1995 40.2944 44.7876C40.0575 44.3379 40.0575 43.6875 40.2944 42.8262C40.5315 41.9856 41.0428 40.8645 41.8318 39.4634C41.9774 39.2004 41.9875 38.7786 41.8589 38.1904C41.7302 37.6023 41.4763 36.907 41.0902 36.1042C40.5958 36.8135 40.0236 37.6091 39.3768 38.4844C38.7267 39.3633 37.975 40.3423 37.1149 41.425C37.0234 41.5356 36.915 41.6016 36.7864 41.6223C36.6577 41.6396 36.5494 41.605 36.458 41.5115C36.3496 41.4182 36.2853 41.3074 36.2649 41.176C36.248 41.0444 36.2819 40.9233 36.3733 40.8127C38.2018 38.4775 39.6003 36.592 40.5687 35.1528C40.4028 34.8 40.3589 34.3745 40.4333 33.8799C40.5044 33.385 40.5891 32.9802 40.6805 32.6621C40.7178 32.5686 40.7686 32.4233 40.8329 32.2261C40.8972 32.0291 40.9852 31.8213 41.0936 31.5964C41.202 31.3716 41.3273 31.1467 41.4628 30.9253C41.6016 30.7004 41.7607 30.5137 41.9436 30.365C42.1433 30.1953 42.3533 30.1089 42.5734 30.0986C42.7935 30.0881 42.9933 30.1677 43.1761 30.3372C43.5587 30.6729 43.6434 31.2263 43.4233 31.991C43.2235 32.5894 42.8477 33.3469 42.2991 34.2603C42.2076 34.4092 42.1129 34.5647 42.0112 34.7239C41.9097 34.8831 41.8047 35.0457 41.6964 35.2151C42.8849 37.4397 43.2032 39.0242 42.6547 39.979C42.1805 40.8196 41.8285 41.5115 41.5981 42.0513C41.3679 42.5945 41.2189 43.0269 41.1444 43.3555C41.0699 43.6841 41.0428 43.916 41.0631 44.0542C41.0801 44.196 41.1005 44.2827 41.1173 44.3206C41.1343 44.3379 41.1614 44.3623 41.1986 44.3899C41.2358 44.4175 41.307 44.4314 41.4187 44.4314C41.5101 44.4314 41.676 44.3691 41.9131 44.248C42.1501 44.127 42.4888 43.8433 42.929 43.3936C43.2777 43.0752 43.6129 42.7153 43.9448 42.3142C44.2733 41.9128 44.595 41.5254 44.9031 41.1516C44.9403 41.0964 44.9844 41.041 45.0386 40.9822C45.0927 40.9268 45.1401 40.8716 45.174 40.8127C45.2654 40.7192 45.3738 40.6641 45.5024 40.6433C45.6277 40.6223 45.7462 40.6604 45.8546 40.7539ZM41.412 33.8591C41.4288 33.821 41.4424 33.8003 41.4525 33.7898C41.4628 33.7795 41.4763 33.7588 41.4932 33.7207C41.7844 33.2363 42.0045 32.835 42.1501 32.5168C42.2958 32.1985 42.4075 31.939 42.4786 31.7314C42.5531 31.5273 42.5869 31.3787 42.5869 31.2817C42.5869 31.1882 42.5768 31.1226 42.5598 31.0845C42.4854 31.1399 42.3804 31.261 42.245 31.4478C42.1061 31.6345 41.9673 31.9148 41.8182 32.2883C41.71 32.5686 41.6218 32.8455 41.5575 33.1152C41.5 33.3887 41.4492 33.6343 41.412 33.8591Z" fill="#767676" fill-opacity="1.000000" fill-rule="nonzero"/>
    <path id="Vector" d="M53.2065 40.8923C52.9696 41.3213 52.6682 41.7986 52.3025 42.321C51.9368 42.8435 51.5168 43.345 51.0394 43.8191C50.5653 44.2964 50.0371 44.6909 49.4614 45.009C48.8859 45.3274 48.2695 45.4866 47.6093 45.4866C46.9523 45.4866 46.4443 45.355 46.0854 45.0955C45.7299 44.8328 45.4691 44.5627 45.3032 44.2827C44.9003 43.5906 44.7987 42.6946 45.0018 41.5911C45.2017 40.5464 45.6317 39.4253 46.292 38.2283C46.5493 37.7786 46.8948 37.2493 47.335 36.6301C47.7751 36.0144 48.2865 35.4158 48.8723 34.8381C49.0924 34.613 49.3429 34.3848 49.6274 34.1531C49.9119 33.9211 50.203 33.7102 50.5044 33.5234C50.8058 33.3367 51.1173 33.1843 51.4357 33.0598C51.7539 32.9387 52.0723 32.8765 52.3804 32.8765C52.526 32.8765 52.6445 32.9248 52.736 33.0183C52.8273 33.1118 52.8713 33.2329 52.8713 33.3816C52.8713 33.5303 52.8273 33.6479 52.736 33.731C52.6445 33.814 52.526 33.8555 52.3804 33.8555C52.0146 33.8555 51.5846 34.0007 51.0902 34.2915C50.5958 34.582 50.0845 34.9971 49.5529 35.5369C49.0043 36.0801 48.5201 36.6404 48.1002 37.2183C47.6803 37.7959 47.3519 38.2942 47.1115 38.7024C46.5087 39.7852 46.1227 40.8022 45.9601 41.7571C45.7942 42.5977 45.8585 43.269 46.1532 43.7739C46.3901 44.2617 46.8744 44.5039 47.6058 44.5039C47.9885 44.5039 48.3541 44.4243 48.703 44.2654C49.0518 44.1062 49.3835 43.9055 49.7053 43.6633C50.0236 43.4211 50.3215 43.1514 50.5958 42.8503C50.8701 42.5527 51.1173 42.2622 51.3374 41.9819C51.483 41.7952 51.6117 41.6118 51.7201 41.4353C51.8284 41.259 51.9402 41.0859 52.0485 40.9165C51.6659 40.8784 51.3578 40.7849 51.1309 40.6362C50.9006 40.4875 50.7245 40.3386 50.5958 40.1865C50.2131 39.7368 50.0201 39.1589 50.0201 38.4497C50.0201 38.0208 50.0845 37.5815 50.2131 37.1316C50.3419 36.6819 50.5315 36.2737 50.7888 35.9001C51.3916 35.0042 52.079 34.5544 52.8442 34.5544C53.4301 34.5544 53.8771 34.8069 54.1886 35.312C54.4797 35.7791 54.6051 36.3879 54.5576 37.1316C54.5103 37.8789 54.2699 38.7197 53.8296 39.6538C53.6841 39.9512 53.5656 40.1899 53.4741 40.3699C53.3894 40.5532 53.298 40.7261 53.2065 40.8923ZM52.8511 35.5403C52.631 35.5403 52.4108 35.6233 52.1941 35.793C51.974 35.9624 51.7742 36.1838 51.5914 36.4641C51.4086 36.7441 51.2629 37.0557 51.1511 37.4016C51.0428 37.7476 50.9852 38.0969 50.9852 38.4534C50.9852 38.6021 51.0022 38.782 51.0394 38.9861C51.0767 39.1902 51.1681 39.377 51.3137 39.5464C51.5508 39.8267 51.9333 39.9685 52.465 39.9685L52.6039 39.9685C52.6953 39.7817 52.7698 39.6365 52.824 39.5327C52.8782 39.429 52.9154 39.3701 52.9323 39.3494C53.1897 38.7715 53.3623 38.2769 53.4537 37.8652C53.5452 37.4534 53.5892 37.1074 53.5892 36.8271C53.5892 36.5471 53.5656 36.3291 53.5215 36.1699C53.4775 36.0107 53.4335 35.9036 53.3995 35.8481C53.2506 35.644 53.0712 35.5403 52.8511 35.5403Z" fill="#767676" fill-opacity="1.000000" fill-rule="nonzero"/>
    <path id="Vector" d="M56.2784 46.9155C55.7467 46.9155 55.3472 46.8049 55.0729 46.5801C54.7986 46.3552 54.5887 46.1301 54.4431 45.9089C54.0232 45.1616 53.9961 44.0684 54.3618 42.6292C54.5277 41.958 54.7817 41.2246 55.1305 40.4287C55.4792 39.6365 55.8992 38.8098 56.3936 37.9482C56.6306 37.5366 56.9183 37.0383 57.257 36.4502C57.5956 35.8621 57.9478 35.2498 58.3135 34.6133C58.6792 33.9802 59.0449 33.3469 59.4106 32.7207C59.7764 32.0947 60.1014 31.5308 60.3824 31.0256C60.6669 30.5205 60.9005 30.1157 61.0834 29.8079C61.2662 29.5 61.3577 29.3374 61.3577 29.3167C61.5236 29.0537 61.7404 28.9983 62.0146 29.147C62.272 29.3167 62.3262 29.5381 62.1805 29.8181C62.1805 29.8354 62.0891 30.0015 61.9062 30.3096C61.7234 30.6174 61.4897 31.0188 61.2053 31.5134C60.9209 32.0081 60.5958 32.5754 60.2335 33.2087C59.8678 33.8452 59.5021 34.4783 59.1364 35.115C58.7706 35.7515 58.4185 36.3604 58.0798 36.9519C57.7412 37.54 57.4534 38.0417 57.2164 38.45C56.7423 39.2732 56.3394 40.0552 56.0109 40.8025C55.6824 41.5498 55.4352 42.2417 55.2693 42.8748C54.9781 44.0337 54.9849 44.8848 55.2964 45.4246C55.4792 45.76 55.8077 45.9297 56.2852 45.9297C56.6306 45.9297 56.9557 45.8188 57.257 45.594C57.5583 45.3691 57.8292 45.0994 58.0663 44.781C58.3033 44.4626 58.5099 44.1375 58.6826 43.802C58.8552 43.4663 58.9976 43.186 59.1093 42.9612L59.1635 42.906C59.2921 42.6257 59.5021 42.5496 59.7932 42.6812C59.9219 42.7363 60.0032 42.8298 60.0404 42.9612C60.0778 43.0928 60.0675 43.2139 60.0133 43.3245L59.9863 43.4075C59.8575 43.6704 59.6849 43.9956 59.4648 44.3867C59.2448 44.7776 58.984 45.1616 58.6826 45.5352C58.3812 45.9089 58.0291 46.2305 57.6261 46.5005C57.2197 46.7808 56.7728 46.9155 56.2784 46.9155Z" fill="#767676" fill-opacity="1.000000" fill-rule="nonzero"/>
    <path id="Vector" d="M72.3231 33.6655C71.6661 34.7312 71.0837 35.7795 70.5826 36.8174C70.0781 37.8552 69.6819 38.8481 69.3906 39.803C69.0995 40.7544 68.9336 41.595 68.8962 42.3252C68.859 43.0552 68.9607 43.6328 69.1976 44.0618C69.4889 44.6396 70.0577 44.9302 70.8976 44.9302C72.1233 44.9302 73.5591 43.9199 75.2047 41.9031C75.9192 41.0071 76.5762 40.0833 77.179 39.1284C77.7816 38.177 78.293 37.3433 78.7162 36.634C78.8246 36.4473 78.9261 36.2742 79.0176 36.115C79.109 35.9558 79.2004 35.8105 79.2919 35.6792C79.2919 35.6619 79.2953 35.6514 79.3054 35.6514C79.3156 35.6514 79.319 35.6411 79.319 35.6238C79.6677 34.9873 79.9996 34.3784 80.3213 33.7866C80.6395 33.1985 80.9478 32.6624 81.2389 32.1746C81.2931 32.043 81.3845 31.96 81.5132 31.9219C81.6418 31.8838 81.7706 31.9048 81.8959 31.9773C82.0043 32.0535 82.0787 32.1538 82.116 32.2852C82.1532 32.4167 82.1329 32.5378 82.0618 32.6484C81.6588 33.3403 81.2356 34.105 80.7852 34.9456C80.3383 35.7864 79.8811 36.6443 79.4138 37.5232C78.9465 38.4019 78.486 39.2805 78.0288 40.1558C77.5717 41.0347 77.145 41.8545 76.7522 42.6226C76.3595 43.3872 76.0106 44.0757 75.7094 44.6812C75.408 45.29 75.1743 45.75 75.0083 46.0684C75.2081 45.9578 75.4147 45.8401 75.6246 45.719C75.8346 45.5979 76.0513 45.4629 76.2681 45.3142C76.9622 44.8645 77.7308 44.2866 78.5707 43.5774C79.4104 42.8682 80.2535 41.9446 81.0934 40.8027C81.1848 40.6921 81.2931 40.6265 81.4218 40.6057C81.5504 40.5884 81.6689 40.616 81.7773 40.6887C81.8688 40.782 81.9297 40.8928 81.9568 41.0242C81.9839 41.1558 81.9535 41.2769 81.8621 41.3875C80.9647 42.5845 80.0741 43.5498 79.1869 44.2866C78.2997 45.0237 77.5006 45.636 76.7861 46.1238C76.312 46.4421 75.8583 46.7153 75.4282 46.9507C74.9982 47.1858 74.5919 47.3762 74.2092 47.5249C73.6234 48.4763 73.0206 49.2512 72.3976 49.8499C71.5206 50.6904 70.7417 51.1194 70.0679 51.1401L69.9867 51.1401C69.455 51.1401 69.0724 50.936 68.8353 50.5244C68.6525 50.2441 68.6152 49.9087 68.7269 49.5142C68.8353 49.1406 69.069 48.7842 69.428 48.4487C69.7834 48.113 70.2169 47.8501 70.7316 47.6633C70.84 47.6252 70.9686 47.5837 71.1143 47.5388C71.2599 47.4902 71.4156 47.4419 71.5815 47.3831C71.8389 47.3069 72.1301 47.2205 72.4585 47.1167C72.787 47.0129 73.1527 46.8884 73.5557 46.7395C73.6099 46.6462 73.6708 46.5425 73.7351 46.4316C73.7994 46.321 73.8571 46.2068 73.9147 46.0962C73.9519 46.0581 74.1077 45.7639 74.382 45.2139C74.6562 44.6638 75.005 43.9685 75.4248 43.1277C74.8018 43.8369 74.1821 44.425 73.5591 44.8921C72.6278 45.5632 71.7407 45.9023 70.8976 45.9023C70.1458 45.9023 69.5769 45.7537 69.1841 45.4526C68.7913 45.155 68.5137 44.8472 68.3478 44.5288C67.745 43.408 67.7822 41.7368 68.4561 39.5125C68.7676 38.5229 69.1841 37.4817 69.7021 36.3884C70.2236 35.2952 70.8298 34.2087 71.5273 33.1226C71.9675 32.4304 72.5161 31.6936 73.1731 30.9082C73.0275 30.7214 72.8988 30.5347 72.7904 30.3479C72.3163 29.4138 72.2046 28.2756 72.4619 26.9297C72.5703 26.3313 72.7532 25.7258 73.0105 25.1099C73.2678 24.4941 73.576 23.9128 73.9417 23.3733C74.1415 23.1104 74.3717 23.0654 74.6257 23.2314C74.7341 23.3247 74.8052 23.4355 74.8323 23.5669C74.8594 23.6985 74.8289 23.8196 74.7374 23.9302C74.4091 24.4146 74.1245 24.9336 73.8876 25.4871C73.6505 26.0371 73.4846 26.5837 73.3932 27.127C73.3018 27.6702 73.2747 28.1716 73.3119 28.6387C73.3491 29.1057 73.4677 29.5244 73.6675 29.8982C73.6843 29.936 73.708 29.9812 73.7351 30.04C73.7622 30.0952 73.7961 30.1438 73.83 30.1819C74.6698 29.2686 75.5569 28.4175 76.4915 27.6321C76.7827 27.3899 77.1416 27.113 77.5615 26.8052C77.9814 26.4973 78.425 26.2031 78.8923 25.9231C79.3596 25.6428 79.8303 25.4109 80.3043 25.2241C80.7784 25.0374 81.2288 24.9336 81.6487 24.9163C82.0686 24.8782 82.397 24.9336 82.6375 25.0857C82.8745 25.2344 83.0471 25.3833 83.1589 25.5354C83.3586 25.7983 83.4501 26.1235 83.4332 26.5146C83.4163 26.9055 83.2977 27.345 83.0776 27.8328C82.8203 28.355 82.4749 28.874 82.0347 29.3894C81.5945 29.905 81.0934 30.3652 80.5278 30.7769C80.0538 31.1123 79.4578 31.4446 78.7467 31.7698C78.0322 32.0984 77.2094 32.261 76.2782 32.261C75.4723 32.261 74.751 32.0845 74.111 31.7283C74.0737 31.7109 74.0365 31.6902 74.0027 31.6729C73.9655 31.6555 73.9282 31.6279 73.8943 31.5898C73.3018 32.2644 72.7803 32.9529 72.3231 33.6655ZM71.7474 49.158C72.0759 48.8223 72.3773 48.4763 72.6516 48.1199C72.506 48.158 72.3638 48.196 72.2249 48.2307C72.0861 48.2688 71.954 48.3069 71.8287 48.3413C71.6831 48.3794 71.5409 48.4175 71.4021 48.4521C71.2632 48.4902 71.1515 48.5283 71.0601 48.5627C70.6571 48.7324 70.332 48.9329 70.0848 49.1648C69.8376 49.3965 69.6887 49.6077 69.6311 49.7944C69.6141 49.905 69.6141 49.9709 69.6311 49.9917C69.6683 50.0298 69.7124 50.0713 69.7666 50.1162C69.8207 50.1611 69.9054 50.175 70.0137 50.1577C70.4777 50.1299 71.0533 49.7944 71.7474 49.158ZM77.0942 28.4243C76.1799 29.1543 75.3301 29.9639 74.5444 30.8633C74.9846 31.1436 75.5603 31.282 76.2714 31.282C76.9656 31.282 77.6293 31.1575 78.2592 30.9048C78.8889 30.6523 79.4646 30.334 79.9861 29.9534C80.5076 29.5693 80.9545 29.1509 81.3303 28.6941C81.7062 28.2375 81.994 27.8015 82.1938 27.3899C82.3597 27.0715 82.4512 26.8052 82.4681 26.5906C82.4851 26.3762 82.4681 26.231 82.4139 26.1548C82.3767 26.1167 82.3124 26.0613 82.2209 25.9854C82.1295 25.9092 81.9568 25.8813 81.6995 25.9021C81.1678 25.9194 80.5007 26.1514 79.6982 26.5872C78.8958 27.0266 78.0288 27.6389 77.0942 28.4243Z" fill="#767676" fill-opacity="1.000000" fill-rule="nonzero"/>
    <path id="Vector" d="M92.8907 40.7542C92.9822 40.8477 93.0363 40.9583 93.0566 41.0898C93.0736 41.2212 93.0397 41.3423 92.9482 41.4531C92.911 41.4912 92.8704 41.5361 92.8264 41.5916C92.7789 41.6467 92.7316 41.7021 92.674 41.761C91.8342 42.8059 91.0656 43.6777 90.3713 44.3662C89.6772 45.0581 89.0372 45.4041 88.4514 45.4041C88.0315 45.4041 87.7166 45.3245 87.5066 45.1653C87.2968 45.0061 87.1443 44.8435 87.0529 44.6741C86.8531 44.3003 86.7786 43.8438 86.8328 43.3005C85.5697 44.7952 84.3541 45.5422 83.1859 45.5422C82.5459 45.5422 82.0616 45.4109 81.7332 45.1514C81.4047 44.8884 81.1677 44.6289 81.0187 44.3662C80.6361 43.657 80.5718 42.7678 80.8257 41.7056C80.9341 41.1833 81.1101 40.647 81.3472 40.0935C81.5842 39.5435 81.8788 38.9863 82.2241 38.4258C83.2129 36.8552 84.327 35.6133 85.5697 34.7C86.1183 34.3088 86.6499 34.0044 87.1613 33.79C87.6726 33.5754 88.1399 33.4683 88.5598 33.4683C89.0338 33.4683 89.4062 33.5513 89.6704 33.7207C89.9346 33.8904 90.131 34.0667 90.2596 34.2537C90.4594 34.5166 90.5881 34.8245 90.6422 35.1772C90.7878 34.9524 90.9064 34.7551 90.9978 34.5891C91.0892 34.4197 91.1807 34.271 91.2721 34.1394C91.3466 33.9907 91.4279 33.8591 91.5193 33.7485C91.5938 33.6377 91.692 33.5652 91.8207 33.5374C91.9493 33.5098 92.0679 33.5339 92.1763 33.6067C92.2845 33.6829 92.359 33.783 92.3964 33.9146C92.4336 34.0459 92.4065 34.167 92.3151 34.2778C92.3151 34.2952 92.078 34.6826 91.6006 35.4402C91.1265 36.198 90.5305 37.2012 89.8195 38.4536C89.3453 39.2942 88.9594 40.0381 88.6681 40.6816C88.377 41.325 88.1602 41.8855 88.0248 42.363C87.8859 42.8403 87.808 43.2278 87.7911 43.5254C87.7742 43.823 87.808 44.0408 87.8994 44.1689C87.9164 44.207 87.957 44.2588 88.0214 44.3245C88.0857 44.3904 88.2279 44.4214 88.448 44.4214C88.5394 44.4214 88.7053 44.3591 88.9424 44.238C89.1794 44.1169 89.5282 43.8333 89.9854 43.3835C90.3138 43.0652 90.6422 42.7056 90.9741 42.3042C91.3026 41.9028 91.6243 41.5154 91.9324 41.1416C91.9866 41.0864 92.0374 41.031 92.0848 40.9722C92.1288 40.9167 92.1729 40.8616 92.2067 40.8027C92.2981 40.7092 92.4065 40.6538 92.5352 40.6331C92.6638 40.6228 92.7823 40.6609 92.8907 40.7542ZM86.2842 42.4634C86.7413 41.9028 87.1071 41.3943 87.3813 40.9375C87.6556 40.481 87.8013 40.2422 87.8215 40.2214C87.8215 40.2041 87.825 40.1938 87.8351 40.1938C87.8452 40.1938 87.8486 40.1833 87.8486 40.166C88.1229 39.533 88.5056 38.7927 89 37.9519C89.0914 37.7825 89.1862 37.6165 89.2878 37.4468C89.3894 37.2773 89.4841 37.1216 89.5756 36.9695L89.5756 36.9141C89.5925 36.8206 89.6196 36.6858 89.6569 36.5093C89.6941 36.3328 89.7145 36.146 89.7246 35.9487C89.7347 35.7517 89.7246 35.5579 89.6975 35.3606C89.6704 35.1636 89.6027 34.9905 89.491 34.8418C89.2911 34.5789 88.9796 34.4507 88.5598 34.4507C88.3024 34.4507 87.9637 34.5303 87.5439 34.6895C87.124 34.8486 86.6669 35.1082 86.1725 35.4749C85.6781 35.8381 85.1566 36.3052 84.608 36.876C84.0594 37.4468 83.5278 38.1423 83.0166 38.9622C82.3766 39.9897 81.9567 40.9688 81.7535 41.9028C81.5875 42.7815 81.6249 43.4424 81.8618 43.8921C82.0819 44.3418 82.5188 44.5632 83.1791 44.5632C84.0968 44.5632 85.1295 43.8645 86.2842 42.4634Z" fill="#767676" fill-opacity="1.000000" fill-rule="nonzero"/>
    <path id="Vector" d="M101.694 40.7539C101.786 40.8474 101.84 40.958 101.86 41.0894C101.877 41.2209 101.843 41.342 101.752 41.4526C101.714 41.4907 101.67 41.5356 101.613 41.5911C101.559 41.6465 101.511 41.7019 101.477 41.7605C100.638 42.8054 99.869 43.6772 99.1748 44.3657C98.4807 45.0576 97.8407 45.4036 97.2549 45.4036C96.7435 45.4036 96.3677 45.1995 96.1307 44.7876C95.8937 44.3379 95.8937 43.6875 96.1307 42.8262C96.3677 41.9856 96.879 40.8645 97.668 39.4634C97.8136 39.2004 97.8237 38.7786 97.6951 38.1904C97.5664 37.6023 97.3125 36.907 96.9264 36.1042C96.432 36.8135 95.8597 37.6091 95.213 38.4844C94.5629 39.3633 93.8112 40.3423 92.951 41.425C92.8596 41.5356 92.7512 41.6016 92.6226 41.6223C92.4939 41.6396 92.3856 41.605 92.2942 41.5115C92.1858 41.4182 92.1215 41.3074 92.1011 41.176C92.0842 41.0444 92.118 40.9233 92.2095 40.8127C94.038 38.4775 95.4365 36.592 96.4049 35.1528C96.239 34.8 96.1951 34.3745 96.2661 33.8799C96.3406 33.385 96.4219 32.9802 96.5133 32.6621C96.5505 32.5686 96.6013 32.4233 96.6656 32.2261C96.73 32.0291 96.8181 31.8213 96.9264 31.5964C97.0348 31.3716 97.16 31.1467 97.2955 30.9253C97.4343 30.7004 97.5935 30.5137 97.7764 30.365C97.9762 30.1953 98.1895 30.1089 98.4062 30.0986C98.6263 30.0881 98.826 30.1677 99.0089 30.3372C99.3916 30.6729 99.4762 31.2263 99.2561 31.991C99.0564 32.5894 98.6804 33.3469 98.132 34.2603C98.0405 34.4092 97.9457 34.5647 97.8441 34.7239C97.7426 34.8831 97.6376 35.0457 97.5292 35.2151C98.7178 37.4397 99.036 39.0242 98.4874 39.979C98.0134 40.8196 97.6613 41.5115 97.431 42.0513C97.2007 42.5945 97.0518 43.0269 96.9772 43.3555C96.9027 43.6841 96.8756 43.916 96.896 44.0542C96.9128 44.196 96.9332 44.2827 96.9502 44.3206C96.967 44.3379 96.9941 44.3623 97.0314 44.3899C97.0686 44.4175 97.1398 44.4314 97.2515 44.4314C97.3429 44.4314 97.5089 44.3691 97.7458 44.248C97.9829 44.127 98.3215 43.8433 98.7617 43.3936C99.1072 43.0752 99.4458 42.7153 99.7776 42.3142C100.106 41.9128 100.428 41.5254 100.736 41.1516C100.773 41.0964 100.817 41.041 100.875 40.9822C100.929 40.9268 100.976 40.8716 101.014 40.8127C101.105 40.7192 101.213 40.6641 101.342 40.6433C101.467 40.6223 101.586 40.6604 101.694 40.7539ZM97.2515 33.8591C97.2684 33.821 97.282 33.8003 97.2921 33.7898C97.3022 33.7795 97.3158 33.7588 97.3328 33.7207C97.624 33.2363 97.8441 32.835 97.9897 32.5168C98.1353 32.1985 98.2471 31.939 98.3181 31.7314C98.3927 31.5273 98.4265 31.3787 98.4265 31.2817C98.4265 31.1882 98.4164 31.1226 98.3994 31.0845C98.325 31.1399 98.22 31.261 98.0845 31.4478C97.9457 31.6345 97.8069 31.9148 97.6578 32.2883C97.5494 32.5686 97.4614 32.8455 97.3971 33.1152C97.3396 33.3887 97.2887 33.6343 97.2515 33.8591Z" fill="#767676" fill-opacity="1.000000" fill-rule="nonzero"/>
    <path id="Vector" d="M112.8 40.7542C112.892 40.8477 112.946 40.9583 112.966 41.0898C112.983 41.2212 112.949 41.3423 112.858 41.4531C112.821 41.4912 112.78 41.5361 112.736 41.5916C112.692 41.6467 112.641 41.7021 112.584 41.761C111.744 42.8059 110.975 43.6777 110.281 44.3662C109.587 45.0581 108.947 45.4041 108.361 45.4041C107.941 45.4041 107.626 45.3245 107.416 45.1653C107.206 45.0061 107.054 44.8435 106.963 44.6741C106.763 44.3003 106.688 43.8438 106.743 43.3005C105.479 44.7952 104.264 45.5422 103.096 45.5422C102.456 45.5422 101.971 45.4109 101.643 45.1514C101.314 44.8884 101.078 44.6289 100.928 44.3662C100.546 43.657 100.481 42.7678 100.735 41.7056C100.844 41.1833 101.02 40.647 101.257 40.0935C101.494 39.5435 101.789 38.9863 102.134 38.4258C103.123 36.8552 104.237 35.6133 105.479 34.7C106.028 34.3088 106.56 34.0044 107.071 33.79C107.582 33.5754 108.05 33.4683 108.469 33.4683C108.944 33.4683 109.316 33.5513 109.58 33.7207C109.844 33.8904 110.041 34.0667 110.169 34.2537C110.369 34.5166 110.498 34.8245 110.552 35.1772C110.698 34.9524 110.816 34.7551 110.908 34.5891C110.999 34.4197 111.09 34.271 111.182 34.1394C111.256 33.9907 111.338 33.8591 111.429 33.7485C111.504 33.6377 111.602 33.5652 111.73 33.5374C111.859 33.5098 111.978 33.5339 112.086 33.6067C112.194 33.6829 112.269 33.783 112.306 33.9146C112.343 34.0459 112.316 34.167 112.225 34.2778C112.225 34.2952 111.988 34.6826 111.51 35.4402C111.036 36.198 110.44 37.2012 109.729 38.4536C109.255 39.2942 108.869 40.0381 108.578 40.6816C108.287 41.325 108.07 41.8855 107.934 42.363C107.799 42.8403 107.718 43.2278 107.701 43.5254C107.684 43.823 107.718 44.0408 107.809 44.1689C107.826 44.207 107.867 44.2588 107.931 44.3245C107.995 44.3904 108.138 44.4214 108.358 44.4214C108.449 44.4214 108.615 44.3591 108.852 44.238C109.089 44.1169 109.438 43.8333 109.895 43.3835C110.224 43.0652 110.552 42.7056 110.884 42.3042C111.212 41.9028 111.534 41.5154 111.842 41.1416C111.896 41.0864 111.947 41.031 111.995 40.9722C112.039 40.9167 112.083 40.8616 112.116 40.8027C112.208 40.7092 112.316 40.6538 112.445 40.6331C112.574 40.6228 112.692 40.6609 112.8 40.7542ZM106.191 42.4634C106.648 41.9028 107.013 41.3943 107.288 40.9375C107.562 40.481 107.708 40.2422 107.728 40.2214C107.728 40.2041 107.731 40.1938 107.741 40.1938C107.752 40.1938 107.755 40.1833 107.755 40.166C108.029 39.533 108.412 38.7927 108.906 37.9519C108.998 37.7825 109.093 37.6165 109.194 37.4468C109.296 37.2773 109.391 37.1216 109.482 36.9695L109.482 36.9141C109.499 36.8206 109.526 36.6858 109.563 36.5093C109.6 36.3328 109.621 36.146 109.631 35.9487C109.641 35.7517 109.631 35.5579 109.604 35.3606C109.577 35.1636 109.509 34.9905 109.397 34.8418C109.198 34.5789 108.886 34.4507 108.466 34.4507C108.209 34.4507 107.87 34.5303 107.45 34.6895C107.03 34.8486 106.573 35.1082 106.079 35.4749C105.584 35.8381 105.063 36.3052 104.514 36.876C103.966 37.4468 103.434 38.1423 102.923 38.9622C102.283 39.9897 101.863 40.9688 101.66 41.9028C101.494 42.7815 101.531 43.4424 101.768 43.8921C101.988 44.3418 102.425 44.5632 103.085 44.5632C104.006 44.5632 105.039 43.8645 106.191 42.4634Z" fill="#767676" fill-opacity="1.000000" fill-rule="nonzero"/>
    <path id="Vector" d="M124.153 40.7539C124.262 40.8472 124.326 40.958 124.346 41.0894C124.363 41.2209 124.329 41.342 124.238 41.4526C124.201 41.4907 124.17 41.5288 124.143 41.5632C124.116 41.6013 124.082 41.6394 124.048 41.6741C123.865 41.8989 123.632 42.1792 123.347 42.5146C123.063 42.8503 122.734 43.1997 122.359 43.5664C121.983 43.9297 121.576 44.2896 121.14 44.6458C120.699 45.0022 120.225 45.2998 119.714 45.542C119.365 45.7114 119.01 45.8601 118.644 45.9917C118.278 46.123 117.912 46.2546 117.547 46.3826C117.052 47.2786 116.514 48.0535 115.928 48.7075C115.088 49.6416 114.299 50.1536 113.568 50.2471C113.531 50.2471 113.494 50.2505 113.46 50.2607C113.422 50.2712 113.385 50.2747 113.351 50.2747C112.877 50.2747 112.501 50.0879 112.227 49.7141C112.007 49.4719 111.943 49.126 112.034 48.6763C112.125 48.2646 112.346 47.8772 112.691 47.5139C113.04 47.1506 113.477 46.8357 114.008 46.5764C114.354 46.4275 114.729 46.2856 115.132 46.1543C115.535 46.0227 115.945 45.8843 116.365 45.7356C116.456 45.6975 116.544 45.6699 116.626 45.6526C116.707 45.6353 116.795 45.6042 116.886 45.5696C116.961 45.4209 117.029 45.272 117.093 45.1199C117.157 44.9709 117.225 44.8223 117.3 44.6702C117.317 44.6321 117.364 44.5144 117.435 44.3206C117.51 44.1235 117.618 43.8572 117.763 43.5215C116.446 44.8672 115.258 45.5383 114.198 45.5383C113.558 45.5383 113.074 45.407 112.745 45.1475C112.417 44.8845 112.18 44.625 112.031 44.3621C111.648 43.6531 111.584 42.7639 111.838 41.7017C111.946 41.1794 112.122 40.6431 112.359 40.0896C112.596 39.5396 112.891 38.9824 113.236 38.4221C114.225 36.8513 115.339 35.6094 116.582 34.696C117.13 34.3052 117.659 34.0007 118.173 33.7861C118.685 33.5718 119.152 33.4644 119.572 33.4644C120.046 33.4644 120.418 33.5474 120.682 33.717C120.947 33.8865 121.143 34.063 121.272 34.2498C121.38 34.3813 121.482 34.5576 121.573 34.7825C121.664 34.5784 121.756 34.3811 121.847 34.1943C121.939 34.0076 122.03 33.8103 122.121 33.6062C122.267 33.3259 122.487 33.25 122.778 33.3813C122.887 33.4368 122.965 33.5303 123.012 33.6616C123.056 33.7932 123.053 33.9141 122.999 34.0249C122.741 34.5681 122.491 35.1042 122.243 35.637C121.996 36.1699 121.746 36.7061 121.488 37.2493L121.461 37.3047C121.004 38.332 120.574 39.3076 120.171 40.2314C119.768 41.155 119.423 41.9785 119.128 42.698C118.837 43.4177 118.603 43.9885 118.427 44.4072C118.255 44.8257 118.167 45.0471 118.167 45.0645C118.167 45.1025 118.156 45.1199 118.139 45.1199C118.339 45.0437 118.532 44.9709 118.715 44.895C118.898 44.8188 119.081 44.7358 119.264 44.6423C119.721 44.4175 120.154 44.1477 120.567 43.8293C120.977 43.5112 121.356 43.179 121.705 42.833C122.05 42.4871 122.359 42.155 122.623 41.8401C122.887 41.522 123.11 41.252 123.293 41.0271C123.33 40.989 123.361 40.9509 123.388 40.9165C123.415 40.8784 123.446 40.8438 123.483 40.8057C123.574 40.7124 123.682 40.657 123.811 40.6362C123.953 40.6223 124.062 40.6604 124.153 40.7539ZM117.489 42.4041C117.946 41.8816 118.329 41.4006 118.641 40.9614C118.952 40.522 119.125 40.2556 119.162 40.1621C119.382 39.6572 119.616 39.1313 119.863 38.5776C120.11 38.0276 120.361 37.4602 120.618 36.8826C120.635 36.7717 120.662 36.6299 120.699 36.4639C120.737 36.2944 120.754 36.1145 120.754 35.9172C120.754 35.72 120.74 35.5264 120.713 35.3291C120.686 35.1321 120.618 34.9692 120.506 34.8379C120.307 34.575 119.995 34.447 119.575 34.447C119.318 34.447 118.979 34.5266 118.559 34.6855C118.139 34.8447 117.682 35.1042 117.188 35.4709C116.693 35.8342 116.172 36.3013 115.623 36.8721C115.075 37.4429 114.543 38.1384 114.032 38.9583C113.392 39.9858 112.972 40.9648 112.769 41.8989C112.603 42.7776 112.64 43.4385 112.877 43.8882C113.097 44.3379 113.534 44.5593 114.194 44.5593C114.652 44.5593 115.153 44.376 115.701 44.0127C116.257 43.6531 116.849 43.1167 117.489 42.4041ZM115.214 48.0364C115.38 47.8667 115.539 47.6799 115.694 47.4758C115.85 47.2717 115.999 47.0537 116.148 46.8323C115.491 47.0364 114.916 47.2544 114.421 47.4758C113.981 47.6799 113.639 47.9187 113.392 48.1919C113.145 48.4619 113.002 48.7004 112.965 48.9082C112.948 49.0188 112.948 49.0845 112.965 49.1052C113.002 49.1606 113.057 49.2126 113.131 49.261C113.206 49.3059 113.314 49.313 113.46 49.2749C113.971 49.2161 114.557 48.8042 115.214 48.0364Z" fill="#767676" fill-opacity="1.000000" fill-rule="nonzero"/>
    <path id="Vector" d="M133.096 40.6951C133.188 40.7886 133.239 40.8992 133.249 41.0308C133.259 41.1621 133.218 41.2729 133.127 41.3662C133.11 41.4043 132.907 41.6292 132.524 42.0374C132.141 42.4492 131.627 42.9058 130.987 43.4109C129.212 44.7739 127.604 45.4556 126.161 45.4556C125.393 45.4556 124.814 45.3171 124.421 45.0369C124.028 44.7568 123.74 44.4661 123.557 44.1687C123.208 43.5527 123.11 42.7812 123.256 41.8577C123.402 40.9338 123.794 39.9099 124.434 38.7888C125.328 37.1628 126.304 35.8379 127.357 34.8103C128.406 33.783 129.399 33.1843 130.333 33.0183C131.048 32.9075 131.64 33.0459 132.114 33.4404C132.48 33.7585 132.68 34.1875 132.717 34.7307C132.734 35.2913 132.561 35.9141 132.196 36.5955C131.83 37.2771 131.298 37.9724 130.604 38.6816C129.835 39.4844 129.023 40.0725 128.163 40.446C127.448 40.7644 126.764 40.9236 126.107 40.9236C125.779 40.9236 125.484 40.8958 125.23 40.8403C124.973 40.7852 124.763 40.7195 124.6 40.6433C124.509 40.8855 124.431 41.1138 124.367 41.3281C124.302 41.5427 124.251 41.7537 124.214 41.958C124.106 42.7051 124.167 43.2761 124.407 43.667C124.698 44.2102 125.284 44.48 126.161 44.48C126.91 44.48 127.655 44.2898 128.396 43.9058C129.138 43.5217 129.805 43.0996 130.397 42.6326C130.99 42.1655 131.474 41.7366 131.85 41.342C132.226 40.9512 132.412 40.7437 132.412 40.7263C132.504 40.6328 132.612 40.5811 132.741 40.5706C132.866 40.5603 132.984 40.6018 133.096 40.6951ZM125.25 39.2664C125.213 39.3599 125.169 39.4429 125.115 39.5188C125.061 39.595 125.013 39.678 124.976 39.7715C125.122 39.8096 125.291 39.8477 125.484 39.8821C125.677 39.9202 125.901 39.9375 126.155 39.9375C127.418 39.9202 128.677 39.2732 129.94 38.0037C130.526 37.405 130.976 36.8237 131.298 36.2529C131.616 35.6821 131.769 35.1943 131.752 34.7827C131.715 34.5405 131.633 34.3433 131.505 34.1946C131.247 33.9697 130.909 33.9038 130.489 33.9973C130.123 34.0527 129.73 34.2188 129.31 34.4885C128.891 34.7585 128.461 35.1113 128.02 35.5403C127.035 36.5125 126.11 37.7544 125.25 39.2664Z" fill="#767676" fill-opacity="1.000000" fill-rule="nonzero"/>
    <path id="Vector" d="M43.1906 65.2166C43.1296 65.2166 43.0686 65.189 43.028 65.1335C42.9603 65.04 42.9772 64.9087 43.0686 64.8394C44.4028 63.8154 45.7946 62.6809 47.3251 61.3696C47.4131 61.2971 47.5417 61.3074 47.6129 61.3975C47.684 61.4873 47.6738 61.6189 47.5858 61.6914C46.0485 63.0061 44.65 64.144 43.3125 65.175C43.2751 65.2026 43.2312 65.2166 43.1906 65.2166Z" fill="#767676" fill-opacity="1.000000" fill-rule="nonzero"/>
    <path id="Vector" d="M39.6178 68.123C39.5569 68.123 39.4993 68.0952 39.4587 68.0435C39.3876 67.9534 39.4045 67.822 39.4926 67.7493L40.3933 67.0161C40.4813 66.9434 40.61 66.9573 40.6812 67.0505C40.7522 67.1406 40.7386 67.272 40.6472 67.3447L39.7465 68.0781C39.7059 68.1091 39.6619 68.123 39.6178 68.123Z" fill="#767676" fill-opacity="1.000000" fill-rule="nonzero"/>
    <path id="Vector" d="M39.5059 62.1794C39.411 62.1794 39.3264 62.1104 39.306 62.0134C39.2823 61.8992 39.3535 61.7886 39.4652 61.7678C40.6504 61.5188 41.91 61.2107 43.3187 60.8303C43.4271 60.7991 43.5388 60.8684 43.5693 60.979C43.5999 61.0896 43.5321 61.2039 43.4237 61.2351C42.0117 61.6155 40.7418 61.927 39.5499 62.176C39.533 62.1794 39.5194 62.1794 39.5059 62.1794Z" fill="#767676" fill-opacity="1.000000" fill-rule="nonzero"/>
    <path id="Vector" d="M36.2716 62.9648C36.1802 62.9648 36.0956 62.8992 36.0719 62.8057C36.0448 62.6951 36.1125 62.5808 36.2242 62.5532L37.0403 62.356C37.1487 62.3318 37.2604 62.3975 37.2875 62.5117C37.3146 62.6223 37.2468 62.7366 37.1351 62.7642L36.3191 62.9614C36.3021 62.9648 36.2852 62.9648 36.2716 62.9648Z" fill="#767676" fill-opacity="1.000000" fill-rule="nonzero"/>
    <path id="Vector" d="M105.19 62.9055C105.177 62.9055 105.163 62.9055 105.149 62.9021C103.72 62.6184 102.451 62.3311 101.266 62.0266C101.157 61.999 101.089 61.8848 101.117 61.7742C101.144 61.6633 101.255 61.5942 101.364 61.6218C102.542 61.9263 103.809 62.21 105.227 62.4937C105.339 62.5144 105.41 62.6252 105.39 62.7395C105.373 62.8362 105.285 62.9055 105.19 62.9055Z" fill="#767676" fill-opacity="1.000000" fill-rule="nonzero"/>
    <path id="Vector" d="M98.889 61.4836C98.8755 61.4836 98.8585 61.4836 98.845 61.4802L98.0289 61.2969C97.9171 61.2727 97.8494 61.1619 97.8732 61.0476C97.8969 60.937 98.0052 60.8643 98.1169 60.8884L98.933 61.0718C99.0448 61.0962 99.1125 61.2068 99.0889 61.321C99.0685 61.418 98.9839 61.4836 98.889 61.4836Z" fill="#767676" fill-opacity="1.000000" fill-rule="nonzero"/>
    <path id="Vector" d="M58.4611 63.8257C58.4271 63.8257 58.3899 63.8154 58.3594 63.7981C58.2612 63.7393 58.2274 63.6113 58.2849 63.511L59.0603 62.1477C59.1179 62.0474 59.2432 62.0129 59.3414 62.0718C59.4396 62.1304 59.4734 62.2585 59.4159 62.3589L58.6405 63.7219C58.5999 63.7878 58.5287 63.8257 58.4611 63.8257Z" fill="#767676" fill-opacity="1.000000" fill-rule="nonzero"/>
    <path id="Vector" d="M49.4482 77.7092C49.411 77.7092 49.3704 77.6987 49.3365 77.6746C49.2417 77.6123 49.218 77.481 49.2789 77.384L57.0671 65.3757C57.1315 65.2791 57.2567 65.2546 57.3516 65.3169C57.4464 65.3794 57.4701 65.5107 57.4091 65.6077L49.621 77.6157C49.5803 77.678 49.516 77.7092 49.4482 77.7092Z" fill="#767676" fill-opacity="1.000000" fill-rule="nonzero"/>
    <path id="Vector" d="M61.3492 82.9822C61.3357 82.9822 61.3188 82.9822 61.3053 82.9788C61.1935 82.9546 61.1257 82.8438 61.1495 82.7297C62.0977 78.3533 63.2523 73.9666 64.3698 69.7251C65.0741 67.0544 65.7987 64.2937 66.4658 61.564C66.4929 61.4534 66.6046 61.3843 66.713 61.4119C66.8214 61.4395 66.889 61.5537 66.8619 61.6643C66.1949 64.3975 65.4669 67.1582 64.7626 69.8325C63.6451 74.0703 62.4938 78.4502 61.5457 82.8162C61.5287 82.9165 61.4441 82.9822 61.3492 82.9822Z" fill="#767676" fill-opacity="1.000000" fill-rule="nonzero"/>
    <path id="Vector" d="M44.5074 73.8455C44.4601 73.8455 44.4126 73.8281 44.3754 73.7935C44.2908 73.7175 44.2806 73.5859 44.3517 73.4995L51.1139 65.4319C51.1884 65.3455 51.3171 65.335 51.4017 65.4077C51.4865 65.4836 51.4966 65.6152 51.4254 65.7017L44.6632 73.7693C44.6226 73.8213 44.5651 73.8455 44.5074 73.8455Z" fill="#767676" fill-opacity="1.000000" fill-rule="nonzero"/>
    <path id="Vector" d="M55.5116 80.2249C55.4879 80.2249 55.4642 80.2212 55.4406 80.2109C55.3356 80.1694 55.2814 80.0518 55.3186 79.9412C56.8187 75.8069 58.6066 71.7175 60.3336 67.7634C60.8855 66.5042 61.4341 65.2412 61.9792 63.9785C62.0233 63.8748 62.1451 63.8264 62.2501 63.8713C62.3551 63.9163 62.3992 64.0408 62.3551 64.1479C61.8134 65.4143 61.2614 66.6736 60.7095 67.9363C58.9858 71.8838 57.2013 75.9695 55.7047 80.0898C55.6742 80.1729 55.5963 80.2249 55.5116 80.2249Z" fill="#767676" fill-opacity="1.000000" fill-rule="nonzero"/>
    <path id="Vector" d="M52.718 63.7324C52.6707 63.7324 52.6266 63.7151 52.5861 63.6841C52.4979 63.6113 52.4878 63.48 52.559 63.3899L54.2114 61.3765C54.2825 61.2864 54.4146 61.2761 54.4993 61.3486C54.5873 61.4214 54.5974 61.553 54.5264 61.6428L52.8738 63.6565C52.8333 63.7083 52.7756 63.7324 52.718 63.7324Z" fill="#767676" fill-opacity="1.000000" fill-rule="nonzero"/>
    <path id="Vector" d="M55.5116 80.2249C55.4879 80.2249 55.4642 80.2212 55.4406 80.2109C55.3356 80.1694 55.2814 80.0518 55.3186 79.9412C56.8187 75.8069 58.6066 71.7175 60.3336 67.7634C60.8855 66.5042 61.4341 65.2412 61.9792 63.9785C62.0233 63.8748 62.1451 63.8264 62.2501 63.8713C62.3551 63.9163 62.3992 64.0408 62.3551 64.1479C61.8134 65.4143 61.2614 66.6736 60.7095 67.9363C58.9858 71.8838 57.2013 75.9695 55.7047 80.0898C55.6742 80.1729 55.5963 80.2249 55.5116 80.2249Z" fill="#767676" fill-opacity="1.000000" fill-rule="nonzero"/>
    <path id="Vector" d="M76.1208 84.6321C76.0193 84.6321 75.9313 84.5525 75.9177 84.4487C75.4436 80.3594 75.105 76.1873 74.7765 72.1533C74.4955 68.7007 74.2042 65.127 73.8318 61.6257C73.8182 61.5117 73.8995 61.408 74.0112 61.3975C74.123 61.3835 74.2246 61.4668 74.2382 61.5808C74.6106 65.0889 74.9019 68.6626 75.1829 72.1187C75.5114 76.1492 75.85 80.3179 76.324 84.4001C76.3375 84.5144 76.2563 84.6182 76.1445 84.6321C76.1378 84.6321 76.131 84.6321 76.1208 84.6321Z" fill="#767676" fill-opacity="1.000000" fill-rule="nonzero"/>
    <path id="Vector" d="M83.3708 83.3657C83.2794 83.3657 83.1948 83.3035 83.1711 83.2065C82.0807 78.7056 80.7533 74.1838 79.47 69.8145C78.8909 67.8425 78.2915 65.8049 77.7227 63.7915C77.6923 63.6807 77.7532 63.563 77.8616 63.532C77.9698 63.5007 78.085 63.563 78.1155 63.6738C78.6843 65.6838 79.2837 67.7214 79.8594 69.6899C81.1427 74.0664 82.4735 78.5879 83.5638 83.1028C83.5909 83.2134 83.5233 83.3276 83.4149 83.3552C83.4048 83.3623 83.3878 83.3657 83.3708 83.3657Z" fill="#767676" fill-opacity="1.000000" fill-rule="nonzero"/>
    <path id="Vector" d="M91.7521 79.9753C91.6775 79.9753 91.6064 79.9338 91.5692 79.8611C90.384 77.4946 89.1989 75.0801 88.0543 72.7446C86.3917 69.3542 84.6749 65.8499 82.9243 62.4387C82.8735 62.335 82.9108 62.2102 83.0089 62.1584C83.1105 62.1064 83.2324 62.1445 83.2832 62.2449C85.0372 65.6631 86.754 69.1675 88.4166 72.5579C89.5612 74.8931 90.7463 77.3079 91.9281 79.6709C91.9789 79.7747 91.9382 79.8992 91.8401 79.9509C91.8164 79.9683 91.7859 79.9753 91.7521 79.9753Z" fill="#767676" fill-opacity="1.000000" fill-rule="nonzero"/>
    <path id="Vector" d="M96.5825 64.6531C96.5316 64.6531 96.4808 64.6357 96.4436 64.5942L93.4401 61.6882C93.3588 61.6086 93.3555 61.4771 93.4333 61.394C93.5112 61.311 93.6399 61.3076 93.7212 61.3872L96.7247 64.2932C96.8059 64.3728 96.8093 64.5042 96.7314 64.5872C96.6908 64.6321 96.6366 64.6531 96.5825 64.6531Z" fill="#767676" fill-opacity="1.000000" fill-rule="nonzero"/>
    <path id="Vector" d="M101.631 69.998C101.577 69.998 101.523 69.9773 101.486 69.9358L100.131 68.5034C100.053 68.4204 100.053 68.2891 100.135 68.2095C100.216 68.1299 100.344 68.1333 100.422 68.2129L101.777 69.6453C101.855 69.7283 101.855 69.8599 101.773 69.9395C101.733 69.981 101.682 69.998 101.631 69.998Z" fill="#767676" fill-opacity="1.000000" fill-rule="nonzero"/>
    <path id="Vector" d="M68.5719 78.5774C68.5652 78.5774 68.5618 78.5774 68.5549 78.5774C68.4432 78.5671 68.3586 78.4668 68.3688 78.3525C68.7378 73.6301 69.0663 69.4995 69.3778 65.7251C69.3879 65.6108 69.4895 65.5312 69.5979 65.5347C69.7096 65.5452 69.7943 65.6455 69.7842 65.7598C69.476 69.5339 69.1442 73.6648 68.775 78.3872C68.7683 78.4944 68.6803 78.5774 68.5719 78.5774Z" fill="#767676" fill-opacity="1.000000" fill-rule="nonzero"/>
    <path id="Vector" d="M68.0924 84.677C68.0857 84.677 68.0823 84.677 68.0754 84.677C67.9637 84.6667 67.8792 84.5664 67.8893 84.4521L68.3193 79.2629C68.3295 79.1487 68.431 79.0657 68.5394 79.0728C68.6511 79.083 68.7358 79.1833 68.7256 79.2976L68.2957 84.4868C68.2888 84.594 68.1974 84.677 68.0924 84.677Z" fill="#767676" fill-opacity="1.000000" fill-rule="nonzero"/>
    <path id="Vector" d="M97.1322 75.7444C97.0679 75.7444 97.007 75.7131 96.9663 75.658C93.5734 70.8594 90.2108 66.1475 86.9702 61.6465C86.9026 61.5532 86.9229 61.4216 87.0143 61.356C87.1057 61.2866 87.2344 61.3074 87.2987 61.4009C90.5359 65.9019 93.8984 70.6172 97.2947 75.4158C97.3624 75.509 97.3422 75.6406 97.2473 75.7063C97.2169 75.7305 97.1729 75.7444 97.1322 75.7444Z" fill="#767676" fill-opacity="1.000000" fill-rule="nonzero"/>
    <path id="Vector" d="M91.4122 27.4624C91.3546 27.4624 91.297 27.4382 91.2565 27.3899C91.1819 27.3032 91.1954 27.1685 91.2802 27.0957L104.354 15.8003C104.442 15.7241 104.571 15.738 104.642 15.8245C104.717 15.9109 104.703 16.0459 104.618 16.1184L91.5442 27.4141C91.507 27.4451 91.4596 27.4624 91.4122 27.4624Z" fill="#767676" fill-opacity="1.000000" fill-rule="nonzero"/>
    <path id="Vector" d="M84.1423 22.6362C84.1084 22.6362 84.0712 22.6257 84.0406 22.6086C83.9425 22.5498 83.9087 22.4216 83.9662 22.3213L84.7484 20.9514C84.806 20.8511 84.9313 20.8201 85.0295 20.8752C85.1277 20.9341 85.1616 21.062 85.104 21.1624L84.3218 22.5325C84.2811 22.5981 84.21 22.6362 84.1423 22.6362Z" fill="#767676" fill-opacity="1.000000" fill-rule="nonzero"/>
    <path id="Vector" d="M86.1475 19.3877C86.1102 19.3877 86.0696 19.3774 86.0358 19.353C85.9409 19.2908 85.9172 19.1594 85.9781 19.0625L93.7664 7.05396C93.8307 6.95728 93.9561 6.93286 94.0508 6.99536C94.1456 7.05762 94.1693 7.18896 94.1084 7.28589L86.3202 19.2942C86.2761 19.353 86.2118 19.3877 86.1475 19.3877Z" fill="#767676" fill-opacity="1.000000" fill-rule="nonzero"/>
    <path id="Vector" d="M77.6572 19.9478C77.6403 19.9478 77.6233 19.9443 77.6063 19.9409C77.498 19.9133 77.4303 19.7991 77.4574 19.6885C77.8265 18.1973 78.199 16.7097 78.5714 15.2222C79.6686 10.8457 80.7996 6.32422 81.829 1.85449C81.8561 1.74365 81.9645 1.67114 82.0762 1.69873C82.1846 1.72656 82.2556 1.83716 82.2285 1.95142C81.1991 6.42456 80.0648 10.9531 78.9677 15.3293C78.5952 16.8169 78.2227 18.3081 77.8535 19.7957C77.8298 19.8855 77.7487 19.9478 77.6572 19.9478Z" fill="#767676" fill-opacity="1.000000" fill-rule="nonzero"/>
    <path id="Vector" d="M96.1202 14.5342C96.0729 14.5342 96.0254 14.5168 95.9882 14.4822C95.9036 14.4062 95.8934 14.2747 95.9645 14.1882L98.7208 10.8982C98.7954 10.8118 98.9241 10.8013 99.0087 10.874C99.0934 10.95 99.1035 11.0815 99.0323 11.168L96.276 14.458C96.2354 14.51 96.1779 14.5342 96.1202 14.5342Z" fill="#767676" fill-opacity="1.000000" fill-rule="nonzero"/>
    <path id="Vector" d="M85.96 9.54517C85.9363 9.54517 85.9092 9.54175 85.8855 9.53125C85.7805 9.48975 85.7297 9.36865 85.7704 9.26147C86.0344 8.57983 86.3257 7.90527 86.6033 7.25146C86.9927 6.34155 87.3618 5.48364 87.6768 4.58765C87.714 4.48047 87.8325 4.42163 87.9375 4.46313C88.0425 4.50122 88.1 4.62231 88.0593 4.72949C87.7377 5.6394 87.3517 6.54565 86.9758 7.4209C86.6981 8.06787 86.4103 8.73901 86.1462 9.41699C86.1157 9.49658 86.0413 9.54517 85.96 9.54517Z" fill="#767676" fill-opacity="1.000000" fill-rule="nonzero"/>
    <path id="Vector" d="M95.7805 27.718C95.7061 27.718 95.6349 27.6765 95.6011 27.6074C95.5503 27.5037 95.5875 27.3792 95.6857 27.3271L104.679 22.5081C104.781 22.4561 104.903 22.4941 104.954 22.5945C105.005 22.6982 104.967 22.8228 104.869 22.8748L95.8754 27.6938C95.8448 27.7112 95.8143 27.718 95.7805 27.718Z" fill="#767676" fill-opacity="1.000000" fill-rule="nonzero"/>
    <path id="Vector" d="M105.323 22.5911C105.248 22.5911 105.177 22.5496 105.143 22.4805C105.089 22.3765 105.13 22.252 105.228 22.2002L107.453 21.01C107.554 20.958 107.676 20.9961 107.727 21.0964C107.781 21.2002 107.74 21.3247 107.642 21.3767L105.418 22.5703C105.391 22.5842 105.357 22.5911 105.323 22.5911Z" fill="#767676" fill-opacity="1.000000" fill-rule="nonzero"/>
    <path id="Vector" d="M100.383 29.2163C100.298 29.2163 100.217 29.1609 100.19 29.0745C100.152 28.9636 100.21 28.8462 100.318 28.8081L107.842 26.1963C107.947 26.1616 108.066 26.217 108.103 26.3276C108.14 26.4385 108.083 26.5562 107.974 26.594L100.45 29.2058C100.427 29.2129 100.406 29.2163 100.383 29.2163Z" fill="#767676" fill-opacity="1.000000" fill-rule="nonzero"/>
    <path id="Vector" d="M85.5881 27.5488C85.5408 27.5488 85.4967 27.5315 85.4562 27.5002C85.368 27.4277 85.3579 27.2961 85.4291 27.2063L93.2139 17.71C93.2885 17.6199 93.4171 17.6096 93.5017 17.6821C93.5898 17.7549 93.6 17.8862 93.5288 17.9763L85.7439 27.4727C85.7067 27.521 85.6492 27.5488 85.5881 27.5488Z" fill="#767676" fill-opacity="1.000000" fill-rule="nonzero"/>
    <path id="Vector" d="M81.4196 20.8164C81.3925 20.8164 81.3654 20.8096 81.3383 20.7991C81.2333 20.7542 81.1892 20.6296 81.2333 20.5225C82.6351 17.2566 83.8812 14.3022 84.9648 11.2336C85.0021 11.1265 85.1206 11.0676 85.2256 11.1091C85.3306 11.1472 85.3881 11.2683 85.3475 11.3755C84.2639 14.4543 83.011 17.4158 81.6057 20.6885C81.5719 20.7715 81.4974 20.8164 81.4196 20.8164Z" fill="#767676" fill-opacity="1.000000" fill-rule="nonzero"/>
    <path id="Vector" d="M69.3252 22.1997C69.2236 22.1997 69.1356 22.1201 69.1221 22.0129C68.6582 17.7542 68.2654 13.4124 67.8895 9.21582C67.6254 6.28198 67.3511 3.24805 67.0565 0.265869C67.0464 0.151611 67.1276 0.0478516 67.2394 0.0375977C67.3511 0.0270996 67.4526 0.110107 67.4629 0.224365C67.7609 3.20654 68.0317 6.2439 68.2959 9.17773C68.6718 13.3708 69.0645 17.709 69.5284 21.9644C69.542 22.0786 69.4607 22.1824 69.3489 22.1963C69.3422 22.1997 69.3353 22.1997 69.3252 22.1997Z" fill="#767676" fill-opacity="1.000000" fill-rule="nonzero"/>
    <path id="Vector" d="M65.8596 23.1416C65.7715 23.1416 65.6869 23.0791 65.6632 22.9893L62.2397 10.4585C62.2092 10.3479 62.2736 10.2336 62.382 10.2026C62.4904 10.1714 62.6021 10.2371 62.6326 10.3479L66.056 22.8787C66.0864 22.9893 66.0221 23.1035 65.9138 23.1345C65.8934 23.1416 65.8765 23.1416 65.8596 23.1416Z" fill="#767676" fill-opacity="1.000000" fill-rule="nonzero"/>
    <path id="Vector" d="M61.51 7.20654C61.4219 7.20654 61.3373 7.14429 61.3136 7.0542L59.8169 1.5708C59.7864 1.46021 59.8507 1.34595 59.9591 1.31494C60.0675 1.28369 60.1792 1.34937 60.2097 1.46021L61.7064 6.9436C61.7368 7.0542 61.6725 7.16846 61.5642 7.19946C61.5438 7.20312 61.5269 7.20654 61.51 7.20654Z" fill="#767676" fill-opacity="1.000000" fill-rule="nonzero"/>
    <path id="Vector" d="M61.9602 25.3108C61.8857 25.3108 61.8146 25.2693 61.7773 25.1968C58.1609 17.9211 54.7815 11.3167 51.4495 5.00635C51.3953 4.90601 51.4326 4.77808 51.5308 4.72266C51.6289 4.66748 51.7543 4.70532 51.8085 4.80566C55.1404 11.1196 58.5199 17.7273 62.1396 25.0063C62.1904 25.1101 62.1498 25.2346 62.0516 25.2866C62.0211 25.304 61.9907 25.3108 61.9602 25.3108Z" fill="#767676" fill-opacity="1.000000" fill-rule="nonzero"/>
    <path id="Vector" d="M54.1285 27.5244C54.0778 27.5244 54.027 27.5071 53.9897 27.4656L46.662 20.3806C46.5807 20.301 46.5774 20.1694 46.6553 20.0864C46.7332 20.0034 46.8618 20 46.9431 20.0796L54.2708 27.1646C54.3521 27.2441 54.3553 27.3757 54.2775 27.4587C54.2369 27.5002 54.1827 27.5244 54.1285 27.5244Z" fill="#767676" fill-opacity="1.000000" fill-rule="nonzero"/>
    <path id="Vector" d="M44.4728 18.0696C44.4186 18.0696 44.3645 18.0488 44.3271 18.0073L40.02 13.4438C39.9421 13.3608 39.9454 13.2295 40.0267 13.1499C40.108 13.0703 40.2367 13.0737 40.3146 13.1567L44.6218 17.72C44.6997 17.803 44.6963 17.9346 44.615 18.0142C44.5745 18.0486 44.5236 18.0696 44.4728 18.0696Z" fill="#767676" fill-opacity="1.000000" fill-rule="nonzero"/>
    <path id="Vector" d="M40.5149 27.272C40.4845 27.272 40.454 27.2649 40.4269 27.2512L33.1499 23.6877C33.0483 23.6394 33.0043 23.5149 33.0552 23.4075C33.1025 23.3037 33.2278 23.2588 33.3293 23.3108L40.6063 26.874C40.708 26.9224 40.752 27.0471 40.7012 27.1543C40.6674 27.2268 40.5928 27.272 40.5149 27.272Z" fill="#767676" fill-opacity="1.000000" fill-rule="nonzero"/>
    <path id="Vector" d="M73.6307 20.5293C73.6274 20.5293 73.6206 20.5293 73.6172 20.5293C73.5055 20.5225 73.4209 20.4221 73.4276 20.3079C73.4615 19.7786 73.4954 19.2529 73.5258 18.7236C73.7086 15.7585 73.8983 12.697 74.2538 9.69409C74.2673 9.57983 74.369 9.50024 74.4807 9.51074C74.5924 9.52441 74.6737 9.62817 74.6602 9.74243C74.3047 12.7314 74.115 15.7898 73.9321 18.7478C73.8983 19.2771 73.8678 19.8064 73.834 20.3323C73.8271 20.4429 73.7357 20.5293 73.6307 20.5293Z" fill="#767676" fill-opacity="1.000000" fill-rule="nonzero"/>
    <path id="Vector" d="M74.8605 5.60474C74.8538 5.60474 74.8503 5.60474 74.8436 5.60474C74.7318 5.59448 74.6472 5.49414 74.6573 5.37988L75.0874 0.19043C75.0975 0.0761719 75.2025 -0.00341797 75.3075 0C75.4192 0.010498 75.5039 0.11084 75.4937 0.224854L75.0637 5.41455C75.0535 5.52173 74.9655 5.60474 74.8605 5.60474Z" fill="#767676" fill-opacity="1.000000" fill-rule="nonzero"/>
    <path id="Vector" d="M47.4158 10.9287C47.3549 10.9287 47.2939 10.9011 47.2533 10.8457C46.6979 10.0984 46.1392 9.31665 45.5974 8.55908L45.2791 8.11621C45.2114 8.02271 45.2317 7.89136 45.3231 7.82568C45.4146 7.75977 45.5432 7.7771 45.6075 7.87061L45.9259 8.31348C46.4677 9.06763 47.0229 9.84937 47.5784 10.5933C47.6461 10.6865 47.6292 10.8147 47.5377 10.8872C47.5038 10.9148 47.4598 10.9287 47.4158 10.9287Z" fill="#767676" fill-opacity="1.000000" fill-rule="nonzero"/>
    <path id="Vector" d="M58.8806 26.8257C58.8197 26.8257 58.7588 26.7981 58.7181 26.7427C56.4359 23.6431 54.1603 20.4602 51.9594 17.3811L50.4016 15.2017C50.334 15.1084 50.3542 14.9768 50.4457 14.9111C50.5371 14.8418 50.6658 14.8625 50.7301 14.9561L52.2877 17.1355C54.4888 20.2146 56.761 23.3938 59.0432 26.4937C59.111 26.5869 59.094 26.7185 59.0026 26.7876C58.9653 26.812 58.9213 26.8257 58.8806 26.8257Z" fill="#767676" fill-opacity="1.000000" fill-rule="nonzero"/>
    <path id="Vector" d="M47.5375 27.4763C47.4968 27.4763 47.4562 27.4661 47.4224 27.4382L41.7539 23.4421C41.6625 23.3765 41.6387 23.2449 41.7031 23.1516C41.7675 23.0581 41.8961 23.0339 41.9875 23.0996L47.656 27.0957C47.7474 27.1614 47.7711 27.293 47.7068 27.3865C47.6661 27.4453 47.6018 27.4763 47.5375 27.4763Z" fill="#767676" fill-opacity="1.000000" fill-rule="nonzero"/>
    <path id="Vector" d="M40.1658 22.2593C40.1251 22.2593 40.0845 22.2488 40.0507 22.2212L36.6678 19.8342C36.5764 19.7686 36.5526 19.637 36.6171 19.5437C36.6814 19.4502 36.8101 19.426 36.9015 19.4917L40.2843 21.8787C40.3757 21.9443 40.3994 22.0759 40.3351 22.1692C40.2944 22.228 40.2301 22.2593 40.1658 22.2593Z" fill="#767676" fill-opacity="1.000000" fill-rule="nonzero"/>
    <path id="Vector" d="M35.6207 54.8882L35.6207 55.7603C35.6207 56.4106 35.1061 56.9434 34.4695 56.9434L33.0946 56.9434C32.993 56.9434 32.9152 56.8604 32.9152 56.76L32.9152 51.9578C32.9152 51.854 32.993 51.7744 33.0946 51.7744L34.3542 51.7744C34.9908 51.7744 35.5056 52.3071 35.5056 52.9578L35.5056 53.4387C35.5056 53.6809 35.4413 53.9023 35.3092 54.0891C35.5056 54.2966 35.6207 54.5803 35.6207 54.8882ZM33.7854 53.7153L34.3577 53.7153C34.51 53.7153 34.6387 53.584 34.6387 53.4282L34.6387 52.9197C34.6387 52.7571 34.51 52.6255 34.3577 52.6255L33.7854 52.6255L33.7854 53.7153ZM34.7539 54.8467C34.7539 54.6841 34.6252 54.5527 34.4728 54.5527L33.7854 54.5527L33.7854 56.0889L34.4728 56.0889C34.6252 56.0889 34.7539 55.9573 34.7539 55.7844L34.7539 54.8467Z" fill="#767676" fill-opacity="1.000000" fill-rule="nonzero"/>
    <path id="Vector" d="M37.2917 52.6133L37.2917 53.7134L37.9283 53.7134C38.0299 53.7134 38.1078 53.793 38.1078 53.8967L38.1078 54.3535C38.1078 54.4573 38.0299 54.5369 37.9283 54.5369L37.2917 54.5369L37.2917 56.0972L38.2975 56.0972C38.399 56.0972 38.4769 56.1768 38.4769 56.2805L38.4769 56.7544C38.4769 56.8582 38.399 56.9377 38.2975 56.9377L36.5975 56.9377C36.496 56.9377 36.4181 56.8547 36.4181 56.7544L36.4181 51.9524C36.4181 51.8486 36.496 51.769 36.5975 51.769L38.2975 51.769C38.399 51.769 38.4769 51.8521 38.4769 51.9524L38.4769 52.4263C38.4769 52.5303 38.399 52.6099 38.2975 52.6099L37.2917 52.6099L37.2917 52.6133Z" fill="#767676" fill-opacity="1.000000" fill-rule="nonzero"/>
    <path id="Vector" d="M40.9799 53.0771L40.9799 52.9216C40.9799 52.759 40.8512 52.6345 40.692 52.6345L40.3601 52.6345C40.201 52.6345 40.0724 52.759 40.0724 52.9216L40.0724 53.3713C40.0724 53.5339 40.201 53.6584 40.3601 53.6653L40.692 53.6653C41.3353 53.6653 41.8501 54.1912 41.8501 54.8486L41.8501 55.7583C41.8501 56.4087 41.3286 56.9414 40.692 56.9414L40.3601 56.9414C39.7235 56.9414 39.202 56.4087 39.202 55.7583L39.202 55.1531C39.202 55.0491 39.2799 54.9695 39.3816 54.9695L39.8861 54.9695C39.9877 54.9695 40.0656 55.0527 40.0656 55.1531L40.0656 55.7964C40.0656 55.959 40.1942 56.0906 40.3534 56.0906L40.6852 56.0906C40.8444 56.0906 40.973 55.959 40.973 55.7964L40.973 54.8347C40.973 54.6721 40.8444 54.5476 40.6852 54.5476L40.3534 54.5476C39.7168 54.5405 39.1953 54.0217 39.1953 53.3713L39.1953 52.9492C39.1953 52.2988 39.7168 51.7661 40.3534 51.7661L40.6852 51.7661C41.3286 51.7661 41.8433 52.2988 41.8433 52.9492L41.8433 53.0737C41.8433 53.1775 41.7621 53.2571 41.6638 53.2571L41.1593 53.2571C41.0577 53.2642 40.9799 53.1812 40.9799 53.0771Z" fill="#767676" fill-opacity="1.000000" fill-rule="nonzero"/>
    <path id="Vector" d="M44.9292 51.9561L44.9292 52.4438C44.9292 52.5476 44.8412 52.6272 44.7498 52.6272L44.1267 52.6272L44.1267 56.7578C44.1267 56.8616 44.0488 56.9412 43.9473 56.9412L43.4393 56.9412C43.3445 56.9412 43.2599 56.8582 43.2599 56.7578L43.2599 52.6272L42.6436 52.6272C42.542 52.6272 42.4641 52.5439 42.4641 52.4438L42.4641 51.9561C42.4641 51.8521 42.542 51.7725 42.6436 51.7725L44.7463 51.7725C44.8412 51.769 44.9292 51.8521 44.9292 51.9561Z" fill="#767676" fill-opacity="1.000000" fill-rule="nonzero"/>
    <path id="Vector" d="M49.6721 56.0906L49.96 56.0906C50.0481 56.0906 50.1327 56.1736 50.1327 56.2739L50.1327 56.7549C50.1327 56.8586 50.0447 56.9382 49.9431 56.9382L48.5107 56.9382C47.9452 56.9382 47.4915 56.4712 47.4915 55.9038L47.4915 52.8074C47.4915 52.2297 47.9486 51.7661 48.5107 51.7661L49.1168 51.7661C49.6824 51.7661 50.1361 52.2332 50.1361 52.8074L50.1361 55.3572C50.1428 55.6858 49.9464 55.9661 49.6721 56.0906ZM49.2726 52.8108C49.2726 52.707 49.1846 52.6206 49.083 52.6206L48.548 52.6206C48.4464 52.6206 48.3617 52.7104 48.3617 52.8108L48.3617 55.9072C48.3617 56.0042 48.4497 56.0906 48.548 56.0906L49.2726 56.0906L49.2726 52.8108Z" fill="#767676" fill-opacity="1.000000" fill-rule="nonzero"/>
    <path id="Vector" d="M52.9712 51.769L53.4757 51.769C53.5773 51.769 53.6552 51.8589 53.6552 51.9629L53.6552 55.9966C53.6552 56.5122 53.2352 56.9412 52.7307 56.9412L51.9349 56.9412C51.427 56.9412 51.0105 56.5122 51.0105 55.9966L51.0105 51.9629C51.0105 51.8589 51.0884 51.769 51.1899 51.769L51.6979 51.769C51.7994 51.769 51.8773 51.8589 51.8773 51.9629L51.8773 55.9067C51.8773 56.0105 51.9655 56.0901 52.067 56.0901L52.6021 56.0901C52.7036 56.0901 52.7916 56.0105 52.7916 55.9067L52.7916 51.9629C52.7883 51.8589 52.8695 51.769 52.9712 51.769Z" fill="#767676" fill-opacity="1.000000" fill-rule="nonzero"/>
    <path id="Vector" d="M57.0857 56.1074L57.0857 56.7578C57.0857 56.8616 57.0044 56.9412 56.9062 56.9412L56.3916 56.9412C56.2968 56.9412 56.2189 56.8582 56.2189 56.7578L56.2189 56.0867L55.2504 56.0867L55.2504 56.7578C55.2504 56.8616 55.1725 56.9412 55.0709 56.9412L54.563 56.9412C54.4614 56.9412 54.3835 56.8582 54.3835 56.7578L54.3835 56.1074C54.3835 56.0762 54.3835 56.0554 54.3903 56.0105L55.0134 51.9316C55.0269 51.8347 55.1082 51.769 55.203 51.769L56.2866 51.769C56.3813 51.769 56.4525 51.8521 56.4661 51.9316L57.079 56.0105C57.0857 56.0554 57.0857 56.0762 57.0857 56.1074ZM56.1173 55.2493L55.7346 52.6409L55.3521 55.2493L56.1173 55.2493Z" fill="#767676" fill-opacity="1.000000" fill-rule="nonzero"/>
    <path id="Vector" d="M58.6764 51.9561L58.6764 56.1006L59.689 56.1006C59.7905 56.1006 59.8684 56.1802 59.8684 56.2839L59.8684 56.7578C59.8684 56.8616 59.7905 56.9412 59.689 56.9412L57.989 56.9412C57.8875 56.9412 57.8096 56.8582 57.8096 56.7578L57.8096 51.9561C57.8096 51.8521 57.8875 51.7725 57.989 51.7725L58.4969 51.7725C58.5985 51.769 58.6764 51.8521 58.6764 51.9561Z" fill="#767676" fill-opacity="1.000000" fill-rule="nonzero"/>
    <path id="Vector" d="M61.2441 56.9412L60.7396 56.9412C60.6381 56.9412 60.5602 56.8582 60.5602 56.7578L60.5602 51.9629C60.5602 51.8589 60.6415 51.769 60.7396 51.769L61.2441 51.769C61.3458 51.769 61.4237 51.8589 61.4237 51.9629L61.4237 56.7578C61.427 56.8616 61.3458 56.9412 61.2441 56.9412Z" fill="#767676" fill-opacity="1.000000" fill-rule="nonzero"/>
    <path id="Vector" d="M64.5778 51.9561L64.5778 52.4438C64.5778 52.5476 64.4897 52.6272 64.3983 52.6272L63.7753 52.6272L63.7753 56.7578C63.7753 56.8616 63.6974 56.9412 63.5958 56.9412L63.0879 56.9412C62.993 56.9412 62.9084 56.8582 62.9084 56.7578L62.9084 52.6272L62.2921 52.6272C62.1906 52.6272 62.1127 52.5439 62.1127 52.4438L62.1127 51.9561C62.1127 51.8521 62.1906 51.7725 62.2921 51.7725L64.3949 51.7725C64.4897 51.769 64.5778 51.8521 64.5778 51.9561Z" fill="#767676" fill-opacity="1.000000" fill-rule="nonzero"/>
    <path id="Vector" d="M67.2101 51.769L67.7146 51.769C67.8162 51.769 67.894 51.8521 67.894 51.9524L67.894 52.6824C67.894 52.762 67.8805 52.845 67.8433 52.9177L66.9257 54.8447L66.9257 56.7512C66.9257 56.855 66.8444 56.9346 66.7461 56.9346L66.2416 56.9346C66.14 56.9346 66.0621 56.8516 66.0621 56.7512L66.0621 54.8447L65.1377 52.9177C65.1072 52.845 65.0869 52.762 65.0869 52.6824L65.0869 51.9524C65.0869 51.8486 65.1648 51.769 65.2664 51.769L65.7743 51.769C65.8759 51.769 65.9537 51.8521 65.9537 51.9524L65.9537 52.5129C65.9537 52.5718 65.9673 52.6306 65.9978 52.6824L66.4956 53.7307L66.9933 52.6824C67.0137 52.6306 67.0306 52.5718 67.0306 52.5129L67.0306 51.9524C67.0306 51.8521 67.1085 51.769 67.2101 51.769Z" fill="#767676" fill-opacity="1.000000" fill-rule="nonzero"/>
    <path id="Vector" d="M72.4047 54.3572C72.4047 54.9246 71.9578 55.3848 71.399 55.3848C70.8505 55.3848 70.3933 54.928 70.3933 54.3572C70.3933 53.7966 70.8505 53.3296 71.399 53.3296C71.9543 53.3296 72.4047 53.7932 72.4047 54.3572Z" fill="#767676" fill-opacity="1.000000" fill-rule="nonzero"/>
    <path id="Vector" d="M77.7852 54.886L77.7852 55.7578C77.7852 56.4082 77.2705 56.9409 76.6338 56.9409L75.259 56.9409C75.1575 56.9409 75.0796 56.8579 75.0796 56.7576L75.0796 51.9558C75.0796 51.8521 75.1609 51.7725 75.259 51.7725L76.5187 51.7725C77.1553 51.7725 77.67 52.3052 77.67 52.9556L77.67 53.4365C77.67 53.6787 77.6057 53.9001 77.4736 54.0869C77.6666 54.2944 77.7852 54.5781 77.7852 54.886ZM75.9464 53.7131L76.5187 53.7131C76.6711 53.7131 76.7998 53.5818 76.7998 53.426L76.7998 52.9175C76.7998 52.7549 76.6711 52.6235 76.5187 52.6235L75.9464 52.6235L75.9464 53.7131ZM76.9149 54.8445C76.9149 54.6819 76.7863 54.5505 76.6338 54.5505L75.9464 54.5505L75.9464 56.0864L76.6338 56.0864C76.7863 56.0864 76.9149 55.9551 76.9149 55.782L76.9149 54.8445Z" fill="#767676" fill-opacity="1.000000" fill-rule="nonzero"/>
    <path id="Vector" d="M79.4546 52.6133L79.4546 53.7134L80.0912 53.7134C80.1927 53.7134 80.2706 53.793 80.2706 53.8967L80.2706 54.3535C80.2706 54.4573 80.1927 54.5369 80.0912 54.5369L79.4546 54.5369L79.4546 56.0972L80.4603 56.0972C80.5619 56.0972 80.6398 56.1768 80.6398 56.2805L80.6398 56.7544C80.6398 56.8582 80.5619 56.9377 80.4603 56.9377L78.7604 56.9377C78.6588 56.9377 78.5809 56.8547 78.5809 56.7544L78.5809 51.9524C78.5809 51.8486 78.6588 51.769 78.7604 51.769L80.4603 51.769C80.5619 51.769 80.6398 51.8521 80.6398 51.9524L80.6398 52.4263C80.6398 52.5303 80.5619 52.6099 80.4603 52.6099L79.4546 52.6099L79.4546 52.6133Z" fill="#767676" fill-opacity="1.000000" fill-rule="nonzero"/>
    <path id="Vector" d="M83.1427 53.0771L83.1427 52.9216C83.1427 52.759 83.014 52.6345 82.8549 52.6345L82.5229 52.6345C82.3639 52.6345 82.2352 52.759 82.2352 52.9216L82.2352 53.3713C82.2352 53.5339 82.3639 53.6584 82.5229 53.6653L82.8549 53.6653C83.4982 53.6653 84.0129 54.1912 84.0129 54.8486L84.0129 55.7583C84.0129 56.4087 83.4915 56.9414 82.8549 56.9414L82.5229 56.9414C81.8864 56.9414 81.365 56.4087 81.365 55.7583L81.365 55.1531C81.365 55.0491 81.4429 54.9695 81.5444 54.9695L82.049 54.9695C82.1505 54.9695 82.2284 55.0527 82.2284 55.1531L82.2284 55.7964C82.2284 55.959 82.3571 56.0906 82.5162 56.0906L82.848 56.0906C83.0072 56.0906 83.1359 55.959 83.1359 55.7964L83.1359 54.8347C83.1359 54.6721 83.0072 54.5476 82.848 54.5476L82.5162 54.5476C81.8796 54.5405 81.3582 54.0217 81.3582 53.3713L81.3582 52.9492C81.3582 52.2988 81.8796 51.7661 82.5162 51.7661L82.848 51.7661C83.4915 51.7661 84.0061 52.2988 84.0061 52.9492L84.0061 53.0737C84.0061 53.1775 83.9249 53.2571 83.8267 53.2571L83.3221 53.2571C83.224 53.2642 83.1427 53.1812 83.1427 53.0771Z" fill="#767676" fill-opacity="1.000000" fill-rule="nonzero"/>
    <path id="Vector" d="M87.09 51.9561L87.09 52.4438C87.09 52.5476 87.002 52.6272 86.9105 52.6272L86.2874 52.6272L86.2874 56.7578C86.2874 56.8616 86.2095 56.9412 86.1079 56.9412L85.6 56.9412C85.5051 56.9412 85.4205 56.8582 85.4205 56.7578L85.4205 52.6272L84.8042 52.6272C84.7026 52.6272 84.6248 52.5439 84.6248 52.4438L84.6248 51.9561C84.6248 51.8521 84.7026 51.7725 84.8042 51.7725L86.9071 51.7725C87.0052 51.769 87.09 51.8521 87.09 51.9561Z" fill="#767676" fill-opacity="1.000000" fill-rule="nonzero"/>
    <path id="Vector" d="M92.2332 52.9521L92.2332 53.426C92.2332 54.0764 91.7117 54.6094 91.0819 54.6094L90.5266 54.6094L90.5266 56.7576C90.5266 56.8613 90.4453 56.9409 90.347 56.9409L89.8425 56.9409C89.741 56.9409 89.6631 56.8579 89.6631 56.7576L89.6631 51.9558C89.6631 51.8521 89.7444 51.7725 89.8425 51.7725L91.0853 51.7725C91.7117 51.769 92.2332 52.3018 92.2332 52.9521ZM91.3663 52.9141C91.3663 52.7515 91.2444 52.6201 91.0853 52.6201L90.5299 52.6201L90.5299 53.7131L91.0853 53.7131C91.2444 53.7131 91.3663 53.5818 91.3663 53.426L91.3663 52.9141Z" fill="#767676" fill-opacity="1.000000" fill-rule="nonzero"/>
    <path id="Vector" d="M94.8129 54.5261L95.463 55.7681C95.5002 55.8408 95.5138 55.9307 95.5138 56.0103L95.5138 56.7507C95.5138 56.8545 95.4427 56.9341 95.3412 56.9341L94.8365 56.9341C94.735 56.9341 94.647 56.8545 94.647 56.7507L94.647 56.2351C94.647 56.1521 94.6334 56.0725 94.5962 55.9827L93.8241 54.5193L93.8241 56.7576C93.8241 56.8613 93.7429 56.9409 93.6447 56.9409L93.1401 56.9409C93.0453 56.9409 92.9607 56.8579 92.9607 56.7576L92.9607 51.9558C92.9607 51.8521 93.0487 51.7725 93.1401 51.7725L94.3896 51.7725C95.0262 51.7725 95.5375 52.3052 95.5375 52.9556L95.5375 53.4226C95.5375 53.9209 95.2328 54.3464 94.8129 54.5261ZM94.3862 52.6201L93.8208 52.6201L93.8208 53.7202L94.3862 53.7202C94.5386 53.7202 94.6672 53.5886 94.6672 53.4158L94.6672 52.9072C94.6707 52.7446 94.5386 52.6201 94.3862 52.6201Z" fill="#767676" fill-opacity="1.000000" fill-rule="nonzero"/>
    <path id="Vector" d="M96.9468 56.9412L96.4423 56.9412C96.3407 56.9412 96.2628 56.8582 96.2628 56.7578L96.2628 51.9629C96.2628 51.8589 96.3441 51.769 96.4423 51.769L96.9468 51.769C97.0485 51.769 97.1263 51.8589 97.1263 51.9629L97.1263 56.7578C97.1296 56.8616 97.0485 56.9412 96.9468 56.9412Z" fill="#767676" fill-opacity="1.000000" fill-rule="nonzero"/>
    <path id="Vector" d="M99.8822 54.5471L100.387 54.5471C100.488 54.5471 100.566 54.6372 100.566 54.7375L100.566 55.9934C100.566 56.5088 100.153 56.9377 99.6418 56.9377L98.8461 56.9377C98.3381 56.9377 97.9216 56.5088 97.9216 55.9934L97.9216 52.7136C97.9216 52.1877 98.3347 51.769 98.8461 51.769L99.6418 51.769C100.156 51.769 100.566 52.1912 100.566 52.7136L100.566 53.5266C100.566 53.6304 100.485 53.7202 100.387 53.7202L99.8822 53.7202C99.7806 53.7202 99.7028 53.6304 99.7028 53.5266L99.7028 52.7966C99.7028 52.6929 99.6147 52.6133 99.5233 52.6133L98.9814 52.6133C98.8799 52.6133 98.7919 52.6963 98.7919 52.7966L98.7919 55.8999C98.7919 56.0037 98.8799 56.0833 98.9814 56.0833L99.5233 56.0833C99.618 56.0833 99.7028 56.0037 99.7028 55.8999L99.7028 54.741C99.7028 54.6372 99.7841 54.5471 99.8822 54.5471Z" fill="#767676" fill-opacity="1.000000" fill-rule="nonzero"/>
    <path id="Vector" d="M102.244 52.6133L102.244 53.7134L102.88 53.7134C102.982 53.7134 103.06 53.793 103.06 53.8967L103.06 54.3535C103.06 54.4573 102.982 54.5369 102.88 54.5369L102.244 54.5369L102.244 56.0972L103.249 56.0972C103.351 56.0972 103.429 56.1768 103.429 56.2805L103.429 56.7544C103.429 56.8582 103.351 56.9377 103.249 56.9377L101.549 56.9377C101.448 56.9377 101.37 56.8547 101.37 56.7544L101.37 51.9524C101.37 51.8486 101.448 51.769 101.549 51.769L103.249 51.769C103.351 51.769 103.429 51.8521 103.429 51.9524L103.429 52.4263C103.429 52.5303 103.351 52.6099 103.249 52.6099L102.244 52.6099L102.244 52.6133Z" fill="#767676" fill-opacity="1.000000" fill-rule="nonzero"/>
    <path id="Vector" d="M106.124 52.5718C111.349 52.5718 116.574 52.5718 121.799 52.5718C122.459 52.5718 122.459 51.5273 121.799 51.5273C116.574 51.5273 111.349 51.5273 106.124 51.5273C105.467 51.5273 105.467 52.5718 106.124 52.5718Z" fill="#767676" fill-opacity="1.000000" fill-rule="nonzero"/>
    <path id="Vector" d="M106.124 54.8C109.531 54.8 112.937 54.8 116.347 54.8C117.007 54.8 117.007 53.7554 116.347 53.7554C112.941 53.7554 109.534 53.7554 106.124 53.7554C105.467 53.7554 105.467 54.8 106.124 54.8Z" fill="#767676" fill-opacity="1.000000" fill-rule="nonzero"/>
    <path id="Vector" d="M106.124 56.8894C107.668 56.8894 109.213 56.8894 110.757 56.8894C111.417 56.8894 111.417 55.8442 110.757 55.8442C109.213 55.8442 107.668 55.8442 106.124 55.8442C105.467 55.8442 105.467 56.8894 106.124 56.8894Z" fill="#767676" fill-opacity="1.000000" fill-rule="nonzero"/>
    <path id="Vector" d="M29.6638 51.5273C24.4388 51.5273 19.214 51.5273 13.9891 51.5273C13.3289 51.5273 13.3289 52.5718 13.9891 52.5718C19.214 52.5718 24.4388 52.5718 29.6638 52.5718C30.3241 52.5718 30.3241 51.5273 29.6638 51.5273Z" fill="#767676" fill-opacity="1.000000" fill-rule="nonzero"/>
    <path id="Vector" d="M29.6654 53.7554C26.2589 53.7554 22.8524 53.7554 19.4425 53.7554C18.7822 53.7554 18.7822 54.8 19.4425 54.8C22.849 54.8 26.2555 54.8 29.6654 54.8C30.3257 54.8 30.3257 53.7554 29.6654 53.7554Z" fill="#767676" fill-opacity="1.000000" fill-rule="nonzero"/>
    <path id="Vector" d="M29.6647 55.8442C28.1205 55.8442 26.5764 55.8442 25.0323 55.8442C24.3721 55.8442 24.3721 56.8894 25.0323 56.8894C26.5764 56.8894 28.1205 56.8894 29.6647 56.8894C30.325 56.8894 30.325 55.8442 29.6647 55.8442Z" fill="#767676" fill-opacity="1.000000" fill-rule="nonzero"/>
</svg>
