<svg width="127.769165" height="88.988525" viewBox="0 0 127.769 88.9885" fill="none" xmlns="http://www.w3.org/2000/svg" xmlns:xlink="http://www.w3.org/1999/xlink">
    <desc>
        Created with Pixso.
    </desc>
    <defs/>
    <path id="Vector" d="M55.9631 79.2283C55.9924 80.7996 54.1652 82.457 52.2207 82.5469C52.4806 83.7627 52.7992 84.9487 52.2793 86.1907C51.5249 88.1475 49.4962 89.2136 47.4932 88.948C44.2743 88.5029 43.4028 83.9685 46.5081 82.6067C47.6104 82.1316 49.2618 83.2278 48.0461 84.324C47.3796 84.9451 46.2773 85.1245 46.7681 86.4265C47.0574 87.1372 47.8411 87.2869 48.4781 87.1672C49.5804 86.9614 50.1884 86.0112 50.2469 84.9451C50.3933 84.0247 50.0455 83.0781 49.8112 82.1279C48.361 81.417 47.2588 79.7859 47.6653 78.1284C47.9839 76.6768 49.7526 77.2681 49.0568 78.1882C48.7382 78.8093 49.2032 79.6997 49.7233 80.1748C49.8698 79.4939 50.1005 78.843 50.4775 78.2183C51.9314 75.9397 55.9045 75.8201 55.9631 79.2283ZM53.788 78.1621C52.5099 77.9265 51.99 79.6436 51.9607 80.564C51.9607 80.6238 51.9607 80.6836 51.9607 80.7437C52.3964 80.6836 52.8322 80.5378 53.1801 80.2983C54.0773 79.6736 54.7473 78.4875 53.788 78.1621Z" fill="#767676" fill-opacity="1.000000" fill-rule="nonzero"/>
    <path id="Vector" d="M59.7646 78.9629C59.4753 79.3184 58.9224 80.0293 58.3145 80.9197C58.5159 80.9197 58.6917 80.9497 58.7795 80.9497C59.2446 80.9795 58.7502 82.2253 58.2009 82.2253C57.9995 82.2253 57.7067 82.1956 57.4174 82.1956C56.0552 84.1821 54.6929 86.3147 54.8943 86.4944C55.2715 86.9097 57.0988 84.8069 57.8531 83.9165C58.3767 83.3254 59.0432 84.0063 58.4902 84.6274C57.1866 86.0193 55.2422 88.7466 53.6749 88.4509C52.514 88.2715 52.049 86.9395 53.0084 85.6077C53.4149 85.0166 54.2864 83.5911 55.1836 82.1394C55.0371 82.1394 54.8943 82.1394 54.7478 82.1394C54.2241 82.1394 54.7771 80.8635 55.3008 80.8337C55.4473 80.8337 55.7073 80.8337 55.9966 80.8337C56.923 79.3521 57.736 78.0764 57.9995 77.8406C58.4646 77.3955 59.0139 77.04 59.479 77.1597C59.9366 77.3018 60.6324 77.9565 59.7646 78.9629Z" fill="#767676" fill-opacity="1.000000" fill-rule="nonzero"/>
    <path id="Vector" d="M65.9414 84.6533C64.6633 86.0449 62.7518 88.7424 61.1846 88.4768C60.606 88.3572 60.3716 87.8259 60.4302 87.1711C59.9359 87.7324 59.2694 88.2373 58.5443 88.2373C56.1384 88.2373 56.8342 85.1245 58.255 83.4373C59.6759 81.7461 61.4739 80.564 62.6053 81.0354C62.9825 81.1851 63.2133 81.4805 63.3304 81.8062C63.389 81.7163 63.4183 81.6565 63.4769 81.6003C63.942 81.155 64.5205 80.7996 64.9563 80.9492C65.4507 81.0691 66.1172 81.75 65.2749 82.7563C64.2898 83.8826 62.4332 86.1348 62.7225 86.4304C62.9825 86.696 64.6084 84.7991 65.3628 83.9124C65.8828 83.3176 66.4906 84.0583 65.9414 84.6533ZM61.0967 84.6533C61.9976 83.5271 62.5468 82.5806 62.3453 82.4009C62.1732 82.2214 61.2725 83.052 60.2874 84.2678C59.3317 85.4539 58.8373 86.6099 58.9545 86.7258C59.2108 86.9915 60.1959 85.7793 61.0967 84.6533Z" fill="#767676" fill-opacity="1.000000" fill-rule="nonzero"/>
    <path id="Vector" d="M71.0475 78.9629C70.7582 79.3184 70.2052 80.0293 69.5973 80.9197C69.7987 80.9197 69.9745 80.9497 70.0624 80.9497C70.5275 80.9795 70.0331 82.2253 69.4839 82.2253C69.2825 82.2253 68.9895 82.1956 68.7002 82.1956C67.338 84.1821 65.9757 86.3147 66.1771 86.4944C66.5543 86.9097 68.3816 84.8069 69.136 83.9165C69.6597 83.3254 70.326 84.0063 69.7732 84.6274C68.4695 86.0193 66.525 88.7466 64.9578 88.4509C63.7969 88.2715 63.3318 86.9395 64.2913 85.6077C64.6978 85.0166 65.5692 83.5911 66.4664 82.1394C66.3199 82.1394 66.1771 82.1394 66.0306 82.1394C65.507 82.1394 66.0599 80.8635 66.5836 80.8337C66.7301 80.8337 66.9901 80.8337 67.2794 80.8337C68.2058 79.3521 69.0188 78.0764 69.2825 77.8406C69.7474 77.3955 70.2968 77.04 70.7618 77.1597C71.2196 77.3018 71.9153 77.9565 71.0475 78.9629Z" fill="#767676" fill-opacity="1.000000" fill-rule="nonzero"/>
    <path id="Vector" d="M73.1913 84.6533C71.8839 86.0452 70.0017 88.7424 68.4052 88.4768C67.2737 88.2712 67.1565 86.9355 68.0865 85.6035C69.0717 84.2417 70.1738 82.1355 70.6975 81.6042C71.1626 81.1589 71.7412 80.8035 72.1769 80.9531C72.6713 81.073 73.3671 81.7539 72.4955 82.7603C71.5105 83.8862 69.6538 86.1387 69.9431 86.4341C70.2031 86.6997 71.8584 84.803 72.6127 83.9163C73.1034 83.3176 73.7406 84.0583 73.1913 84.6533ZM73.2499 80.1487C71.8584 80.1487 73.2206 77.0061 74.8171 77.3616C76.2928 77.687 74.3521 80.5042 73.2499 80.1487Z" fill="#767676" fill-opacity="1.000000" fill-rule="nonzero"/>
    <path id="Vector" d="M80.1541 84.6533C79.7183 85.0986 79.2568 85.6897 78.7625 86.2546C77.6603 87.4705 77.3124 87.9158 76.2394 87.7063C76.0637 87.6763 75.9502 87.6165 75.833 87.5266C75.1372 88.0317 74.4414 88.2974 73.8593 88.2974C71.8854 88.2974 71.2483 86.251 72.4384 84.2083C73.6285 82.1355 75.5693 80.7998 76.9645 80.7998C78.4438 80.7998 79.5754 82.0457 78.4146 84.384C78.0375 85.1248 77.6017 85.7756 77.1366 86.3406C77.338 86.251 77.6859 85.9854 78.0375 85.5999C78.5867 85.0349 79.1689 84.354 79.5461 83.9089C80.0662 83.3176 80.7032 84.0586 80.1541 84.6533ZM76.8766 82.5469C76.0343 82.5469 73.1927 86.6362 74.0057 86.6362C74.6135 86.6362 77.7189 82.5469 76.8766 82.5469Z" fill="#767676" fill-opacity="1.000000" fill-rule="nonzero"/>
    <path id="Vector" d="M86.938 84.6533C85.6344 86.0452 83.7485 88.7424 82.152 88.4768C80.5554 88.1814 80.9618 86.6101 81.9213 85.2781C82.8477 83.9463 84.0378 82.936 83.8364 82.6704C83.6606 82.4048 81.9213 84.2119 81.3719 84.803C80.7347 85.7795 80.094 86.7297 79.6912 87.291C79.0833 88.1514 78.8196 88.4768 78.1239 88.4768C77.0509 88.4768 77.3402 87.0254 78.6475 85.2781C79.6033 83.9463 80.4456 82.5508 80.5919 82.2551C81.0277 81.3647 81.1705 80.9233 81.7821 80.9233C82.2472 80.9233 82.8257 81.2788 82.9136 81.8999C83.6094 81.3386 84.3345 80.9233 85.0594 80.9233C85.7552 80.9233 86.7402 81.7539 85.8138 83.1157C84.8873 84.4775 83.408 86.1387 83.6973 86.4341C83.9573 86.6997 85.5831 84.803 86.3375 83.9163C86.8501 83.3176 87.491 84.0586 86.938 84.6533Z" fill="#767676" fill-opacity="1.000000" fill-rule="nonzero"/>
    <path id="Vector" d="M12.5114 41.999L13.5074 43.8921C14.877 46.4961 13.9175 49.7698 11.3982 51.1541L9.16809 52.3813L13.7015 60.9863C13.9213 61.4016 13.771 61.8992 13.3683 62.1238L11.3433 63.2385C10.9368 63.4631 10.4497 63.3098 10.23 62.8982L0.101196 43.679C-0.11853 43.2637 0.0316162 42.7661 0.434448 42.5415L5.41101 39.803C7.93396 38.4148 11.1418 39.3989 12.5114 41.999ZM8.95935 43.7612C8.61511 43.1104 7.84607 42.8484 7.20898 43.2L4.97888 44.4272L7.28589 48.8047L9.51599 47.5774C10.1531 47.2258 10.3655 46.425 10.0359 45.804L8.95935 43.7612Z" fill="#767676" fill-opacity="1.000000" fill-rule="nonzero"/>
    <path id="Vector" d="M19.168 37.7266L20.8597 42.4219L23.5732 41.4006C24.0054 41.2397 24.4705 41.4568 24.6279 41.8982L25.3309 43.8511C25.4884 44.2925 25.276 44.7678 24.844 44.9287L22.1305 45.95L24.5254 52.5981L28.8134 50.9856C29.2455 50.825 29.7106 51.0417 29.868 51.4834L30.5931 53.4998C30.7506 53.9414 30.5382 54.4165 30.1061 54.5774L22.8556 57.3047C22.4235 57.4656 21.9584 57.2485 21.8009 56.8071L14.4186 36.3237C14.2611 35.8821 14.4735 35.407 14.9055 35.2461L22.1525 32.5188C22.5846 32.3579 23.0496 32.575 23.207 33.0164L23.9321 35.033C24.0896 35.4744 23.8772 35.9495 23.4451 36.1104L19.168 37.7266Z" fill="#767676" fill-opacity="1.000000" fill-rule="nonzero"/>
    <path id="Vector" d="M37.2515 29.2488L37.775 31.4001C37.8849 31.8564 37.5883 32.313 37.1746 32.4177L34.4318 33.1135L38.8553 51.3337C38.9652 51.79 38.7015 52.239 38.2548 52.3513L36.021 52.9163C35.6072 53.021 35.1349 52.759 35.025 52.3027L30.6014 34.0825L27.8879 34.771C27.4412 34.8833 27.0017 34.6138 26.8918 34.1575L26.3683 32.0061C26.2584 31.5498 26.5221 31.1008 26.9689 30.9885L36.2517 28.6353C36.6729 28.5305 37.1416 28.7925 37.2515 29.2488Z" fill="#767676" fill-opacity="1.000000" fill-rule="nonzero"/>
    <path id="Vector" d="M50.689 38.9539L54.3801 44.1245C54.5889 44.4348 54.7061 44.824 54.7573 45.1907L55.2114 48.5166C55.2737 48.9805 54.999 49.3958 54.5449 49.4595L52.2672 49.7849C51.8131 49.8486 51.37 49.5381 51.3077 49.074L50.9891 46.7471C50.938 46.3804 50.8245 46.0249 50.6084 45.647L46.2251 39.5564L47.5983 49.6353C47.6605 50.0991 47.3529 50.5183 46.8988 50.5818L44.6212 50.9072C44.1964 50.967 43.757 50.6567 43.6947 50.1926L40.7432 28.572C40.6809 28.1082 41.0215 27.6853 41.4426 27.6255L47.0746 26.8247C49.9382 26.417 52.5785 28.4822 52.9777 31.408L53.2632 33.5029C53.5708 35.7627 52.4686 37.8877 50.689 38.9539ZM47.5946 30.6484L45.0569 31.0112L45.7344 35.9685L48.2721 35.6055C48.9569 35.5083 49.4585 34.8274 49.356 34.0603L49.041 31.7671C48.9421 31.0337 48.2794 30.551 47.5946 30.6484Z" fill="#767676" fill-opacity="1.000000" fill-rule="nonzero"/>
    <path id="Vector" d="M68.2089 29.6792L68.7032 44.551C68.7838 46.9343 66.9419 48.9133 64.6422 48.9919L61.028 49.1155C58.6953 49.1978 56.7582 47.3496 56.6813 44.9663L56.1869 30.0945C56.1063 27.7114 57.9153 25.6985 60.2479 25.6199L63.8622 25.4966C66.1582 25.418 68.1283 27.2998 68.2089 29.6792ZM64.276 30.1545C64.2614 29.6831 63.8549 29.3613 63.3936 29.3799L60.962 29.4661C60.5006 29.481 60.1198 29.8328 60.1344 30.3003L60.6031 44.3977C60.6178 44.8691 61.028 45.2581 61.4857 45.2395L63.9171 45.1533C64.3785 45.1384 64.7594 44.7195 64.7411 44.2517L64.276 30.1545Z" fill="#767676" fill-opacity="1.000000" fill-rule="nonzero"/>
    <path id="Vector" d="M76.1993 26.5544L75.13 45.3618L79.722 45.635C80.1797 45.6611 80.5203 46.054 80.4946 46.5217L80.3738 48.6655C80.3481 49.1331 79.9636 49.481 79.506 49.4548L71.7941 48.9985C71.3363 48.9722 70.9957 48.5793 71.0214 48.1118L72.259 26.3225C72.2847 25.855 72.6692 25.5068 73.127 25.5332L75.423 25.6677C75.8844 25.6978 76.2249 26.0869 76.1993 26.5544Z" fill="#767676" fill-opacity="1.000000" fill-rule="nonzero"/>
    <path id="Vector" d="M88.3463 30.7681L87.6469 35.7214L90.5105 36.1443C90.9645 36.2117 91.2721 36.6306 91.2062 37.0945L90.9169 39.156C90.851 39.6199 90.4409 39.9341 89.9868 39.8667L87.1232 39.4441L86.1345 46.4587L90.6569 47.1248C91.111 47.1921 91.4186 47.6111 91.3527 48.075L91.0524 50.2039C90.9865 50.6677 90.5764 50.9819 90.1223 50.9146L82.4763 49.7886C82.0222 49.7212 81.7146 49.3022 81.7805 48.8384L84.8271 27.2327C84.8931 26.7688 85.3032 26.4543 85.7573 26.5217L93.4033 27.6479C93.8574 27.7153 94.165 28.1343 94.0991 28.5981L93.7988 30.7268C93.7329 31.1909 93.3228 31.5051 92.8687 31.4377L88.3463 30.7681Z" fill="#767676" fill-opacity="1.000000" fill-rule="nonzero"/>
    <path id="Vector" d="M106.951 30.7681L109.181 31.3479C109.628 31.4639 109.88 31.9465 109.767 32.4028L105.329 50.1704C104.761 52.4487 102.439 53.8518 100.213 53.272L96.7085 52.3591C94.4784 51.7791 93.1016 49.4072 93.6727 47.1323L98.111 29.365C98.2245 28.9084 98.6713 28.6094 99.118 28.7253L101.348 29.3052C101.795 29.4211 102.047 29.9038 101.934 30.3601L97.5909 47.7385C97.4775 48.1951 97.7704 48.6514 98.2172 48.7673L100.575 49.3809C101.022 49.4971 101.495 49.2388 101.608 48.7825L105.951 31.4041C106.057 30.9514 106.504 30.6521 106.951 30.7681Z" fill="#767676" fill-opacity="1.000000" fill-rule="nonzero"/>
    <path id="Vector" d="M122.819 57.8662L121.629 60.7434C121.446 61.1736 120.941 61.3533 120.549 61.1775L118.44 60.2383C118.018 60.0513 117.832 59.5649 118.015 59.1345L119.036 56.7327C119.117 56.5493 119.179 56.3923 119.23 56.1978L122.274 45.9426L117.044 54.604C116.828 54.948 116.407 55.0903 116.045 54.9294L113.752 53.9116C113.39 53.751 113.177 53.3281 113.273 52.9314L115.913 43.1179L110.64 52.3816C110.53 52.5537 110.464 52.707 110.387 52.8904L109.365 55.2922C109.182 55.7227 108.706 55.9133 108.285 55.7263L106.176 54.7871C105.755 54.6001 105.568 54.1138 105.751 53.6836L107 50.8325C107.04 50.739 107.132 50.5259 107.267 50.29L116.799 34.644C117.015 34.2998 117.436 34.1575 117.828 34.3335L120.087 35.3398C120.479 35.5156 120.662 35.9233 120.567 36.3201L117.597 48.0005L123.973 37.8315C124.189 37.4873 124.61 37.3452 124.972 37.5061L127.265 38.5237C127.656 38.6995 127.84 39.1074 127.744 39.5039L123.035 57.2939C122.951 57.5559 122.859 57.7727 122.819 57.8662Z" fill="#767676" fill-opacity="1.000000" fill-rule="nonzero"/>
    <path id="Vector" d="M66.4858 56.1265C66.4712 56.1265 66.4529 56.1265 66.4382 56.1265C66.4309 56.1265 66.4236 56.1265 66.4126 56.1265C66.4053 56.1265 66.3979 56.1265 66.387 56.1265C66.3723 56.1265 66.354 56.1265 66.3394 56.1265C43.1119 56.1265 22.6017 62.7783 10.2245 72.9473L16.0762 75.929L16.783 82.854C18.8629 80.9573 21.397 79.1313 24.3704 77.4255C35.4183 71.0764 50.3223 67.5784 66.3357 67.5784C66.3503 67.5784 66.3687 67.5784 66.3833 67.5784C66.3906 67.5784 66.3979 67.5784 66.4089 67.5784C66.4163 67.5784 66.4236 67.5784 66.4346 67.5784C66.4492 67.5784 66.4675 67.5784 66.4822 67.5784C82.4993 67.5784 97.4032 71.0764 108.447 77.4255C111.421 79.1353 113.955 80.9573 116.035 82.854L116.742 75.929L122.593 72.9473C110.223 62.7783 89.7131 56.1265 66.4858 56.1265Z" fill="#767676" fill-opacity="1.000000" fill-rule="nonzero"/>
    <path id="Vector" d="M41.4573 85.4319C42.684 85.4319 42.684 83.4902 41.4573 83.4902C40.2306 83.4902 40.2306 85.4319 41.4573 85.4319Z" fill="#767676" fill-opacity="1.000000" fill-rule="nonzero"/>
    <path id="Vector" d="M89.981 85.4319C91.2076 85.4319 91.2076 83.4902 89.981 83.4902C88.7543 83.4902 88.7543 85.4319 89.981 85.4319Z" fill="#767676" fill-opacity="1.000000" fill-rule="nonzero"/>
    <path id="Vector" d="M23.2183 72.4683C23.5588 73.0481 23.3757 73.7961 22.8081 74.144C22.2478 74.4883 21.5082 74.3049 21.1676 73.7251C20.8307 73.1528 21.0175 72.3933 21.5778 72.0493C22.1453 71.7012 22.8813 71.8958 23.2183 72.4683Z" fill="#FFFFFF" fill-opacity="1.000000" fill-rule="nonzero"/>
    <path id="Vector" d="M29.338 70.0251L29.77 70.9644C30.0923 71.6641 29.803 72.502 29.1183 72.835L27.6388 73.5459C27.5291 73.5984 27.4044 73.5535 27.3533 73.4412L24.9694 68.2705C24.9181 68.1582 24.962 68.031 25.0719 67.9788L26.4268 67.3276C27.1116 66.9985 27.9281 67.3052 28.2504 68.0049L28.4884 68.5212C28.6093 68.7832 28.6495 69.0562 28.6019 69.3218C28.9205 69.4453 29.1842 69.6885 29.338 70.0251ZM26.7783 69.7109L27.3934 69.4153C27.5582 69.3369 27.6315 69.1272 27.5546 68.959L27.3019 68.4089C27.2214 68.2332 27.0164 68.1582 26.8516 68.2368L26.2363 68.5325L26.7783 69.7109ZM28.3822 70.4255C28.3016 70.2498 28.0966 70.1748 27.9318 70.2534L27.1921 70.6089L27.9537 72.2627L28.6935 71.9072C28.8583 71.8286 28.9315 71.6191 28.8473 71.4358L28.3822 70.4255Z" fill="#FFFFFF" fill-opacity="1.000000" fill-rule="nonzero"/>
    <path id="Vector" d="M30.2343 66.7141L30.7177 67.9299L31.4207 67.6382C31.5342 67.5933 31.655 67.6458 31.7026 67.7578L31.9041 68.2629C31.948 68.3789 31.8967 68.5024 31.7869 68.551L31.0837 68.8428L31.7649 70.5637L32.8745 70.1035C32.9844 70.0586 33.1089 70.1111 33.1528 70.2234L33.3616 70.7434C33.4054 70.8594 33.3541 70.9827 33.2444 71.0315L31.3694 71.8059C31.256 71.8508 31.1351 71.7983 31.0875 71.686L28.9856 66.3887C28.9417 66.2764 28.9929 66.1492 29.1028 66.1006L30.9777 65.3262C31.0875 65.2812 31.212 65.3335 31.256 65.4458L31.4609 65.9658C31.5049 66.0781 31.4536 66.2053 31.3438 66.2539L30.2343 66.7141Z" fill="#FFFFFF" fill-opacity="1.000000" fill-rule="nonzero"/>
    <path id="Vector" d="M34.6837 65.6067L34.6251 65.4309C34.5629 65.2476 34.3688 65.1577 34.1893 65.2214L33.8159 65.356C33.6365 65.4197 33.5376 65.6143 33.5999 65.7976L33.772 66.3025C33.8342 66.4858 34.0282 66.5757 34.2113 66.5195L34.5848 66.385C35.3099 66.1267 36.0863 66.5122 36.339 67.2529L36.6868 68.2742C36.9358 69.0039 36.5549 69.812 35.8409 70.0664L35.4674 70.2009C34.7533 70.4553 33.9623 70.0664 33.7134 69.333L33.4827 68.6521C33.4424 68.5361 33.501 68.4126 33.6145 68.3716L34.182 68.1694C34.2955 68.1284 34.4164 68.1882 34.4567 68.3042L34.702 69.0264C34.7643 69.2095 34.962 69.3069 35.1415 69.2432L35.515 69.1086C35.6945 69.0449 35.7897 68.843 35.7274 68.6597L35.3575 67.5784C35.2953 67.395 35.1012 67.3052 34.9218 67.3689L34.5482 67.5037C33.8306 67.7505 33.0469 67.3765 32.7979 66.6467L32.6367 66.1716C32.3877 65.4421 32.7686 64.634 33.4827 64.3796L33.8562 64.2449C34.5812 63.9868 35.3612 64.3796 35.6102 65.1128L35.6578 65.2551C35.6981 65.3711 35.6395 65.4944 35.526 65.5356L34.9584 65.7378C34.8448 65.7825 34.724 65.7227 34.6837 65.6067Z" fill="#FFFFFF" fill-opacity="1.000000" fill-rule="nonzero"/>
    <path id="Vector" d="M38.9467 62.8535L39.1077 63.4109C39.1406 63.5308 39.071 63.6504 38.9612 63.6841L38.2509 63.8972L39.6167 68.6111C39.6497 68.7307 39.5874 68.8506 39.4702 68.8843L38.8916 69.0601C38.7855 69.0938 38.6573 69.03 38.6244 68.9104L37.2584 64.1965L36.5591 64.4099C36.4419 64.4436 36.3247 64.3799 36.2917 64.2603L36.1306 63.7029C36.0977 63.583 36.1599 63.4634 36.2771 63.4297L38.6793 62.7039C38.7891 62.6741 38.9137 62.7339 38.9467 62.8535Z" fill="#FFFFFF" fill-opacity="1.000000" fill-rule="nonzero"/>
    <path id="Vector" d="M45.7671 66.2275L46.104 66.1526C46.2029 66.1301 46.3274 66.2014 46.353 66.321L46.4739 66.8784C46.4995 66.9983 46.4189 67.1143 46.3018 67.144L44.6393 67.522C43.9838 67.6716 43.3356 67.249 43.1927 66.5867L42.4127 62.9912C42.2664 62.3213 42.6801 61.6592 43.3356 61.5132L44.0424 61.3523C44.6978 61.2026 45.3459 61.6255 45.4888 62.2952L46.1296 65.2585C46.2102 65.6326 46.0564 66.0105 45.7671 66.2275ZM44.4781 62.5198C44.4525 62.3999 44.328 62.3176 44.2108 62.3477L43.5883 62.4897C43.4711 62.5159 43.3905 62.6431 43.4198 62.7629L44.1998 66.3623C44.2255 66.4744 44.3463 66.553 44.4634 66.5269L45.302 66.3359L44.4781 62.5198Z" fill="#FFFFFF" fill-opacity="1.000000" fill-rule="nonzero"/>
    <path id="Vector" d="M48.7446 60.4285L49.3379 60.3237C49.4551 60.3013 49.5685 60.3911 49.5868 60.5107L50.3961 65.24C50.4987 65.8462 50.0922 66.4373 49.4989 66.542L48.5652 66.7068C47.9719 66.8115 47.3933 66.3962 47.2908 65.79L46.4816 61.0608C46.4596 60.9412 46.5365 60.8176 46.6537 60.7988L47.2468 60.6941C47.364 60.6716 47.4775 60.7615 47.4958 60.8813L48.2869 65.5056C48.3088 65.6255 48.426 65.7039 48.5432 65.6814L49.1694 65.5693C49.2866 65.5469 49.3745 65.4346 49.3525 65.3149L48.5615 60.6904C48.5505 60.5708 48.6274 60.4473 48.7446 60.4285Z" fill="#FFFFFF" fill-opacity="1.000000" fill-rule="nonzero"/>
    <path id="Vector" d="M54.4514 64.8066L54.5504 65.5735C54.5649 65.697 54.4845 65.8054 54.3636 65.8203L53.7557 65.9028C53.6459 65.9177 53.5397 65.8354 53.5214 65.7119L53.4188 64.9187L52.2764 65.0723L52.3789 65.8652C52.3936 65.9888 52.313 66.0972 52.1921 66.1123L51.5952 66.1946C51.4744 66.2095 51.3682 66.1272 51.3535 66.0037L51.2546 65.2368C51.251 65.2031 51.2473 65.177 51.2473 65.1208L51.3608 60.2085C51.3645 60.0925 51.4487 60.0027 51.5586 59.9878L52.8402 59.8157C52.9501 59.8008 53.049 59.8867 53.0782 59.9802L54.4258 64.698C54.4404 64.7466 54.4441 64.7729 54.4514 64.8066ZM53.1735 63.9497L52.324 60.9307L52.269 64.0696L53.1735 63.9497Z" fill="#FFFFFF" fill-opacity="1.000000" fill-rule="nonzero"/>
    <path id="Vector" d="M55.8406 59.6953L56.302 64.6077L57.5032 64.488C57.624 64.4768 57.7266 64.5627 57.7375 64.6863L57.7888 65.2476C57.7998 65.3708 57.7156 65.4756 57.5947 65.4868L55.5807 65.6851C55.4598 65.6963 55.3573 65.6104 55.3463 65.4868L54.8116 59.7964C54.8007 59.6729 54.8849 59.5681 55.0057 59.5569L55.6063 59.4971C55.7272 59.4858 55.8296 59.572 55.8406 59.6953Z" fill="#FFFFFF" fill-opacity="1.000000" fill-rule="nonzero"/>
    <path id="Vector" d="M59.4075 65.3521L58.8069 65.397C58.686 65.4043 58.5872 65.3147 58.5762 65.1912L58.1843 59.4971C58.177 59.3735 58.2649 59.2612 58.3821 59.2539L58.9827 59.209C59.1035 59.2014 59.2061 59.2986 59.2134 59.4221L59.6052 65.1162C59.6162 65.2397 59.5283 65.3445 59.4075 65.3521Z" fill="#FFFFFF" fill-opacity="1.000000" fill-rule="nonzero"/>
    <path id="Vector" d="M63.0808 59.2192L63.1064 59.7991C63.1101 59.9226 63.0112 60.0237 62.9014 60.0273L62.1616 60.061L62.3704 64.9734C62.374 65.0969 62.2861 65.198 62.1653 65.2017L61.5647 65.2278C61.4512 65.2317 61.345 65.1418 61.3413 65.0183L61.1326 60.106L60.4003 60.1396C60.2794 60.1433 60.1805 60.0535 60.1769 59.9302L60.1512 59.3501C60.1476 59.2268 60.2355 59.1257 60.3563 59.1218L62.8611 59.0098C62.9673 59.0022 63.0735 59.0957 63.0808 59.2192Z" fill="#FFFFFF" fill-opacity="1.000000" fill-rule="nonzero"/>
    <path id="Vector" d="M66.3596 58.9553L66.9639 58.9478C67.0847 58.9478 67.1799 59.0413 67.1799 59.1648L67.1873 60.0364C67.1873 60.1335 67.1726 60.231 67.1287 60.3169L66.0557 62.6213L66.0776 64.8884C66.0776 65.012 65.9861 65.1091 65.8652 65.1091L65.261 65.1167C65.1403 65.1167 65.0449 65.0232 65.0449 64.8997L65.0231 62.6326L63.8988 60.3469C63.8622 60.2607 63.8365 60.1636 63.8365 60.0664L63.8292 59.1946C63.8292 59.0713 63.9208 58.9739 64.0416 58.9739L64.6459 58.9666C64.7667 58.9666 64.8619 59.0601 64.8619 59.1833L64.8693 59.853C64.8693 59.9241 64.8876 59.9954 64.9242 60.0552L65.5283 61.2971L66.1106 60.0439C66.1362 59.9841 66.1509 59.9128 66.1509 59.8418L66.1436 59.1721C66.1472 59.0562 66.2388 58.959 66.3596 58.9553Z" fill="#FFFFFF" fill-opacity="1.000000" fill-rule="nonzero"/>
    <path id="Vector" d="M72.6547 62.2134C72.6254 62.8906 72.0652 63.4109 71.4023 63.3772C70.7468 63.3472 70.2305 62.7747 70.2634 62.0974C70.2927 61.4275 70.8604 60.8999 71.5159 60.9336C72.1786 60.9673 72.684 61.5474 72.6547 62.2134Z" fill="#FFFFFF" fill-opacity="1.000000" fill-rule="nonzero"/>
    <path id="Vector" d="M79.0618 63.4255L78.9556 64.458C78.8787 65.2288 78.2048 65.7937 77.4506 65.7114L75.8246 65.5393C75.7037 65.5281 75.6196 65.4194 75.6343 65.2961L76.2164 59.6133C76.2274 59.4897 76.3336 59.4038 76.4545 59.4187L77.9448 59.5759C78.6992 59.6543 79.2412 60.3503 79.1643 61.1208L79.1057 61.6897C79.0764 61.9775 78.9739 62.2319 78.7944 62.4341C78.9995 62.7146 79.1021 63.0588 79.0618 63.4255ZM78.04 63.2646C78.0583 63.0737 77.9229 62.8979 77.7434 62.8794L76.9305 62.7932L76.7438 64.6116L77.5568 64.6975C77.7362 64.7163 77.9082 64.574 77.9265 64.3757L78.04 63.2646ZM77.0294 61.8057L77.7068 61.8767C77.8862 61.8953 78.0583 61.7532 78.0767 61.5698L78.1389 60.9675C78.1572 60.7769 78.0217 60.6008 77.8423 60.5823L77.1649 60.5112L77.0294 61.8057Z" fill="#FFFFFF" fill-opacity="1.000000" fill-rule="nonzero"/>
    <path id="Vector" d="M81.4407 61.0276L81.2576 62.3259L82.0082 62.4343C82.129 62.4531 82.2096 62.5615 82.1913 62.6814L82.1144 63.2202C82.0961 63.3435 81.9899 63.4258 81.8727 63.4072L81.1221 63.2986L80.8657 65.1357L82.0485 65.3079C82.1693 65.3267 82.2499 65.4351 82.2316 65.5547L82.1547 66.1123C82.1364 66.2358 82.0302 66.3181 81.9093 66.2993L79.9064 66.0076C79.7855 65.9888 79.7086 65.8804 79.7233 65.7605L80.5142 60.1035C80.5325 59.98 80.6387 59.9014 80.7595 59.9163L82.7626 60.2083C82.8834 60.2268 82.9603 60.3354 82.9457 60.4551L82.8688 61.0127C82.8505 61.136 82.7443 61.2146 82.6234 61.1997L81.4407 61.0276Z" fill="#FFFFFF" fill-opacity="1.000000" fill-rule="nonzero"/>
    <path id="Vector" d="M85.8124 62.3218L85.8453 62.1384C85.8783 61.9475 85.7538 61.7717 85.567 61.738L85.1788 61.667C84.9921 61.6333 84.8126 61.7493 84.7797 61.9402L84.6844 62.4675C84.6515 62.6584 84.776 62.8342 84.9628 62.8755L85.351 62.9465C86.1053 63.0886 86.5959 63.8145 86.4568 64.5813L86.2664 65.6438C86.131 66.407 85.4095 66.9158 84.6661 66.7773L84.2781 66.7063C83.5347 66.5679 83.033 65.8308 83.1685 65.0715L83.2966 64.3606C83.3186 64.241 83.4285 64.1624 83.5457 64.1848L84.1389 64.2971C84.2561 64.3196 84.333 64.4316 84.311 64.5515L84.1755 65.3035C84.1426 65.4941 84.2671 65.6775 84.4537 65.7112L84.8419 65.7822C85.0287 65.8159 85.2081 65.6887 85.2411 65.498L85.4425 64.3718C85.4755 64.1812 85.351 64.0051 85.1642 63.9714L84.776 63.9004C84.0327 63.7546 83.531 63.0325 83.6665 62.2729L83.7544 61.7793C83.8899 61.0198 84.6112 60.5073 85.3546 60.6458L85.7428 60.7168C86.4971 60.8552 86.9878 61.592 86.8486 62.3516L86.823 62.4976C86.801 62.6172 86.6912 62.6958 86.574 62.6733L85.9808 62.561C85.8673 62.5574 85.7904 62.4451 85.8124 62.3218Z" fill="#FFFFFF" fill-opacity="1.000000" fill-rule="nonzero"/>
    <path id="Vector" d="M90.8169 62.041L90.6924 62.606C90.6667 62.7258 90.5459 62.7969 90.436 62.7708L89.7147 62.606L88.66 67.4023C88.6344 67.522 88.5209 67.5969 88.4037 67.5669L87.8142 67.4324C87.7043 67.406 87.6238 67.29 87.6531 67.1704L88.7076 62.374L87.9937 62.2095C87.8765 62.1833 87.8032 62.0674 87.8325 61.9475L87.957 61.3826C87.9827 61.2629 88.0962 61.188 88.2133 61.218L90.6558 61.7793C90.762 61.8054 90.8425 61.9214 90.8169 62.041Z" fill="#FFFFFF" fill-opacity="1.000000" fill-rule="nonzero"/>
    <path id="Vector" d="M96.6678 64.9407L96.5104 65.4795C96.2943 66.2205 95.5216 66.647 94.804 66.426L94.1704 66.2314L93.4526 68.6821C93.4197 68.802 93.2988 68.8655 93.1854 68.8318L92.6068 68.656C92.4896 68.6223 92.4274 68.4988 92.464 68.3828L94.0642 62.9055C94.0972 62.7893 94.218 62.7222 94.3315 62.7559L95.7487 63.1897C96.4664 63.4104 96.8839 64.2 96.6678 64.9407ZM95.6901 64.5964C95.745 64.4094 95.6498 64.2188 95.4667 64.1626L94.8333 63.968L94.4707 65.2139L95.1042 65.4084C95.2874 65.4646 95.4703 65.356 95.5216 65.1765L95.6901 64.5964Z" fill="#FFFFFF" fill-opacity="1.000000" fill-rule="nonzero"/>
    <path id="Vector" d="M99.1158 67.7842L99.3647 69.4414C99.3757 69.5388 99.3574 69.6436 99.3281 69.7371L99.0426 70.5676C99.0023 70.6836 98.8888 70.7471 98.7753 70.7061L98.2076 70.5002C98.0941 70.459 98.0282 70.3318 98.0685 70.2158L98.2699 69.636C98.3029 69.5461 98.3175 69.449 98.3102 69.333L98.0099 67.3762L97.1421 69.8904C97.1018 70.0063 96.981 70.0662 96.8674 70.0251L96.2998 69.8193C96.1936 69.782 96.1277 69.6548 96.168 69.5388L98.0319 64.1477C98.0721 64.0317 98.2003 63.9756 98.3065 64.0129L99.7126 64.5181C100.427 64.7761 100.797 65.5806 100.544 66.3101L100.365 66.8337C100.163 67.395 99.6577 67.7542 99.1158 67.7842ZM99.3757 65.4719L98.7423 65.2439L98.3138 66.4785L98.9474 66.7065C99.1195 66.7666 99.3171 66.6729 99.3831 66.4822L99.5808 65.9097C99.6467 65.7263 99.5479 65.532 99.3757 65.4719Z" fill="#FFFFFF" fill-opacity="1.000000" fill-rule="nonzero"/>
    <path id="Vector" d="M100.503 71.4097L99.9424 71.1814C99.8289 71.1365 99.7776 71.0093 99.8215 70.8972L101.894 65.5957C101.938 65.4797 102.066 65.4197 102.176 65.4646L102.736 65.6929C102.85 65.7378 102.897 65.8726 102.854 65.9885L100.781 71.29C100.737 71.4021 100.616 71.4583 100.503 71.4097Z" fill="#FFFFFF" fill-opacity="1.000000" fill-rule="nonzero"/>
    <path id="Vector" d="M104.794 70.2012L105.343 70.4556C105.453 70.5078 105.497 70.6426 105.446 70.7549L104.845 72.1167C104.596 72.678 103.944 72.936 103.388 72.6816L102.523 72.2849C101.974 72.0305 101.725 71.3572 101.97 70.7959L103.542 67.238C103.794 66.6694 104.442 66.4187 104.999 66.6731L105.863 67.0696C106.42 67.3279 106.665 67.99 106.416 68.5586L106.028 69.4417C105.98 69.554 105.849 69.6099 105.739 69.5613L105.189 69.3069C105.079 69.2546 105.036 69.1199 105.087 69.0076L105.438 68.2146C105.486 68.1023 105.431 67.9712 105.332 67.9226L104.743 67.6533C104.633 67.6008 104.501 67.6458 104.45 67.7581L102.967 71.1252C102.919 71.2375 102.974 71.3684 103.084 71.4207L103.673 71.6902C103.776 71.7388 103.908 71.6938 103.959 71.5815L104.516 70.3245C104.556 70.2085 104.684 70.1526 104.794 70.2012Z" fill="#FFFFFF" fill-opacity="1.000000" fill-rule="nonzero"/>
    <path id="Vector" d="M108.426 69.4602L107.833 70.6238L108.503 70.9829C108.609 71.0391 108.65 71.1699 108.595 71.2786L108.346 71.7612C108.291 71.8696 108.163 71.9109 108.056 71.8547L107.386 71.4956L106.544 73.1416L107.606 73.7065C107.712 73.7627 107.753 73.8938 107.698 74.0022L107.441 74.4998C107.386 74.6084 107.258 74.6494 107.152 74.5933L105.358 73.6355C105.251 73.5793 105.211 73.4485 105.266 73.3401L107.859 68.2705C107.914 68.1619 108.042 68.1208 108.148 68.177L109.942 69.1348C110.048 69.1909 110.089 69.3218 110.034 69.4302L109.777 69.928C109.723 70.0364 109.594 70.0776 109.488 70.0215L108.426 69.4602Z" fill="#FFFFFF" fill-opacity="1.000000" fill-rule="nonzero"/>
    <path id="Vector" d="M111.62 73.6992C111.279 74.2793 110.547 74.47 109.979 74.1221C109.419 73.7778 109.225 73.0256 109.565 72.4458C109.902 71.8733 110.646 71.6824 111.206 72.0229C111.777 72.3708 111.957 73.1267 111.62 73.6992Z" fill="#FFFFFF" fill-opacity="1.000000" fill-rule="nonzero"/>
    <path id="Vector" d="M69.0527 12.7314C69.0527 16.1584 66.3319 18.9382 62.9777 18.9382C59.6234 18.9382 56.9026 16.1584 56.9026 12.7314C56.9026 9.30444 62.9777 0 62.9777 0C62.9777 0 69.0527 9.30444 69.0527 12.7314Z" fill="#767676" fill-opacity="1.000000" fill-rule="nonzero"/>
    <path id="Vector" d="M50.176 21.2205C47.8324 21.2205 45.9246 19.2712 45.9246 16.8767C45.9246 14.6882 49.3154 9.43164 49.7036 8.84058L50.1797 8.11475L50.6558 8.84058C51.0439 9.43164 54.4348 14.6882 54.4348 16.8767C54.4275 19.2712 52.5197 21.2205 50.176 21.2205ZM50.176 10.2324C49.0078 12.1143 47.0634 15.5261 47.0634 16.8767C47.0634 18.6277 48.4586 20.0569 50.176 20.0569C51.8898 20.0569 53.2886 18.6316 53.2886 16.8767C53.2886 15.5261 51.3441 12.1104 50.176 10.2324Z" fill="#767676" fill-opacity="1.000000" fill-rule="nonzero"/>
    <path id="Vector" d="M77.1414 20.468C74.7977 20.468 72.8899 18.5188 72.8899 16.1245C72.8899 13.9358 76.2808 8.6792 76.6689 8.08813L77.145 7.3623L77.621 8.08813C78.0092 8.6792 81.4001 13.9358 81.4001 16.1245C81.3928 18.5188 79.485 20.468 77.1414 20.468ZM77.1414 9.47998C75.9731 11.3618 74.0287 14.7737 74.0287 16.1245C74.0287 17.8792 75.424 19.3044 77.1414 19.3044C78.8551 19.3044 80.2539 17.8792 80.2539 16.1245C80.2539 14.7737 78.3094 11.3618 77.1414 9.47998Z" fill="#767676" fill-opacity="1.000000" fill-rule="nonzero"/>
</svg>
