<svg width="140.000000" height="140.000000" viewBox="0 0 140 140" fill="none" xmlns="http://www.w3.org/2000/svg" xmlns:xlink="http://www.w3.org/1999/xlink">
	<desc>
			Created with Pixso.
	</desc>
	<defs>
		<clipPath id="clip10_1869">
			<rect id="Frame" width="140.000000" height="140.000000" fill="white" fill-opacity="0"/>
		</clipPath>
	</defs>
	<rect id="Frame" width="140.000000" height="140.000000" fill="#FFFFFF" fill-opacity="0"/>
	<g clip-path="url(#clip10_1869)">
		<path id="Vector" d="M51.9082 86.1978C51.8036 86.0603 51.6063 86.0359 51.4717 86.1428C49.1068 88.0366 47.2501 89.4419 45.4532 90.6912C45.3127 90.7891 45.2738 90.9875 45.3725 91.1311C45.4323 91.2227 45.5309 91.2686 45.6296 91.2686C45.6894 91.2686 45.7522 91.2502 45.803 91.2136C47.6119 89.9551 49.4775 88.5437 51.8544 86.6406C51.9919 86.5369 52.0128 86.3352 51.9082 86.1978Z" fill="#767676" fill-opacity="1.000000" fill-rule="nonzero"/>
		<path id="Vector" d="M42.3471 93.6934C42.4099 93.6934 42.4727 93.675 42.5295 93.6321L43.3577 93.0212C43.4953 92.9175 43.5282 92.7219 43.4265 92.5786C43.3248 92.4351 43.1305 92.4043 42.993 92.5083L42.1647 93.1191C42.0272 93.2229 41.9943 93.4185 42.0959 93.562C42.1558 93.6475 42.2515 93.6934 42.3471 93.6934Z" fill="#767676" fill-opacity="1.000000" fill-rule="nonzero"/>
		<path id="Vector" d="M61.47 86.335L59.4009 89.6248C59.3082 89.7715 59.35 89.97 59.4936 90.0647C59.5444 90.0984 59.6042 90.1167 59.661 90.1167C59.7627 90.1167 59.8643 90.0647 59.9211 89.97L61.9902 86.6802C62.0829 86.5337 62.041 86.335 61.8975 86.2402C61.757 86.1458 61.5626 86.1885 61.47 86.335Z" fill="#767676" fill-opacity="1.000000" fill-rule="nonzero"/>
		<path id="Vector" d="M51.3824 101.672C51.478 101.672 51.5707 101.626 51.6335 101.541L58.7913 91.5459C58.8929 91.4055 58.863 91.2068 58.7225 91.103C58.585 90.999 58.3906 91.0298 58.2889 91.1733L51.1312 101.168C51.0296 101.309 51.0594 101.507 51.2 101.611C51.2538 101.654 51.3196 101.672 51.3824 101.672Z" fill="#767676" fill-opacity="1.000000" fill-rule="nonzero"/>
		<path id="Vector" d="M67.3389 86.4114C66.6063 89.2368 65.7781 92.0869 64.9769 94.842C63.9514 98.3733 62.89 102.023 62.017 105.668C61.9751 105.839 62.0768 106.01 62.2442 106.052C62.2681 106.059 62.295 106.062 62.319 106.062C62.4595 106.062 62.585 105.964 62.6209 105.821C63.488 102.192 64.5464 98.5474 65.5718 95.0254C66.3731 92.2639 67.2043 89.408 67.9398 86.5762C67.9846 86.4082 67.886 86.2341 67.7186 86.1882C67.5571 86.1426 67.3837 86.2434 67.3389 86.4114Z" fill="#767676" fill-opacity="1.000000" fill-rule="nonzero"/>
		<path id="Vector" d="M46.8394 98.4556C46.9232 98.4556 47.0038 98.4219 47.0667 98.3547L53.2826 91.6377C53.3992 91.5095 53.3962 91.3108 53.2706 91.1887C53.145 91.0696 52.9507 91.0757 52.8311 91.2009L46.6152 97.9177C46.4986 98.0461 46.5016 98.2446 46.6271 98.3669C46.687 98.428 46.7617 98.4556 46.8394 98.4556Z" fill="#767676" fill-opacity="1.000000" fill-rule="nonzero"/>
		<path id="Vector" d="M42.1849 86.0879L38.9439 87.7524C38.7914 87.8318 38.7286 88.0212 38.8063 88.177C38.8602 88.2869 38.9708 88.3511 39.0844 88.3511C39.1323 88.3511 39.1801 88.3389 39.225 88.3174L42.4659 86.6528C42.6184 86.5735 42.6812 86.384 42.6035 86.2283C42.5227 86.0725 42.3373 86.0085 42.1849 86.0879Z" fill="#767676" fill-opacity="1.000000" fill-rule="nonzero"/>
		<path id="Vector" d="M54.6138 89.9395L57.5587 86.6833C57.6753 86.5549 57.6664 86.3535 57.5408 86.2344C57.4152 86.1152 57.2179 86.1243 57.1013 86.2527L54.1564 89.5088C54.0397 89.637 54.0487 89.8386 54.1743 89.9578C54.2341 90.0127 54.3088 90.0432 54.3835 90.0432C54.4673 90.0403 54.551 90.0066 54.6138 89.9395Z" fill="#767676" fill-opacity="1.000000" fill-rule="nonzero"/>
		<path id="Vector" d="M65.0331 86.6528C65.1049 86.4939 65.0361 86.3047 64.8776 86.2312C64.7221 86.1611 64.5367 86.2283 64.465 86.3901C63.4484 88.678 62.3422 90.9722 61.2719 93.1897C59.6873 96.4766 58.0488 99.8733 56.6646 103.328C56.5988 103.49 56.6765 103.676 56.835 103.74C56.8738 103.756 56.9127 103.765 56.9515 103.765C57.0742 103.765 57.1907 103.691 57.2386 103.566C58.6139 100.13 60.2493 96.7422 61.8279 93.4678C62.9043 91.2471 64.0135 88.9468 65.0331 86.6528Z" fill="#767676" fill-opacity="1.000000" fill-rule="nonzero"/>
		<path id="Vector" d="M75.5839 107.158C75.6049 107.317 75.7394 107.433 75.8918 107.433C75.9038 107.433 75.9188 107.433 75.9337 107.43C76.1041 107.409 76.2238 107.247 76.2028 107.076C75.7693 103.682 75.4583 100.212 75.1564 96.8579C74.8484 93.4153 74.5285 89.8564 74.074 86.3682C74.0501 86.1941 73.8976 86.075 73.7242 86.0962C73.5538 86.1206 73.4342 86.2795 73.4581 86.4536C73.9096 89.9299 74.2295 93.4824 74.5375 96.9189C74.8364 100.279 75.1504 103.752 75.5839 107.158Z" fill="#767676" fill-opacity="1.000000" fill-rule="nonzero"/>
		<path id="Vector" d="M78.8544 95.0071C80.0325 98.6392 81.2493 102.396 82.2539 106.147C82.2928 106.288 82.4153 106.383 82.5529 106.383C82.5798 106.383 82.6067 106.379 82.6336 106.37C82.798 106.324 82.8967 106.15 82.8519 105.982C81.8443 102.213 80.6245 98.4497 79.4435 94.8086C78.5495 92.0503 77.6256 89.1973 76.8004 86.3687C76.7526 86.2007 76.5792 86.106 76.4147 86.155C76.2503 86.2039 76.1576 86.3811 76.2054 86.5491C77.0336 89.3867 77.9605 92.2427 78.8544 95.0071Z" fill="#767676" fill-opacity="1.000000" fill-rule="nonzero"/>
		<path id="Vector" d="M89.9834 103.398C90.0402 103.502 90.1448 103.56 90.2525 103.56C90.3033 103.56 90.3571 103.548 90.405 103.521C90.5544 103.435 90.6083 103.24 90.5216 103.09C89.4333 101.123 88.345 99.1125 87.2926 97.1667C85.3642 93.6021 83.37 89.918 81.298 86.3562C81.2113 86.2065 81.02 86.1577 80.8735 86.2463C80.727 86.335 80.6761 86.5303 80.7658 86.6799C82.8348 90.2327 84.826 93.9136 86.7515 97.4722C87.8068 99.415 88.8951 101.428 89.9834 103.398Z" fill="#767676" fill-opacity="1.000000" fill-rule="nonzero"/>
		<path id="Vector" d="M94.491 90.7275C94.5508 90.7793 94.6226 90.804 94.6943 90.804C94.7811 90.804 94.8677 90.7671 94.9305 90.6938C95.0412 90.5596 95.0262 90.3608 94.8976 90.2478L90.1647 86.1025C90.0361 85.9895 89.8388 86.0049 89.7282 86.1362C89.6176 86.2705 89.6325 86.4692 89.7611 86.5823L94.491 90.7275Z" fill="#767676" fill-opacity="1.000000" fill-rule="nonzero"/>
		<path id="Vector" d="M99.1205 95.1689C99.1804 95.2271 99.2581 95.2546 99.3328 95.2546C99.4165 95.2546 99.4973 95.2209 99.5601 95.1538C99.6766 95.0254 99.6707 94.824 99.5451 94.7048L98.3013 93.5105C98.1758 93.3916 97.9785 93.3977 97.8618 93.5259C97.7452 93.6541 97.7512 93.8557 97.8768 93.9749L99.1205 95.1689Z" fill="#767676" fill-opacity="1.000000" fill-rule="nonzero"/>
		<path id="Vector" d="M70.3795 86.1453C70.212 86.1331 70.0565 86.2554 70.0416 86.4326C69.614 91.0115 69.1715 95.9753 68.6453 102.048C68.6303 102.222 68.7559 102.378 68.9263 102.393C68.9353 102.393 68.9442 102.393 68.9532 102.393C69.1117 102.393 69.2492 102.268 69.2612 102.103C69.7844 96.0303 70.2269 91.0696 70.6545 86.4905C70.6754 86.3196 70.5529 86.1638 70.3795 86.1453Z" fill="#767676" fill-opacity="1.000000" fill-rule="nonzero"/>
		<path id="Vector" d="M68.9388 102.519C68.7744 102.507 68.6159 102.632 68.601 102.806L68.2063 107.125C68.1913 107.299 68.3169 107.455 68.4874 107.47C68.4963 107.47 68.5083 107.473 68.5173 107.473C68.6757 107.473 68.8102 107.351 68.8252 107.186L69.2198 102.867C69.2348 102.69 69.1093 102.534 68.9388 102.519Z" fill="#767676" fill-opacity="1.000000" fill-rule="nonzero"/>
		<path id="Vector" d="M95.1973 100.035C95.2661 100.035 95.3348 100.011 95.3917 99.9648C95.5262 99.8547 95.5471 99.6562 95.4395 99.5188C91.8965 94.9827 88.3895 90.5352 85.014 86.2983C84.9063 86.1609 84.709 86.1426 84.5775 86.2527C84.4459 86.3625 84.4249 86.5642 84.5326 86.6985C87.9051 90.9353 91.4122 95.3799 94.9521 99.916C95.0179 99.9954 95.1076 100.035 95.1973 100.035Z" fill="#767676" fill-opacity="1.000000" fill-rule="nonzero"/>
		<path id="Vector" d="M99.2245 88.2749C99.3291 88.2749 99.4278 88.2229 99.4876 88.125C99.5773 87.9753 99.5354 87.78 99.3889 87.6882L97.018 86.1731C96.8745 86.0813 96.6801 86.124 96.5905 86.2739C96.5007 86.4236 96.5426 86.6191 96.6891 86.7107L99.0601 88.2258C99.1109 88.2566 99.1677 88.2749 99.2245 88.2749Z" fill="#767676" fill-opacity="1.000000" fill-rule="nonzero"/>
		<path id="Vector" d="M88.6619 57.2729C88.7217 57.3555 88.8144 57.3982 88.907 57.3982C88.9728 57.3982 89.0386 57.377 89.0954 57.334L98.1995 50.2075C98.337 50.1006 98.361 49.9021 98.2563 49.7617C98.1517 49.6243 97.9573 49.5967 97.8198 49.7036L88.7157 56.8301C88.5842 56.9338 88.5573 57.1355 88.6619 57.2729Z" fill="#767676" fill-opacity="1.000000" fill-rule="nonzero"/>
		<path id="Vector" d="M84.146 50.8467C84.0025 50.7522 83.8112 50.7949 83.7155 50.9414L79.9573 56.9192C79.8646 57.0659 79.9064 57.2612 80.05 57.3591C80.1008 57.3926 80.1606 57.408 80.2174 57.408C80.319 57.408 80.4207 57.356 80.4775 57.2612L84.2357 51.2837C84.3314 51.137 84.2895 50.9414 84.146 50.8467Z" fill="#767676" fill-opacity="1.000000" fill-rule="nonzero"/>
		<path id="Vector" d="M92.0063 39.3669L84.8486 49.3618C84.7469 49.5022 84.7769 49.7007 84.9174 49.8047C84.9713 49.8474 85.037 49.8657 85.0998 49.8657C85.1954 49.8657 85.2911 49.8198 85.351 49.7344L92.5087 39.7395C92.6103 39.5991 92.5804 39.4004 92.4399 39.2966C92.3023 39.1958 92.108 39.2263 92.0063 39.3669Z" fill="#767676" fill-opacity="1.000000" fill-rule="nonzero"/>
		<path id="Vector" d="M81.6239 35.2458C81.6658 35.075 81.5671 34.9038 81.4026 34.8579C81.2382 34.8152 81.0678 34.916 81.0229 35.084C80.5416 36.978 80.0333 38.8901 79.5161 40.7964C79.7104 40.8787 79.8988 40.9766 80.0812 41.0896C80.6074 39.1438 81.1276 37.1855 81.6239 35.2458Z" fill="#767676" fill-opacity="1.000000" fill-rule="nonzero"/>
		<path id="Vector" d="M75.1149 57.0227C75.07 57.1907 75.1717 57.3647 75.3361 57.4106C75.363 57.4167 75.39 57.4199 75.4139 57.4199C75.5514 57.4199 75.6769 57.3252 75.7128 57.1816C75.9879 56.1033 76.275 55.019 76.562 53.9346L75.9191 53.9346C75.6471 54.967 75.378 55.9963 75.1149 57.0227Z" fill="#767676" fill-opacity="1.000000" fill-rule="nonzero"/>
		<path id="Vector" d="M94.4907 45.7266L97.0231 42.9897C97.1398 42.8613 97.1368 42.6628 97.0112 42.5408C96.8856 42.4216 96.6913 42.4277 96.5717 42.553L94.0392 45.2898C93.9227 45.418 93.9257 45.6165 94.0512 45.7388C94.111 45.7966 94.1888 45.8242 94.2635 45.8242C94.3472 45.8271 94.4309 45.7937 94.4907 45.7266Z" fill="#767676" fill-opacity="1.000000" fill-rule="nonzero"/>
		<path id="Vector" d="M86.8016 37.1672C86.6431 37.103 86.4608 37.1826 86.3979 37.3445C86.111 38.0867 85.7731 38.7983 85.4143 39.553C85.1572 40.0967 84.8911 40.6587 84.6459 41.23C84.5772 41.3918 84.649 41.5781 84.8074 41.6484C84.8492 41.6667 84.8911 41.6758 84.933 41.6758C85.0526 41.6758 85.1662 41.6057 85.217 41.4866C85.4562 40.9275 85.7193 40.3716 85.9734 39.834C86.3203 39.1008 86.679 38.3464 86.975 37.5828C87.0378 37.4177 86.96 37.2314 86.8016 37.1672Z" fill="#767676" fill-opacity="1.000000" fill-rule="nonzero"/>
		<path id="Vector" d="M96.0937 57.2212C96.1475 57.3311 96.2581 57.3953 96.3718 57.3953C96.4196 57.3953 96.4674 57.3831 96.5123 57.3618L103.996 53.519C104.148 53.4397 104.211 53.2502 104.133 53.0945C104.056 52.9387 103.87 52.8748 103.718 52.9541L96.2342 56.7966C96.0757 56.876 96.016 57.0654 96.0937 57.2212Z" fill="#767676" fill-opacity="1.000000" fill-rule="nonzero"/>
		<path id="Vector" d="M83.6738 57.3562C83.7335 57.4141 83.8083 57.4417 83.8831 57.4417C83.9667 57.4417 84.0505 57.408 84.1103 57.3408L91.9705 48.6565C92.0871 48.5281 92.0781 48.3267 91.9526 48.2075C91.827 48.0884 91.6297 48.0974 91.5131 48.2258L83.6528 56.9102C83.5392 57.0354 83.5482 57.2371 83.6738 57.3562Z" fill="#767676" fill-opacity="1.000000" fill-rule="nonzero"/>
		<path id="Vector" d="M77.5458 56.9888C77.4771 57.1506 77.5489 57.3372 77.7073 57.4075C77.7492 57.4258 77.791 57.4348 77.8329 57.4348C77.9525 57.4348 78.0661 57.3645 78.1169 57.2454C78.6611 55.9746 79.2382 54.7161 79.8182 53.4697C79.5521 53.6104 79.2681 53.7234 78.975 53.8027C78.4877 54.8535 78.0063 55.9165 77.5458 56.9888Z" fill="#767676" fill-opacity="1.000000" fill-rule="nonzero"/>
		<path id="Vector" d="M84.4818 43.1147C84.5446 42.9529 84.4669 42.7666 84.3084 42.7024C84.15 42.6382 83.9676 42.7178 83.9048 42.8796C83.4025 44.1716 82.8464 45.4668 82.2664 46.7527L82.2664 48.2554C83.0497 46.5571 83.8121 44.8374 84.4818 43.1147Z" fill="#767676" fill-opacity="1.000000" fill-rule="nonzero"/>
		<path id="Vector" d="M68.0569 33.7554C68.039 33.5813 67.8865 33.4592 67.7131 33.4744C67.5427 33.4927 67.4201 33.6516 67.438 33.8257C67.6802 36.0249 67.9044 38.2732 68.1227 40.4724L68.7476 40.4724C68.5293 38.2549 68.3021 35.9792 68.0569 33.7554Z" fill="#767676" fill-opacity="1.000000" fill-rule="nonzero"/>
		<path id="Vector" d="M70.0278 57.1296C70.0518 57.2886 70.1833 57.3987 70.3358 57.3987C70.3507 57.3987 70.3657 57.3987 70.3836 57.3955C70.5541 57.3711 70.6707 57.2092 70.6437 57.0352C70.4943 56.0117 70.3537 54.9761 70.2192 53.9375L69.5913 53.9375C69.7288 55.0066 69.8724 56.0728 70.0278 57.1296Z" fill="#767676" fill-opacity="1.000000" fill-rule="nonzero"/>
		<path id="Vector" d="M67.4515 57.041C67.4933 57.1785 67.616 57.2639 67.7475 57.2639C67.7774 57.2639 67.8073 57.2607 67.8402 57.2485C68.0046 57.1968 68.0974 57.0195 68.0465 56.8516L67.1675 53.9346L66.5187 53.9346L67.4515 57.041Z" fill="#767676" fill-opacity="1.000000" fill-rule="nonzero"/>
		<path id="Vector" d="M62.4628 39.7271C62.4927 39.7271 62.5225 39.7241 62.5554 39.7119C62.7198 39.6599 62.8126 39.4829 62.7617 39.3147L61.3865 34.7512C61.3356 34.5833 61.1652 34.4917 60.9978 34.5405C60.8334 34.5923 60.7407 34.7695 60.7915 34.9375L62.1667 39.5012C62.2086 39.6387 62.3312 39.7271 62.4628 39.7271Z" fill="#767676" fill-opacity="1.000000" fill-rule="nonzero"/>
		<path id="Vector" d="M64.0287 57.2336C64.0855 57.3374 64.1901 57.3955 64.3007 57.3955C64.3516 57.3955 64.4024 57.3833 64.4532 57.3557C64.6027 57.2703 64.6566 57.0779 64.5728 56.925C64.0257 55.9199 63.4816 54.9241 62.9374 53.9375L62.2258 53.9375C62.8208 55.0249 63.4218 56.1216 64.0287 57.2336Z" fill="#767676" fill-opacity="1.000000" fill-rule="nonzero"/>
		<path id="Vector" d="M57.649 44.4624C56.2887 42.0645 54.9552 39.7427 53.6517 37.5066C53.5649 37.3569 53.3736 37.3081 53.2271 37.3967C53.0806 37.4854 53.0298 37.6807 53.1194 37.8306C54.5725 40.3232 56.0645 42.929 57.5892 45.6262L57.5892 45.2261C57.5892 44.9663 57.6132 44.7129 57.649 44.4624Z" fill="#767676" fill-opacity="1.000000" fill-rule="nonzero"/>
		<path id="Vector" d="M48.7123 50.2166C48.6017 50.3511 48.6166 50.5496 48.7452 50.6626L56.3722 57.3433C56.432 57.3953 56.5038 57.4197 56.5755 57.4197C56.6622 57.4197 56.749 57.3828 56.8117 57.3096C56.9224 57.1753 56.9074 56.9766 56.7788 56.8635L49.1519 50.1831C49.0203 50.0669 48.8229 50.0823 48.7123 50.2166Z" fill="#767676" fill-opacity="1.000000" fill-rule="nonzero"/>
		<path id="Vector" d="M43.063 44.4221C42.9375 44.303 42.7402 44.3093 42.6235 44.4375C42.507 44.5659 42.5129 44.7673 42.6385 44.8865L46.597 48.6836C46.6568 48.7417 46.7346 48.7693 46.8093 48.7693C46.893 48.7693 46.9738 48.7356 47.0365 48.6685C47.1531 48.54 47.1472 48.3384 47.0216 48.2192L43.063 44.4221Z" fill="#767676" fill-opacity="1.000000" fill-rule="nonzero"/>
		<path id="Vector" d="M37.2 54.7561C37.0415 54.6858 36.8591 54.7593 36.7903 54.9211C36.7216 55.083 36.7934 55.2693 36.9518 55.3396L41.6698 57.4321C41.7087 57.4504 41.7505 57.4597 41.7924 57.4597C41.912 57.4597 42.0256 57.3894 42.0764 57.2671C42.1452 57.1052 42.0734 56.9189 41.915 56.8486L37.2 54.7561Z" fill="#767676" fill-opacity="1.000000" fill-rule="nonzero"/>
		<path id="Vector" d="M72.6572 57.0776C72.6332 57.2517 72.7498 57.4106 72.9202 57.4351C72.9352 57.4382 72.9501 57.4382 72.9651 57.4382C73.1176 57.4382 73.2491 57.3252 73.273 57.1663C73.4225 56.0911 73.5391 55.0127 73.6407 53.9346L73.0159 53.9346C72.9173 54.9854 72.8007 56.0361 72.6572 57.0776Z" fill="#767676" fill-opacity="1.000000" fill-rule="nonzero"/>
		<path id="Vector" d="M75.156 33.4412C74.9915 33.429 74.8331 33.5542 74.8181 33.7283L74.4235 38.0471C74.4085 38.2212 74.5341 38.377 74.7045 38.3923C74.7135 38.3923 74.7255 38.3923 74.7344 38.3923C74.8929 38.3923 75.0274 38.27 75.0424 38.1052L75.437 33.7864C75.452 33.6123 75.3264 33.4565 75.156 33.4412Z" fill="#767676" fill-opacity="1.000000" fill-rule="nonzero"/>
		<path id="Vector" d="M48.2459 40.4238L47.9439 40.0391C47.8363 39.9016 47.642 39.8801 47.5074 39.9902C47.3729 40.1001 47.3519 40.2986 47.4596 40.436L47.7615 40.821C48.2549 41.4473 48.7661 42.0947 49.2744 42.7119C49.3372 42.7852 49.4239 42.825 49.5135 42.825C49.5853 42.825 49.6541 42.8005 49.7139 42.7515C49.8455 42.6384 49.8634 42.4399 49.7527 42.3057C49.2475 41.6917 48.7392 41.0471 48.2459 40.4238Z" fill="#767676" fill-opacity="1.000000" fill-rule="nonzero"/>
		<path id="Vector" d="M60.9327 57.3188C60.9955 57.3921 61.0822 57.4319 61.1719 57.4319C61.2437 57.4319 61.3124 57.4072 61.3723 57.3584C61.5038 57.2454 61.5217 57.0469 61.4111 56.9126C58.9535 53.9221 56.4749 50.782 54.077 47.7456L52.6509 45.9404C52.5432 45.803 52.3489 45.7815 52.2144 45.8916C52.0798 46.0015 52.0588 46.2 52.1665 46.3374L53.5927 48.1428C55.9905 51.179 58.4691 54.3223 60.9327 57.3188Z" fill="#767676" fill-opacity="1.000000" fill-rule="nonzero"/>
		<path id="Vector" d="M44.152 52.7859C44.0623 52.9355 44.1041 53.1311 44.2507 53.2227L50.7924 57.3979C50.8432 57.4314 50.9 57.4468 50.9568 57.4468C51.0615 57.4468 51.1601 57.3948 51.2199 57.2971C51.3096 57.1475 51.2678 56.9519 51.1213 56.8604L44.5825 52.6853C44.436 52.5935 44.2446 52.6362 44.152 52.7859Z" fill="#767676" fill-opacity="1.000000" fill-rule="nonzero"/>
		<path id="Vector" d="M11.4013 66.5044C11.4611 66.2568 11.7361 65.8811 12.3102 65.5911C12.959 65.1938 13.8709 64.9739 14.8725 64.9739C15.1177 64.9739 15.3658 64.9861 15.608 65.0137C17.4557 65.1816 18.7802 66.0554 19.2197 66.7822L19.2705 66.8557L23.4653 64.0361L23.4443 64.0056C22.0152 61.7544 19.2615 60.2271 16.0834 59.9185C15.6977 59.8879 15.2971 59.8574 14.9024 59.8574C13.0906 59.8574 11.3684 60.282 9.92133 61.0823C7.89124 62.1943 6.61157 64.0149 6.40527 66.0737C6.01959 70.228 9.34729 73.3865 14.6841 73.9363C16.2089 74.0891 17.3122 74.4526 17.9819 75.033C18.4662 75.5278 18.4662 75.9951 18.4393 76.1938C18.4154 76.5083 18.0536 76.9116 17.5424 77.1895C16.8637 77.5623 15.9578 77.77 14.9951 77.77C14.7499 77.77 14.4988 77.7578 14.2566 77.7302C12.4388 77.5652 11.0903 76.6948 10.603 75.9434L10.5761 75.8975L6.37537 78.6741L6.42023 78.7383C7.84937 80.9895 10.603 82.5168 13.7842 82.8254C14.1519 82.856 14.5466 82.8865 14.9622 82.8865C16.7382 82.8865 18.4962 82.4619 19.9073 81.6953C21.9673 80.5344 23.25 78.7168 23.4264 76.7009C23.8121 72.4426 20.5741 69.3574 15.1774 68.8381C13.8171 68.6853 11.2757 68.0164 11.3953 66.5532L11.3983 66.5288L11.4013 66.5044ZM10.6777 69.3604C11.6824 70.1943 13.1743 70.729 14.9921 70.9092C18.3048 71.239 21.7311 72.8733 21.3993 76.4749C21.2707 77.7974 20.4067 78.9917 18.9626 79.835C17.8563 80.449 16.4362 80.7849 14.9651 80.7849C14.6243 80.7849 14.3015 80.7849 13.9785 80.7512C12.4388 80.5864 10.9977 80.0884 9.92432 79.3462L9.55658 79.0925L10.3668 78.5398L10.5312 78.6467C11.4821 79.2668 12.7407 79.6731 14.0742 79.7983C14.3492 79.8289 14.6423 79.8594 14.9681 79.8594C16.2538 79.8594 17.5215 79.5569 18.5201 79.0164C19.707 78.3198 20.3917 77.4065 20.4993 76.3862C20.5861 75.3689 20.1794 74.3213 19.3901 73.5149C18.4333 72.5984 16.9564 72.0454 14.8785 71.8318C12.4747 71.6086 10.4744 70.7136 9.38617 69.3789C8.66858 68.4961 8.36066 67.4514 8.46826 66.2754C8.56696 64.9495 9.4549 63.7339 10.902 62.9426C12.0082 62.2981 13.3925 61.9561 14.9084 61.9561C15.2492 61.9561 15.5721 61.9561 15.895 61.9895C17.4019 62.1545 18.84 62.6523 19.9462 63.3948L20.3439 63.6604L19.4708 64.198L19.3154 64.0974C18.3557 63.4863 17.1089 63.0647 15.8023 62.9121C15.5093 62.8816 15.2163 62.8816 14.9054 62.8816C13.5031 62.8816 12.2773 63.1838 11.3385 63.7612C10.1545 64.3813 9.4549 65.3008 9.37122 66.3547C9.25458 67.5186 9.70905 68.5571 10.6777 69.3604Z" fill="#767676" fill-opacity="1.000000" fill-rule="nonzero"/>
		<path id="Vector" d="M31.6134 82.8831L36.7529 82.8831L36.7529 65.1387L42.3051 65.1387L42.3051 59.854L26.0881 59.854L26.0881 65.1387L31.6104 65.1387L31.6104 82.8831L31.6134 82.8831ZM28.178 62.9758L28.178 62.0503L40.1913 62.0503L40.1913 62.9758L34.6391 62.9758L34.6391 80.7205L33.7332 80.7205L33.7332 62.9758L28.178 62.9758Z" fill="#767676" fill-opacity="1.000000" fill-rule="nonzero"/>
		<path id="Vector" d="M48.5044 75.98L57.3574 75.98L53.1147 64.0361L48.5044 75.98ZM50.4927 74.5747L53.0789 67.9521L55.402 74.5747L50.4927 74.5747Z" fill="#767676" fill-opacity="1.000000" fill-rule="nonzero"/>
		<path id="Vector" d="M54.8279 59.854L51.4793 59.854L42.6145 82.8831L48.1128 82.8831L49.5927 79.0679L56.2391 79.0679L57.5666 82.8831L63.038 82.8831L54.8279 59.854ZM57.6981 76.905L48.1457 76.905L46.6657 80.7205L45.6821 80.7205L52.9204 61.9861L53.3629 61.9861L60.0272 80.7205L59.0525 80.7205L57.6981 76.905Z" fill="#767676" fill-opacity="1.000000" fill-rule="nonzero"/>
		<path id="Vector" d="M73.5007 82.8831L73.5007 65.1387L79.0528 65.1387L79.0528 59.854L62.8359 59.854L62.8359 65.1387L68.3582 65.1387L68.3582 82.8831L73.5007 82.8831ZM64.9229 62.9758L64.9229 62.0503L76.936 62.0503L76.936 62.9758L71.3839 62.9758L71.3839 80.7205L70.478 80.7205L70.478 62.9758L64.9229 62.9758Z" fill="#767676" fill-opacity="1.000000" fill-rule="nonzero"/>
		<path id="Vector" d="M81.9935 82.8831L87.1031 82.8831L87.1031 59.854L81.9935 59.854L81.9935 82.8831ZM84.0804 61.9861L85.0162 61.9861L85.0162 80.7539L84.0804 80.7539L84.0804 61.9861Z" fill="#767676" fill-opacity="1.000000" fill-rule="nonzero"/>
		<path id="Vector" d="M112.498 71.3369C112.498 64.9866 107.427 59.8242 101.196 59.8242C94.9802 59.8242 89.9244 64.9895 89.9244 71.3369C89.9244 77.7029 94.9802 82.8833 101.196 82.8833C107.427 82.8833 112.498 77.7058 112.498 71.3369ZM92.0114 71.3369C92.0114 66.1626 96.1313 61.9534 101.196 61.9534C106.276 61.9534 110.411 66.1626 110.411 71.3369C110.411 76.5298 106.276 80.7512 101.196 80.7512C96.1313 80.7512 92.0114 76.5298 92.0114 71.3369Z" fill="#767676" fill-opacity="1.000000" fill-rule="nonzero"/>
		<path id="Vector" d="M109.533 71.3364C109.533 66.6567 105.793 62.8477 101.194 62.8477C96.6138 62.8477 92.8855 66.6567 92.8855 71.3364C92.8855 76.0344 96.6138 79.8557 101.194 79.8557C105.793 79.8589 109.533 76.0344 109.533 71.3364ZM101.194 78.4812C97.3553 78.4812 94.2309 75.2769 94.2309 71.3364C94.2309 67.4143 97.3553 64.2222 101.194 64.2222C105.051 64.2222 108.188 67.4143 108.188 71.3364C108.188 75.2769 105.051 78.4812 101.194 78.4812Z" fill="#767676" fill-opacity="1.000000" fill-rule="nonzero"/>
		<path id="Vector" d="M129.475 59.8242L129.475 72.3787L120.234 59.8242L115.961 59.8242L115.961 82.8833L121.101 82.8833L121.101 69.7639L130.803 82.8833L134.645 82.8833L134.645 59.8242L129.475 59.8242ZM132.501 80.6902L131.837 80.6902L119.02 63.3308L119.02 80.6902L118.084 80.6902L118.084 61.9868L119.181 61.9868L131.598 78.8115L131.598 61.9868L132.504 61.9868L132.504 80.6902L132.501 80.6902Z" fill="#767676" fill-opacity="1.000000" fill-rule="nonzero"/>
		<path id="Vector" d="M33.8609 89.417L33.6546 88.9773C33.6127 88.8887 33.514 88.8521 33.4274 88.8948L31.9623 89.6157L31.6215 88.8916L33.0865 88.1709C33.1732 88.1279 33.2061 88.0273 33.1672 87.9387L32.9609 87.4988C32.9191 87.4102 32.8204 87.3735 32.7337 87.4163L28.7332 89.3865C28.6465 89.4292 28.6106 89.53 28.6525 89.6187L28.8588 90.0586C28.9006 90.1472 28.9993 90.1838 29.086 90.1411L30.9248 89.2368L31.2657 89.9609L29.4269 90.865C29.3401 90.9077 29.3073 91.0085 29.3461 91.0972L29.5524 91.5371C29.5913 91.6196 29.6929 91.6624 29.7797 91.6196L33.7802 89.6492C33.8669 89.6064 33.8968 89.4966 33.8609 89.417Z" fill="#767676" fill-opacity="1.000000" fill-rule="nonzero"/>
		<path id="Vector" d="M34.6551 90.9016L34.4219 90.4739C34.3741 90.3884 34.2664 90.3611 34.1827 90.4099L30.3108 92.6155C30.2271 92.6643 30.1971 92.7681 30.245 92.8538L30.4782 93.2812C30.5261 93.3669 30.6277 93.3975 30.7114 93.3486L34.5834 91.1431C34.6671 91.094 34.7 90.9873 34.6551 90.9016Z" fill="#767676" fill-opacity="1.000000" fill-rule="nonzero"/>
		<path id="Vector" d="M34.7964 94.9827C34.8771 94.9307 34.9011 94.824 34.8472 94.7415L34.339 93.929C34.2881 93.8464 34.1835 93.822 34.1028 93.877L33.747 94.1091C33.6663 94.1611 33.6364 94.271 33.6902 94.3535L33.8487 94.6069L32.7993 95.2913C32.7185 95.3433 32.6109 95.3157 32.5601 95.2332L32.285 94.7932C32.2372 94.717 32.2551 94.604 32.3358 94.552L34.7546 92.9758C34.8293 92.927 34.9429 92.9514 34.9908 93.0278L35.2658 93.4675C35.3167 93.55 35.2927 93.6663 35.218 93.7151L34.9878 93.8647C34.907 93.9167 34.8831 94.0234 34.937 94.106L35.1941 94.5183C35.2449 94.6008 35.3495 94.6252 35.4303 94.5703L35.7233 94.3779C36.1329 94.1121 36.2465 93.5562 35.9894 93.1438L35.5858 92.4963C35.3256 92.0776 34.7875 91.9587 34.3779 92.2244L31.8216 93.8921C31.418 94.1548 31.2983 94.7139 31.5555 95.1262L31.9591 95.7739C32.2162 96.1863 32.7634 96.3083 33.167 96.0457L34.7964 94.9827Z" fill="#767676" fill-opacity="1.000000" fill-rule="nonzero"/>
		<path id="Vector" d="M38.2314 96.3452L37.9445 95.9543C37.8876 95.875 37.783 95.8628 37.7053 95.9207L36.4077 96.9226L35.9353 96.2812L37.2328 95.2793C37.3076 95.2212 37.3226 95.1143 37.2657 95.0349L36.9787 94.644C36.9219 94.5645 36.8173 94.5522 36.7396 94.6104L33.1936 97.344C33.1189 97.4021 33.1039 97.509 33.1607 97.5884L33.4478 97.9795C33.5046 98.0588 33.6092 98.074 33.687 98.0129L35.3164 96.7576L35.7888 97.3992L34.1593 98.6575C34.0816 98.7156 34.0696 98.8254 34.1265 98.9019L34.4135 99.2927C34.4673 99.3662 34.5749 99.3875 34.6526 99.3264L38.1985 96.5928C38.2763 96.5315 38.2853 96.4187 38.2314 96.3452Z" fill="#767676" fill-opacity="1.000000" fill-rule="nonzero"/>
		<path id="Vector" d="M39.4006 102.721L41.0898 101.044C41.4725 100.665 41.4814 100.042 41.1107 99.6506L40.7101 99.2292C40.3394 98.8381 39.7294 98.8291 39.3467 99.2078L37.2927 101.245C36.916 101.621 36.907 102.241 37.2778 102.632L38.2196 103.622C38.2853 103.692 38.396 103.698 38.4647 103.631L38.7847 103.316C38.8535 103.249 38.8504 103.136 38.7936 103.075L38.6023 102.874C38.8683 102.983 39.1853 102.935 39.4006 102.721ZM38.3422 102.602L37.8668 102.101C37.801 102.03 37.801 101.911 37.8638 101.85L39.9178 99.8125C39.9866 99.7454 40.1031 99.7454 40.1689 99.8157L40.5217 100.185C40.5875 100.256 40.5875 100.375 40.5187 100.442L38.3422 102.602Z" fill="#767676" fill-opacity="1.000000" fill-rule="nonzero"/>
		<path id="Vector" d="M44.1065 102.488L43.7477 102.164C43.676 102.1 43.5653 102.112 43.5026 102.186L41.0958 104.987C41.033 105.06 40.9224 105.063 40.8506 104.999L40.4709 104.657C40.3991 104.593 40.3871 104.479 40.45 104.406L42.8568 101.608C42.9196 101.535 42.9166 101.422 42.8448 101.358L42.486 101.034C42.4142 100.97 42.3036 100.982 42.2408 101.055L39.7802 103.917C39.4633 104.284 39.4992 104.855 39.861 105.179L40.426 105.686C40.7848 106.01 41.3439 105.97 41.6608 105.604L44.1215 102.741C44.1782 102.665 44.1782 102.552 44.1065 102.488Z" fill="#767676" fill-opacity="1.000000" fill-rule="nonzero"/>
		<path id="Vector" d="M46.1817 104.132L45.3625 103.502C45.2907 103.447 45.1951 103.453 45.1293 103.518L42.3936 106.236C42.3636 106.267 42.3517 106.282 42.3338 106.303L41.972 106.795C41.9152 106.875 41.9302 106.982 42.0049 107.04L42.3876 107.333C42.4653 107.391 42.57 107.376 42.6268 107.299L43.0005 106.792L43.733 107.354L43.3593 107.861C43.3025 107.941 43.3174 108.048 43.3892 108.103L43.7778 108.399C43.8556 108.457 43.9603 108.442 44.0171 108.365L44.3788 107.874C44.3967 107.852 44.4088 107.834 44.4266 107.797L46.2265 104.361C46.2624 104.29 46.2534 104.187 46.1817 104.132ZM44.1247 106.664L43.5447 106.218L45.2817 104.471L44.1247 106.664Z" fill="#767676" fill-opacity="1.000000" fill-rule="nonzero"/>
		<path id="Vector" d="M46.6564 109.397L45.8552 108.863L47.945 105.579C47.9958 105.497 47.9749 105.39 47.8942 105.338L47.4935 105.072C47.4128 105.02 47.3082 105.042 47.2574 105.124L44.8356 108.93C44.7818 109.012 44.8057 109.119 44.8865 109.171L46.2319 110.066C46.3126 110.118 46.4172 110.097 46.4681 110.014L46.7073 109.639C46.7581 109.556 46.7371 109.449 46.6564 109.397Z" fill="#767676" fill-opacity="1.000000" fill-rule="nonzero"/>
		<path id="Vector" d="M50.1383 106.749L49.7257 106.505C49.642 106.456 49.5374 106.489 49.4895 106.575L47.2681 110.494C47.2203 110.579 47.2471 110.683 47.3309 110.732L47.7435 110.976C47.8271 111.025 47.9288 110.998 47.9767 110.912L50.1981 106.993C50.2429 106.908 50.219 106.798 50.1383 106.749Z" fill="#767676" fill-opacity="1.000000" fill-rule="nonzero"/>
		<path id="Vector" d="M52.6743 108.833L52.8776 108.424C52.9194 108.335 52.8806 108.231 52.8028 108.188L51.0298 107.269C50.9461 107.223 50.8445 107.26 50.7996 107.345L50.5963 107.755C50.5544 107.843 50.5873 107.944 50.6711 107.99L51.1883 108.259L49.4601 111.738C49.4153 111.823 49.4572 111.93 49.5349 111.973L49.9625 112.193C50.0491 112.236 50.1478 112.202 50.1927 112.116L51.9208 108.637L52.444 108.909C52.5248 108.949 52.6324 108.918 52.6743 108.833Z" fill="#767676" fill-opacity="1.000000" fill-rule="nonzero"/>
		<path id="Vector" d="M55.498 110.323L55.7612 109.685C55.7971 109.596 55.7582 109.495 55.6685 109.455L55.229 109.266C55.1393 109.229 55.0436 109.269 55.0048 109.361L54.8044 109.849C54.7835 109.901 54.7506 109.947 54.7117 109.984L53.9015 110.711L53.8417 109.611C53.8357 109.556 53.8447 109.498 53.8656 109.446L54.0659 108.958C54.1018 108.866 54.0629 108.768 53.9732 108.728L53.5307 108.539C53.441 108.502 53.3453 108.542 53.3065 108.631L53.0434 109.269C53.0135 109.339 53.0045 109.419 53.0015 109.495L53.1181 111.521L52.4334 113.182C52.3976 113.274 52.4364 113.372 52.5261 113.411L52.9656 113.601C53.0554 113.637 53.151 113.598 53.1899 113.506L53.8716 111.844L55.3635 110.509C55.4263 110.457 55.4682 110.393 55.498 110.323Z" fill="#767676" fill-opacity="1.000000" fill-rule="nonzero"/>
		<path id="Vector" d="M55.6919 113.793L55.2614 113.637C55.1716 113.604 55.079 113.646 55.0461 113.738L54.8906 114.184C54.8577 114.276 54.9056 114.367 54.9982 114.401L55.1208 114.447L54.9893 114.575C54.9594 114.603 54.9324 114.636 54.9175 114.676L54.8757 114.801C54.8577 114.853 54.8876 114.917 54.9324 114.933L55.1508 115.012C55.1956 115.027 55.2554 115 55.2763 114.945L55.2883 114.911C55.3002 114.878 55.3301 114.853 55.342 114.841L55.5394 114.646C55.5634 114.618 55.5812 114.587 55.5932 114.554L55.7846 114.001C55.8115 113.909 55.7697 113.821 55.6919 113.793Z" fill="#767676" fill-opacity="1.000000" fill-rule="nonzero"/>
		<path id="Vector" d="M60.4644 115.214L59.5375 114.979L60.4644 111.179C60.4883 111.084 60.4315 110.989 60.3388 110.968L59.8754 110.849C59.7827 110.824 59.6931 110.883 59.6691 110.977L58.5958 115.382C58.5719 115.477 58.6287 115.568 58.7214 115.593L60.279 115.99C60.3717 116.014 60.4614 115.956 60.4853 115.862L60.59 115.428C60.6108 115.33 60.5571 115.238 60.4644 115.214Z" fill="#767676" fill-opacity="1.000000" fill-rule="nonzero"/>
		<path id="Vector" d="M63.829 111.716L63.0906 111.585C62.6122 111.499 62.1607 111.832 62.077 112.318L61.5598 115.364C61.4761 115.852 61.793 116.31 62.2714 116.396L63.0098 116.527C63.4822 116.61 63.9366 116.289 64.0204 115.8L64.5376 112.755C64.6213 112.266 64.2985 111.799 63.829 111.716ZM63.2281 115.568C63.2131 115.666 63.1175 115.733 63.0218 115.715L62.5225 115.626C62.4268 115.611 62.3611 115.513 62.379 115.415L62.8693 112.529C62.8873 112.431 62.9799 112.379 63.0726 112.394L63.5719 112.483C63.6676 112.498 63.7363 112.583 63.7184 112.678L63.2281 115.568Z" fill="#767676" fill-opacity="1.000000" fill-rule="nonzero"/>
		<path id="Vector" d="M68.7911 112.266L68.1931 112.214C68.1303 112.208 68.0795 112.253 68.0765 112.314L68.0287 112.919C68.0257 112.968 68.0227 112.996 68.0107 113.051L67.6699 114.801L67.4725 112.25C67.4636 112.192 67.4188 112.146 67.3649 112.143L66.8477 112.101C66.7939 112.094 66.743 112.134 66.7311 112.189L66.1271 114.673L66.0643 112.889C66.0613 112.834 66.0643 112.806 66.0673 112.757L66.1152 112.153C66.1212 112.092 66.0763 112.036 66.0165 112.033L65.4185 111.981C65.3588 111.975 65.3049 112.021 65.3019 112.082L65.2481 112.751C65.2451 112.785 65.2421 112.828 65.2451 112.892L65.4694 116.735C65.4753 116.826 65.5381 116.894 65.6278 116.903L66.16 116.949C66.2408 116.955 66.3215 116.9 66.3364 116.808L66.9643 113.955L67.1257 116.875C67.1317 116.967 67.1945 117.034 67.2842 117.043L67.8074 117.089C67.8971 117.095 67.9689 117.04 67.9898 116.952L68.827 113.197C68.8389 113.136 68.8419 113.094 68.8449 113.06L68.8987 112.391C68.8958 112.324 68.8509 112.272 68.7911 112.266Z" fill="#767676" fill-opacity="1.000000" fill-rule="nonzero"/>
		<path id="Vector" d="M72.7162 112.208L71.5412 112.266C71.4456 112.272 71.3738 112.352 71.3798 112.449L71.598 116.982C71.604 117.08 71.6817 117.153 71.7774 117.147L72.2557 117.123C72.3514 117.117 72.4232 117.037 72.4172 116.939L72.3185 114.911L72.8448 114.884C73.4398 114.853 73.9062 114.328 73.8763 113.714L73.8553 113.268C73.8254 112.654 73.3082 112.177 72.7162 112.208ZM72.8029 114.041L72.2767 114.068L72.2259 113.036L72.7521 113.008C72.9016 113.002 73.0242 113.121 73.0302 113.274L73.0541 113.754C73.063 113.903 72.9524 114.031 72.8029 114.041Z" fill="#767676" fill-opacity="1.000000" fill-rule="nonzero"/>
		<path id="Vector" d="M77.2756 115.537L76.5222 114.45C76.8959 114.233 77.1321 113.796 77.0723 113.326L77.0185 112.889C76.9437 112.278 76.4026 111.842 75.8046 111.918L74.6326 112.068C74.5429 112.08 74.4711 112.165 74.4831 112.263L75.0303 116.765C75.0422 116.863 75.1319 116.927 75.2216 116.918L75.697 116.857C75.7927 116.844 75.8584 116.759 75.8465 116.661L75.5894 114.563L76.4833 115.843C76.5281 115.922 76.5491 115.995 76.558 116.072L76.6179 116.557C76.6298 116.655 76.7195 116.719 76.8152 116.707L77.2905 116.646C77.3862 116.634 77.443 116.548 77.431 116.454L77.3474 115.76C77.3414 115.684 77.3174 115.601 77.2756 115.537ZM76.0319 113.747L75.5026 113.815L75.3771 112.782L75.9062 112.715C76.0498 112.697 76.1843 112.798 76.2023 112.95L76.259 113.43C76.28 113.589 76.1754 113.729 76.0319 113.747Z" fill="#767676" fill-opacity="1.000000" fill-rule="nonzero"/>
		<path id="Vector" d="M78.2212 111.527L77.7518 111.615C77.6591 111.634 77.5992 111.729 77.6172 111.826L78.4186 116.283C78.4365 116.381 78.5232 116.442 78.6189 116.424L79.0883 116.335C79.181 116.317 79.2438 116.228 79.2258 116.133L78.4245 111.677C78.4066 111.579 78.3169 111.509 78.2212 111.527Z" fill="#767676" fill-opacity="1.000000" fill-rule="nonzero"/>
		<path id="Vector" d="M82.2313 113.472C82.2074 113.378 82.1147 113.314 82.022 113.338L81.5586 113.454C81.4659 113.479 81.4121 113.576 81.436 113.671L81.6902 114.737C81.7141 114.832 81.6513 114.927 81.5646 114.948L81.0652 115.073C80.9726 115.097 80.8739 115.042 80.853 114.948L80.1713 112.101C80.1474 112.006 80.2101 111.912 80.3029 111.887L80.8022 111.762C80.8889 111.74 80.9846 111.795 81.0085 111.89L81.1699 112.562C81.1938 112.657 81.2865 112.721 81.3792 112.697L81.8427 112.581C81.9353 112.556 81.9891 112.458 81.9652 112.364L81.7858 111.618C81.6692 111.136 81.1998 110.845 80.7274 110.962L79.9979 111.145C79.5255 111.264 79.2415 111.744 79.3551 112.226L80.0756 115.238C80.1892 115.711 80.6676 116.011 81.134 115.895L81.8636 115.711C82.3359 115.592 82.62 115.107 82.5064 114.63L82.2313 113.472Z" fill="#767676" fill-opacity="1.000000" fill-rule="nonzero"/>
		<path id="Vector" d="M85.4208 113.982C85.3909 113.891 85.2982 113.839 85.2056 113.869L84.3026 114.166L83.8631 112.764L84.4342 112.574C84.5239 112.544 84.5747 112.449 84.5448 112.354L84.4163 111.942C84.3864 111.85 84.2936 111.798 84.201 111.829L83.6299 112.015L83.319 111.026L84.2219 110.729C84.3116 110.699 84.3624 110.604 84.3325 110.509L84.198 110.085C84.1681 109.993 84.0754 109.941 83.9827 109.972L82.4549 110.473C82.3652 110.503 82.3144 110.598 82.3443 110.693L83.7017 115.012C83.7316 115.104 83.8242 115.155 83.9169 115.125L85.4448 114.624C85.5344 114.593 85.5853 114.499 85.5554 114.404L85.4208 113.982Z" fill="#767676" fill-opacity="1.000000" fill-rule="nonzero"/>
		<path id="Vector" d="M87.2797 113.989C87.2797 113.952 87.2737 113.915 87.2618 113.885L87.0584 113.338C87.0255 113.246 86.9359 113.207 86.8611 113.237L86.4335 113.402C86.3438 113.436 86.299 113.531 86.3318 113.622L86.4963 114.065C86.5292 114.156 86.6249 114.193 86.7145 114.16L86.8372 114.114L86.8192 114.3C86.8132 114.34 86.8132 114.383 86.8282 114.422L86.873 114.547C86.891 114.599 86.9538 114.627 86.9986 114.612L87.2169 114.526C87.2618 114.508 87.2887 114.447 87.2708 114.395L87.2588 114.361C87.2468 114.328 87.2528 114.288 87.2558 114.273L87.2797 113.989Z" fill="#767676" fill-opacity="1.000000" fill-rule="nonzero"/>
		<path id="Vector" d="M91.6005 109.779C91.4719 109.517 91.2567 109.33 91.0025 109.236C91.0354 109.022 90.9996 108.808 90.8979 108.603L90.6976 108.197C90.4285 107.647 89.7737 107.421 89.2355 107.699L88.1741 108.246C88.0874 108.289 88.0545 108.393 88.0994 108.481L90.0966 112.535C90.1385 112.623 90.2401 112.657 90.3268 112.611L91.4869 112.015C92.0251 111.74 92.2374 111.068 91.9653 110.519L91.6005 109.779ZM89.1069 108.661L89.5883 108.414C89.7169 108.347 89.8813 108.405 89.9501 108.539L90.1624 108.97C90.2281 109.101 90.1713 109.269 90.0428 109.336L89.5614 109.584L89.1069 108.661ZM91.1281 111.288L90.548 111.588L89.9083 110.29L90.4883 109.99C90.6168 109.923 90.7812 109.981 90.85 110.118L91.2388 110.909C91.3105 111.053 91.2567 111.221 91.1281 111.288Z" fill="#767676" fill-opacity="1.000000" fill-rule="nonzero"/>
		<path id="Vector" d="M94.7615 109.407C94.7137 109.324 94.6091 109.297 94.5284 109.346L93.7151 109.844L92.9737 108.579L93.4909 108.264C93.5717 108.215 93.5986 108.108 93.5507 108.026L93.3325 107.653C93.2816 107.571 93.18 107.543 93.0992 107.592L92.582 107.907L92.0588 107.015L92.875 106.517C92.9557 106.468 92.9827 106.361 92.9348 106.279L92.7106 105.897C92.6628 105.814 92.5581 105.787 92.4774 105.836L91.0991 106.679C91.0184 106.728 90.9915 106.835 91.0393 106.917L93.3205 110.809C93.3683 110.891 93.473 110.919 93.5537 110.87L94.9319 110.027C95.0127 109.978 95.0396 109.871 94.9918 109.789L94.7615 109.407Z" fill="#767676" fill-opacity="1.000000" fill-rule="nonzero"/>
		<path id="Vector" d="M96.868 106.3C96.5181 105.79 95.8424 105.67 95.3461 106.025L95.089 106.208C94.9634 106.291 94.796 106.266 94.7092 106.141L94.4701 105.792C94.3834 105.667 94.4193 105.496 94.5418 105.411L94.799 105.227C94.9215 105.139 95.089 105.163 95.1757 105.292L95.2594 105.411C95.3132 105.49 95.4178 105.508 95.4986 105.453L95.8903 105.172C95.968 105.117 95.986 105.01 95.9321 104.928L95.8663 104.83C95.5225 104.326 94.8408 104.201 94.3445 104.555L94.0873 104.739C93.594 105.09 93.4744 105.792 93.8182 106.293L94.0425 106.62C94.3864 107.125 95.0651 107.234 95.5614 106.889L95.8185 106.706C95.9411 106.617 96.1085 106.645 96.1953 106.77L96.7036 107.512C96.7902 107.638 96.7603 107.812 96.6378 107.9L96.3806 108.084C96.258 108.172 96.0876 108.142 96.0009 108.016L95.66 107.519C95.6062 107.439 95.5016 107.421 95.4208 107.476L95.0292 107.757C94.9514 107.812 94.9335 107.919 94.9873 108.001L95.3102 108.469C95.6541 108.973 96.3417 109.095 96.8321 108.743L97.0892 108.56C97.5826 108.209 97.7021 107.506 97.3583 107.005L96.868 106.3Z" fill="#767676" fill-opacity="1.000000" fill-rule="nonzero"/>
		<path id="Vector" d="M97.4 103.178L97.8545 102.799C97.9232 102.741 97.9382 102.628 97.8784 102.555L97.5944 102.198C97.5346 102.121 97.424 102.115 97.3552 102.173L95.8155 103.456C95.7407 103.517 95.7318 103.627 95.7916 103.7L96.0756 104.058C96.1354 104.134 96.243 104.143 96.3148 104.082L96.7632 103.707L99.176 106.728C99.2358 106.804 99.3464 106.81 99.4152 106.752L99.7859 106.444C99.8606 106.383 99.8696 106.272 99.8098 106.199L97.4 103.178Z" fill="#767676" fill-opacity="1.000000" fill-rule="nonzero"/>
		<path id="Vector" d="M102.98 100.511C102.911 100.444 102.8 100.441 102.735 100.511L102.403 100.863C102.337 100.933 102.343 101.046 102.412 101.113L103.183 101.877C103.252 101.944 103.249 102.06 103.186 102.124L102.83 102.5C102.765 102.57 102.654 102.576 102.585 102.509L100.522 100.469C100.454 100.401 100.457 100.285 100.522 100.218L100.878 99.8423C100.941 99.7783 101.051 99.769 101.12 99.8394L101.608 100.319C101.676 100.386 101.787 100.389 101.853 100.319L102.185 99.9675C102.25 99.8975 102.244 99.7844 102.176 99.717L101.634 99.1826C101.285 98.8374 100.735 98.8467 100.397 99.2039L99.8735 99.7568C99.5356 100.114 99.5446 100.676 99.8944 101.021L102.074 103.178C102.418 103.517 102.977 103.508 103.312 103.157L103.835 102.604C104.173 102.246 104.158 101.681 103.814 101.339L102.98 100.511Z" fill="#767676" fill-opacity="1.000000" fill-rule="nonzero"/>
		<path id="Vector" d="M103.164 96.2109C103.09 96.1499 102.982 96.1653 102.925 96.2354L102.62 96.6111C102.56 96.6875 102.569 96.7944 102.644 96.8586L103.897 97.9185L103.395 98.5356L102.142 97.4756C102.067 97.4146 101.962 97.4238 101.9 97.5L101.595 97.8757C101.535 97.9521 101.544 98.0591 101.619 98.1201L105.039 101.013C105.114 101.074 105.218 101.065 105.281 100.989L105.586 100.613C105.646 100.536 105.637 100.429 105.562 100.368L103.99 99.0366L104.492 98.4194L106.065 99.7515C106.139 99.8125 106.244 99.8032 106.304 99.7271L106.609 99.3513C106.666 99.281 106.66 99.168 106.585 99.1069L103.164 96.2109Z" fill="#767676" fill-opacity="1.000000" fill-rule="nonzero"/>
		<path id="Vector" d="M108.149 95.6489L105.656 93.8958C105.255 93.6145 104.705 93.7185 104.433 94.1216L104.005 94.7539C103.73 95.1633 103.835 95.7192 104.236 96.0002L106.729 97.7537C107.13 98.0347 107.671 97.9338 107.946 97.5244L108.374 96.8923C108.646 96.489 108.55 95.9299 108.149 95.6489ZM107.656 96.5378L107.369 96.9624C107.315 97.042 107.202 97.0632 107.121 97.0083L104.756 95.3467C104.678 95.2915 104.666 95.1816 104.72 95.1023L105.007 94.6777C105.061 94.5981 105.166 94.5676 105.243 94.6226L107.608 96.2844C107.692 96.3423 107.713 96.4585 107.656 96.5378Z" fill="#767676" fill-opacity="1.000000" fill-rule="nonzero"/>
		<path id="Vector" d="M109.752 94.4082L105.982 92.0222C105.901 91.9705 105.791 91.9917 105.74 92.0742L105.489 92.4897C105.438 92.5723 105.468 92.6821 105.549 92.7341L109.319 95.1199C109.399 95.1719 109.504 95.1475 109.555 95.062L109.806 94.6465C109.86 94.564 109.836 94.457 109.752 94.4082Z" fill="#767676" fill-opacity="1.000000" fill-rule="nonzero"/>
		<path id="Vector" d="M110.871 90.905L109.848 90.3398C109.765 90.2939 109.657 90.3215 109.612 90.407L109.385 90.8379C109.34 90.9233 109.376 91.0303 109.46 91.0762L110.405 91.5984C110.488 91.6443 110.515 91.7542 110.473 91.8337L110.231 92.2949C110.186 92.3804 110.082 92.4172 109.995 92.3713L107.471 90.9753C107.388 90.9294 107.361 90.8196 107.406 90.7339L107.651 90.2727C107.693 90.1934 107.797 90.1565 107.881 90.2024L108.476 90.5322C108.56 90.5781 108.667 90.5505 108.712 90.4651L108.94 90.0344C108.984 89.9487 108.948 89.842 108.865 89.793L108.204 89.4265C107.776 89.1912 107.25 89.3501 107.02 89.7869L106.661 90.4622C106.431 90.8989 106.586 91.4365 107.014 91.6716L109.684 93.1472C110.106 93.3794 110.641 93.2175 110.868 92.7866L111.227 92.1116C111.457 91.6777 111.292 91.1372 110.871 90.905Z" fill="#767676" fill-opacity="1.000000" fill-rule="nonzero"/>
		<path id="Vector" d="M112.754 88.4548L112.356 88.2717C112.269 88.2319 112.171 88.2686 112.129 88.3572L111.737 89.24L110.425 88.6321L110.673 88.073C110.712 87.9844 110.676 87.8838 110.589 87.8408L110.203 87.6638C110.117 87.624 110.018 87.6606 109.976 87.7493L109.728 88.3083L108.801 87.8806L109.193 86.9978C109.232 86.9092 109.196 86.8083 109.106 86.7656L108.708 86.5823C108.622 86.5427 108.523 86.5793 108.481 86.668L107.82 88.1616C107.782 88.2502 107.817 88.3511 107.904 88.3938L111.949 90.2634C112.036 90.303 112.135 90.2664 112.177 90.1748L112.837 88.6809C112.879 88.5955 112.84 88.4946 112.754 88.4548Z" fill="#767676" fill-opacity="1.000000" fill-rule="nonzero"/>
		<path id="Vector" d="M28.8524 49.884L32.799 51.9612C32.8827 52.0068 32.9843 51.9734 33.0292 51.8848L33.2474 51.4509C33.2923 51.3623 33.2594 51.2617 33.1727 51.2158L31.4057 50.2874L31.6449 49.8108C31.917 49.2703 31.7047 48.5952 31.1695 48.3142L30.7808 48.1096C30.2457 47.8286 29.5849 48.0454 29.3128 48.5859L28.7747 49.6519C28.7328 49.7375 28.7657 49.8413 28.8524 49.884ZM30.0125 48.9495C30.0812 48.812 30.2427 48.7661 30.3772 48.8364L30.7958 49.0564C30.9243 49.1235 30.9781 49.2854 30.9124 49.4229L30.6702 49.8994L29.7703 49.426L30.0125 48.9495Z" fill="#767676" fill-opacity="1.000000" fill-rule="nonzero"/>
		<path id="Vector" d="M30.6577 46.4412L34.422 48.8452C34.5027 48.897 34.6104 48.8665 34.6582 48.7903L34.9124 48.3748C34.9631 48.2922 34.9393 48.1853 34.8585 48.1333L33.1035 47.0122L34.6373 47.1101C34.7239 47.1252 34.7957 47.1528 34.8585 47.1956L35.2651 47.4553C35.3459 47.5071 35.4535 47.4766 35.5043 47.394L35.7584 46.9788C35.8093 46.8962 35.7824 46.7954 35.7017 46.7434L35.1216 46.3738C35.0588 46.3342 34.9811 46.3005 34.9064 46.2944L33.6058 46.2058C33.6775 45.7751 33.4921 45.3108 33.1005 45.0603L32.7357 44.8281C32.2244 44.5012 31.5517 44.6572 31.2318 45.1765L30.6069 46.1997C30.5561 46.2761 30.577 46.3892 30.6577 46.4412ZM31.8956 45.6011C31.9703 45.4758 32.1348 45.4331 32.2633 45.5154L32.6639 45.769C32.7955 45.8545 32.8373 46.0288 32.7596 46.1509L32.4786 46.6121L31.6145 46.0623L31.8956 45.6011Z" fill="#767676" fill-opacity="1.000000" fill-rule="nonzero"/>
		<path id="Vector" d="M36.306 45.8672C36.3837 45.925 36.4883 45.9099 36.5451 45.8303L37.4959 44.5107C37.5527 44.4314 37.5378 44.3245 37.46 44.2664L37.1072 44.0007C37.0295 43.9426 36.9249 43.958 36.868 44.0374L36.306 44.8193L35.1459 43.9456L35.5017 43.4507C35.5585 43.3713 35.5435 43.2644 35.4658 43.2063L35.1249 42.9497C35.0472 42.8918 34.9426 42.907 34.8857 42.9866L34.53 43.4814L33.7108 42.8643L34.2729 42.0823C34.3297 42.0029 34.3147 41.896 34.237 41.8379L33.8842 41.5723C33.8065 41.5142 33.7018 41.5293 33.645 41.6089L32.6942 42.9285C32.6374 43.0078 32.6523 43.1147 32.7301 43.1729L36.306 45.8672Z" fill="#767676" fill-opacity="1.000000" fill-rule="nonzero"/>
		<path id="Vector" d="M37.4666 42.9744C37.5025 43.0173 37.5384 43.0479 37.5533 43.063L38.0258 43.5C38.0975 43.564 38.2021 43.5579 38.2679 43.4846L38.5848 43.1182C38.6476 43.0447 38.6417 42.9377 38.5699 42.8706L38.1722 42.5103C38.1423 42.4827 38.1154 42.4583 38.0916 42.4277L36.6354 40.769L38.3666 41.9329C38.4384 41.9788 38.534 41.9634 38.5878 41.8992L38.9317 41.5022C38.9855 41.4409 38.9855 41.3464 38.9317 41.2791L37.5922 39.6663L39.3831 40.9399C39.419 40.9614 39.4429 40.9858 39.4758 41.0134L39.8735 41.3738C39.9453 41.438 40.0529 41.4319 40.1157 41.3586L40.4326 40.9919C40.4924 40.9248 40.4894 40.8086 40.4176 40.7446L39.9363 40.3198C39.9213 40.3047 39.8854 40.2742 39.8406 40.2405L36.7012 38.145C36.6295 38.0991 36.5398 38.1113 36.48 38.1787L36.1362 38.5757C36.0823 38.6399 36.0823 38.7314 36.1362 38.7988L37.6938 40.7385L35.6249 39.3882C35.5532 39.3425 35.4634 39.3547 35.4036 39.4219L35.0628 39.813C35.003 39.8801 35.006 39.9749 35.0568 40.042L37.4666 42.9744Z" fill="#767676" fill-opacity="1.000000" fill-rule="nonzero"/>
		<path id="Vector" d="M41.1674 40.0173C41.2332 40.0876 41.3408 40.0908 41.4095 40.0205L41.7534 39.6814C41.8221 39.6143 41.8251 39.5042 41.7563 39.4341L38.671 36.1809C38.6052 36.1106 38.4946 36.1045 38.4258 36.1716L38.082 36.5107C38.0132 36.5779 38.0162 36.6909 38.082 36.7612L41.1674 40.0173Z" fill="#767676" fill-opacity="1.000000" fill-rule="nonzero"/>
		<path id="Vector" d="M42.1625 38.05C42.4705 38.4226 43.0296 38.4714 43.3943 38.157L43.9684 37.6621C44.3332 37.3474 44.381 36.7764 44.0731 36.4036L41.6662 33.4927C41.6034 33.4194 41.4927 33.4041 41.421 33.4651L41.0563 33.7798C40.9845 33.844 40.9785 33.957 41.0413 34.0303L43.3973 36.8772C43.4601 36.9504 43.4452 37.0635 43.3704 37.1274L42.9847 37.4604C42.913 37.5247 42.7994 37.5186 42.7396 37.4453L40.3835 34.5984C40.3207 34.5251 40.2101 34.5098 40.1384 34.5708L39.7736 34.8855C39.7018 34.9497 39.6958 35.0627 39.7586 35.136L42.1625 38.05Z" fill="#767676" fill-opacity="1.000000" fill-rule="nonzero"/>
		<path id="Vector" d="M44.885 35.6648C44.9119 35.7136 44.9359 35.7534 44.9508 35.7717L45.3066 36.3093C45.3604 36.3887 45.465 36.4102 45.5458 36.3552L45.9374 36.0771C46.0151 36.0222 46.0361 35.9153 45.9822 35.8359L45.6803 35.3867C45.6564 35.3533 45.6384 35.3228 45.6205 35.2861L44.598 33.3188L46.0032 34.8706C46.06 34.9316 46.1586 34.9409 46.2244 34.8921L46.652 34.5896C46.7208 34.5408 46.7417 34.4521 46.7058 34.3728L45.7819 32.4788L47.22 34.1528C47.2499 34.1833 47.2679 34.2107 47.2918 34.2476L47.5938 34.6965C47.6476 34.7759 47.7523 34.7974 47.83 34.7422L48.2246 34.4644C48.2964 34.4124 48.3233 34.3025 48.2665 34.2229L47.8987 33.6946C47.8868 33.6763 47.8599 33.6365 47.824 33.5938L45.2677 30.7957C45.2109 30.7346 45.1182 30.7224 45.0464 30.7744L44.6189 31.0767C44.5501 31.1255 44.5292 31.2173 44.5651 31.2937L45.6235 33.5571L43.9312 31.7427C43.8745 31.6816 43.7817 31.6694 43.71 31.7212L43.2885 32.0176C43.2167 32.0696 43.1927 32.1611 43.2286 32.2375L44.885 35.6648Z" fill="#767676" fill-opacity="1.000000" fill-rule="nonzero"/>
		<path id="Vector" d="M50.6586 32.0022C50.8708 32.4419 51.4 32.6252 51.8306 32.4114L52.5063 32.0723C52.9369 31.8555 53.1163 31.3149 52.907 30.875L52.0549 29.1003C52.013 29.0117 51.9113 28.978 51.8246 29.0208L50.9785 29.4453C50.8918 29.4883 50.8589 29.592 50.9008 29.6775L51.0891 30.0654C51.131 30.1541 51.2356 30.1938 51.3193 30.1511L51.5825 30.0198L52.1326 31.1589C52.1744 31.2476 52.1326 31.3516 52.0489 31.3943L51.5884 31.6265C51.5077 31.666 51.4031 31.6355 51.3612 31.5469L50.0964 28.9138C50.0576 28.8315 50.0934 28.7214 50.1742 28.6819L50.6346 28.4497C50.7214 28.4067 50.829 28.4436 50.8679 28.5259L50.9875 28.7764C51.0293 28.865 51.131 28.8987 51.2177 28.856L51.6482 28.6389C51.7349 28.5962 51.7678 28.4924 51.726 28.4067L51.5705 28.0862C51.3552 27.6401 50.829 27.4629 50.3984 27.6768L49.7227 28.0159C49.2862 28.2358 49.1098 28.7673 49.3251 29.2134L50.6586 32.0022Z" fill="#767676" fill-opacity="1.000000" fill-rule="nonzero"/>
		<path id="Vector" d="M53.8365 30.4683C53.8455 30.511 53.8515 30.5293 53.8635 30.5537L54.0817 31.125C54.1176 31.2166 54.2133 31.2593 54.3029 31.2227L54.7484 31.0454C54.8381 31.0088 54.8799 30.9111 54.8441 30.8196L54.6168 30.2268L55.4689 29.8848L55.6962 30.4773C55.732 30.5691 55.8277 30.6118 55.9114 30.5781L56.3629 30.3979C56.4525 30.3613 56.4944 30.2634 56.4585 30.1719L56.2402 29.6006C56.2313 29.5732 56.2224 29.5549 56.2014 29.5183L54.285 26.146C54.2461 26.0786 54.1534 26.033 54.0697 26.0664L53.116 26.4482C53.0323 26.4819 52.9844 26.5674 53.0054 26.656L53.8365 30.4683ZM55.0982 29.1914L54.4225 29.4602L53.8813 27.0317L55.0982 29.1914Z" fill="#767676" fill-opacity="1.000000" fill-rule="nonzero"/>
		<path id="Vector" d="M56.4689 26.7966C56.6393 27.3862 57.2493 27.71 57.8263 27.542L58.1282 27.4504C58.2717 27.4077 58.4242 27.4841 58.4661 27.6306L58.7202 28.5012C58.7621 28.6477 58.6813 28.8035 58.5349 28.8494L58.2328 28.9409C58.0894 28.9836 57.9369 28.9014 57.892 28.7517L57.7216 28.1682C57.6947 28.0735 57.6021 28.0215 57.5093 28.0491L57.0519 28.1897C56.9592 28.217 56.9084 28.3118 56.9383 28.4065L57.0968 28.9563C57.2672 29.5459 57.8801 29.8848 58.4571 29.7078L58.7591 29.616C59.3361 29.4419 59.665 28.8157 59.4946 28.2263L59.2554 27.4016C59.082 26.8059 58.478 26.4729 57.895 26.6501L57.5931 26.7417C57.4466 26.7783 57.2971 26.7021 57.2523 26.5525L57.1326 26.1431C57.0908 25.9966 57.1745 25.8469 57.318 25.801L57.62 25.7095C57.7635 25.6665 57.916 25.7429 57.9578 25.8896L57.9997 26.03C58.0266 26.1248 58.1193 26.1768 58.212 26.1492L58.6694 26.0088C58.762 25.9812 58.8129 25.8865 58.783 25.7917L58.7501 25.6787C58.5797 25.0894 57.9728 24.7502 57.3898 24.9275L57.0878 25.019C56.5108 25.1931 56.1789 25.8193 56.3523 26.4089L56.4689 26.7966Z" fill="#767676" fill-opacity="1.000000" fill-rule="nonzero"/>
		<path id="Vector" d="M60.6702 28.1594C60.7689 28.645 61.2293 28.9536 61.7017 28.8528L62.4372 28.697C62.9066 28.5991 63.2146 28.1257 63.1159 27.6431L62.506 24.616C62.4073 24.1301 61.9409 23.8157 61.4714 23.9133L60.736 24.0691C60.2606 24.1699 59.9586 24.6465 60.0573 25.1321L60.6702 28.1594ZM61.017 24.8298L61.5133 24.7258C61.606 24.7075 61.7017 24.7563 61.7196 24.8542L62.2997 27.7256C62.3176 27.8203 62.2548 27.9211 62.1622 27.9395L61.6658 28.0432C61.5731 28.0615 61.4744 27.9973 61.4565 27.9028L60.8795 25.0312C60.8585 24.9365 60.9243 24.8511 61.017 24.8298Z" fill="#767676" fill-opacity="1.000000" fill-rule="nonzero"/>
		<path id="Vector" d="M64.5957 28.3179L66.1893 28.1133C66.285 28.1011 66.3507 28.0154 66.3387 27.9177L66.285 27.4749C66.273 27.377 66.1893 27.313 66.0936 27.3252L65.1458 27.4473L64.6675 23.5618C64.6555 23.4641 64.5718 23.3999 64.4761 23.4121L64.0007 23.4731C63.9051 23.4854 63.8423 23.571 63.8542 23.6687L64.4103 28.1714C64.4163 28.2659 64.5031 28.3301 64.5957 28.3179Z" fill="#767676" fill-opacity="1.000000" fill-rule="nonzero"/>
		<path id="Vector" d="M67.5648 27.9973L68.0432 27.9636C68.1389 27.9575 68.2076 27.8752 68.2016 27.7773L67.9086 23.2595C67.9026 23.1619 67.822 23.0823 67.7263 23.0916L67.2479 23.1252C67.1522 23.1313 67.0835 23.2197 67.0895 23.3176L67.3824 27.8354C67.3884 27.9331 67.4692 28.0034 67.5648 27.9973Z" fill="#767676" fill-opacity="1.000000" fill-rule="nonzero"/>
		<path id="Vector" d="M69.5589 27.8843L70.0014 27.8843C70.0971 27.8843 70.1718 27.8079 70.1718 27.7102L70.1748 24.8359L71.0658 27.7622C71.0867 27.8384 71.1555 27.8875 71.2302 27.8875L71.7355 27.8875C71.8312 27.8875 71.9059 27.811 71.9059 27.7131L71.9119 23.1772C71.9119 23.0793 71.8372 23.0032 71.7415 23.0032L71.2841 23.0032C71.1884 23.0032 71.1136 23.0793 71.1136 23.1772L71.1107 25.627L70.3154 23.1191C70.2885 23.0488 70.2256 23 70.1509 23L69.5619 23C69.4662 23 69.3915 23.0764 69.3915 23.1741L69.3855 27.7102C69.3885 27.8079 69.4633 27.8843 69.5589 27.8843Z" fill="#767676" fill-opacity="1.000000" fill-rule="nonzero"/>
		<path id="Vector" d="M73.2319 27.9639L74.8315 28.0984C74.9272 28.1074 75.0079 28.0371 75.0169 27.9395L75.0528 27.4934C75.0618 27.3958 74.993 27.3132 74.8973 27.304L73.9495 27.2246L74.0662 25.7554L74.6641 25.8042C74.7598 25.8135 74.8405 25.7432 74.8495 25.6453L74.8854 25.2146C74.8943 25.1169 74.8256 25.0344 74.7299 25.0251L74.1289 24.9763L74.2126 23.9409L75.1604 24.0203C75.2561 24.0293 75.3369 23.9592 75.3458 23.8613L75.3817 23.4155C75.3906 23.3176 75.3219 23.2351 75.2262 23.2261L73.6266 23.0916C73.5309 23.0825 73.4503 23.1528 73.4413 23.2505L73.0795 27.7744C73.0675 27.8723 73.1363 27.9546 73.2319 27.9639Z" fill="#767676" fill-opacity="1.000000" fill-rule="nonzero"/>
		<path id="Vector" d="M76.2542 28.2812L76.3827 28.2996L76.2781 28.4524C76.2542 28.4829 76.2332 28.5227 76.2272 28.5654L76.2093 28.6968C76.2003 28.7517 76.2422 28.8066 76.29 28.8127L76.5202 28.8464C76.5681 28.8525 76.6218 28.8127 76.6278 28.7578L76.6338 28.7241C76.6398 28.6907 76.6637 28.657 76.6727 28.6448L76.8281 28.4126C76.8461 28.3789 76.858 28.3455 76.864 28.3118L76.9447 27.7314C76.9567 27.6338 76.8998 27.5542 76.8192 27.5452L76.3647 27.478C76.2691 27.4626 76.1854 27.5237 76.1735 27.6184L76.1077 28.0889C76.0957 28.1865 76.1584 28.2661 76.2542 28.2812Z" fill="#767676" fill-opacity="1.000000" fill-rule="nonzero"/>
		<path id="Vector" d="M78.1566 28.5803L79.3196 28.8308C79.9086 28.9592 80.4916 28.5681 80.6142 27.9695L81.1494 25.3821C81.275 24.7744 80.8953 24.1787 80.3063 24.0503L79.1432 23.7998C79.0505 23.7786 78.9579 23.8457 78.9399 23.9404L78.0251 28.3728C78.0042 28.4705 78.061 28.5591 78.1566 28.5803ZM79.6186 24.707L80.1478 24.8201C80.2943 24.8506 80.39 25.0005 80.3601 25.1501L79.8069 27.8259C79.777 27.9756 79.6306 28.0732 79.4841 28.0427L78.9549 27.9297L79.6186 24.707Z" fill="#767676" fill-opacity="1.000000" fill-rule="nonzero"/>
		<path id="Vector" d="M81.6192 29.4084L82.0797 29.5398C82.1723 29.5674 82.265 29.5125 82.2889 29.4207L83.4938 25.0586C83.5207 24.9641 83.4698 24.8633 83.3772 24.8357L82.9167 24.7043C82.8241 24.677 82.7284 24.738 82.7045 24.8328L81.4996 29.1948C81.4727 29.2864 81.5265 29.3811 81.6192 29.4084Z" fill="#767676" fill-opacity="1.000000" fill-rule="nonzero"/>
		<path id="Vector" d="M83.5532 29.9978L85.069 30.5386C85.1588 30.572 85.2544 30.5232 85.2873 30.4316L85.4308 30.01C85.4637 29.9185 85.4159 29.8208 85.3262 29.7871L84.4292 29.4663L84.9046 28.0767L85.4727 28.2781C85.5624 28.3118 85.658 28.2629 85.6909 28.1714L85.8314 27.762C85.8643 27.6704 85.8165 27.5725 85.7268 27.5391L85.1588 27.3374L85.4966 26.3569L86.3936 26.6777C86.4832 26.7112 86.5789 26.6624 86.6118 26.5708L86.7553 26.1492C86.7882 26.0576 86.7404 25.96 86.6506 25.9263L85.1348 25.3857C85.0451 25.3521 84.9495 25.4009 84.9166 25.4924L83.4485 29.7749C83.4186 29.8696 83.4635 29.9673 83.5532 29.9978Z" fill="#767676" fill-opacity="1.000000" fill-rule="nonzero"/>
		<path id="Vector" d="M87.177 31.4189L87.4641 31.5471C88.0142 31.7947 88.6629 31.5381 88.9051 30.9758L89.2429 30.1907C89.4881 29.6226 89.24 28.9688 88.6838 28.7183L88.3969 28.5898C88.2623 28.5227 88.1965 28.3638 88.2563 28.2202L88.4238 27.8323C88.4835 27.6917 88.645 27.6338 88.7825 27.6948L89.0696 27.8232C89.2071 27.8843 89.2728 28.043 89.2131 28.1836L89.1562 28.3181C89.1174 28.4067 89.1562 28.5073 89.2429 28.5471L89.6794 28.7458C89.7662 28.7854 89.8648 28.7456 89.9037 28.6572L89.9515 28.5471C90.1937 27.9851 89.9485 27.3252 89.3925 27.0747L89.1054 26.9463C88.5553 26.699 87.9065 26.9556 87.6644 27.5176L87.5059 27.8811C87.2637 28.4434 87.5208 29.094 88.0679 29.3477L88.355 29.4758C88.4925 29.5369 88.5583 29.6958 88.4985 29.8364L88.1397 30.6672C88.0799 30.8079 87.9185 30.8721 87.778 30.8108L87.4909 30.6826C87.3534 30.6216 87.2906 30.4565 87.3504 30.313L87.5896 29.7568C87.6285 29.6685 87.5896 29.5676 87.5029 29.5278L87.0664 29.3293C86.9797 29.2896 86.881 29.3293 86.8422 29.4177L86.6149 29.9402C86.3757 30.5085 86.6269 31.1714 87.177 31.4189Z" fill="#767676" fill-opacity="1.000000" fill-rule="nonzero"/>
		<path id="Vector" d="M89.582 32.5793L90.9961 33.3582C91.0798 33.4041 91.1815 33.3735 91.2263 33.2881L91.4326 32.894C91.4775 32.8083 91.4476 32.7046 91.3639 32.6587L90.5267 32.1975L91.2114 30.9023L91.7406 31.1926C91.8243 31.2383 91.9259 31.2078 91.9708 31.1223L92.1711 30.7405C92.2159 30.655 92.186 30.551 92.1024 30.5051L91.5732 30.2151L92.0545 29.2986L92.8916 29.76C92.9753 29.8057 93.077 29.7751 93.1248 29.6897L93.3311 29.2957C93.376 29.2102 93.3461 29.1062 93.2623 29.0603L91.8482 28.2815C91.7645 28.2356 91.6628 28.2661 91.618 28.3518L89.5132 32.3442C89.4654 32.4297 89.4952 32.5334 89.582 32.5793Z" fill="#767676" fill-opacity="1.000000" fill-rule="nonzero"/>
		<path id="Vector" d="M92.2419 34.1067L93.5963 34.9863C93.677 35.0383 93.7816 35.0139 93.8325 34.9314L94.0657 34.5557C94.1165 34.4731 94.0926 34.3662 94.0148 34.3145L93.2076 33.792L95.2616 30.4839C95.3124 30.4014 95.2885 30.2944 95.2078 30.2427L94.8041 29.98C94.7234 29.928 94.6188 29.9524 94.5679 30.0349L92.188 33.8652C92.1372 33.9478 92.1611 34.0547 92.2419 34.1067Z" fill="#767676" fill-opacity="1.000000" fill-rule="nonzero"/>
		<path id="Vector" d="M94.9194 35.1421L94.6473 35.5271C94.5905 35.6064 94.6115 35.7073 94.6892 35.7654L94.7939 35.8416L94.6324 35.9272C94.5965 35.9424 94.5606 35.97 94.5367 36.0034L94.462 36.1104C94.4291 36.1562 94.441 36.2234 94.4799 36.2539L94.6683 36.3914C94.7072 36.4189 94.7729 36.4097 94.8058 36.364L94.8268 36.3364C94.8477 36.3091 94.8835 36.2908 94.8985 36.2847L95.1407 36.1533C95.1707 36.1318 95.1975 36.1074 95.2184 36.0798L95.5533 35.6035C95.6102 35.5239 95.5952 35.4263 95.5264 35.3774L95.1557 35.1055C95.075 35.0505 94.9733 35.0627 94.9194 35.1421Z" fill="#767676" fill-opacity="1.000000" fill-rule="nonzero"/>
		<path id="Vector" d="M96.6252 37.262C96.7 37.323 96.8046 37.3108 96.8644 37.2375L98.156 35.6125L98.6284 36.0034C98.7032 36.0645 98.8078 36.0522 98.8676 35.979L99.1397 35.637C99.1995 35.5605 99.1905 35.4536 99.1158 35.3926L98.6434 35.0015L99.2802 34.2012L100.022 34.8181C100.096 34.8794 100.201 34.8701 100.261 34.7937L100.536 34.4456C100.596 34.3691 100.584 34.2622 100.512 34.2012L99.2653 33.1655C99.1905 33.1045 99.0859 33.1138 99.0261 33.1899L96.2245 36.7122C96.1648 36.7886 96.1767 36.8955 96.2485 36.9565L96.6252 37.262Z" fill="#767676" fill-opacity="1.000000" fill-rule="nonzero"/>
		<path id="Vector" d="M99.0096 39.3699L99.5538 39.8982C99.9006 40.2344 100.46 40.2222 100.792 39.8677L103.363 37.1064C103.429 37.0361 103.432 36.9231 103.36 36.856L103.013 36.5198C102.944 36.4526 102.834 36.4619 102.768 36.5322L100.253 39.2324C100.188 39.3027 100.077 39.3027 100.008 39.2324L99.6404 38.875C99.5717 38.8079 99.5627 38.6948 99.6285 38.6245L102.143 35.9243C102.209 35.854 102.212 35.741 102.14 35.6738L101.793 35.3376C101.724 35.2705 101.614 35.2798 101.548 35.3499L98.9767 38.1113C98.6508 38.4626 98.6628 39.0339 99.0096 39.3699Z" fill="#767676" fill-opacity="1.000000" fill-rule="nonzero"/>
		<path id="Vector" d="M101.097 41.499L102.167 42.7207C102.23 42.7939 102.338 42.8003 102.409 42.7329L102.735 42.4336C102.807 42.3694 102.813 42.2595 102.747 42.1863L102.113 41.4624L103.187 40.4788L103.587 40.937C103.65 41.0103 103.758 41.0164 103.83 40.9492L104.143 40.6589C104.215 40.5947 104.221 40.4849 104.155 40.4116L103.755 39.9534L104.511 39.26L105.145 39.981C105.208 40.0542 105.315 40.0603 105.387 39.9932L105.713 39.6938C105.785 39.6296 105.791 39.5195 105.725 39.4463L104.655 38.2246C104.592 38.1511 104.484 38.145 104.413 38.2124L101.106 41.2393C101.037 41.3188 101.034 41.4255 101.097 41.499Z" fill="#767676" fill-opacity="1.000000" fill-rule="nonzero"/>
		<path id="Vector" d="M103.081 43.8506L104.065 45.1458C104.125 45.2219 104.229 45.2373 104.304 45.1763L104.651 44.9014C104.726 44.8403 104.741 44.7334 104.681 44.657L104.095 43.8843L107.124 41.4866C107.198 41.4253 107.213 41.3186 107.154 41.2422L106.861 40.8572C106.801 40.781 106.696 40.7656 106.621 40.8267L103.111 43.6033C103.037 43.6643 103.025 43.7712 103.081 43.8506Z" fill="#767676" fill-opacity="1.000000" fill-rule="nonzero"/>
		<path id="Vector" d="M106.383 48.7202L106.76 49.3831C106.999 49.8047 107.537 49.9543 107.956 49.7068L110.572 48.1521C110.99 47.9016 111.134 47.3486 110.895 46.9272L110.518 46.2644C110.273 45.8367 109.734 45.6963 109.316 45.9436L106.7 47.4983C106.278 47.7488 106.138 48.2925 106.383 48.7202ZM107.187 48.1765L109.666 46.7012C109.749 46.6523 109.848 46.689 109.896 46.7744L110.15 47.2205C110.198 47.3059 110.18 47.4128 110.096 47.4617L107.615 48.937C107.531 48.9861 107.42 48.9553 107.372 48.873L107.118 48.427C107.076 48.3416 107.106 48.2253 107.187 48.1765Z" fill="#767676" fill-opacity="1.000000" fill-rule="nonzero"/>
		<path id="Vector" d="M107.812 51.3867L108.024 51.8235C108.066 51.9121 108.168 51.9456 108.251 51.9028L112.228 49.896C112.315 49.8533 112.354 49.7463 112.312 49.6577L112.099 49.2209C112.058 49.1323 111.95 49.1018 111.863 49.1445L107.887 51.1514C107.803 51.1973 107.767 51.301 107.812 51.3867Z" fill="#767676" fill-opacity="1.000000" fill-rule="nonzero"/>
		<path id="Vector" d="M113.079 51.3503C113.044 51.2588 112.945 51.219 112.855 51.2559L108.762 53.0151C108.676 53.0518 108.634 53.1526 108.673 53.2444L109.294 54.7563C109.33 54.845 109.429 54.8877 109.519 54.8479L109.922 54.6738C110.012 54.6372 110.051 54.5364 110.015 54.4448L109.644 53.5437L113.178 52.0256C113.265 51.9888 113.307 51.8879 113.271 51.7964L113.079 51.3503Z" fill="#767676" fill-opacity="1.000000" fill-rule="nonzero"/>
	</g>
</svg>
