<svg width="128.269897" height="94.147461" viewBox="0 0 128.27 94.1475" fill="none" xmlns="http://www.w3.org/2000/svg" xmlns:xlink="http://www.w3.org/1999/xlink">
    <desc>
        Created with Pixso.
    </desc>
    <defs/>
    <path id="Vector" d="M45.5332 63.1978C45.4286 63.0603 45.2313 63.0359 45.0967 63.1428C42.7318 65.0366 40.8751 66.4419 39.0782 67.6912C38.9377 67.7891 38.8988 67.9875 38.9975 68.1311C39.0573 68.2227 39.1559 68.2686 39.2546 68.2686C39.3144 68.2686 39.3772 68.2502 39.428 68.2136C41.2369 66.9551 43.1025 65.5437 45.4794 63.6406C45.6169 63.5369 45.6378 63.3352 45.5332 63.1978Z" fill="#767676" fill-opacity="1.000000" fill-rule="nonzero"/>
    <path id="Vector" d="M35.9721 70.6934C36.0349 70.6934 36.0977 70.675 36.1545 70.6321L36.9827 70.0212C37.1203 69.9175 37.1532 69.7219 37.0515 69.5786C36.9498 69.4351 36.7555 69.4043 36.618 69.5083L35.7897 70.1191C35.6522 70.2229 35.6193 70.4185 35.7209 70.562C35.7808 70.6475 35.8765 70.6934 35.9721 70.6934Z" fill="#767676" fill-opacity="1.000000" fill-rule="nonzero"/>
    <path id="Vector" d="M55.095 63.335L53.0259 66.6248C52.9332 66.7715 52.975 66.97 53.1186 67.0647C53.1694 67.0984 53.2292 67.1167 53.286 67.1167C53.3877 67.1167 53.4893 67.0647 53.5461 66.97L55.6152 63.6802C55.7079 63.5337 55.666 63.335 55.5225 63.2402C55.382 63.1458 55.1876 63.1885 55.095 63.335Z" fill="#767676" fill-opacity="1.000000" fill-rule="nonzero"/>
    <path id="Vector" d="M45.0074 78.6721C45.103 78.6721 45.1957 78.6262 45.2585 78.5408L52.4163 68.5459C52.5179 68.4055 52.488 68.2068 52.3475 68.103C52.21 67.999 52.0156 68.0298 51.9139 68.1733L44.7562 78.168C44.6546 78.3086 44.6844 78.5071 44.825 78.6111C44.8788 78.6538 44.9446 78.6721 45.0074 78.6721Z" fill="#767676" fill-opacity="1.000000" fill-rule="nonzero"/>
    <path id="Vector" d="M60.9639 63.4114C60.2313 66.2368 59.4031 69.0869 58.6019 71.842C57.5764 75.3733 56.515 79.0234 55.642 82.6677C55.6001 82.8389 55.7018 83.0098 55.8692 83.0525C55.8931 83.0586 55.92 83.0618 55.944 83.0618C56.0845 83.0618 56.21 82.9641 56.2459 82.8206C57.113 79.1917 58.1714 75.5474 59.1968 72.0254C59.9981 69.2639 60.8293 66.408 61.5648 63.5762C61.6096 63.4082 61.511 63.2341 61.3436 63.1882C61.1821 63.1426 61.0087 63.2434 60.9639 63.4114Z" fill="#767676" fill-opacity="1.000000" fill-rule="nonzero"/>
    <path id="Vector" d="M40.4644 75.4556C40.5482 75.4556 40.6288 75.4219 40.6917 75.3547L46.9076 68.6377C47.0242 68.5095 47.0212 68.3108 46.8956 68.1887C46.77 68.0696 46.5757 68.0757 46.4561 68.2009L40.2402 74.9177C40.1236 75.0461 40.1266 75.2446 40.2521 75.3669C40.312 75.428 40.3867 75.4556 40.4644 75.4556Z" fill="#767676" fill-opacity="1.000000" fill-rule="nonzero"/>
    <path id="Vector" d="M35.8099 63.0879L32.5689 64.7524C32.4164 64.8318 32.3536 65.0212 32.4313 65.177C32.4852 65.2869 32.5958 65.3511 32.7094 65.3511C32.7573 65.3511 32.8051 65.3389 32.85 65.3174L36.0909 63.6528C36.2434 63.5735 36.3062 63.384 36.2285 63.2283C36.1477 63.0725 35.9623 63.0085 35.8099 63.0879Z" fill="#767676" fill-opacity="1.000000" fill-rule="nonzero"/>
    <path id="Vector" d="M48.2388 66.9395L51.1837 63.6833C51.3003 63.5549 51.2914 63.3535 51.1658 63.2344C51.0402 63.1152 50.8429 63.1243 50.7263 63.2527L47.7814 66.5088C47.6647 66.637 47.6737 66.8386 47.7993 66.9578C47.8591 67.0127 47.9338 67.0432 48.0085 67.0432C48.0923 67.0403 48.176 67.0066 48.2388 66.9395Z" fill="#767676" fill-opacity="1.000000" fill-rule="nonzero"/>
    <path id="Vector" d="M58.6581 63.6528C58.7299 63.4939 58.6611 63.3047 58.5026 63.2312C58.3471 63.1611 58.1617 63.2283 58.09 63.3901C57.0734 65.678 55.9672 67.9722 54.8969 70.1897C53.3123 73.4766 51.6738 76.8733 50.2896 80.3279C50.2238 80.4897 50.3015 80.6763 50.46 80.7402C50.4988 80.7556 50.5377 80.7646 50.5765 80.7646C50.6992 80.7646 50.8157 80.6914 50.8636 80.5662C52.2389 77.1296 53.8743 73.7422 55.4529 70.4678C56.5293 68.2471 57.6385 65.9468 58.6581 63.6528Z" fill="#767676" fill-opacity="1.000000" fill-rule="nonzero"/>
    <path id="Vector" d="M69.2089 84.1582C69.2299 84.3169 69.3644 84.4331 69.5168 84.4331C69.5288 84.4331 69.5438 84.4331 69.5587 84.4299C69.7291 84.4087 69.8488 84.2468 69.8278 84.0757C69.3943 80.6819 69.0833 77.2119 68.7814 73.8579C68.4734 70.4153 68.1535 66.8564 67.699 63.3682C67.6751 63.1941 67.5226 63.075 67.3492 63.0962C67.1788 63.1206 67.0592 63.2795 67.0831 63.4536C67.5346 66.9299 67.8545 70.4824 68.1625 73.9189C68.4614 77.2791 68.7754 80.7522 69.2089 84.1582Z" fill="#767676" fill-opacity="1.000000" fill-rule="nonzero"/>
    <path id="Vector" d="M72.4794 72.0071C73.6575 75.6392 74.8743 79.3962 75.8789 83.1472C75.9178 83.2878 76.0403 83.3826 76.1779 83.3826C76.2048 83.3826 76.2317 83.3794 76.2586 83.3704C76.423 83.3245 76.5217 83.1504 76.4769 82.9824C75.4693 79.2129 74.2495 75.4497 73.0685 71.8086C72.1745 69.0503 71.2506 66.1973 70.4254 63.3687C70.3776 63.2007 70.2042 63.106 70.0397 63.155C69.8753 63.2039 69.7826 63.3811 69.8304 63.5491C70.6586 66.3867 71.5855 69.2427 72.4794 72.0071Z" fill="#767676" fill-opacity="1.000000" fill-rule="nonzero"/>
    <path id="Vector" d="M83.6084 80.3984C83.6652 80.5022 83.7698 80.5603 83.8775 80.5603C83.9283 80.5603 83.9821 80.5481 84.03 80.5205C84.1794 80.4351 84.2333 80.2395 84.1466 80.0898C83.0583 78.1226 81.97 76.1125 80.9176 74.1667C78.9892 70.6021 76.995 66.918 74.923 63.3562C74.8363 63.2065 74.645 63.1577 74.4985 63.2463C74.352 63.335 74.3011 63.5303 74.3908 63.6799C76.4598 67.2327 78.451 70.9136 80.3765 74.4722C81.4318 76.415 82.5201 78.428 83.6084 80.3984Z" fill="#767676" fill-opacity="1.000000" fill-rule="nonzero"/>
    <path id="Vector" d="M88.116 67.7275C88.1758 67.7793 88.2476 67.804 88.3193 67.804C88.4061 67.804 88.4927 67.7671 88.5555 67.6938C88.6662 67.5596 88.6512 67.3608 88.5226 67.2478L83.7897 63.1025C83.6611 62.9895 83.4638 63.0049 83.3532 63.1362C83.2426 63.2705 83.2575 63.4692 83.3861 63.5823L88.116 67.7275Z" fill="#767676" fill-opacity="1.000000" fill-rule="nonzero"/>
    <path id="Vector" d="M92.7455 72.1689C92.8054 72.2271 92.8831 72.2546 92.9578 72.2546C93.0415 72.2546 93.1223 72.2209 93.1851 72.1538C93.3016 72.0254 93.2957 71.824 93.1701 71.7048L91.9263 70.5105C91.8008 70.3916 91.6035 70.3977 91.4868 70.5259C91.3702 70.6541 91.3762 70.8557 91.5018 70.9749L92.7455 72.1689Z" fill="#767676" fill-opacity="1.000000" fill-rule="nonzero"/>
    <path id="Vector" d="M64.0045 63.1453C63.837 63.1331 63.6815 63.2554 63.6666 63.4326C63.239 68.0115 62.7965 72.9753 62.2703 79.0479C62.2553 79.2222 62.3809 79.3779 62.5513 79.3931C62.5603 79.3931 62.5692 79.3931 62.5782 79.3931C62.7367 79.3931 62.8742 79.2678 62.8862 79.103C63.4094 73.0303 63.8519 68.0696 64.2795 63.4905C64.3004 63.3196 64.1779 63.1638 64.0045 63.1453Z" fill="#767676" fill-opacity="1.000000" fill-rule="nonzero"/>
    <path id="Vector" d="M62.5638 79.5188C62.3994 79.5066 62.2409 79.6318 62.226 79.8059L61.8313 84.125C61.8163 84.2993 61.9419 84.4551 62.1124 84.4702C62.1213 84.4702 62.1333 84.4734 62.1423 84.4734C62.3007 84.4734 62.4352 84.3511 62.4502 84.1863L62.8448 79.8672C62.8598 79.6899 62.7343 79.5342 62.5638 79.5188Z" fill="#767676" fill-opacity="1.000000" fill-rule="nonzero"/>
    <path id="Vector" d="M88.8223 77.0352C88.8911 77.0352 88.9598 77.0107 89.0167 76.9648C89.1512 76.8547 89.1721 76.6562 89.0645 76.5188C85.5215 71.9827 82.0145 67.5352 78.639 63.2983C78.5313 63.1609 78.334 63.1426 78.2025 63.2527C78.0709 63.3625 78.0499 63.5642 78.1576 63.6985C81.5301 67.9353 85.0372 72.3799 88.5771 76.916C88.6429 76.9954 88.7326 77.0352 88.8223 77.0352Z" fill="#767676" fill-opacity="1.000000" fill-rule="nonzero"/>
    <path id="Vector" d="M92.8495 65.2749C92.9541 65.2749 93.0528 65.2229 93.1126 65.125C93.2023 64.9753 93.1604 64.78 93.0139 64.6882L90.643 63.1731C90.4995 63.0813 90.3051 63.124 90.2155 63.2739C90.1257 63.4236 90.1676 63.6191 90.3141 63.7107L92.6851 65.2258C92.7359 65.2566 92.7927 65.2749 92.8495 65.2749Z" fill="#767676" fill-opacity="1.000000" fill-rule="nonzero"/>
    <path id="Vector" d="M82.2869 34.2729C82.3467 34.3555 82.4394 34.3982 82.532 34.3982C82.5978 34.3982 82.6636 34.377 82.7204 34.334L91.8245 27.2075C91.962 27.1006 91.986 26.9021 91.8813 26.7617C91.7767 26.6243 91.5823 26.5967 91.4448 26.7036L82.3407 33.8301C82.2092 33.9338 82.1823 34.1355 82.2869 34.2729Z" fill="#767676" fill-opacity="1.000000" fill-rule="nonzero"/>
    <path id="Vector" d="M77.771 27.8467C77.6275 27.7522 77.4362 27.7949 77.3405 27.9414L73.5823 33.9192C73.4896 34.0659 73.5314 34.2612 73.675 34.3591C73.7258 34.3926 73.7856 34.408 73.8424 34.408C73.944 34.408 74.0457 34.356 74.1025 34.2612L77.8607 28.2837C77.9564 28.137 77.9145 27.9414 77.771 27.8467Z" fill="#767676" fill-opacity="1.000000" fill-rule="nonzero"/>
    <path id="Vector" d="M85.6313 16.3669L78.4736 26.3618C78.3719 26.5022 78.4019 26.7007 78.5424 26.8047C78.5963 26.8474 78.662 26.8657 78.7248 26.8657C78.8204 26.8657 78.9161 26.8198 78.976 26.7344L86.1337 16.7395C86.2353 16.5991 86.2054 16.4004 86.0649 16.2966C85.9273 16.1958 85.733 16.2263 85.6313 16.3669Z" fill="#767676" fill-opacity="1.000000" fill-rule="nonzero"/>
    <path id="Vector" d="M75.2489 12.2458C75.2908 12.075 75.1921 11.9038 75.0276 11.8579C74.8632 11.8152 74.6928 11.916 74.6479 12.084C74.1666 13.978 73.6583 15.8901 73.1411 17.7964C73.3354 17.8787 73.5238 17.9766 73.7062 18.0896C74.2324 16.1438 74.7526 14.1855 75.2489 12.2458Z" fill="#767676" fill-opacity="1.000000" fill-rule="nonzero"/>
    <path id="Vector" d="M68.7399 34.0227C68.695 34.1907 68.7967 34.3647 68.9611 34.4106C68.988 34.4167 69.015 34.4199 69.0389 34.4199C69.1764 34.4199 69.3019 34.3252 69.3378 34.1816C69.6129 33.1033 69.9 32.019 70.187 30.9346L69.5441 30.9346C69.2721 31.967 69.003 32.9963 68.7399 34.0227Z" fill="#767676" fill-opacity="1.000000" fill-rule="nonzero"/>
    <path id="Vector" d="M88.1157 22.7266L90.6481 19.9897C90.7648 19.8613 90.7618 19.6628 90.6362 19.5408C90.5106 19.4216 90.3163 19.4277 90.1967 19.553L87.6642 22.2898C87.5477 22.418 87.5507 22.6165 87.6762 22.7388C87.736 22.7966 87.8138 22.8242 87.8885 22.8242C87.9722 22.8271 88.0559 22.7937 88.1157 22.7266Z" fill="#767676" fill-opacity="1.000000" fill-rule="nonzero"/>
    <path id="Vector" d="M80.4266 14.1672C80.2681 14.103 80.0858 14.1826 80.0229 14.3445C79.736 15.0867 79.3981 15.7983 79.0393 16.553C78.7822 17.0967 78.5161 17.6587 78.2709 18.23C78.2022 18.3918 78.274 18.5781 78.4324 18.6484C78.4742 18.6667 78.5161 18.6758 78.558 18.6758C78.6776 18.6758 78.7912 18.6057 78.842 18.4866C79.0812 17.9275 79.3443 17.3716 79.5984 16.834C79.9453 16.1008 80.304 15.3464 80.6 14.5828C80.6628 14.4177 80.585 14.2314 80.4266 14.1672Z" fill="#767676" fill-opacity="1.000000" fill-rule="nonzero"/>
    <path id="Vector" d="M89.7187 34.2212C89.7725 34.3311 89.8831 34.3953 89.9968 34.3953C90.0446 34.3953 90.0924 34.3831 90.1373 34.3618L97.6208 30.519C97.7733 30.4397 97.8361 30.2502 97.7584 30.0945C97.6806 29.9387 97.4952 29.8748 97.3428 29.9541L89.8592 33.7966C89.7007 33.876 89.641 34.0654 89.7187 34.2212Z" fill="#767676" fill-opacity="1.000000" fill-rule="nonzero"/>
    <path id="Vector" d="M77.2988 34.3562C77.3585 34.4141 77.4333 34.4417 77.5081 34.4417C77.5917 34.4417 77.6755 34.408 77.7353 34.3408L85.5955 25.6565C85.7121 25.5281 85.7031 25.3267 85.5776 25.2075C85.452 25.0884 85.2547 25.0974 85.1381 25.2258L77.2778 33.9102C77.1642 34.0354 77.1732 34.2371 77.2988 34.3562Z" fill="#767676" fill-opacity="1.000000" fill-rule="nonzero"/>
    <path id="Vector" d="M71.1708 33.9888C71.1021 34.1506 71.1739 34.3372 71.3323 34.4075C71.3742 34.4258 71.416 34.4348 71.4579 34.4348C71.5775 34.4348 71.6911 34.3645 71.7419 34.2454C72.2861 32.9746 72.8632 31.7161 73.4432 30.4697C73.1771 30.6104 72.8931 30.7234 72.6 30.8027C72.1127 31.8535 71.6313 32.9165 71.1708 33.9888Z" fill="#767676" fill-opacity="1.000000" fill-rule="nonzero"/>
    <path id="Vector" d="M78.1068 20.1147C78.1696 19.9529 78.0919 19.7666 77.9334 19.7024C77.775 19.6382 77.5926 19.7178 77.5298 19.8796C77.0275 21.1716 76.4714 22.4668 75.8914 23.7527L75.8914 25.2554C76.6747 23.5571 77.4371 21.8374 78.1068 20.1147Z" fill="#767676" fill-opacity="1.000000" fill-rule="nonzero"/>
    <path id="Vector" d="M61.6819 10.7554C61.664 10.5813 61.5115 10.4592 61.3381 10.4744C61.1677 10.4927 61.0451 10.6516 61.063 10.8257C61.3052 13.0249 61.5294 15.2732 61.7477 17.4724L62.3726 17.4724C62.1543 15.2549 61.9271 12.9792 61.6819 10.7554Z" fill="#767676" fill-opacity="1.000000" fill-rule="nonzero"/>
    <path id="Vector" d="M63.6528 34.1296C63.6768 34.2886 63.8083 34.3987 63.9608 34.3987C63.9757 34.3987 63.9907 34.3987 64.0086 34.3955C64.1791 34.3711 64.2957 34.2092 64.2687 34.0352C64.1193 33.0117 63.9787 31.9761 63.8442 30.9375L63.2163 30.9375C63.3538 32.0066 63.4974 33.0728 63.6528 34.1296Z" fill="#767676" fill-opacity="1.000000" fill-rule="nonzero"/>
    <path id="Vector" d="M61.0765 34.041C61.1183 34.1785 61.241 34.2639 61.3725 34.2639C61.4024 34.2639 61.4323 34.2607 61.4652 34.2485C61.6296 34.1968 61.7224 34.0195 61.6715 33.8516L60.7925 30.9346L60.1437 30.9346L61.0765 34.041Z" fill="#767676" fill-opacity="1.000000" fill-rule="nonzero"/>
    <path id="Vector" d="M56.0878 16.7271C56.1177 16.7271 56.1475 16.7241 56.1804 16.7119C56.3448 16.6599 56.4376 16.4829 56.3867 16.3147L55.0115 11.7512C54.9606 11.5833 54.7902 11.4917 54.6228 11.5405C54.4584 11.5923 54.3657 11.7695 54.4165 11.9375L55.7917 16.5012C55.8336 16.6387 55.9562 16.7271 56.0878 16.7271Z" fill="#767676" fill-opacity="1.000000" fill-rule="nonzero"/>
    <path id="Vector" d="M57.6537 34.2336C57.7105 34.3374 57.8151 34.3955 57.9257 34.3955C57.9766 34.3955 58.0274 34.3833 58.0782 34.3557C58.2277 34.2703 58.2816 34.0779 58.1978 33.925C57.6507 32.9199 57.1066 31.9241 56.5624 30.9375L55.8508 30.9375C56.4458 32.0249 57.0468 33.1216 57.6537 34.2336Z" fill="#767676" fill-opacity="1.000000" fill-rule="nonzero"/>
    <path id="Vector" d="M51.274 21.4624C49.9137 19.0645 48.5802 16.7427 47.2767 14.5066C47.1899 14.3569 46.9986 14.3081 46.8521 14.3967C46.7056 14.4854 46.6548 14.6807 46.7444 14.8306C48.1975 17.3232 49.6895 19.929 51.2142 22.6262L51.2142 22.2261C51.2142 21.9663 51.2382 21.7129 51.274 21.4624Z" fill="#767676" fill-opacity="1.000000" fill-rule="nonzero"/>
    <path id="Vector" d="M42.3373 27.2166C42.2267 27.3511 42.2416 27.5496 42.3702 27.6626L49.9972 34.3433C50.057 34.3953 50.1288 34.4197 50.2005 34.4197C50.2872 34.4197 50.374 34.3828 50.4367 34.3096C50.5474 34.1753 50.5324 33.9766 50.4038 33.8635L42.7769 27.1831C42.6453 27.0669 42.4479 27.0823 42.3373 27.2166Z" fill="#767676" fill-opacity="1.000000" fill-rule="nonzero"/>
    <path id="Vector" d="M36.688 21.4221C36.5625 21.303 36.3652 21.3093 36.2485 21.4375C36.132 21.5659 36.1379 21.7673 36.2635 21.8865L40.222 25.6836C40.2818 25.7417 40.3596 25.7693 40.4343 25.7693C40.518 25.7693 40.5988 25.7356 40.6615 25.6685C40.7781 25.54 40.7722 25.3384 40.6466 25.2192L36.688 21.4221Z" fill="#767676" fill-opacity="1.000000" fill-rule="nonzero"/>
    <path id="Vector" d="M30.825 31.7561C30.6665 31.6858 30.4841 31.7593 30.4153 31.9211C30.3466 32.083 30.4184 32.2693 30.5768 32.3396L35.2948 34.4321C35.3337 34.4504 35.3755 34.4597 35.4174 34.4597C35.537 34.4597 35.6506 34.3894 35.7014 34.2671C35.7702 34.1052 35.6984 33.9189 35.54 33.8486L30.825 31.7561Z" fill="#767676" fill-opacity="1.000000" fill-rule="nonzero"/>
    <path id="Vector" d="M66.2822 34.0776C66.2582 34.2517 66.3748 34.4106 66.5452 34.4351C66.5602 34.4382 66.5751 34.4382 66.5901 34.4382C66.7426 34.4382 66.8741 34.3252 66.898 34.1663C67.0475 33.0911 67.1641 32.0127 67.2657 30.9346L66.6409 30.9346C66.5423 31.9854 66.4257 33.0361 66.2822 34.0776Z" fill="#767676" fill-opacity="1.000000" fill-rule="nonzero"/>
    <path id="Vector" d="M68.781 10.4412C68.6165 10.429 68.4581 10.5542 68.4431 10.7283L68.0485 15.0471C68.0335 15.2212 68.1591 15.377 68.3295 15.3923C68.3385 15.3923 68.3505 15.3923 68.3594 15.3923C68.5179 15.3923 68.6524 15.27 68.6674 15.1052L69.062 10.7864C69.077 10.6123 68.9514 10.4565 68.781 10.4412Z" fill="#767676" fill-opacity="1.000000" fill-rule="nonzero"/>
    <path id="Vector" d="M41.8709 17.4238L41.5689 17.0391C41.4613 16.9016 41.267 16.8801 41.1324 16.9902C40.9979 17.1001 40.9769 17.2986 41.0846 17.436L41.3865 17.821C41.8799 18.4473 42.3911 19.0947 42.8994 19.7119C42.9622 19.7852 43.0489 19.825 43.1385 19.825C43.2103 19.825 43.2791 19.8005 43.3389 19.7515C43.4705 19.6384 43.4884 19.4399 43.3777 19.3057C42.8725 18.6917 42.3642 18.0471 41.8709 17.4238Z" fill="#767676" fill-opacity="1.000000" fill-rule="nonzero"/>
    <path id="Vector" d="M54.5577 34.3188C54.6205 34.3921 54.7072 34.4319 54.7969 34.4319C54.8687 34.4319 54.9374 34.4072 54.9973 34.3584C55.1288 34.2454 55.1467 34.0469 55.0361 33.9126C52.5785 30.9221 50.0999 27.782 47.702 24.7456L46.2759 22.9404C46.1682 22.803 45.9739 22.7815 45.8394 22.8916C45.7048 23.0015 45.6838 23.2 45.7915 23.3374L47.2177 25.1428C49.6155 28.179 52.0941 31.3223 54.5577 34.3188Z" fill="#767676" fill-opacity="1.000000" fill-rule="nonzero"/>
    <path id="Vector" d="M37.777 29.7859C37.6873 29.9355 37.7291 30.1311 37.8757 30.2227L44.4174 34.3979C44.4682 34.4314 44.525 34.4468 44.5818 34.4468C44.6865 34.4468 44.7851 34.3948 44.8449 34.2971C44.9346 34.1475 44.8928 33.9519 44.7463 33.8604L38.2075 29.6853C38.061 29.5935 37.8696 29.6362 37.777 29.7859Z" fill="#767676" fill-opacity="1.000000" fill-rule="nonzero"/>
    <path id="Vector" d="M5.02631 43.5044C5.08612 43.2568 5.36115 42.8811 5.93518 42.5911C6.58398 42.1938 7.49591 41.9739 8.4975 41.9739C8.74268 41.9739 8.99078 41.9861 9.23297 42.0137C11.0807 42.1816 12.4052 43.0554 12.8447 43.7822L12.8955 43.8557L17.0903 41.0361L17.0693 41.0056C15.6402 38.7544 12.8865 37.2271 9.70837 36.9185C9.32269 36.8879 8.92206 36.8574 8.5274 36.8574C6.71558 36.8574 4.99341 37.282 3.54633 38.0823C1.51624 39.1943 0.236572 41.0149 0.0302734 43.0737C-0.355408 47.228 2.97229 50.3865 8.30914 50.9363C9.83392 51.0891 10.9372 51.4526 11.6069 52.033C12.0912 52.5278 12.0912 52.9951 12.0643 53.1938C12.0404 53.5083 11.6786 53.9116 11.1674 54.1895C10.4887 54.5623 9.58282 54.77 8.62006 54.77C8.37494 54.77 8.12378 54.7578 7.88159 54.7302C6.06378 54.5652 4.71533 53.6948 4.22803 52.9434L4.20111 52.8975L0.000366211 55.6741L0.0452271 55.7383C1.47437 57.9895 4.22803 59.5168 7.40918 59.8254C7.77692 59.856 8.17157 59.8865 8.58716 59.8865C10.3632 59.8865 12.1212 59.4619 13.5323 58.6953C15.5923 57.5344 16.875 55.7168 17.0514 53.7009C17.4371 49.4426 14.1991 46.3574 8.80243 45.8381C7.44208 45.6853 4.9007 45.0164 5.02032 43.5532L5.02332 43.5288L5.02631 43.5044ZM4.30273 46.3604C5.30737 47.1943 6.79926 47.729 8.61707 47.9092C11.9298 48.239 15.3561 49.8733 15.0243 53.4749C14.8957 54.7974 14.0317 55.9917 12.5876 56.835C11.4813 57.449 10.0612 57.7849 8.59015 57.7849C8.24933 57.7849 7.92645 57.7849 7.60352 57.7512C6.06378 57.5864 4.62268 57.0884 3.54932 56.3462L3.18158 56.0925L3.99182 55.5398L4.15625 55.6467C5.10706 56.2668 6.36572 56.6731 7.69922 56.7983C7.97424 56.8289 8.26727 56.8594 8.59314 56.8594C9.87878 56.8594 11.1465 56.5569 12.1451 56.0164C13.332 55.3198 14.0167 54.4065 14.1243 53.3862C14.2111 52.3689 13.8044 51.3213 13.0151 50.5149C12.0583 49.5984 10.5814 49.0454 8.50348 48.8318C6.09967 48.6086 4.09943 47.7136 3.01117 46.3789C2.29358 45.4961 1.98566 44.4514 2.09326 43.2754C2.19196 41.9495 3.0799 40.7339 4.52698 39.9426C5.63324 39.2981 7.01752 38.9561 8.53339 38.9561C8.87421 38.9561 9.19714 38.9561 9.52002 38.9895C11.0269 39.1545 12.465 39.6523 13.5712 40.3948L13.9689 40.6604L13.0958 41.198L12.9404 41.0974C11.9807 40.4863 10.7339 40.0647 9.42731 39.9121C9.13434 39.8816 8.84131 39.8816 8.5304 39.8816C7.12811 39.8816 5.90228 40.1838 4.9635 40.7612C3.77954 41.3813 3.0799 42.3008 2.99622 43.3547C2.87958 44.5186 3.33405 45.5571 4.30273 46.3604Z" fill="#767676" fill-opacity="1.000000" fill-rule="nonzero"/>
    <path id="Vector" d="M25.2384 59.8831L30.3779 59.8831L30.3779 42.1387L35.9301 42.1387L35.9301 36.854L19.7131 36.854L19.7131 42.1387L25.2354 42.1387L25.2354 59.8831L25.2384 59.8831ZM21.803 39.9758L21.803 39.0503L33.8163 39.0503L33.8163 39.9758L28.2641 39.9758L28.2641 57.7205L27.3582 57.7205L27.3582 39.9758L21.803 39.9758Z" fill="#767676" fill-opacity="1.000000" fill-rule="nonzero"/>
    <path id="Vector" d="M42.1294 52.98L50.9824 52.98L46.7397 41.0361L42.1294 52.98ZM44.1177 51.5747L46.7039 44.9521L49.027 51.5747L44.1177 51.5747Z" fill="#767676" fill-opacity="1.000000" fill-rule="nonzero"/>
    <path id="Vector" d="M48.4529 36.854L45.1043 36.854L36.2395 59.8831L41.7378 59.8831L43.2177 56.0679L49.8641 56.0679L51.1916 59.8831L56.663 59.8831L48.4529 36.854ZM51.3231 53.905L41.7707 53.905L40.2907 57.7205L39.3071 57.7205L46.5454 38.9861L46.9879 38.9861L53.6522 57.7205L52.6775 57.7205L51.3231 53.905Z" fill="#767676" fill-opacity="1.000000" fill-rule="nonzero"/>
    <path id="Vector" d="M67.1257 59.8831L67.1257 42.1387L72.6778 42.1387L72.6778 36.854L56.4609 36.854L56.4609 42.1387L61.9832 42.1387L61.9832 59.8831L67.1257 59.8831ZM58.5479 39.9758L58.5479 39.0503L70.561 39.0503L70.561 39.9758L65.0089 39.9758L65.0089 57.7205L64.103 57.7205L64.103 39.9758L58.5479 39.9758Z" fill="#767676" fill-opacity="1.000000" fill-rule="nonzero"/>
    <path id="Vector" d="M75.6185 59.8831L80.7281 59.8831L80.7281 36.854L75.6185 36.854L75.6185 59.8831ZM77.7054 38.9861L78.6412 38.9861L78.6412 57.7539L77.7054 57.7539L77.7054 38.9861Z" fill="#767676" fill-opacity="1.000000" fill-rule="nonzero"/>
    <path id="Vector" d="M106.123 48.3369C106.123 41.9866 101.052 36.8242 94.8211 36.8242C88.6052 36.8242 83.5494 41.9895 83.5494 48.3369C83.5494 54.7029 88.6052 59.8833 94.8211 59.8833C101.052 59.8833 106.123 54.7058 106.123 48.3369ZM85.6364 48.3369C85.6364 43.1626 89.7563 38.9534 94.8211 38.9534C99.9009 38.9534 104.036 43.1626 104.036 48.3369C104.036 53.5298 99.9009 57.7512 94.8211 57.7512C89.7563 57.7512 85.6364 53.5298 85.6364 48.3369Z" fill="#767676" fill-opacity="1.000000" fill-rule="nonzero"/>
    <path id="Vector" d="M103.158 48.3364C103.158 43.6567 99.4177 39.8477 94.8193 39.8477C90.2388 39.8477 86.5105 43.6567 86.5105 48.3364C86.5105 53.0344 90.2388 56.8557 94.8193 56.8557C99.4177 56.8589 103.158 53.0344 103.158 48.3364ZM94.8193 55.4812C90.9803 55.4812 87.8559 52.2769 87.8559 48.3364C87.8559 44.4143 90.9803 41.2222 94.8193 41.2222C98.6761 41.2222 101.812 44.4143 101.812 48.3364C101.812 52.2769 98.6761 55.4812 94.8193 55.4812Z" fill="#767676" fill-opacity="1.000000" fill-rule="nonzero"/>
    <path id="Vector" d="M123.1 36.8242L123.1 49.3787L113.859 36.8242L109.586 36.8242L109.586 59.8833L114.726 59.8833L114.726 46.7639L124.428 59.8833L128.27 59.8833L128.27 36.8242L123.1 36.8242ZM126.126 57.6902L125.462 57.6902L112.645 40.3308L112.645 57.6902L111.709 57.6902L111.709 38.9868L112.806 38.9868L125.223 55.8115L125.223 38.9868L126.129 38.9868L126.129 57.6902L126.126 57.6902Z" fill="#767676" fill-opacity="1.000000" fill-rule="nonzero"/>
    <path id="Vector" d="M27.4859 66.417L27.2796 65.9773C27.2377 65.8887 27.139 65.8521 27.0524 65.8948L25.5873 66.6157L25.2465 65.8916L26.7115 65.1709C26.7982 65.1279 26.8311 65.0273 26.7922 64.9387L26.5859 64.4988C26.5441 64.4102 26.4454 64.3735 26.3587 64.4163L22.3582 66.3865C22.2715 66.4292 22.2356 66.53 22.2775 66.6187L22.4838 67.0586C22.5256 67.1472 22.6243 67.1838 22.711 67.1411L24.5498 66.2368L24.8907 66.9609L23.0519 67.865C22.9651 67.9077 22.9323 68.0085 22.9711 68.0972L23.1774 68.5371C23.2163 68.6196 23.3179 68.6624 23.4047 68.6196L27.4052 66.6492C27.4919 66.6064 27.5218 66.4966 27.4859 66.417Z" fill="#767676" fill-opacity="1.000000" fill-rule="nonzero"/>
    <path id="Vector" d="M28.2801 67.9016L28.0469 67.4739C27.9991 67.3884 27.8914 67.3611 27.8077 67.4099L23.9358 69.6155C23.8521 69.6643 23.8221 69.7681 23.87 69.8538L24.1032 70.2812C24.1511 70.3669 24.2527 70.3975 24.3364 70.3486L28.2084 68.1431C28.2921 68.094 28.325 67.9873 28.2801 67.9016Z" fill="#767676" fill-opacity="1.000000" fill-rule="nonzero"/>
    <path id="Vector" d="M28.4214 71.9827C28.5021 71.9307 28.5261 71.824 28.4722 71.7415L27.964 70.929C27.9131 70.8464 27.8085 70.822 27.7278 70.877L27.372 71.1091C27.2913 71.1611 27.2614 71.271 27.3152 71.3535L27.4737 71.6069L26.4243 72.2913C26.3435 72.3433 26.2359 72.3157 26.1851 72.2332L25.91 71.7932C25.8622 71.717 25.8801 71.604 25.9608 71.552L28.3796 69.9758C28.4543 69.927 28.5679 69.9514 28.6158 70.0278L28.8908 70.4675C28.9417 70.55 28.9177 70.6663 28.843 70.7151L28.6128 70.8647C28.532 70.9167 28.5081 71.0234 28.562 71.106L28.8191 71.5183C28.8699 71.6008 28.9745 71.6252 29.0553 71.5703L29.3483 71.3779C29.7579 71.1121 29.8715 70.5562 29.6144 70.1438L29.2108 69.4963C28.9506 69.0776 28.4125 68.9587 28.0029 69.2244L25.4466 70.8921C25.043 71.1548 24.9233 71.7139 25.1805 72.1262L25.5841 72.7739C25.8412 73.1863 26.3884 73.3083 26.792 73.0457L28.4214 71.9827Z" fill="#767676" fill-opacity="1.000000" fill-rule="nonzero"/>
    <path id="Vector" d="M31.8564 73.3452L31.5695 72.9543C31.5126 72.875 31.408 72.8628 31.3303 72.9207L30.0327 73.9226L29.5603 73.2812L30.8578 72.2793C30.9326 72.2212 30.9476 72.1143 30.8907 72.0349L30.6037 71.644C30.5469 71.5645 30.4423 71.5522 30.3646 71.6104L26.8186 74.344C26.7439 74.4021 26.7289 74.509 26.7857 74.5884L27.0728 74.9795C27.1296 75.0588 27.2342 75.074 27.312 75.0129L28.9414 73.7576L29.4138 74.3992L27.7843 75.6575C27.7066 75.7156 27.6946 75.8254 27.7515 75.9019L28.0385 76.2927C28.0923 76.3662 28.1999 76.3875 28.2776 76.3264L31.8235 73.5928C31.9013 73.5315 31.9103 73.4187 31.8564 73.3452Z" fill="#767676" fill-opacity="1.000000" fill-rule="nonzero"/>
    <path id="Vector" d="M33.0256 79.7207L34.7148 78.0437C35.0975 77.6648 35.1064 77.0417 34.7357 76.6506L34.3351 76.2292C33.9644 75.8381 33.3544 75.8291 32.9717 76.2078L30.9177 78.2454C30.541 78.6211 30.532 79.2412 30.9028 79.6321L31.8446 80.6218C31.9103 80.6921 32.021 80.6982 32.0897 80.6311L32.4097 80.3164C32.4785 80.2493 32.4754 80.1362 32.4186 80.075L32.2273 79.8735C32.4933 79.9834 32.8103 79.9346 33.0256 79.7207ZM31.9672 79.6016L31.4918 79.1006C31.426 79.0303 31.426 78.9111 31.4888 78.8501L33.5428 76.8125C33.6116 76.7454 33.7281 76.7454 33.7939 76.8157L34.1467 77.1853C34.2125 77.2556 34.2125 77.3748 34.1437 77.4419L31.9672 79.6016Z" fill="#767676" fill-opacity="1.000000" fill-rule="nonzero"/>
    <path id="Vector" d="M37.7315 79.4878L37.3727 79.1641C37.301 79.0999 37.1903 79.1121 37.1276 79.1855L34.7208 81.9866C34.658 82.0601 34.5474 82.063 34.4756 81.9988L34.0959 81.6567C34.0241 81.5925 34.0121 81.4795 34.075 81.4062L36.4818 78.6082C36.5446 78.5349 36.5416 78.4219 36.4698 78.3577L36.111 78.0337C36.0392 77.9697 35.9286 77.9819 35.8658 78.0552L33.4052 80.9175C33.0883 81.2842 33.1242 81.8552 33.486 82.1792L34.051 82.6863C34.4098 83.01 34.9689 82.9702 35.2858 82.6038L37.7465 79.7415C37.8032 79.665 37.8032 79.552 37.7315 79.4878Z" fill="#767676" fill-opacity="1.000000" fill-rule="nonzero"/>
    <path id="Vector" d="M39.8067 81.1316L38.9875 80.5022C38.9157 80.4473 38.8201 80.4534 38.7543 80.5176L36.0186 83.2363C35.9886 83.2668 35.9767 83.2822 35.9588 83.3035L35.597 83.7954C35.5402 83.8748 35.5552 83.9817 35.6299 84.0398L36.0126 84.333C36.0903 84.3911 36.195 84.3757 36.2518 84.2993L36.6255 83.7922L37.358 84.3542L36.9843 84.8613C36.9275 84.9409 36.9424 85.0479 37.0142 85.1028L37.4028 85.3992C37.4806 85.457 37.5853 85.4419 37.6421 85.3655L38.0038 84.8738C38.0217 84.8523 38.0338 84.834 38.0516 84.7974L39.8515 81.3606C39.8874 81.2903 39.8784 81.1865 39.8067 81.1316ZM37.7497 83.6641L37.1697 83.218L38.9067 81.4707L37.7497 83.6641Z" fill="#767676" fill-opacity="1.000000" fill-rule="nonzero"/>
    <path id="Vector" d="M40.2814 86.3972L39.4802 85.8628L41.57 82.5791C41.6208 82.4966 41.5999 82.3896 41.5192 82.3379L41.1185 82.072C41.0378 82.0203 40.9332 82.0415 40.8824 82.124L38.4606 85.9299C38.4068 86.0125 38.4307 86.1194 38.5115 86.1711L39.8569 87.0662C39.9376 87.1182 40.0422 87.0967 40.0931 87.0142L40.3323 86.6387C40.3831 86.5562 40.3621 86.4492 40.2814 86.3972Z" fill="#767676" fill-opacity="1.000000" fill-rule="nonzero"/>
    <path id="Vector" d="M43.7633 83.7488L43.3507 83.5046C43.267 83.4556 43.1624 83.4893 43.1145 83.5747L40.8931 87.4937C40.8453 87.5793 40.8721 87.6831 40.9559 87.7319L41.3685 87.9763C41.4521 88.0251 41.5538 87.9978 41.6017 87.9121L43.8231 83.9932C43.8679 83.9077 43.844 83.7979 43.7633 83.7488Z" fill="#767676" fill-opacity="1.000000" fill-rule="nonzero"/>
    <path id="Vector" d="M46.2993 85.8328L46.5026 85.4236C46.5444 85.335 46.5056 85.231 46.4278 85.1882L44.6548 84.2688C44.5711 84.2231 44.4695 84.2598 44.4246 84.3452L44.2213 84.7546C44.1794 84.8433 44.2123 84.9438 44.2961 84.9897L44.8133 85.2585L43.0851 88.7378C43.0403 88.8232 43.0822 88.9302 43.1599 88.9729L43.5875 89.1929C43.6741 89.2356 43.7728 89.2019 43.8177 89.1165L45.5458 85.6375L46.069 85.9092C46.1498 85.949 46.2574 85.9185 46.2993 85.8328Z" fill="#767676" fill-opacity="1.000000" fill-rule="nonzero"/>
    <path id="Vector" d="M49.123 87.323L49.3862 86.6846C49.4221 86.5959 49.3832 86.4951 49.2935 86.4553L48.854 86.2661C48.7643 86.2292 48.6686 86.269 48.6298 86.3608L48.4294 86.8494C48.4085 86.9014 48.3756 86.9473 48.3367 86.9839L47.5265 87.7109L47.4667 86.6113C47.4607 86.5562 47.4697 86.4983 47.4906 86.4463L47.6909 85.9575C47.7268 85.866 47.6879 85.7681 47.5982 85.7283L47.1557 85.5391C47.066 85.5024 46.9703 85.542 46.9315 85.6306L46.6684 86.269C46.6385 86.3394 46.6295 86.4187 46.6265 86.4951L46.7431 88.5205L46.0584 90.1821C46.0226 90.2739 46.0614 90.3716 46.1511 90.4114L46.5906 90.6006C46.6804 90.6375 46.776 90.5977 46.8149 90.5061L47.4966 88.8442L48.9885 87.5093C49.0513 87.4573 49.0932 87.3933 49.123 87.323Z" fill="#767676" fill-opacity="1.000000" fill-rule="nonzero"/>
    <path id="Vector" d="M49.3169 90.7932L48.8864 90.6375C48.7966 90.6038 48.704 90.6465 48.6711 90.7383L48.5156 91.1843C48.4827 91.2759 48.5306 91.3674 48.6232 91.4011L48.7458 91.447L48.6143 91.5752C48.5844 91.6028 48.5574 91.6365 48.5425 91.676L48.5007 91.8013C48.4827 91.8533 48.5126 91.9175 48.5574 91.9326L48.7758 92.0122C48.8206 92.0273 48.8804 92 48.9013 91.9448L48.9133 91.9114C48.9252 91.8777 48.9551 91.8533 48.967 91.8411L49.1644 91.6455C49.1884 91.6179 49.2062 91.5874 49.2182 91.554L49.4096 91.001C49.4365 90.9092 49.3947 90.8206 49.3169 90.7932Z" fill="#767676" fill-opacity="1.000000" fill-rule="nonzero"/>
    <path id="Vector" d="M54.0894 92.2139L53.1625 91.9788L54.0894 88.1787C54.1133 88.084 54.0565 87.9893 53.9638 87.968L53.5004 87.8489C53.4077 87.8245 53.3181 87.8826 53.2941 87.9771L52.2208 92.3818C52.1969 92.4766 52.2537 92.5681 52.3464 92.5928L53.904 92.9897C53.9967 93.0142 54.0864 92.9561 54.1103 92.8616L54.215 92.4277C54.2358 92.3301 54.1821 92.2383 54.0894 92.2139Z" fill="#767676" fill-opacity="1.000000" fill-rule="nonzero"/>
    <path id="Vector" d="M57.454 88.7161L56.7156 88.5847C56.2372 88.4993 55.7857 88.832 55.702 89.3179L55.1848 92.3635C55.1011 92.8521 55.418 93.3103 55.8964 93.396L56.6348 93.5273C57.1072 93.6096 57.5616 93.2891 57.6454 92.8003L58.1626 89.7546C58.2463 89.2659 57.9235 88.7986 57.454 88.7161ZM56.8531 92.5681C56.8381 92.6658 56.7425 92.7329 56.6468 92.7146L56.1475 92.6262C56.0518 92.6108 55.9861 92.5132 56.004 92.4153L56.4943 89.5286C56.5123 89.4309 56.6049 89.3789 56.6976 89.3943L57.1969 89.4827C57.2926 89.498 57.3613 89.5835 57.3434 89.6782L56.8531 92.5681Z" fill="#767676" fill-opacity="1.000000" fill-rule="nonzero"/>
    <path id="Vector" d="M62.4161 89.2656L61.8181 89.2136C61.7553 89.2075 61.7045 89.2534 61.7015 89.3145L61.6537 89.9194C61.6507 89.9683 61.6477 89.9956 61.6357 90.0508L61.2949 91.801L61.0975 89.2502C61.0886 89.1924 61.0438 89.1465 60.9899 89.1433L60.4727 89.1006C60.4189 89.0945 60.368 89.1343 60.3561 89.1892L59.7521 91.6729L59.6893 89.8887C59.6863 89.8337 59.6893 89.8064 59.6923 89.7573L59.7402 89.1526C59.7462 89.0916 59.7013 89.0364 59.6415 89.0334L59.0435 88.9814C58.9838 88.9753 58.9299 89.0212 58.9269 89.0823L58.8731 89.7512C58.8701 89.7849 58.8671 89.8276 58.8701 89.8918L59.0944 93.7349C59.1003 93.8264 59.1631 93.8938 59.2528 93.9028L59.785 93.9487C59.8658 93.9548 59.9465 93.8999 59.9614 93.8081L60.5893 90.9548L60.7507 93.8752C60.7567 93.967 60.8195 94.0342 60.9092 94.0435L61.4324 94.0891C61.5221 94.0952 61.5939 94.0403 61.6148 93.9517L62.452 90.1973C62.4639 90.1362 62.4669 90.0935 62.4699 90.0598L62.5237 89.3909C62.5208 89.3237 62.4759 89.2717 62.4161 89.2656Z" fill="#767676" fill-opacity="1.000000" fill-rule="nonzero"/>
    <path id="Vector" d="M66.3412 89.208L65.1662 89.2659C65.0706 89.272 64.9988 89.3516 65.0048 89.4492L65.223 93.9822C65.229 94.0801 65.3067 94.1533 65.4024 94.1472L65.8807 94.1228C65.9764 94.1167 66.0482 94.0371 66.0422 93.9395L65.9435 91.9111L66.4698 91.8838C67.0648 91.8533 67.5312 91.3279 67.5013 90.7139L67.4803 90.2678C67.4504 89.6538 66.9332 89.1775 66.3412 89.208ZM66.4279 91.0408L65.9017 91.0681L65.8509 90.0356L66.3771 90.0083C66.5266 90.0022 66.6492 90.1213 66.6552 90.2739L66.6791 90.7537C66.688 90.9033 66.5774 91.0315 66.4279 91.0408Z" fill="#767676" fill-opacity="1.000000" fill-rule="nonzero"/>
    <path id="Vector" d="M70.9006 92.5374L70.1472 91.45C70.5209 91.2329 70.7571 90.7961 70.6973 90.3259L70.6435 89.8892C70.5687 89.2783 70.0276 88.8416 69.4296 88.918L68.2576 89.0676C68.1679 89.0798 68.0961 89.1653 68.1081 89.2629L68.6553 93.7651C68.6672 93.8628 68.7569 93.927 68.8466 93.9177L69.322 93.8567C69.4177 93.8445 69.4834 93.759 69.4715 93.6611L69.2144 91.563L70.1083 92.8428C70.1531 92.9221 70.1741 92.9954 70.183 93.0718L70.2429 93.5574C70.2548 93.655 70.3445 93.7192 70.4402 93.707L70.9155 93.646C71.0112 93.6338 71.068 93.5483 71.056 93.4536L70.9724 92.7603C70.9664 92.6838 70.9424 92.6013 70.9006 92.5374ZM69.6569 90.7473L69.1276 90.8147L69.0021 89.7822L69.5312 89.7151C69.6748 89.6968 69.8093 89.7976 69.8273 89.9502L69.884 90.4297C69.905 90.5886 69.8004 90.729 69.6569 90.7473Z" fill="#767676" fill-opacity="1.000000" fill-rule="nonzero"/>
    <path id="Vector" d="M71.8462 88.5269L71.3768 88.6155C71.2841 88.6338 71.2242 88.7285 71.2422 88.8262L72.0436 93.283C72.0615 93.3809 72.1482 93.4419 72.2439 93.4236L72.7133 93.335C72.806 93.3167 72.8688 93.228 72.8508 93.1333L72.0495 88.6765C72.0316 88.5789 71.9419 88.5085 71.8462 88.5269Z" fill="#767676" fill-opacity="1.000000" fill-rule="nonzero"/>
    <path id="Vector" d="M75.8563 90.4724C75.8324 90.3777 75.7397 90.3137 75.647 90.3381L75.1836 90.4541C75.0909 90.4785 75.0371 90.5764 75.061 90.6709L75.3152 91.7371C75.3391 91.8318 75.2763 91.9265 75.1896 91.9478L74.6902 92.073C74.5976 92.0974 74.4989 92.0425 74.478 91.9478L73.7963 89.1008C73.7724 89.0063 73.8351 88.9116 73.9279 88.8872L74.4272 88.762C74.5139 88.7405 74.6096 88.7954 74.6335 88.8901L74.7949 89.5623C74.8188 89.657 74.9115 89.7209 75.0042 89.6965L75.4677 89.5806C75.5603 89.5562 75.6141 89.4583 75.5902 89.3635L75.4108 88.6184C75.2942 88.1357 74.8248 87.8455 74.3524 87.9617L73.6229 88.1448C73.1505 88.2639 72.8665 88.7437 72.9801 89.2261L73.7006 92.238C73.8142 92.7114 74.2926 93.0107 74.759 92.8948L75.4886 92.7114C75.9609 92.5923 76.245 92.1067 76.1314 91.6301L75.8563 90.4724Z" fill="#767676" fill-opacity="1.000000" fill-rule="nonzero"/>
    <path id="Vector" d="M79.0458 90.9824C79.0159 90.8906 78.9232 90.8389 78.8306 90.8694L77.9276 91.1655L77.4881 89.7637L78.0592 89.5742C78.1489 89.5437 78.1997 89.449 78.1698 89.3542L78.0413 88.9419C78.0114 88.8503 77.9186 88.7983 77.826 88.8289L77.2549 89.0151L76.944 88.0256L77.8469 87.7292C77.9366 87.6987 77.9874 87.604 77.9575 87.5093L77.823 87.0847C77.7931 86.9932 77.7004 86.9412 77.6077 86.9717L76.0799 87.4727C75.9902 87.5032 75.9394 87.5979 75.9693 87.6926L77.3267 92.0117C77.3566 92.1035 77.4492 92.1553 77.5419 92.1248L79.0698 91.6238C79.1594 91.5933 79.2103 91.4985 79.1804 91.4038L79.0458 90.9824Z" fill="#767676" fill-opacity="1.000000" fill-rule="nonzero"/>
    <path id="Vector" d="M80.9047 90.9885C80.9047 90.9519 80.8987 90.9153 80.8868 90.8848L80.6834 90.3379C80.6505 90.2463 80.5609 90.2065 80.4861 90.2373L80.0585 90.4021C79.9688 90.4358 79.924 90.5305 79.9568 90.6221L80.1213 91.0649C80.1542 91.1565 80.2499 91.1931 80.3395 91.1597L80.4622 91.1138L80.4442 91.3C80.4382 91.3398 80.4382 91.3826 80.4532 91.4224L80.498 91.5474C80.516 91.5994 80.5788 91.627 80.6236 91.6116L80.8419 91.5261C80.8868 91.5078 80.9137 91.4468 80.8958 91.3948L80.8838 91.3611C80.8718 91.3276 80.8778 91.2878 80.8808 91.2727L80.9047 90.9885Z" fill="#767676" fill-opacity="1.000000" fill-rule="nonzero"/>
    <path id="Vector" d="M85.2255 86.7793C85.0969 86.5166 84.8817 86.3303 84.6275 86.2356C84.6604 86.0217 84.6246 85.8079 84.5229 85.6033L84.3226 85.197C84.0535 84.6472 83.3987 84.4211 82.8605 84.6992L81.7991 85.2458C81.7124 85.2886 81.6795 85.3926 81.7244 85.4812L83.7216 89.5347C83.7635 89.6233 83.8651 89.6567 83.9518 89.6111L85.1119 89.0154C85.6501 88.7405 85.8624 88.0684 85.5903 87.5186L85.2255 86.7793ZM82.7319 85.6614L83.2133 85.4138C83.3419 85.3467 83.5063 85.4048 83.5751 85.5391L83.7874 85.97C83.8531 86.1013 83.7963 86.2693 83.6678 86.3364L83.1864 86.5837L82.7319 85.6614ZM84.7531 88.2883L84.173 88.5876L83.5333 87.2896L84.1133 86.99C84.2418 86.9229 84.4062 86.981 84.475 87.1184L84.8638 87.9094C84.9355 88.0532 84.8817 88.2212 84.7531 88.2883Z" fill="#767676" fill-opacity="1.000000" fill-rule="nonzero"/>
    <path id="Vector" d="M88.3865 86.4067C88.3387 86.3242 88.2341 86.2969 88.1534 86.3457L87.3401 86.8435L86.5987 85.5789L87.1159 85.2642C87.1967 85.2153 87.2236 85.1084 87.1757 85.0259L86.9575 84.6533C86.9066 84.5708 86.805 84.5435 86.7242 84.5923L86.207 84.9067L85.6838 84.0149L86.5 83.5168C86.5807 83.468 86.6077 83.3611 86.5598 83.2786L86.3356 82.8967C86.2878 82.8145 86.1831 82.7869 86.1024 82.8357L84.7241 83.679C84.6434 83.7278 84.6165 83.8347 84.6643 83.9172L86.9455 87.8088C86.9933 87.8914 87.098 87.9189 87.1787 87.8699L88.5569 87.0269C88.6377 86.978 88.6646 86.8711 88.6168 86.7886L88.3865 86.4067Z" fill="#767676" fill-opacity="1.000000" fill-rule="nonzero"/>
    <path id="Vector" d="M90.493 83.2996C90.1431 82.7896 89.4674 82.6704 88.9711 83.0247L88.714 83.208C88.5884 83.2905 88.421 83.2661 88.3342 83.1409L88.0951 82.7925C88.0084 82.6672 88.0443 82.4961 88.1668 82.4106L88.424 82.2273C88.5465 82.1387 88.714 82.1631 88.8007 82.2915L88.8844 82.4106C88.9382 82.49 89.0428 82.5083 89.1236 82.4534L89.5153 82.1724C89.593 82.1174 89.611 82.0105 89.5571 81.928L89.4913 81.8303C89.1475 81.3262 88.4658 81.2009 87.9695 81.5552L87.7123 81.7385C87.219 82.0898 87.0994 82.7925 87.4432 83.2935L87.6675 83.6204C88.0114 84.1245 88.6901 84.2344 89.1864 83.8892L89.4435 83.7058C89.5661 83.6172 89.7335 83.6448 89.8203 83.77L90.3286 84.5125C90.4152 84.6377 90.3853 84.8118 90.2628 84.9004L90.0056 85.0837C89.883 85.1721 89.7126 85.1416 89.6259 85.0164L89.285 84.5186C89.2312 84.439 89.1266 84.4207 89.0458 84.4758L88.6542 84.7568C88.5764 84.8118 88.5585 84.9187 88.6123 85.0012L88.9352 85.4685C89.2791 85.9727 89.9667 86.0947 90.4571 85.7434L90.7142 85.5601C91.2076 85.209 91.3271 84.5063 90.9833 84.0054L90.493 83.2996Z" fill="#767676" fill-opacity="1.000000" fill-rule="nonzero"/>
    <path id="Vector" d="M91.025 80.1782L91.4795 79.7993C91.5482 79.7412 91.5632 79.6282 91.5034 79.5549L91.2194 79.1975C91.1596 79.1211 91.049 79.115 90.9802 79.1731L89.4405 80.4561C89.3657 80.5171 89.3568 80.6272 89.4166 80.7004L89.7006 81.0579C89.7604 81.1343 89.868 81.1433 89.9398 81.0823L90.3882 80.7065L92.801 83.7278C92.8608 83.8042 92.9714 83.8103 93.0402 83.7522L93.4109 83.4436C93.4856 83.3826 93.4946 83.2725 93.4348 83.1992L91.025 80.1782Z" fill="#767676" fill-opacity="1.000000" fill-rule="nonzero"/>
    <path id="Vector" d="M96.6049 77.5115C96.5361 77.4441 96.4255 77.4412 96.3597 77.5115L96.0278 77.8625C95.962 77.9329 95.9681 78.0459 96.0368 78.113L96.8082 78.8767C96.877 78.9441 96.874 79.0601 96.8112 79.1243L96.4554 79.5C96.3896 79.5703 96.279 79.5764 96.2102 79.509L94.1473 77.4685C94.0786 77.4014 94.0815 77.2854 94.1473 77.218L94.5031 76.8423C94.5659 76.7783 94.6765 76.769 94.7452 76.8394L95.2325 77.3188C95.3013 77.3862 95.412 77.3892 95.4777 77.3188L95.8096 76.9675C95.8754 76.8975 95.8694 76.7844 95.8006 76.717L95.2595 76.1826C94.9097 75.8374 94.3596 75.8467 94.0217 76.2039L93.4985 76.7568C93.1606 77.1143 93.1696 77.6763 93.5194 78.0215L95.699 80.1782C96.0428 80.5171 96.6019 80.5081 96.9367 80.1567L97.4599 79.6038C97.7978 79.2463 97.7828 78.6814 97.439 78.3391L96.6049 77.5115Z" fill="#767676" fill-opacity="1.000000" fill-rule="nonzero"/>
    <path id="Vector" d="M96.7894 73.2109C96.7146 73.1499 96.607 73.1653 96.5502 73.2354L96.2452 73.6111C96.1854 73.6875 96.1944 73.7944 96.2691 73.8586L97.5219 74.9185L97.0196 75.5356L95.7668 74.4756C95.6921 74.4146 95.5874 74.4238 95.5247 74.5L95.2197 74.8757C95.1599 74.9521 95.1688 75.0591 95.2436 75.1201L98.6641 78.0129C98.7388 78.074 98.8434 78.0649 98.9062 77.9885L99.2112 77.6128C99.271 77.5364 99.262 77.4294 99.1873 77.3684L97.6146 76.0366L98.1169 75.4194L99.6896 76.7515C99.7643 76.8125 99.869 76.8032 99.9288 76.7271L100.234 76.3513C100.291 76.281 100.285 76.168 100.21 76.1069L96.7894 73.2109Z" fill="#767676" fill-opacity="1.000000" fill-rule="nonzero"/>
    <path id="Vector" d="M101.774 72.6489L99.2809 70.8958C98.8802 70.6145 98.3301 70.7185 98.058 71.1216L97.6305 71.7539C97.3554 72.1633 97.4601 72.7192 97.8607 73.0002L100.354 74.7537C100.755 75.0347 101.296 74.9338 101.571 74.5244L101.999 73.8923C102.271 73.489 102.175 72.9299 101.774 72.6489ZM101.281 73.5378L100.994 73.9624C100.94 74.042 100.827 74.0632 100.746 74.0083L98.3809 72.3467C98.3032 72.2915 98.2913 72.1816 98.345 72.1023L98.6321 71.6777C98.6859 71.5981 98.7905 71.5676 98.8683 71.6226L101.233 73.2844C101.317 73.3423 101.338 73.4585 101.281 73.5378Z" fill="#767676" fill-opacity="1.000000" fill-rule="nonzero"/>
    <path id="Vector" d="M103.377 71.4082L99.6071 69.0222C99.5264 68.9705 99.4158 68.9917 99.3649 69.0742L99.1138 69.4897C99.0629 69.5723 99.0928 69.6821 99.1736 69.7341L102.944 72.1199C103.024 72.1719 103.129 72.1475 103.18 72.062L103.431 71.6465C103.485 71.564 103.461 71.457 103.377 71.4082Z" fill="#767676" fill-opacity="1.000000" fill-rule="nonzero"/>
    <path id="Vector" d="M104.496 67.905L103.473 67.3398C103.39 67.2939 103.282 67.3215 103.237 67.407L103.01 67.8379C102.965 67.9233 103.001 68.0303 103.085 68.0762L104.03 68.5984C104.113 68.6443 104.14 68.7542 104.098 68.8337L103.856 69.2949C103.811 69.3804 103.707 69.4172 103.62 69.3713L101.096 67.9753C101.013 67.9294 100.986 67.8196 101.031 67.7339L101.276 67.2727C101.318 67.1934 101.422 67.1565 101.506 67.2024L102.101 67.5322C102.185 67.5781 102.292 67.5505 102.337 67.4651L102.565 67.0344C102.609 66.9487 102.573 66.842 102.49 66.793L101.829 66.4265C101.401 66.1912 100.875 66.3501 100.645 66.7869L100.286 67.4622C100.056 67.8989 100.211 68.4365 100.639 68.6716L103.309 70.1472C103.731 70.3794 104.266 70.2175 104.493 69.7866L104.852 69.1116C105.082 68.6777 104.917 68.1372 104.496 67.905Z" fill="#767676" fill-opacity="1.000000" fill-rule="nonzero"/>
    <path id="Vector" d="M106.379 65.4548L105.981 65.2717C105.894 65.2319 105.796 65.2686 105.754 65.3572L105.362 66.24L104.05 65.6321L104.298 65.073C104.337 64.9844 104.301 64.8838 104.214 64.8408L103.828 64.6638C103.742 64.624 103.643 64.6606 103.601 64.7493L103.353 65.3083L102.426 64.8806L102.818 63.9978C102.857 63.9092 102.821 63.8083 102.731 63.7656L102.333 63.5823C102.247 63.5427 102.148 63.5793 102.106 63.668L101.445 65.1616C101.407 65.2502 101.442 65.3511 101.529 65.3938L105.574 67.2634C105.661 67.303 105.76 67.2664 105.802 67.1748L106.462 65.6809C106.504 65.5955 106.465 65.4946 106.379 65.4548Z" fill="#767676" fill-opacity="1.000000" fill-rule="nonzero"/>
    <path id="Vector" d="M22.4774 26.884L26.424 28.9612C26.5077 29.0068 26.6093 28.9734 26.6542 28.8848L26.8724 28.4509C26.9173 28.3623 26.8844 28.2617 26.7977 28.2158L25.0307 27.2874L25.2699 26.8108C25.542 26.2703 25.3297 25.5952 24.7945 25.3142L24.4058 25.1096C23.8707 24.8286 23.2099 25.0454 22.9378 25.5859L22.3997 26.6519C22.3578 26.7375 22.3907 26.8413 22.4774 26.884ZM23.6375 25.9495C23.7062 25.812 23.8677 25.7661 24.0022 25.8364L24.4208 26.0564C24.5493 26.1235 24.6031 26.2854 24.5374 26.4229L24.2952 26.8994L23.3953 26.426L23.6375 25.9495Z" fill="#767676" fill-opacity="1.000000" fill-rule="nonzero"/>
    <path id="Vector" d="M24.2827 23.4412L28.047 25.8452C28.1277 25.897 28.2354 25.8665 28.2832 25.7903L28.5374 25.3748C28.5881 25.2922 28.5643 25.1853 28.4835 25.1333L26.7285 24.0122L28.2623 24.1101C28.3489 24.1252 28.4207 24.1528 28.4835 24.1956L28.8901 24.4553C28.9709 24.5071 29.0785 24.4766 29.1293 24.394L29.3834 23.9788C29.4343 23.8962 29.4074 23.7954 29.3267 23.7434L28.7466 23.3738C28.6838 23.3342 28.6061 23.3005 28.5314 23.2944L27.2308 23.2058C27.3025 22.7751 27.1171 22.3108 26.7255 22.0603L26.3607 21.8281C25.8494 21.5012 25.1767 21.6572 24.8568 22.1765L24.2319 23.1997C24.1811 23.2761 24.202 23.3892 24.2827 23.4412ZM25.5206 22.6011C25.5953 22.4758 25.7598 22.4331 25.8883 22.5154L26.2889 22.769C26.4205 22.8545 26.4623 23.0288 26.3846 23.1509L26.1036 23.6121L25.2395 23.0623L25.5206 22.6011Z" fill="#767676" fill-opacity="1.000000" fill-rule="nonzero"/>
    <path id="Vector" d="M29.931 22.8672C30.0087 22.925 30.1133 22.9099 30.1701 22.8303L31.1209 21.5107C31.1777 21.4314 31.1628 21.3245 31.085 21.2664L30.7322 21.0007C30.6545 20.9426 30.5499 20.958 30.493 21.0374L29.931 21.8193L28.7709 20.9456L29.1267 20.4507C29.1835 20.3713 29.1685 20.2644 29.0908 20.2063L28.7499 19.9497C28.6722 19.8918 28.5676 19.907 28.5107 19.9866L28.155 20.4814L27.3358 19.8643L27.8979 19.0823C27.9547 19.0029 27.9397 18.896 27.862 18.8379L27.5092 18.5723C27.4315 18.5142 27.3268 18.5293 27.27 18.6089L26.3192 19.9285C26.2624 20.0078 26.2773 20.1147 26.3551 20.1729L29.931 22.8672Z" fill="#767676" fill-opacity="1.000000" fill-rule="nonzero"/>
    <path id="Vector" d="M31.0916 19.9744C31.1275 20.0173 31.1634 20.0479 31.1783 20.063L31.6508 20.5C31.7225 20.564 31.8271 20.5579 31.8929 20.4846L32.2098 20.1182C32.2726 20.0447 32.2667 19.9377 32.1949 19.8706L31.7972 19.5103C31.7673 19.4827 31.7404 19.4583 31.7166 19.4277L30.2604 17.769L31.9916 18.9329C32.0634 18.9788 32.159 18.9634 32.2128 18.8992L32.5567 18.5022C32.6105 18.4409 32.6105 18.3464 32.5567 18.2791L31.2172 16.6663L33.0081 17.9399C33.044 17.9614 33.0679 17.9858 33.1008 18.0134L33.4985 18.3738C33.5703 18.438 33.6779 18.4319 33.7407 18.3586L34.0576 17.9919C34.1174 17.9248 34.1144 17.8086 34.0426 17.7446L33.5613 17.3198C33.5463 17.3047 33.5104 17.2742 33.4656 17.2405L30.3262 15.145C30.2545 15.0991 30.1648 15.1113 30.105 15.1787L29.7612 15.5757C29.7073 15.6399 29.7073 15.7314 29.7612 15.7988L31.3188 17.7385L29.2499 16.3882C29.1782 16.3425 29.0884 16.3547 29.0286 16.4219L28.6878 16.813C28.628 16.8801 28.631 16.9749 28.6818 17.042L31.0916 19.9744Z" fill="#767676" fill-opacity="1.000000" fill-rule="nonzero"/>
    <path id="Vector" d="M34.7924 17.0173C34.8582 17.0876 34.9658 17.0908 35.0345 17.0205L35.3784 16.6814C35.4471 16.6143 35.4501 16.5042 35.3813 16.4341L32.296 13.1809C32.2302 13.1106 32.1196 13.1045 32.0508 13.1716L31.707 13.5107C31.6382 13.5779 31.6412 13.6909 31.707 13.7612L34.7924 17.0173Z" fill="#767676" fill-opacity="1.000000" fill-rule="nonzero"/>
    <path id="Vector" d="M35.7875 15.05C36.0955 15.4226 36.6546 15.4714 37.0193 15.157L37.5934 14.6621C37.9582 14.3474 38.006 13.7764 37.6981 13.4036L35.2912 10.4927C35.2284 10.4194 35.1177 10.4041 35.046 10.4651L34.6813 10.7798C34.6095 10.844 34.6035 10.957 34.6663 11.0303L37.0223 13.8772C37.0851 13.9504 37.0702 14.0635 36.9954 14.1274L36.6097 14.4604C36.538 14.5247 36.4244 14.5186 36.3646 14.4453L34.0085 11.5984C33.9457 11.5251 33.8351 11.5098 33.7634 11.5708L33.3986 11.8855C33.3268 11.9497 33.3208 12.0627 33.3836 12.136L35.7875 15.05Z" fill="#767676" fill-opacity="1.000000" fill-rule="nonzero"/>
    <path id="Vector" d="M38.51 12.6648C38.5369 12.7136 38.5609 12.7534 38.5758 12.7717L38.9316 13.3093C38.9854 13.3887 39.09 13.4102 39.1708 13.3552L39.5624 13.0771C39.6401 13.0222 39.6611 12.9153 39.6072 12.8359L39.3053 12.3867C39.2814 12.3533 39.2634 12.3228 39.2455 12.2861L38.223 10.3188L39.6282 11.8706C39.685 11.9316 39.7836 11.9409 39.8494 11.8921L40.277 11.5896C40.3458 11.5408 40.3667 11.4521 40.3308 11.3728L39.4069 9.47876L40.845 11.1528C40.8749 11.1833 40.8929 11.2107 40.9168 11.2476L41.2188 11.6965C41.2726 11.7759 41.3773 11.7974 41.455 11.7422L41.8496 11.4644C41.9214 11.4124 41.9483 11.3025 41.8915 11.2229L41.5237 10.6946C41.5118 10.6763 41.4849 10.6365 41.449 10.5938L38.8927 7.79565C38.8359 7.73462 38.7432 7.72241 38.6714 7.77441L38.2439 8.07666C38.1751 8.12549 38.1542 8.21729 38.1901 8.2937L39.2485 10.5571L37.5562 8.74268C37.4995 8.68164 37.4067 8.66943 37.335 8.72119L36.9135 9.01758C36.8417 9.06958 36.8177 9.16113 36.8536 9.23755L38.51 12.6648Z" fill="#767676" fill-opacity="1.000000" fill-rule="nonzero"/>
    <path id="Vector" d="M44.2836 9.0022C44.4958 9.44189 45.025 9.62524 45.4556 9.41138L46.1313 9.07227C46.5619 8.85547 46.7413 8.31494 46.532 7.875L45.6799 6.10034C45.638 6.01172 45.5363 5.97803 45.4496 6.02075L44.6035 6.44531C44.5168 6.48828 44.4839 6.59204 44.5258 6.67749L44.7141 7.06543C44.756 7.15405 44.8606 7.19385 44.9443 7.15112L45.2075 7.01978L45.7576 8.15894C45.7994 8.24756 45.7576 8.35156 45.6739 8.39429L45.2134 8.62646C45.1327 8.66602 45.0281 8.6355 44.9862 8.54688L43.7214 5.91382C43.6826 5.83154 43.7184 5.72144 43.7992 5.68188L44.2596 5.44971C44.3464 5.40674 44.454 5.4436 44.4929 5.52588L44.6125 5.77637C44.6543 5.86499 44.756 5.89868 44.8427 5.85596L45.2732 5.63892C45.3599 5.59619 45.3928 5.49243 45.351 5.40674L45.1955 5.08618C44.9802 4.64014 44.454 4.46289 44.0234 4.67676L43.3477 5.01587C42.9112 5.23584 42.7348 5.76733 42.9501 6.21338L44.2836 9.0022Z" fill="#767676" fill-opacity="1.000000" fill-rule="nonzero"/>
    <path id="Vector" d="M47.4615 7.46826C47.4705 7.51099 47.4765 7.5293 47.4885 7.55371L47.7067 8.125C47.7426 8.21655 47.8383 8.25928 47.9279 8.22266L48.3734 8.04541C48.4631 8.00879 48.5049 7.91113 48.4691 7.81958L48.2418 7.22681L49.0939 6.88477L49.3212 7.47729C49.357 7.56909 49.4527 7.61182 49.5364 7.57812L49.9879 7.39795C50.0775 7.36133 50.1194 7.26343 50.0835 7.17188L49.8652 6.60059C49.8563 6.57324 49.8474 6.55493 49.8264 6.51831L47.91 3.146C47.8711 3.07861 47.7784 3.03296 47.6947 3.06641L46.741 3.44824C46.6573 3.48193 46.6094 3.56738 46.6304 3.65601L47.4615 7.46826ZM48.7232 6.19141L48.0475 6.46021L47.5063 4.03174L48.7232 6.19141Z" fill="#767676" fill-opacity="1.000000" fill-rule="nonzero"/>
    <path id="Vector" d="M50.0939 3.79663C50.2643 4.38623 50.8743 4.70996 51.4513 4.54199L51.7532 4.45044C51.8967 4.40771 52.0492 4.48413 52.0911 4.63062L52.3452 5.50122C52.3871 5.64771 52.3063 5.80347 52.1599 5.84937L51.8578 5.94092C51.7144 5.98364 51.5619 5.90137 51.517 5.75171L51.3466 5.16821C51.3197 5.07349 51.2271 5.02148 51.1343 5.04907L50.6769 5.1897C50.5842 5.21704 50.5334 5.31177 50.5633 5.40649L50.7218 5.9563C50.8922 6.5459 51.5051 6.88477 52.0821 6.70776L52.3841 6.61597C52.9611 6.44189 53.29 5.81567 53.1196 5.22632L52.8804 4.40161C52.707 3.80591 52.103 3.4729 51.52 3.65015L51.2181 3.7417C51.0716 3.77832 50.9221 3.70215 50.8773 3.55249L50.7576 3.14307C50.7158 2.99658 50.7995 2.84692 50.943 2.80103L51.245 2.70947C51.3885 2.6665 51.541 2.74292 51.5828 2.88965L51.6247 3.03003C51.6516 3.12476 51.7443 3.17676 51.837 3.14917L52.2944 3.00879C52.387 2.9812 52.4379 2.88647 52.408 2.79175L52.3751 2.67871C52.2047 2.08936 51.5978 1.75024 51.0148 1.92749L50.7128 2.01904C50.1358 2.19312 49.8039 2.81934 49.9773 3.40894L50.0939 3.79663Z" fill="#767676" fill-opacity="1.000000" fill-rule="nonzero"/>
    <path id="Vector" d="M54.2952 5.15942C54.3939 5.64502 54.8543 5.95361 55.3267 5.85278L56.0622 5.69702C56.5316 5.59912 56.8396 5.12573 56.7409 4.64307L56.131 1.61597C56.0323 1.13013 55.5659 0.815674 55.0964 0.91333L54.361 1.06909C53.8856 1.16992 53.5836 1.64648 53.6823 2.13208L54.2952 5.15942ZM54.642 1.82983L55.1383 1.72583C55.231 1.70752 55.3267 1.75635 55.3446 1.85425L55.9247 4.72559C55.9426 4.82031 55.8798 4.92114 55.7872 4.93945L55.2908 5.04321C55.1981 5.06152 55.0994 4.99731 55.0815 4.90283L54.5045 2.03125C54.4835 1.93652 54.5493 1.85107 54.642 1.82983Z" fill="#767676" fill-opacity="1.000000" fill-rule="nonzero"/>
    <path id="Vector" d="M58.2207 5.31787L59.8143 5.11328C59.91 5.10107 59.9757 5.01538 59.9637 4.91772L59.91 4.47485C59.898 4.37695 59.8143 4.31299 59.7186 4.3252L58.7708 4.44727L58.2925 0.561768C58.2805 0.464111 58.1968 0.399902 58.1011 0.412109L57.6257 0.473145C57.5301 0.485352 57.4673 0.571045 57.4792 0.668701L58.0353 5.17139C58.0413 5.26587 58.1281 5.33008 58.2207 5.31787Z" fill="#767676" fill-opacity="1.000000" fill-rule="nonzero"/>
    <path id="Vector" d="M61.1898 4.99731L61.6682 4.96362C61.7639 4.95752 61.8326 4.87524 61.8266 4.77734L61.5336 0.259521C61.5276 0.161865 61.447 0.0822754 61.3513 0.0915527L60.8729 0.125244C60.7772 0.131348 60.7085 0.219727 60.7145 0.317627L61.0074 4.83545C61.0134 4.93311 61.0942 5.00342 61.1898 4.99731Z" fill="#767676" fill-opacity="1.000000" fill-rule="nonzero"/>
    <path id="Vector" d="M63.1839 4.88428L63.6264 4.88428C63.7221 4.88428 63.7968 4.80786 63.7968 4.71021L63.7998 1.83594L64.6908 4.76221C64.7117 4.83838 64.7805 4.88745 64.8552 4.88745L65.3605 4.88745C65.4562 4.88745 65.5309 4.81104 65.5309 4.71313L65.5369 0.177246C65.5369 0.0793457 65.4622 0.00317383 65.3665 0.00317383L64.9091 0.00317383C64.8134 0.00317383 64.7386 0.0793457 64.7386 0.177246L64.7357 2.62695L63.9404 0.119141C63.9135 0.0488281 63.8506 0 63.7759 0L63.1869 0C63.0912 0 63.0165 0.076416 63.0165 0.174072L63.0105 4.71021C63.0135 4.80786 63.0883 4.88428 63.1839 4.88428Z" fill="#767676" fill-opacity="1.000000" fill-rule="nonzero"/>
    <path id="Vector" d="M66.8569 4.96387L68.4565 5.09839C68.5522 5.10742 68.6329 5.03711 68.6419 4.93945L68.6778 4.49341C68.6868 4.39575 68.618 4.31323 68.5223 4.30396L67.5745 4.22461L67.6912 2.75537L68.2891 2.8042C68.3848 2.81348 68.4655 2.74316 68.4745 2.64526L68.5104 2.2146C68.5193 2.11694 68.4506 2.03442 68.3549 2.02515L67.7539 1.97632L67.8376 0.940918L68.7854 1.02026C68.8811 1.0293 68.9619 0.959229 68.9708 0.861328L69.0067 0.415527C69.0156 0.317627 68.9469 0.235107 68.8512 0.226074L67.2516 0.0915527C67.1559 0.0825195 67.0753 0.152832 67.0663 0.250488L66.7045 4.77441C66.6925 4.87231 66.7613 4.95459 66.8569 4.96387Z" fill="#767676" fill-opacity="1.000000" fill-rule="nonzero"/>
    <path id="Vector" d="M69.8792 5.28125L70.0077 5.29956L69.9031 5.45239C69.8792 5.48291 69.8582 5.52271 69.8522 5.56543L69.8343 5.69678C69.8253 5.75171 69.8672 5.80664 69.915 5.81274L70.1452 5.84644C70.1931 5.85254 70.2468 5.81274 70.2528 5.75781L70.2588 5.72412C70.2648 5.69067 70.2887 5.65698 70.2977 5.64478L70.4531 5.4126C70.4711 5.37891 70.483 5.34546 70.489 5.31177L70.5697 4.73145C70.5817 4.63379 70.5248 4.5542 70.4442 4.54517L69.9897 4.47803C69.8941 4.46265 69.8104 4.52368 69.7985 4.61841L69.7327 5.08887C69.7207 5.18652 69.7834 5.26611 69.8792 5.28125Z" fill="#767676" fill-opacity="1.000000" fill-rule="nonzero"/>
    <path id="Vector" d="M71.7816 5.58032L72.9446 5.83081C73.5336 5.95923 74.1166 5.56812 74.2392 4.96948L74.7744 2.38208C74.9 1.77441 74.5203 1.17871 73.9313 1.05029L72.7682 0.799805C72.6755 0.778564 72.5829 0.845703 72.5649 0.94043L71.6501 5.3728C71.6292 5.47046 71.686 5.55908 71.7816 5.58032ZM73.2436 1.70703L73.7728 1.82007C73.9193 1.85059 74.015 2.00049 73.9851 2.15015L73.4319 4.82593C73.402 4.97559 73.2556 5.07324 73.1091 5.04272L72.5799 4.92969L73.2436 1.70703Z" fill="#767676" fill-opacity="1.000000" fill-rule="nonzero"/>
    <path id="Vector" d="M75.2442 6.40845L75.7047 6.53979C75.7973 6.56738 75.89 6.51245 75.9139 6.42065L77.1188 2.05859C77.1457 1.96411 77.0948 1.86328 77.0022 1.83569L76.5417 1.70435C76.4491 1.677 76.3534 1.73804 76.3295 1.83276L75.1246 6.19482C75.0977 6.28638 75.1515 6.3811 75.2442 6.40845Z" fill="#767676" fill-opacity="1.000000" fill-rule="nonzero"/>
    <path id="Vector" d="M77.1782 6.9978L78.694 7.53857C78.7838 7.57202 78.8794 7.52319 78.9123 7.43164L79.0558 7.01001C79.0887 6.91846 79.0409 6.8208 78.9512 6.78711L78.0542 6.46631L78.5296 5.07666L79.0977 5.27808C79.1874 5.31177 79.283 5.26294 79.3159 5.17139L79.4564 4.76196C79.4893 4.67041 79.4415 4.57251 79.3518 4.53906L78.7838 4.3374L79.1216 3.35693L80.0186 3.67773C80.1082 3.71118 80.2039 3.66235 80.2368 3.5708L80.3803 3.14917C80.4132 3.05762 80.3654 2.95996 80.2756 2.92627L78.7598 2.38574C78.6701 2.35205 78.5745 2.40088 78.5416 2.49243L77.0735 6.7749C77.0436 6.86963 77.0885 6.96729 77.1782 6.9978Z" fill="#767676" fill-opacity="1.000000" fill-rule="nonzero"/>
    <path id="Vector" d="M80.802 8.41895L81.0891 8.54712C81.6392 8.79468 82.2879 8.53809 82.5301 7.97583L82.8679 7.19067C83.1131 6.62256 82.865 5.96875 82.3088 5.71826L82.0219 5.58984C81.8873 5.52271 81.8215 5.36377 81.8813 5.22021L82.0488 4.83228C82.1085 4.69165 82.27 4.63379 82.4075 4.69482L82.6946 4.82324C82.8321 4.88428 82.8978 5.04297 82.8381 5.18359L82.7812 5.31812C82.7424 5.40674 82.7812 5.50732 82.8679 5.54712L83.3044 5.74585C83.3912 5.7854 83.4898 5.74561 83.5287 5.65723L83.5765 5.54712C83.8187 4.98511 83.5735 4.3252 83.0175 4.07471L82.7304 3.94629C82.1803 3.69897 81.5315 3.95557 81.2894 4.51758L81.1309 4.8811C80.8887 5.44336 81.1458 6.09399 81.6929 6.34766L81.98 6.47583C82.1175 6.53687 82.1833 6.6958 82.1235 6.83643L81.7647 7.66724C81.7049 7.80786 81.5435 7.87207 81.403 7.81079L81.1159 7.68262C80.9784 7.62158 80.9156 7.45654 80.9754 7.31299L81.2146 6.75684C81.2535 6.66846 81.2146 6.56763 81.1279 6.52783L80.6914 6.32935C80.6047 6.28955 80.506 6.32935 80.4672 6.41772L80.2399 6.94019C80.0007 7.50854 80.2519 8.17139 80.802 8.41895Z" fill="#767676" fill-opacity="1.000000" fill-rule="nonzero"/>
    <path id="Vector" d="M83.207 9.57935L84.6211 10.3582C84.7048 10.4041 84.8065 10.3735 84.8513 10.2881L85.0576 9.89404C85.1025 9.80835 85.0726 9.70459 84.9889 9.65869L84.1517 9.19751L84.8364 7.90234L85.3656 8.19263C85.4493 8.23828 85.5509 8.20776 85.5958 8.12231L85.7961 7.74048C85.8409 7.65503 85.811 7.55103 85.7274 7.50513L85.1982 7.21509L85.6795 6.29858L86.5166 6.76001C86.6003 6.80566 86.702 6.77515 86.7498 6.6897L86.9561 6.29565C87.001 6.21021 86.9711 6.1062 86.8873 6.0603L85.4732 5.28149C85.3895 5.2356 85.2878 5.26611 85.243 5.35181L83.1382 9.34424C83.0904 9.42969 83.1202 9.53345 83.207 9.57935Z" fill="#767676" fill-opacity="1.000000" fill-rule="nonzero"/>
    <path id="Vector" d="M85.8669 11.1067L87.2213 11.9863C87.302 12.0383 87.4066 12.0139 87.4575 11.9314L87.6907 11.5557C87.7415 11.4731 87.7176 11.3662 87.6398 11.3145L86.8326 10.792L88.8866 7.48389C88.9374 7.40137 88.9135 7.29443 88.8328 7.24268L88.4291 6.97998C88.3484 6.92798 88.2438 6.95239 88.1929 7.03491L85.813 10.8652C85.7622 10.9478 85.7861 11.0547 85.8669 11.1067Z" fill="#767676" fill-opacity="1.000000" fill-rule="nonzero"/>
    <path id="Vector" d="M88.5444 12.1421L88.2723 12.5271C88.2155 12.6064 88.2365 12.7073 88.3142 12.7654L88.4189 12.8416L88.2574 12.9272C88.2215 12.9424 88.1856 12.97 88.1617 13.0034L88.087 13.1104C88.0541 13.1562 88.066 13.2234 88.1049 13.2539L88.2933 13.3914C88.3322 13.4189 88.3979 13.4097 88.4308 13.364L88.4518 13.3364C88.4727 13.3091 88.5085 13.2908 88.5235 13.2847L88.7657 13.1533C88.7957 13.1318 88.8225 13.1074 88.8434 13.0798L89.1783 12.6035C89.2352 12.5239 89.2202 12.4263 89.1514 12.3774L88.7807 12.1055C88.7 12.0505 88.5983 12.0627 88.5444 12.1421Z" fill="#767676" fill-opacity="1.000000" fill-rule="nonzero"/>
    <path id="Vector" d="M90.2502 14.262C90.325 14.323 90.4296 14.3108 90.4894 14.2375L91.781 12.6125L92.2534 13.0034C92.3282 13.0645 92.4328 13.0522 92.4926 12.979L92.7647 12.637C92.8245 12.5605 92.8155 12.4536 92.7408 12.3926L92.2684 12.0015L92.9052 11.2012L93.6467 11.8181C93.7214 11.8794 93.8261 11.8701 93.8859 11.7937L94.1609 11.4456C94.2208 11.3691 94.2088 11.2622 94.137 11.2012L92.8903 10.1655C92.8155 10.1045 92.7109 10.1138 92.6511 10.1899L89.8495 13.7122C89.7898 13.7886 89.8017 13.8955 89.8735 13.9565L90.2502 14.262Z" fill="#767676" fill-opacity="1.000000" fill-rule="nonzero"/>
    <path id="Vector" d="M92.6346 16.3699L93.1788 16.8982C93.5256 17.2344 94.0847 17.2222 94.4165 16.8677L96.9877 14.1064C97.0535 14.0361 97.0565 13.9231 96.9847 13.856L96.6379 13.5198C96.5692 13.4526 96.4586 13.4619 96.3928 13.5322L93.8784 16.2324C93.8126 16.3027 93.702 16.3027 93.6332 16.2324L93.2654 15.875C93.1967 15.8079 93.1877 15.6948 93.2535 15.6245L95.7679 12.9243C95.8337 12.854 95.8367 12.741 95.7649 12.6738L95.4181 12.3376C95.3493 12.2705 95.2387 12.2798 95.1729 12.3499L92.6017 15.1113C92.2758 15.4626 92.2878 16.0339 92.6346 16.3699Z" fill="#767676" fill-opacity="1.000000" fill-rule="nonzero"/>
    <path id="Vector" d="M94.7219 18.499L95.7923 19.7207C95.855 19.7939 95.9627 19.8003 96.0344 19.7329L96.3603 19.4336C96.4321 19.3694 96.438 19.2595 96.3723 19.1863L95.7385 18.4624L96.8118 17.4788L97.2124 17.937C97.2752 18.0103 97.3828 18.0164 97.4546 17.9492L97.7685 17.6589C97.8403 17.5947 97.8462 17.4849 97.7805 17.4116L97.3798 16.9534L98.1362 16.26L98.77 16.981C98.8328 17.0542 98.9405 17.0603 99.0122 16.9932L99.3381 16.6938C99.4099 16.6296 99.4158 16.5195 99.35 16.4463L98.2797 15.2246C98.217 15.1511 98.1093 15.145 98.0376 15.2124L94.7309 18.2393C94.6622 18.3188 94.6592 18.4255 94.7219 18.499Z" fill="#767676" fill-opacity="1.000000" fill-rule="nonzero"/>
    <path id="Vector" d="M96.7064 20.8506L97.6901 22.1458C97.7499 22.2219 97.8545 22.2373 97.9293 22.1763L98.2761 21.9014C98.3508 21.8403 98.3658 21.7334 98.306 21.657L97.72 20.8843L100.749 18.4866C100.823 18.4253 100.838 18.3186 100.779 18.2422L100.486 17.8572C100.426 17.781 100.321 17.7656 100.246 17.8267L96.7363 20.6033C96.6616 20.6643 96.6496 20.7712 96.7064 20.8506Z" fill="#767676" fill-opacity="1.000000" fill-rule="nonzero"/>
    <path id="Vector" d="M100.008 25.7202L100.385 26.3831C100.624 26.8047 101.162 26.9543 101.581 26.7068L104.197 25.1521C104.615 24.9016 104.759 24.3486 104.52 23.9272L104.143 23.2644C103.898 22.8367 103.359 22.6963 102.941 22.9436L100.325 24.4983C99.9031 24.7488 99.7626 25.2925 100.008 25.7202ZM100.812 25.1765L103.291 23.7012C103.374 23.6523 103.473 23.689 103.521 23.7744L103.775 24.2205C103.823 24.3059 103.805 24.4128 103.721 24.4617L101.24 25.937C101.156 25.9861 101.045 25.9553 100.997 25.873L100.743 25.427C100.701 25.3416 100.731 25.2253 100.812 25.1765Z" fill="#767676" fill-opacity="1.000000" fill-rule="nonzero"/>
    <path id="Vector" d="M101.437 28.3867L101.649 28.8235C101.691 28.9121 101.793 28.9456 101.876 28.9028L105.853 26.896C105.94 26.8533 105.979 26.7463 105.937 26.6577L105.724 26.2209C105.683 26.1323 105.575 26.1018 105.488 26.1445L101.512 28.1514C101.428 28.1973 101.392 28.301 101.437 28.3867Z" fill="#767676" fill-opacity="1.000000" fill-rule="nonzero"/>
    <path id="Vector" d="M106.704 28.3503C106.669 28.2588 106.57 28.219 106.48 28.2559L102.387 30.0151C102.301 30.0518 102.259 30.1526 102.298 30.2444L102.919 31.7563C102.955 31.845 103.054 31.8877 103.144 31.8479L103.547 31.6738C103.637 31.6372 103.676 31.5364 103.64 31.4448L103.269 30.5437L106.803 29.0256C106.89 28.9888 106.932 28.8879 106.896 28.7964L106.704 28.3503Z" fill="#767676" fill-opacity="1.000000" fill-rule="nonzero"/>
</svg>
